<?plantuml 1.2026.2?><svg xmlns="http://www.w3.org/2000/svg" xmlns:xlink="http://www.w3.org/1999/xlink" contentStyleType="text/css" data-diagram-type="CLASS" height="722px" preserveAspectRatio="none" style="width:578px;height:722px;background:#FFFFFF;" version="1.1" viewBox="0 0 578 722" width="578px" zoomAndPan="magnify"><defs/><g><!--class monitor_github_ci_emails.GitHubCiEmail--><g class="entity" data-qualified-name="monitor_github_ci_emails.GitHubCiEmail" data-source-line="2" id="ent0002"><rect fill="#F1F1F1" height="334.0188" rx="2.5" ry="2.5" style="stroke:#181818;stroke-width:0.5;" width="221.2852" x="7" y="381.88"/><ellipse cx="65.9398" cy="397.88" fill="#ADD1B2" rx="11" ry="11" style="stroke:#181818;stroke-width:1;"/><path d="M66.0492,393.1613 Q65.1273,393.1613 64.3929,393.4738 Q63.6742,393.7863 63.1742,394.38 Q62.6742,394.9581 62.3929,395.8331 Q62.1273,396.7081 62.1273,397.8019 Q62.1273,399.2394 62.5648,400.2863 Q63.0179,401.3331 63.8617,401.88 Q64.721,402.4269 66.0335,402.4269 Q66.8148,402.4269 67.5023,402.3019 Q68.2054,402.1613 69.2054,401.8488 L69.2054,403.7238 Q68.346,404.0519 67.5804,404.1769 Q66.8304,404.3019 65.8148,404.3019 Q63.8929,404.3019 62.5804,403.505 Q61.2835,402.6925 60.6273,401.2238 Q59.971,399.7394 59.971,397.7706 Q59.971,396.3488 60.3617,395.1769 Q60.7679,393.9894 61.5492,393.1144 Q62.3304,392.2394 63.471,391.7706 Q64.6117,391.2863 66.0804,391.2863 Q67.0335,391.2863 67.9242,391.4894 Q68.8304,391.6769 69.7679,392.1456 L68.9398,393.9269 Q68.1585,393.5519 67.5023,393.3644 Q66.846,393.1613 66.0492,393.1613 Z " fill="#000000"/><text fill="#000000" font-family="sans-serif" font-size="14" lengthAdjust="spacing" textLength="94.9056" x="86.4398" y="403.312">GitHubCiEmail</text><line style="stroke:#181818;stroke-width:0.5;" x1="8" x2="227.2852" y1="413.88" y2="413.88"/><text fill="#000000" font-family="sans-serif" font-size="14" lengthAdjust="spacing" textLength="209.2852" x="13" y="432.8459">annotation_counts : dict[str, int]</text><text fill="#000000" font-family="sans-serif" font-size="14" lengthAdjust="spacing" textLength="74.8437" x="13" y="451.9139">branch : str</text><text fill="#000000" font-family="sans-serif" font-size="14" lengthAdjust="spacing" textLength="185.4433" x="13" y="470.9818">cancelled_jobs : tuple[str, ...]</text><text fill="#000000" font-family="sans-serif" font-size="14" lengthAdjust="spacing" textLength="160.2714" x="13" y="490.0497">failed_jobs : tuple[str, ...]</text><text fill="#000000" font-family="sans-serif" font-size="14" lengthAdjust="spacing" textLength="91.0137" x="13" y="509.1176">head_sha : str</text><text fill="#000000" font-family="sans-serif" font-size="14" lengthAdjust="spacing" textLength="105.7696" x="13" y="528.1855">message_id : str</text><text fill="#000000" font-family="sans-serif" font-size="14" lengthAdjust="spacing" textLength="103.2216" x="13" y="547.2534">received_at : str</text><text fill="#000000" font-family="sans-serif" font-size="14" lengthAdjust="spacing" textLength="133.4895" x="13" y="566.3214">repo_rel : str | None</text><text fill="#000000" font-family="sans-serif" font-size="14" lengthAdjust="spacing" textLength="93.1277" x="13" y="585.3893">repo_slug : str</text><text fill="#000000" font-family="sans-serif" font-size="14" lengthAdjust="spacing" textLength="120.7495" x="13" y="604.4572">run_id : str | None</text><text fill="#000000" font-family="sans-serif" font-size="14" lengthAdjust="spacing" textLength="126.5735" x="13" y="623.5251">run_url : str | None</text><text fill="#000000" font-family="sans-serif" font-size="14" lengthAdjust="spacing" textLength="74.1157" x="13" y="642.593">sender : str</text><text fill="#000000" font-family="sans-serif" font-size="14" lengthAdjust="spacing" textLength="77.7137" x="13" y="661.6609">snippet : str</text><text fill="#000000" font-family="sans-serif" font-size="14" lengthAdjust="spacing" textLength="75.8237" x="13" y="680.7289">subject : str</text><text fill="#000000" font-family="sans-serif" font-size="14" lengthAdjust="spacing" textLength="132.9155" x="13" y="699.7968">workflow_name : str</text><line style="stroke:#181818;stroke-width:0.5;" x1="8" x2="227.2852" y1="707.8988" y2="707.8988"/></g><!--class monitor_github_ci_emails.MonitorConfig--><g class="entity" data-qualified-name="monitor_github_ci_emails.MonitorConfig" data-source-line="19" id="ent0003"><rect fill="#F1F1F1" height="295.8829" rx="2.5" ry="2.5" style="stroke:#181818;stroke-width:0.5;" width="195.3293" x="222.98" y="7"/><ellipse cx="268.5218" cy="23" fill="#ADD1B2" rx="11" ry="11" style="stroke:#181818;stroke-width:1;"/><path d="M268.6312,18.2813 Q267.7093,18.2813 266.9749,18.5938 Q266.2562,18.9063 265.7562,19.5 Q265.2562,20.0781 264.9749,20.9531 Q264.7093,21.8281 264.7093,22.9219 Q264.7093,24.3594 265.1468,25.4063 Q265.5999,26.4531 266.4437,27 Q267.3031,27.5469 268.6156,27.5469 Q269.3968,27.5469 270.0843,27.4219 Q270.7874,27.2813 271.7874,26.9688 L271.7874,28.8438 Q270.9281,29.1719 270.1624,29.2969 Q269.4124,29.4219 268.3968,29.4219 Q266.4749,29.4219 265.1624,28.625 Q263.8656,27.8125 263.2093,26.3438 Q262.5531,24.8594 262.5531,22.8906 Q262.5531,21.4688 262.9437,20.2969 Q263.3499,19.1094 264.1312,18.2344 Q264.9124,17.3594 266.0531,16.8906 Q267.1937,16.4063 268.6624,16.4063 Q269.6156,16.4063 270.5062,16.6094 Q271.4124,16.7969 272.3499,17.2656 L271.5218,19.0469 Q270.7406,18.6719 270.0843,18.4844 Q269.4281,18.2813 268.6312,18.2813 Z " fill="#000000"/><text fill="#000000" font-family="sans-serif" font-size="14" lengthAdjust="spacing" textLength="95.7456" x="289.0218" y="28.432">MonitorConfig</text><line style="stroke:#181818;stroke-width:0.5;" x1="223.98" x2="417.3093" y1="39" y2="39"/><text fill="#000000" font-family="sans-serif" font-size="14" lengthAdjust="spacing" textLength="97.7196" x="228.98" y="57.9659">from_filter : str</text><text fill="#000000" font-family="sans-serif" font-size="14" lengthAdjust="spacing" textLength="124.9355" x="228.98" y="77.0339">gmail_config : Path</text><text fill="#000000" font-family="sans-serif" font-size="14" lengthAdjust="spacing" textLength="57.3298" x="228.98" y="96.1018">limit : int</text><text fill="#000000" font-family="sans-serif" font-size="14" lengthAdjust="spacing" textLength="81.2277" x="228.98" y="115.1697">mailbox : str</text><text fill="#000000" font-family="sans-serif" font-size="14" lengthAdjust="spacing" textLength="183.3293" x="228.98" y="134.2376">messages_file : Path | None</text><text fill="#000000" font-family="sans-serif" font-size="14" lengthAdjust="spacing" textLength="118.3416" x="228.98" y="153.3055">output_json : bool</text><text fill="#000000" font-family="sans-serif" font-size="14" lengthAdjust="spacing" textLength="131.9495" x="228.98" y="172.3734">portfolio_root : Path</text><text fill="#000000" font-family="sans-serif" font-size="14" lengthAdjust="spacing" textLength="133.7695" x="228.98" y="191.4414">processed_label : str</text><text fill="#000000" font-family="sans-serif" font-size="14" lengthAdjust="spacing" textLength="151.5774" x="228.98" y="210.5093">shock_relay_root : Path</text><text fill="#000000" font-family="sans-serif" font-size="14" lengthAdjust="spacing" textLength="98.4616" x="228.98" y="229.5772">since_days : int</text><text fill="#000000" font-family="sans-serif" font-size="14" lengthAdjust="spacing" textLength="99.7776" x="228.98" y="248.6451">state_file : Path</text><text fill="#000000" font-family="sans-serif" font-size="14" lengthAdjust="spacing" textLength="112.8116" x="228.98" y="267.713">subject_filter : str</text><text fill="#000000" font-family="sans-serif" font-size="14" lengthAdjust="spacing" textLength="122.7375" x="228.98" y="286.7809">unseen_only : bool</text><line style="stroke:#181818;stroke-width:0.5;" x1="223.98" x2="417.3093" y1="294.8829" y2="294.8829"/></g><!--class monitor_github_ci_emails.MonitorError--><g class="entity" data-qualified-name="monitor_github_ci_emails.MonitorError" data-source-line="34" id="ent0004"><rect fill="#F1F1F1" height="48" rx="2.5" ry="2.5" style="stroke:#181818;stroke-width:0.5;" width="118.3377" x="453.47" y="130.94"/><ellipse cx="468.47" cy="146.94" fill="#ADD1B2" rx="11" ry="11" style="stroke:#181818;stroke-width:1;"/><path d="M468.5794,142.2212 Q467.6575,142.2212 466.9231,142.5337 Q466.2044,142.8462 465.7044,143.44 Q465.2044,144.0181 464.9231,144.8931 Q464.6575,145.7681 464.6575,146.8619 Q464.6575,148.2994 465.095,149.3462 Q465.5481,150.3931 466.3919,150.94 Q467.2513,151.4869 468.5638,151.4869 Q469.345,151.4869 470.0325,151.3619 Q470.7356,151.2212 471.7356,150.9087 L471.7356,152.7837 Q470.8763,153.1119 470.1106,153.2369 Q469.3606,153.3619 468.345,153.3619 Q466.4231,153.3619 465.1106,152.565 Q463.8138,151.7525 463.1575,150.2837 Q462.5013,148.7994 462.5013,146.8306 Q462.5013,145.4087 462.8919,144.2369 Q463.2981,143.0494 464.0794,142.1744 Q464.8606,141.2994 466.0013,140.8306 Q467.1419,140.3462 468.6106,140.3462 Q469.5638,140.3462 470.4544,140.5494 Q471.3606,140.7369 472.2981,141.2056 L471.47,142.9869 Q470.6888,142.6119 470.0325,142.4244 Q469.3763,142.2212 468.5794,142.2212 Z " fill="#000000"/><text fill="#FF0000" font-family="sans-serif" font-size="14" lengthAdjust="spacing" textLength="86.3377" x="482.47" y="152.372">MonitorError</text><line style="stroke:#181818;stroke-width:0.5;" x1="454.47" x2="570.8077" y1="162.94" y2="162.94"/><line style="stroke:#181818;stroke-width:0.5;" x1="454.47" x2="570.8077" y1="170.94" y2="170.94"/></g><!--class monitor_github_ci_emails.ParsedDetection--><g class="entity" data-qualified-name="monitor_github_ci_emails.ParsedDetection" data-source-line="36" id="ent0005"><rect fill="#F1F1F1" height="105.2038" rx="2.5" ry="2.5" style="stroke:#181818;stroke-width:0.5;" width="140.8916" x="47.2" y="102.34"/><ellipse cx="62.2" cy="118.34" fill="#ADD1B2" rx="11" ry="11" style="stroke:#181818;stroke-width:1;"/><path d="M62.3094,113.6213 Q61.3875,113.6213 60.6531,113.9338 Q59.9344,114.2463 59.4344,114.84 Q58.9344,115.4181 58.6531,116.2931 Q58.3875,117.1681 58.3875,118.2619 Q58.3875,119.6994 58.825,120.7463 Q59.2781,121.7931 60.1219,122.34 Q60.9813,122.8869 62.2938,122.8869 Q63.075,122.8869 63.7625,122.7619 Q64.4656,122.6213 65.4656,122.3088 L65.4656,124.1838 Q64.6063,124.5119 63.8406,124.6369 Q63.0906,124.7619 62.075,124.7619 Q60.1531,124.7619 58.8406,123.965 Q57.5438,123.1525 56.8875,121.6838 Q56.2313,120.1994 56.2313,118.2306 Q56.2313,116.8088 56.6219,115.6369 Q57.0281,114.4494 57.8094,113.5744 Q58.5906,112.6994 59.7313,112.2306 Q60.8719,111.7463 62.3406,111.7463 Q63.2938,111.7463 64.1844,111.9494 Q65.0906,112.1369 66.0281,112.6056 L65.2,114.3869 Q64.4188,114.0119 63.7625,113.8244 Q63.1063,113.6213 62.3094,113.6213 Z " fill="#000000"/><text fill="#000000" font-family="sans-serif" font-size="14" lengthAdjust="spacing" textLength="108.8916" x="76.2" y="123.772">ParsedDetection</text><line style="stroke:#181818;stroke-width:0.5;" x1="48.2" x2="187.0916" y1="134.34" y2="134.34"/><text fill="#000000" font-family="sans-serif" font-size="14" lengthAdjust="spacing" textLength="36.0639" x="53.2" y="153.3059">email</text><text fill="#000000" font-family="sans-serif" font-size="14" lengthAdjust="spacing" textLength="81.2277" x="53.2" y="172.3739">mailbox : str</text><text fill="#000000" font-family="sans-serif" font-size="14" lengthAdjust="spacing" textLength="99.8756" x="53.2" y="191.4418">uid : int | None</text><line style="stroke:#181818;stroke-width:0.5;" x1="48.2" x2="187.0916" y1="199.5438" y2="199.5438"/></g><!--link monitor_github_ci_emails.ParsedDetection to monitor_github_ci_emails.GitHubCiEmail--><g class="link" data-entity-1="ent0005" data-entity-2="ent0002" data-link-type="dependency" data-source-line="41" id="lnk6"><path codeLine="41" d="M117.64,207.99 C117.64,252.55 117.64,313.24 117.64,375.78" fill="none" id="monitor_github_ci_emails.ParsedDetection-to-monitor_github_ci_emails.GitHubCiEmail" style="stroke:#181818;stroke-width:1;"/><polygon fill="#181818" points="117.64,381.78,121.64,372.78,117.64,376.78,113.64,372.78,117.64,381.78" style="stroke:#181818;stroke-width:1;"/><text fill="#000000" font-family="sans-serif" font-size="13" lengthAdjust="spacing" textLength="33.488" x="118.64" y="347.777">email</text></g><?plantuml-src ZLF1Rjim3BtdAuIUs-mU5BbqnNPfKQ37OX1ecRQLog8XKck3hly-oadiD1k27FNu-4I-9p6AYT0Z3-3m6GT889HCf8WB5u3PNFtmyZDNT_w-1n-k3B3fANfbsTPBbolhlCLIu-KNglbO60Cnae1uYjPHZi9cPMhlv8KbNHiVvPUIgWJHTLfHK8zEJnW2rdP3LMcGF0JSTIoNozBHgFwvUeTGM-vWqjGD6LgqlfwWX0xzRrK1ES86iWd33Z1_p6CnOezpoEtCp74IE-8fcjC_xOonnZJrSlJ3WFEjdAiDkldyHkcr2VHcIp9xzFCGnyFE_3kAZM_Fn_65EiRH9EfjuuCSJTCMigOpabRc2QHJDFZUbuaqecAVKYfwFxMJYnRkc-PrASkGnMwOejOgeg3WG4aQ2bxz9PBveY6HKpND8K1rSBwOqf5xBLd0zgI3lRuFMyEMf_bOtnWU3pExUhfkZemOBSMmFGmtUNlhA51Q9QpNU-_kKw9q-st4rnUvFNQesPFe4oJTxZkA3gF_uBp82NaCRIpz9uGylZyruE3yv-9YtPkRzQNVUBKRu2y0?></g></svg>
