<?plantuml 1.2026.2?><svg xmlns="http://www.w3.org/2000/svg" xmlns:xlink="http://www.w3.org/1999/xlink" contentStyleType="text/css" data-diagram-type="CLASS" height="722px" preserveAspectRatio="none" style="width:578px;height:722px;background:#FFFFFF;" version="1.1" viewBox="0 0 578 722" width="578px" zoomAndPan="magnify"><defs/><g><!--class monitor_github_ci_emails.GitHubCiEmail--><g class="entity" data-qualified-name="monitor_github_ci_emails.GitHubCiEmail" data-source-line="2" id="ent0002"><rect fill="#F1F1F1" height="334.0188" rx="2.5" ry="2.5" style="stroke:#181818;stroke-width:0.5;" width="221.2852" x="7" y="381.88"/><ellipse cx="65.9398" cy="397.88" fill="#ADD1B2" rx="11" ry="11" style="stroke:#181818;stroke-width:1;"/><path d="M66.0492,393.4113 Q65.1273,393.4113 64.3929,393.7238 Q63.6742,394.0363 63.1742,394.63 Q62.6742,395.2081 62.3929,396.0831 Q62.1273,396.9581 62.1273,398.0519 Q62.1273,399.4894 62.5648,400.5363 Q63.0179,401.5831 63.8617,402.13 Q64.721,402.6769 66.0335,402.6769 Q66.8148,402.6769 67.5023,402.5519 Q68.2054,402.4113 69.2054,402.0988 L69.2054,403.9738 Q68.346,404.3019 67.5804,404.4269 Q66.8304,404.5519 65.8148,404.5519 Q63.8929,404.5519 62.5804,403.755 Q61.2835,402.9425 60.6273,401.4738 Q59.971,399.9894 59.971,398.0206 Q59.971,396.5988 60.3617,395.4269 Q60.7679,394.2394 61.5492,393.3644 Q62.3304,392.4894 63.471,392.0206 Q64.6117,391.5363 66.0804,391.5363 Q67.0335,391.5363 67.9242,391.7394 Q68.8304,391.9269 69.7679,392.3956 L68.9398,394.1769 Q68.1585,393.8019 67.5023,393.6144 Q66.846,393.4113 66.0492,393.4113 Z " fill="#000000"/><text fill="#000000" font-family="sans-serif" font-size="14" lengthAdjust="spacing" textLength="94.9056" x="86.4398" y="403.312">GitHubCiEmail</text><line style="stroke:#181818;stroke-width:0.5;" x1="8" x2="227.2852" y1="413.88" y2="413.88"/><text fill="#000000" font-family="sans-serif" font-size="14" lengthAdjust="spacing" textLength="209.2852" x="13" y="432.8459">annotation_counts : dict[str, int]</text><text fill="#000000" font-family="sans-serif" font-size="14" lengthAdjust="spacing" textLength="74.8437" x="13" y="451.9139">branch : str</text><text fill="#000000" font-family="sans-serif" font-size="14" lengthAdjust="spacing" textLength="185.4433" x="13" y="470.9818">cancelled_jobs : tuple[str, ...]</text><text fill="#000000" font-family="sans-serif" font-size="14" lengthAdjust="spacing" textLength="160.2714" x="13" y="490.0497">failed_jobs : tuple[str, ...]</text><text fill="#000000" font-family="sans-serif" font-size="14" lengthAdjust="spacing" textLength="91.0137" x="13" y="509.1176">head_sha : str</text><text fill="#000000" font-family="sans-serif" font-size="14" lengthAdjust="spacing" textLength="105.7696" x="13" y="528.1855">message_id : str</text><text fill="#000000" font-family="sans-serif" font-size="14" lengthAdjust="spacing" textLength="103.2216" x="13" y="547.2534">received_at : str</text><text fill="#000000" font-family="sans-serif" font-size="14" lengthAdjust="spacing" textLength="133.4895" x="13" y="566.3214">repo_rel : str | None</text><text fill="#000000" font-family="sans-serif" font-size="14" lengthAdjust="spacing" textLength="93.1277" x="13" y="585.3893">repo_slug : str</text><text fill="#000000" font-family="sans-serif" font-size="14" lengthAdjust="spacing" textLength="120.7495" x="13" y="604.4572">run_id : str | None</text><text fill="#000000" font-family="sans-serif" font-size="14" lengthAdjust="spacing" textLength="126.5735" x="13" y="623.5251">run_url : str | None</text><text fill="#000000" font-family="sans-serif" font-size="14" lengthAdjust="spacing" textLength="74.1157" x="13" y="642.593">sender : str</text><text fill="#000000" font-family="sans-serif" font-size="14" lengthAdjust="spacing" textLength="77.7137" x="13" y="661.6609">snippet : str</text><text fill="#000000" font-family="sans-serif" font-size="14" lengthAdjust="spacing" textLength="75.8237" x="13" y="680.7289">subject : str</text><text fill="#000000" font-family="sans-serif" font-size="14" lengthAdjust="spacing" textLength="132.9155" x="13" y="699.7968">workflow_name : str</text><line style="stroke:#181818;stroke-width:0.5;" x1="8" x2="227.2852" y1="707.8988" y2="707.8988"/></g><!--class monitor_github_ci_emails.MonitorConfig--><g class="entity" data-qualified-name="monitor_github_ci_emails.MonitorConfig" data-source-line="19" id="ent0003"><rect fill="#F1F1F1" height="295.8829" rx="2.5" ry="2.5" style="stroke:#181818;stroke-width:0.5;" width="195.3293" x="222.98" y="7"/><ellipse cx="268.5218" cy="23" fill="#ADD1B2" rx="11" ry="11" style="stroke:#181818;stroke-width:1;"/><path d="M268.6312,18.5313 Q267.7093,18.5313 266.9749,18.8438 Q266.2562,19.1563 265.7562,19.75 Q265.2562,20.3281 264.9749,21.2031 Q264.7093,22.0781 264.7093,23.1719 Q264.7093,24.6094 265.1468,25.6563 Q265.5999,26.7031 266.4437,27.25 Q267.3031,27.7969 268.6156,27.7969 Q269.3968,27.7969 270.0843,27.6719 Q270.7874,27.5313 271.7874,27.2188 L271.7874,29.0938 Q270.9281,29.4219 270.1624,29.5469 Q269.4124,29.6719 268.3968,29.6719 Q266.4749,29.6719 265.1624,28.875 Q263.8656,28.0625 263.2093,26.5938 Q262.5531,25.1094 262.5531,23.1406 Q262.5531,21.7188 262.9437,20.5469 Q263.3499,19.3594 264.1312,18.4844 Q264.9124,17.6094 266.0531,17.1406 Q267.1937,16.6563 268.6624,16.6563 Q269.6156,16.6563 270.5062,16.8594 Q271.4124,17.0469 272.3499,17.5156 L271.5218,19.2969 Q270.7406,18.9219 270.0843,18.7344 Q269.4281,18.5313 268.6312,18.5313 Z " fill="#000000"/><text fill="#000000" font-family="sans-serif" font-size="14" lengthAdjust="spacing" textLength="95.7456" x="289.0218" y="28.432">MonitorConfig</text><line style="stroke:#181818;stroke-width:0.5;" x1="223.98" x2="417.3093" y1="39" y2="39"/><text fill="#000000" font-family="sans-serif" font-size="14" lengthAdjust="spacing" textLength="97.7196" x="228.98" y="57.9659">from_filter : str</text><text fill="#000000" font-family="sans-serif" font-size="14" lengthAdjust="spacing" textLength="124.9355" x="228.98" y="77.0339">gmail_config : Path</text><text fill="#000000" font-family="sans-serif" font-size="14" lengthAdjust="spacing" textLength="57.3298" x="228.98" y="96.1018">limit : int</text><text fill="#000000" font-family="sans-serif" font-size="14" lengthAdjust="spacing" textLength="81.2277" x="228.98" y="115.1697">mailbox : str</text><text fill="#000000" font-family="sans-serif" font-size="14" lengthAdjust="spacing" textLength="183.3293" x="228.98" y="134.2376">messages_file : Path | None</text><text fill="#000000" font-family="sans-serif" font-size="14" lengthAdjust="spacing" textLength="118.3416" x="228.98" y="153.3055">output_json : bool</text><text fill="#000000" font-family="sans-serif" font-size="14" lengthAdjust="spacing" textLength="131.9495" x="228.98" y="172.3734">portfolio_root : Path</text><text fill="#000000" font-family="sans-serif" font-size="14" lengthAdjust="spacing" textLength="133.7695" x="228.98" y="191.4414">processed_label : str</text><text fill="#000000" font-family="sans-serif" font-size="14" lengthAdjust="spacing" textLength="151.5774" x="228.98" y="210.5093">shock_relay_root : Path</text><text fill="#000000" font-family="sans-serif" font-size="14" lengthAdjust="spacing" textLength="98.4616" x="228.98" y="229.5772">since_days : int</text><text fill="#000000" font-family="sans-serif" font-size="14" lengthAdjust="spacing" textLength="99.7776" x="228.98" y="248.6451">state_file : Path</text><text fill="#000000" font-family="sans-serif" font-size="14" lengthAdjust="spacing" textLength="112.8116" x="228.98" y="267.713">subject_filter : str</text><text fill="#000000" font-family="sans-serif" font-size="14" lengthAdjust="spacing" textLength="122.7375" x="228.98" y="286.7809">unseen_only : bool</text><line style="stroke:#181818;stroke-width:0.5;" x1="223.98" x2="417.3093" y1="294.8829" y2="294.8829"/></g><!--class monitor_github_ci_emails.MonitorError--><g class="entity" data-qualified-name="monitor_github_ci_emails.MonitorError" data-source-line="34" id="ent0004"><rect fill="#F1F1F1" height="48" rx="2.5" ry="2.5" style="stroke:#181818;stroke-width:0.5;" width="118.3377" x="453.47" y="130.94"/><ellipse cx="468.47" cy="146.94" fill="#ADD1B2" rx="11" ry="11" style="stroke:#181818;stroke-width:1;"/><path d="M468.5794,142.4712 Q467.6575,142.4712 466.9231,142.7837 Q466.2044,143.0962 465.7044,143.69 Q465.2044,144.2681 464.9231,145.1431 Q464.6575,146.0181 464.6575,147.1119 Q464.6575,148.5494 465.095,149.5962 Q465.5481,150.6431 466.3919,151.19 Q467.2513,151.7369 468.5638,151.7369 Q469.345,151.7369 470.0325,151.6119 Q470.7356,151.4712 471.7356,151.1587 L471.7356,153.0337 Q470.8763,153.3619 470.1106,153.4869 Q469.3606,153.6119 468.345,153.6119 Q466.4231,153.6119 465.1106,152.815 Q463.8138,152.0025 463.1575,150.5337 Q462.5013,149.0494 462.5013,147.0806 Q462.5013,145.6587 462.8919,144.4869 Q463.2981,143.2994 464.0794,142.4244 Q464.8606,141.5494 466.0013,141.0806 Q467.1419,140.5962 468.6106,140.5962 Q469.5638,140.5962 470.4544,140.7994 Q471.3606,140.9869 472.2981,141.4556 L471.47,143.2369 Q470.6888,142.8619 470.0325,142.6744 Q469.3763,142.4712 468.5794,142.4712 Z " fill="#000000"/><text fill="#FF0000" font-family="sans-serif" font-size="14" lengthAdjust="spacing" textLength="86.3377" x="482.47" y="152.372">MonitorError</text><line style="stroke:#181818;stroke-width:0.5;" x1="454.47" x2="570.8077" y1="162.94" y2="162.94"/><line style="stroke:#181818;stroke-width:0.5;" x1="454.47" x2="570.8077" y1="170.94" y2="170.94"/></g><!--class monitor_github_ci_emails.ParsedDetection--><g class="entity" data-qualified-name="monitor_github_ci_emails.ParsedDetection" data-source-line="36" id="ent0005"><rect fill="#F1F1F1" height="105.2038" rx="2.5" ry="2.5" style="stroke:#181818;stroke-width:0.5;" width="140.8916" x="47.2" y="102.34"/><ellipse cx="62.2" cy="118.34" fill="#ADD1B2" rx="11" ry="11" style="stroke:#181818;stroke-width:1;"/><path d="M62.3094,113.8713 Q61.3875,113.8713 60.6531,114.1838 Q59.9344,114.4963 59.4344,115.09 Q58.9344,115.6681 58.6531,116.5431 Q58.3875,117.4181 58.3875,118.5119 Q58.3875,119.9494 58.825,120.9963 Q59.2781,122.0431 60.1219,122.59 Q60.9813,123.1369 62.2938,123.1369 Q63.075,123.1369 63.7625,123.0119 Q64.4656,122.8713 65.4656,122.5588 L65.4656,124.4338 Q64.6063,124.7619 63.8406,124.8869 Q63.0906,125.0119 62.075,125.0119 Q60.1531,125.0119 58.8406,124.215 Q57.5438,123.4025 56.8875,121.9338 Q56.2313,120.4494 56.2313,118.4806 Q56.2313,117.0588 56.6219,115.8869 Q57.0281,114.6994 57.8094,113.8244 Q58.5906,112.9494 59.7313,112.4806 Q60.8719,111.9963 62.3406,111.9963 Q63.2938,111.9963 64.1844,112.1994 Q65.0906,112.3869 66.0281,112.8556 L65.2,114.6369 Q64.4188,114.2619 63.7625,114.0744 Q63.1063,113.8713 62.3094,113.8713 Z " fill="#000000"/><text fill="#000000" font-family="sans-serif" font-size="14" lengthAdjust="spacing" textLength="108.8916" x="76.2" y="123.772">ParsedDetection</text><line style="stroke:#181818;stroke-width:0.5;" x1="48.2" x2="187.0916" y1="134.34" y2="134.34"/><text fill="#000000" font-family="sans-serif" font-size="14" lengthAdjust="spacing" textLength="36.0639" x="53.2" y="153.3059">email</text><text fill="#000000" font-family="sans-serif" font-size="14" lengthAdjust="spacing" textLength="81.2277" x="53.2" y="172.3739">mailbox : str</text><text fill="#000000" font-family="sans-serif" font-size="14" lengthAdjust="spacing" textLength="99.8756" x="53.2" y="191.4418">uid : int | None</text><line style="stroke:#181818;stroke-width:0.5;" x1="48.2" x2="187.0916" y1="199.5438" y2="199.5438"/></g><!--link monitor_github_ci_emails.ParsedDetection to monitor_github_ci_emails.GitHubCiEmail--><g class="link" data-entity-1="ent0005" data-entity-2="ent0002" data-link-type="dependency" data-source-line="41" id="lnk6"><path codeLine="41" d="M117.64,207.99 C117.64,252.55 117.64,313.24 117.64,375.78" fill="none" id="monitor_github_ci_emails.ParsedDetection-to-monitor_github_ci_emails.GitHubCiEmail" style="stroke:#181818;stroke-width:1;"/><polygon fill="#181818" points="117.64,381.78,121.64,372.78,117.64,376.78,113.64,372.78,117.64,381.78" style="stroke:#181818;stroke-width:1;"/><text fill="#000000" font-family="sans-serif" font-size="13" lengthAdjust="spacing" textLength="33.488" x="118.64" y="347.777">email</text></g><?plantuml-src ZLF1Rjim3BtdAuIUs-mU5BbqnNPfKQ37OX1ecRQLog8XKck3hly-oadiD1k27FNu-4I-9p6AYT0Z3-3m6GT889HCf8WB5u3PNFtmyZDNT_w-1n-k3B3fANfbsTPBbolhlCLIu-KNglbO60Cnae1uYjPHZi9cPMhlv8KbNHiVvPUIgWJHTLfHK8zEJnW2rdP3LMcGF0JSTIoNozBHgFwvUeTGM-vWqjGD6LgqlfwWX0xzRrK1ES86iWd33Z1_p6CnOezpoEtCp74IE-8fcjC_xOonnZJrSlJ3WFEjdAiDkldyHkcr2VHcIp9xzFCGnyFE_3kAZM_Fn_65EiRH9EfjuuCSJTCMigOpabRc2QHJDFZUbuaqecAVKYfwFxMJYnRkc-PrASkGnMwOejOgeg3WG4aQ2bxz9PBveY6HKpND8K1rSBwOqf5xBLd0zgI3lRuFMyEMf_bOtnWU3pExUhfkZemOBSMmFGmtUNlhA51Q9QpNU-_kKw9q-st4rnUvFNQesPFe4oJTxZkA3gF_uBp82NaCRIpz9uGylZyruE3yv-9YtPkRzQNVUBKRu2y0?></g></svg>
