<?plantuml 1.2026.2?><svg xmlns="http://www.w3.org/2000/svg" xmlns:xlink="http://www.w3.org/1999/xlink" contentStyleType="text/css" data-diagram-type="DESCRIPTION" height="578px" preserveAspectRatio="none" style="width:1880px;height:578px;background:#FFFFFF;" version="1.1" viewBox="0 0 1880 578" width="1880px" zoomAndPan="magnify"><title>traction-control Repository Architecture</title><defs/><g><g class="title" data-source-line="2"><text fill="#000000" font-family="Monospace" font-size="14" font-weight="bold" lengthAdjust="spacing" textLength="277.584" x="785.208" y="24.9659">traction-control&#160;Repository&#160;Architecture</text></g><!--cluster Control Plane Docs--><g class="cluster" data-qualified-name="Control Plane Docs" data-source-line="9" id="ent0003"><rect fill="#F8FAFC" height="219" rx="2.5" ry="2.5" style="stroke:#181818;stroke-width:1;" width="655" x="618.3262" y="165.0679"/><text fill="#000000" font-family="Monospace" font-size="14" font-weight="bold" lengthAdjust="spacing" textLength="131.7675" x="879.9424" y="182.0339">Control&#160;Plane&#160;Docs</text></g><!--cluster Portfolio Boundary--><g class="cluster" data-qualified-name="Portfolio Boundary" data-source-line="16" id="ent0008"><rect fill="#F8FAFC" height="226.5" rx="2.5" ry="2.5" style="stroke:#181818;stroke-width:1;" width="196" x="30.3262" y="44.0679"/><text fill="#000000" font-family="Monospace" font-size="14" font-weight="bold" lengthAdjust="spacing" textLength="132.093" x="62.2796" y="61.0339">Portfolio&#160;Boundary</text></g><!--cluster Shared Utility Repos--><g class="cluster" data-qualified-name="Shared Utility Repos" data-source-line="21" id="ent0011"><rect fill="#F8FAFC" height="115" rx="2.5" ry="2.5" style="stroke:#181818;stroke-width:1;" width="376" x="234.3262" y="155.5679"/><text fill="#000000" font-family="Monospace" font-size="14" font-weight="bold" lengthAdjust="spacing" textLength="140.3425" x="352.1549" y="172.5339">Shared&#160;Utility&#160;Repos</text></g><!--cluster Governance Loop--><g class="cluster" data-qualified-name="Governance Loop" data-source-line="26" id="ent0014"><rect fill="#F8FAFC" height="293.5" rx="2.5" ry="2.5" style="stroke:#181818;stroke-width:1;" width="390" x="194.3262" y="278.5679"/><text fill="#000000" font-family="Monospace" font-size="14" font-weight="bold" lengthAdjust="spacing" textLength="121.8765" x="328.3879" y="295.5339">Governance&#160;Loop</text></g><!--cluster Repo Self Validation--><g class="cluster" data-qualified-name="Repo Self Validation" data-source-line="33" id="ent0019"><rect fill="#F8FAFC" height="200" rx="2.5" ry="2.5" style="stroke:#181818;stroke-width:1;" width="200" x="1281.3262" y="165.0679"/><text fill="#000000" font-family="Monospace" font-size="14" font-weight="bold" lengthAdjust="spacing" textLength="138.5785" x="1312.0369" y="182.0339">Repo&#160;Self&#160;Validation</text></g><!--entity agent--><g class="entity" data-qualified-name="agent" data-source-line="7" id="ent0002"><ellipse cx="941.114" cy="77.0679" fill="#F1F1F1" rx="8" ry="8" style="stroke:#181818;stroke-width:0.5;"/><path d="M941.114,85.0679 L941.114,112.0679 M928.114,93.0679 L954.114,93.0679 M941.114,112.0679 L928.114,127.0679 M941.114,112.0679 L954.114,127.0679" fill="none" style="stroke:#181818;stroke-width:0.5;"/><text fill="#000000" font-family="Monospace" font-size="14" lengthAdjust="spacing" textLength="114.5756" x="883.8262" y="143.5339">Cross-repo&#160;Agent</text></g><g class="entity" data-qualified-name="GMN36" data-source-line="58" id="ent0037"><path d="M1489.3262,306.0679 L1489.3262,369.186 A0,0 0 0 0 1489.3262,369.186 L1873.6504,369.186 A0,0 0 0 0 1873.6504,369.186 L1873.6504,316.0679 L1863.6504,306.0679 L1602.3572,306.0679 L1234.4953,298.8211 L1594.3572,306.0679 L1489.3262,306.0679 A0,0 0 0 0 1489.3262,306.0679" fill="#FEFFDD" style="stroke:#181818;stroke-width:0.5;"/><path d="M1863.6504,306.0679 L1863.6504,316.0679 L1873.6504,316.0679 L1863.6504,306.0679" fill="#FEFFDD" style="stroke:#181818;stroke-width:0.5;"/><text fill="#000000" font-family="Monospace" font-size="13" lengthAdjust="spacing" textLength="250.9263" x="1495.3262" y="324.9649">This&#160;repo&#160;is&#160;documentation-driven&#160;today.</text><text fill="#000000" font-family="Monospace" font-size="13" lengthAdjust="spacing" textLength="303.0173" x="1495.3262" y="342.6709">There&#160;is&#160;no&#160;local&#160;control-plane&#160;daemon&#160;or&#160;CLI&#160;yet;</text><text fill="#000000" font-family="Monospace" font-size="13" lengthAdjust="spacing" textLength="363.3242" x="1495.3262" y="360.377">the&#160;governance&#160;loop&#160;is&#160;executed&#160;by&#160;agents&#160;following&#160;policy.</text></g><!--entity agents_doc--><g class="entity" data-qualified-name="Control Plane Docs.agents_doc" data-source-line="10" id="ent0004"><rect fill="#E2E8F0" height="58.1358" rx="2.5" ry="2.5" style="stroke:#181818;stroke-width:0.5;" width="225.2392" x="828.8262" y="195.0679"/><text fill="#000000" font-family="Monospace" font-size="14" lengthAdjust="spacing" textLength="78.4837" x="838.8262" y="220.0339">AGENTS.md</text><text fill="#000000" font-family="Monospace" font-size="14" lengthAdjust="spacing" textLength="205.2392" x="838.8262" y="239.1018">portfolio&#160;rules&#160;+&#160;repo&#160;inventory</text></g><!--entity lessons_doc--><g class="entity" data-qualified-name="Control Plane Docs.lessons_doc" data-source-line="11" id="ent0005"><rect fill="#E2E8F0" height="58.1358" rx="2.5" ry="2.5" style="stroke:#181818;stroke-width:0.5;" width="183.9394" x="626.3262" y="195.0679"/><text fill="#000000" font-family="Monospace" font-size="14" lengthAdjust="spacing" textLength="146.6214" x="636.3262" y="220.0339">LESSONSLEARNED.md</text><text fill="#000000" font-family="Monospace" font-size="14" lengthAdjust="spacing" textLength="163.9394" x="636.3262" y="239.1018">durable&#160;portfolio&#160;lessons</text></g><!--entity history_doc--><g class="entity" data-qualified-name="Control Plane Docs.history_doc" data-source-line="12" id="ent0006"><rect fill="#E2E8F0" height="58.1358" rx="2.5" ry="2.5" style="stroke:#181818;stroke-width:0.5;" width="192.8153" x="1071.8262" y="195.0679"/><text fill="#000000" font-family="Monospace" font-size="14" lengthAdjust="spacing" textLength="119.5595" x="1081.8262" y="220.0339">CHATHISTORY.md</text><text fill="#000000" font-family="Monospace" font-size="14" lengthAdjust="spacing" textLength="172.8153" x="1081.8262" y="239.1018">local&#160;cross-repo&#160;continuity</text></g><!--entity repo_docs--><g class="entity" data-qualified-name="Control Plane Docs.repo_docs" data-source-line="13" id="ent0007"><rect fill="#DBEAFE" height="77.2038" rx="2.5" ry="2.5" style="stroke:#181818;stroke-width:0.5;" width="149.8075" x="1115.3262" y="299.0679"/><text fill="#000000" font-family="Monospace" font-size="14" lengthAdjust="spacing" textLength="81.5917" x="1125.3262" y="324.0339">README.md</text><text fill="#000000" font-family="Monospace" font-size="14" lengthAdjust="spacing" textLength="129.8075" x="1125.3262" y="343.1018">CONTRIBUTING.md</text><text fill="#000000" font-family="Monospace" font-size="14" lengthAdjust="spacing" textLength="110.6976" x="1125.3262" y="362.1697">CHANGELOG.md</text></g><!--entity portfolio_root--><g class="entity" data-qualified-name="Portfolio Boundary.portfolio_root" data-source-line="17" id="ent0009"><rect fill="#FCE7F3" height="67.6698" rx="2.5" ry="2.5" style="stroke:#181818;stroke-width:0.5;" width="108.1717" x="56.3262" y="74.0679"/><text fill="#000000" font-family="Monospace" font-size="14" lengthAdjust="spacing" textLength="88.1717" x="66.3262" y="99.0339">Portfolio&#160;root</text><line style="stroke:#181818;stroke-width:1;stroke-dasharray:1,2;" x1="57.3262" x2="107.808" y1="112.6698" y2="112.6698"/><text fill="#000000" font-family="Monospace" font-size="14" lengthAdjust="spacing" textLength="5.208" x="107.808" y="117.6018">/</text><line style="stroke:#181818;stroke-width:1;stroke-dasharray:1,2;" x1="113.016" x2="163.4979" y1="112.6698" y2="112.6698"/></g><!--entity target_docs--><g class="entity" data-qualified-name="Portfolio Boundary.target_docs" data-source-line="18" id="ent0010"><rect fill="#FCE7F3" height="77.2038" rx="2.5" ry="2.5" style="stroke:#181818;stroke-width:0.5;" width="179.5014" x="38.3262" y="185.5679"/><text fill="#000000" font-family="Monospace" font-size="14" lengthAdjust="spacing" textLength="159.5014" x="48.3262" y="210.5339">Target&#160;repo&#160;AGENTS.md</text><text fill="#000000" font-family="Monospace" font-size="14" lengthAdjust="spacing" textLength="146.6214" x="48.3262" y="229.6018">LESSONSLEARNED.md</text><text fill="#000000" font-family="Monospace" font-size="14" lengthAdjust="spacing" textLength="119.5595" x="48.3262" y="248.6697">CHATHISTORY.md</text></g><!--entity archility--><g class="entity" data-qualified-name="Shared Utility Repos.archility" data-source-line="22" id="ent0012"><rect fill="#E0F2FE" height="58.1358" rx="2.5" ry="2.5" style="stroke:#181818;stroke-width:0.5;" width="232.8972" x="368.8262" y="195.0679"/><text fill="#000000" font-family="Monospace" font-size="14" lengthAdjust="spacing" textLength="64.7497" x="378.8262" y="220.0339">../archility</text><text fill="#000000" font-family="Monospace" font-size="14" lengthAdjust="spacing" textLength="212.8972" x="378.8262" y="239.1018">architecture&#160;generation&#160;/&#160;render</text></g><!--entity utility_refs--><g class="entity" data-qualified-name="Shared Utility Repos.utility_refs" data-source-line="23" id="ent0013"><rect fill="#E0F2FE" height="77.2038" rx="2.5" ry="2.5" style="stroke:#181818;stroke-width:0.5;" width="107.5276" x="242.3262" y="185.5679"/><text fill="#000000" font-family="Monospace" font-size="14" lengthAdjust="spacing" textLength="77.1257" x="252.3262" y="210.5339">../auto-pass</text><text fill="#000000" font-family="Monospace" font-size="14" lengthAdjust="spacing" textLength="67.2557" x="252.3262" y="229.6018">../nordility</text><text fill="#000000" font-family="Monospace" font-size="14" lengthAdjust="spacing" textLength="87.5276" x="252.3262" y="248.6697">../shock-relay</text></g><!--entity scan--><g class="entity" data-qualified-name="Governance Loop.scan" data-source-line="27" id="ent0015"><rect fill="#DCFCE7" height="58.1358" rx="2.5" ry="2.5" style="stroke:#181818;stroke-width:0.5;" width="167.9374" x="408.3262" y="308.5679"/><text fill="#000000" font-family="Monospace" font-size="14" lengthAdjust="spacing" textLength="90.3277" x="418.3262" y="333.5339">Portfolio&#160;scan</text><text fill="#000000" font-family="Monospace" font-size="14" lengthAdjust="spacing" textLength="147.9374" x="418.3262" y="352.6018">repo&#160;inventory&#160;refresh</text></g><!--entity remediation--><g class="entity" data-qualified-name="Governance Loop.remediation" data-source-line="28" id="ent0016"><rect fill="#DCFCE7" height="58.1358" rx="2.5" ry="2.5" style="stroke:#181818;stroke-width:0.5;" width="188.1254" x="202.3262" y="308.5679"/><text fill="#000000" font-family="Monospace" font-size="14" lengthAdjust="spacing" textLength="109.1716" x="212.3262" y="333.5339">Standards&#160;pass&#160;/</text><text fill="#000000" font-family="Monospace" font-size="14" lengthAdjust="spacing" textLength="168.1254" x="212.3262" y="352.6018">repo-specific&#160;remediation</text></g><!--entity verify--><g class="entity" data-qualified-name="Governance Loop.verify" data-source-line="29" id="ent0017"><rect fill="#DCFCE7" height="58.1358" rx="2.5" ry="2.5" style="stroke:#181818;stroke-width:0.5;" width="229.7332" x="207.3262" y="412.0679"/><text fill="#000000" font-family="Monospace" font-size="14" lengthAdjust="spacing" textLength="74.4797" x="217.3262" y="437.0339">Verification</text><text fill="#000000" font-family="Monospace" font-size="14" lengthAdjust="spacing" textLength="209.7332" x="217.3262" y="456.1018">local&#160;checks&#160;+&#160;hosted&#160;workflows</text></g><!--entity continuity--><g class="entity" data-qualified-name="Governance Loop.continuity" data-source-line="30" id="ent0018"><rect fill="#DCFCE7" height="58.1358" rx="2.5" ry="2.5" style="stroke:#181818;stroke-width:0.5;" width="250.5651" x="202.8262" y="506.0679"/><text fill="#000000" font-family="Monospace" font-size="14" lengthAdjust="spacing" textLength="118.0615" x="212.8262" y="531.0339">Continuity&#160;update</text><text fill="#000000" font-family="Monospace" font-size="14" lengthAdjust="spacing" textLength="230.5651" x="212.8262" y="550.1018">CHATHISTORY&#160;+&#160;LESSONSLEARNED</text></g><!--entity ci--><g class="entity" data-qualified-name="Repo Self Validation.ci" data-source-line="34" id="ent0020"><rect fill="#DCFCE7" height="58.1358" rx="2.5" ry="2.5" style="stroke:#181818;stroke-width:0.5;" width="182.6234" x="1289.8262" y="195.0679"/><text fill="#000000" font-family="Monospace" font-size="14" lengthAdjust="spacing" textLength="162.6234" x="1299.8262" y="220.0339">.github/workflows/ci.yml</text><text fill="#000000" font-family="Monospace" font-size="14" lengthAdjust="spacing" textLength="76.8317" x="1299.8262" y="239.1018">pre-commit</text></g><!--entity precommit--><g class="entity" data-qualified-name="Repo Self Validation.precommit" data-source-line="35" id="ent0021"><rect fill="#DCFCE7" height="39.0679" rx="2.5" ry="2.5" style="stroke:#181818;stroke-width:0.5;" width="181.4194" x="1289.8262" y="318.0679"/><text fill="#000000" font-family="Monospace" font-size="14" lengthAdjust="spacing" textLength="161.4194" x="1299.8262" y="343.0339">.pre-commit-config.yaml</text></g><g class="link" data-entity-1="ent0002" data-entity-2="ent0004" data-link-type="dependency" id="lnk22"><polygon fill="#181818" points="941.3262,194.9613,945.3262,185.9613,941.3262,189.9613,937.3262,185.9613,941.3262,194.9613" style="stroke:#181818;stroke-width:1;"/><path d="M941.3262,147.6631 C941.3262,163.1657 941.3262,174.7031 941.3262,188.9613" fill="none" style="stroke:#181818;stroke-width:1;"/></g><g class="link" data-entity-1="ent0002" data-entity-2="ent0005" data-link-type="dependency" id="lnk23"><polygon fill="#181818" points="755.9283,194.991,765.5894,193.0769,760.0156,192.111,760.9814,186.5372,755.9283,194.991" style="stroke:#181818;stroke-width:1;"/><path d="M883.6831,128.0136 C862.9487,135.6107 839.668,145.0643 819.3262,155.5679 C797.401,166.8891 779.3249,178.5053 760.833,191.535" fill="none" style="stroke:#181818;stroke-width:1;"/></g><g class="link" data-entity-1="ent0002" data-entity-2="ent0006" data-link-type="dependency" id="lnk24"><polygon fill="#181818" points="1128.1706,194.8078,1122.9041,186.4853,1124.0114,192.0327,1118.464,193.14,1128.1706,194.8078" style="stroke:#181818;stroke-width:1;"/><path d="M998.9746,128.5389 C1019.3718,136.1252 1042.2308,145.4368 1062.3262,155.5679 C1084.9246,166.961 1103.8164,178.5583 1123.1796,191.4777" fill="none" style="stroke:#181818;stroke-width:1;"/></g><g class="link" data-entity-1="ent0004" data-entity-2="ent0007" data-link-type="dependency" id="lnk25"><polygon fill="#181818" points="1115.0902,302.8779,1108.5109,295.549,1110.5268,300.8345,1105.2414,302.8504,1115.0902,302.8779" style="stroke:#181818;stroke-width:1;"/><path d="M1004.1594,253.2041 C1037.8719,268.3003 1074.1791,284.5583 1109.6141,300.4258" fill="none" style="stroke:#181818;stroke-width:1;"/></g><g class="link" data-entity-1="ent0004" data-entity-2="ent0015" data-link-type="dependency" id="lnk26"><polygon fill="#181818" points="539.9118,308.4239,549.7402,307.7882,544.3403,306.1025,546.026,300.7026,539.9118,308.4239" style="stroke:#181818;stroke-width:1;"/><path d="M877.8627,253.0794 C859.3416,260.0558 838.8305,266.655 819.3262,270.5679 C729.927,288.5029 702.8629,256.7707 614.3262,278.5679 C588.5935,284.9032 567.1216,294.1606 545.226,305.6382" fill="none" style="stroke:#181818;stroke-width:1;"/></g><g class="link" data-entity-1="ent0015" data-entity-2="ent0009" data-link-type="dependency" id="lnk27"><polygon fill="#181818" points="56.0779,129.63,46.3212,130.9744,51.8288,132.2654,50.5378,137.773,56.0779,129.63" style="stroke:#181818;stroke-width:1;"/><path d="M457.4166,308.5475 C440.8311,296.9423 420.1151,284.7631 399.3262,278.5679 C379.6221,272.696 43.7065,285.2626 29.3262,270.5679 C-6.4221,234.0384 3.7162,199.8 29.3262,155.5679 C35.5822,144.7628 40.304,139.4133 50.9789,132.7925" fill="none" style="stroke:#181818;stroke-width:1;"/></g><g class="link" data-entity-1="ent0009" data-entity-2="ent0010" data-link-type="dependency" id="lnk28"><polygon fill="#181818" points="122.4009,185.5414,124.9483,176.0277,121.6211,180.6026,117.0462,177.2754,122.4009,185.5414" style="stroke:#181818;stroke-width:1;"/><path d="M115.5809,142.3479 C117.7185,155.8862 119.2635,165.6708 121.4652,179.6148" fill="none" style="stroke:#181818;stroke-width:1;"/></g><g class="link" data-entity-1="ent0010" data-entity-2="ent0016" data-link-type="dependency" id="lnk29"><polygon fill="#181818" points="254.1157,308.5532,248.8289,300.2436,249.9497,305.7883,244.405,306.9091,254.1157,308.5532" style="stroke:#181818;stroke-width:1;"/><path d="M185.2033,262.8167 C207.7637,277.7899 228.249,291.3858 249.1165,305.2353" fill="none" style="stroke:#181818;stroke-width:1;"/></g><g class="link" data-entity-1="ent0012" data-entity-2="ent0016" data-link-type="dependency" id="lnk30"><polygon fill="#181818" points="344.0036,308.4408,353.7877,307.3129,348.31,305.9002,349.7227,300.4226,344.0036,308.4408" style="stroke:#181818;stroke-width:1;"/><path d="M437.6335,253.2041 C408.9825,270.1066 377.8196,288.4911 349.1713,305.3921" fill="none" style="stroke:#181818;stroke-width:1;"/></g><g class="link" data-entity-1="ent0013" data-entity-2="ent0016" data-link-type="dependency" id="lnk31"><polygon fill="#181818" points="296.3262,308.3777,300.3262,299.3777,296.3262,303.3777,292.3262,299.3777,296.3262,308.3777" style="stroke:#181818;stroke-width:1;"/><path d="M296.3262,262.8167 C296.3262,277.7267 296.3262,288.5609 296.3262,302.3777" fill="none" style="stroke:#181818;stroke-width:1;"/></g><g class="link" data-entity-1="ent0016" data-entity-2="ent0017" data-link-type="dependency" id="lnk32"><polygon fill="#181818" points="315.0859,411.8029,316.7275,402.0919,313.8451,406.9593,308.9777,404.077,315.0859,411.8029" style="stroke:#181818;stroke-width:1;"/><path d="M303.4996,366.5719 C307.107,380.6548 309.9803,391.8716 313.597,405.9906" fill="none" style="stroke:#181818;stroke-width:1;"/></g><g class="link" data-entity-1="ent0017" data-entity-2="ent0018" data-link-type="dependency" id="lnk33"><polygon fill="#181818" points="326.4839,505.8201,329.8897,496.5788,326.1585,500.8307,321.9067,497.0995,326.4839,505.8201" style="stroke:#181818;stroke-width:1;"/><path d="M324.159,470.1708 C324.8965,481.4792 325.355,488.5099 326.0934,499.8328" fill="none" style="stroke:#181818;stroke-width:1;"/></g><g class="link" data-entity-1="ent0020" data-entity-2="ent0021" data-link-type="dependency" id="lnk34"><polygon fill="#181818" points="1380.4936,317.8975,1384.5742,308.9337,1380.5385,312.8977,1376.5745,308.862,1380.4936,317.8975" style="stroke:#181818;stroke-width:1;"/><path d="M1381.0738,253.2041 C1380.8921,273.4613 1380.7059,294.2263 1380.5474,311.8977" fill="none" style="stroke:#181818;stroke-width:1;"/></g><g class="link" data-entity-1="ent0020" data-entity-2="ent0007" data-link-type="dependency" id="lnk35"><polygon fill="#181818" points="1244.9561,298.7939,1254.6766,297.2095,1249.1389,296.0546,1250.2937,290.5169,1244.9561,298.7939" style="stroke:#181818;stroke-width:1;"/><path d="M1324.0229,253.0805 C1308.6669,260.9828 1292.2036,269.8198 1277.3262,278.5679 C1266.6854,284.8248 1260.5786,288.5629 1249.9755,295.5068" fill="none" style="stroke:#181818;stroke-width:1;"/></g><?plantuml-src ZLLHQzim47xthxYrZoFEs1vM60pSr6aBMLhYj30e55MMRH5PCfBSpepzzvrarvQx1lPcwqxVtNtttUb3eqbP4n2aKwq5KpDB98aijuA1rOHQhkI2Accr4h1ZZJBSAjr1ecd5BQEsrImo1ouReaaDfYAvUk6oX8884rfoLf1Ms3L2RKdDu8UIoZI4XZxuUo0boso7qJM24raA5aMOXj9mijBAc8N6920fcRGdG0mGznL5mrLq6dAz5KGok53KdC3f-coTh5VmEu895awIotIxp-8wVv2DqhPGWYlGhM06Fe8Fm-KpecEzKoZpc2iAf-ddz6pzQOwtIRFiPfjjqcItJIyyRjvgyeIs2H_HZPB60mxVnn5NLyd-wZhRt-n-UZYXA1509nvSPxXikUqphBXnsHu7tAN9nO_KOwrkjllTzVdT_dfxsHzS9TlBT7FZ_ZoQY-2W39nUdAV9Eet-14JVZYMTgrRcn95qXEZ9LIjb7sGSB-FOXnXvUNGMlBzAlww_p6_lYIwPxHiIjEmTjkTq-G3MNnwg6D33AhAAQ9R3dUK2IUmLVhGEp9iutJlN1qc24G2K1jF4JGiiyOhCcUury-gF_VYq_emS_eFOMhLeY36U5wbqFk3ZdwaKFM2dSJmzMjkd-QXPOKR0i9nBzSoq998os2ZL_4T732NoGSxLZfw5PgRoCPq32c3bo9k3PFY1VS-nZPW-B7kOXMaOvGMdw5gpd7jI1ZsD_-y3tZFjBdgFKUmLemSta9Ko5ZlrelIX4Egbdw1dTwDx7sqrpWQqJKuicma44USAydZJF8sO8RrE7f0nKS0z4JmVIZkcbfBRgdrQZXalAO-xMk2sqGntQbtpVeLH_du1yUJdLd31oxWZjUW71_sy9SpJBoXOBBu7goeu3DPDS1hiZ2ZOSCuqBe3ehSM98lBAS7_pAOxU3BNp2COm2aUoZpBA0kECy_BMDDF-F_T2RJbZBuneq8SxcLeRHSYup_kLnDU3e62fBBv1lAmig28m0EoHiU5vC81dROtK-CYBN7CS8R0g9rtiNHdk1dIJkFXxEVVFqwBnprDEM8q9u-Essbn3n-mtl6GhN2VJ70kSOmV1VZ7QkWbuweRs0f8i-jUsGRefXiJ50oxplm00?></g></svg>
