<?plantuml 1.2026.2?><svg xmlns="http://www.w3.org/2000/svg" xmlns:xlink="http://www.w3.org/1999/xlink" contentStyleType="text/css" data-diagram-type="DESCRIPTION" height="2992px" preserveAspectRatio="none" style="width:650px;height:2992px;background:#FFFFFF;" version="1.1" viewBox="0 0 650 2992" width="650px" zoomAndPan="magnify"><title>traction-control Shell Script Flow</title><defs/><g><g class="title" data-source-line="1"><text fill="#000000" font-family="Monospace" font-size="14" font-weight="bold" lengthAdjust="spacing" textLength="226.2217" x="205.3874" y="24.9659">traction-control&#160;Shell&#160;Script&#160;Flow</text></g><!--entity shell_scripts_archility_daily_sh--><g class="entity" data-qualified-name="shell_scripts_archility_daily_sh" data-source-line="7" id="ent0002"><rect fill="#DBEAFE" height="77.2038" rx="2.5" ry="2.5" style="stroke:#181818;stroke-width:0.5;" width="174.8814" x="68.32" y="2762.0179"/><text fill="#000000" font-family="Monospace" font-size="14" lengthAdjust="spacing" textLength="154.8814" x="78.32" y="2786.9839">scripts/archility-daily.sh</text><text fill="#000000" font-family="Monospace" font-size="14" lengthAdjust="spacing" textLength="119.3915" x="78.32" y="2806.0518">0&#160;local&#160;shell&#160;edges</text><text fill="#000000" font-family="Monospace" font-size="14" lengthAdjust="spacing" textLength="101.7516" x="78.32" y="2825.1197">6&#160;external&#160;tools</text></g><!--entity shell_scripts_archility_weekly_sh--><g class="entity" data-qualified-name="shell_scripts_archility_weekly_sh" data-source-line="8" id="ent0003"><rect fill="#DBEAFE" height="77.2038" rx="2.5" ry="2.5" style="stroke:#181818;stroke-width:0.5;" width="189.0773" x="61.22" y="2650.0179"/><text fill="#000000" font-family="Monospace" font-size="14" lengthAdjust="spacing" textLength="169.0773" x="71.22" y="2674.9839">scripts/archility-weekly.sh</text><text fill="#000000" font-family="Monospace" font-size="14" lengthAdjust="spacing" textLength="119.3915" x="71.22" y="2694.0518">0&#160;local&#160;shell&#160;edges</text><text fill="#000000" font-family="Monospace" font-size="14" lengthAdjust="spacing" textLength="101.7516" x="71.22" y="2713.1197">6&#160;external&#160;tools</text></g><!--entity shell_scripts_check_github_push_ci_sh--><g class="entity" data-qualified-name="shell_scripts_check_github_push_ci_sh" data-source-line="9" id="ent0004"><rect fill="#DBEAFE" height="77.2038" rx="2.5" ry="2.5" style="stroke:#181818;stroke-width:0.5;" width="229.7612" x="40.88" y="732.0179"/><text fill="#000000" font-family="Monospace" font-size="14" lengthAdjust="spacing" textLength="209.7612" x="50.88" y="756.9839">scripts/check_github_push_ci.sh</text><text fill="#000000" font-family="Monospace" font-size="14" lengthAdjust="spacing" textLength="119.3915" x="50.88" y="776.0518">0&#160;local&#160;shell&#160;edges</text><text fill="#000000" font-family="Monospace" font-size="14" lengthAdjust="spacing" textLength="101.7516" x="50.88" y="795.1197">9&#160;external&#160;tools</text></g><!--entity shell_scripts_install_archility_daily_systemd_sh--><g class="entity" data-qualified-name="shell_scripts_install_archility_daily_systemd_sh" data-source-line="10" id="ent0005"><rect fill="#DBEAFE" height="77.2038" rx="2.5" ry="2.5" style="stroke:#181818;stroke-width:0.5;" width="283.325" x="14.1" y="270.0179"/><text fill="#000000" font-family="Monospace" font-size="14" lengthAdjust="spacing" textLength="263.325" x="24.1" y="294.9839">scripts/install_archility_daily_systemd.sh</text><text fill="#000000" font-family="Monospace" font-size="14" lengthAdjust="spacing" textLength="119.3915" x="24.1" y="314.0518">0&#160;local&#160;shell&#160;edges</text><text fill="#000000" font-family="Monospace" font-size="14" lengthAdjust="spacing" textLength="101.7516" x="24.1" y="333.1197">2&#160;external&#160;tools</text></g><!--entity shell_scripts_install_archility_weekly_systemd_sh--><g class="entity" data-qualified-name="shell_scripts_install_archility_weekly_systemd_sh" data-source-line="11" id="ent0006"><rect fill="#DBEAFE" height="77.2038" rx="2.5" ry="2.5" style="stroke:#181818;stroke-width:0.5;" width="297.5209" x="7" y="382.0179"/><text fill="#000000" font-family="Monospace" font-size="14" lengthAdjust="spacing" textLength="277.5209" x="17" y="406.9839">scripts/install_archility_weekly_systemd.sh</text><text fill="#000000" font-family="Monospace" font-size="14" lengthAdjust="spacing" textLength="119.3915" x="17" y="426.0518">0&#160;local&#160;shell&#160;edges</text><text fill="#000000" font-family="Monospace" font-size="14" lengthAdjust="spacing" textLength="101.7516" x="17" y="445.1197">2&#160;external&#160;tools</text></g><!--entity shell_scripts_install_portfolio_audit_systemd_sh--><g class="entity" data-qualified-name="shell_scripts_install_portfolio_audit_systemd_sh" data-source-line="12" id="ent0007"><rect fill="#DBEAFE" height="77.2038" rx="2.5" ry="2.5" style="stroke:#181818;stroke-width:0.5;" width="291.137" x="10.19" y="494.0179"/><text fill="#000000" font-family="Monospace" font-size="14" lengthAdjust="spacing" textLength="271.137" x="20.19" y="518.9839">scripts/install_portfolio_audit_systemd.sh</text><text fill="#000000" font-family="Monospace" font-size="14" lengthAdjust="spacing" textLength="119.3915" x="20.19" y="538.0518">0&#160;local&#160;shell&#160;edges</text><text fill="#000000" font-family="Monospace" font-size="14" lengthAdjust="spacing" textLength="101.7516" x="20.19" y="557.1197">2&#160;external&#160;tools</text></g><!--entity shell_scripts_portfolio_audit_sh--><g class="entity" data-qualified-name="shell_scripts_portfolio_audit_sh" data-source-line="13" id="ent0008"><rect fill="#DBEAFE" height="77.2038" rx="2.5" ry="2.5" style="stroke:#181818;stroke-width:0.5;" width="182.6934" x="64.41" y="2034.0179"/><text fill="#000000" font-family="Monospace" font-size="14" lengthAdjust="spacing" textLength="162.6934" x="74.41" y="2058.9839">scripts/portfolio-audit.sh</text><text fill="#000000" font-family="Monospace" font-size="14" lengthAdjust="spacing" textLength="119.3915" x="74.41" y="2078.0518">0&#160;local&#160;shell&#160;edges</text><text fill="#000000" font-family="Monospace" font-size="14" lengthAdjust="spacing" textLength="109.7596" x="74.41" y="2097.1197">22&#160;external&#160;tools</text></g><!--entity shell_scripts_run_tachometer_profile_sh--><g class="entity" data-qualified-name="shell_scripts_run_tachometer_profile_sh" data-source-line="14" id="ent0009"><rect fill="#DBEAFE" height="77.2038" rx="2.5" ry="2.5" style="stroke:#181818;stroke-width:0.5;" width="242.2912" x="34.61" y="144.0179"/><text fill="#000000" font-family="Monospace" font-size="14" lengthAdjust="spacing" textLength="222.2912" x="44.61" y="168.9839">scripts/run_tachometer_profile.sh</text><text fill="#000000" font-family="Monospace" font-size="14" lengthAdjust="spacing" textLength="119.3915" x="44.61" y="188.0518">0&#160;local&#160;shell&#160;edges</text><text fill="#000000" font-family="Monospace" font-size="14" lengthAdjust="spacing" textLength="101.7516" x="44.61" y="207.1197">3&#160;external&#160;tools</text></g><!--entity tool_editorconfig--><g class="entity" data-qualified-name="tool_editorconfig" data-source-line="15" id="ent0010"><path d="M456.6553,1343.229 C459.6611,1337.6068 464.9094,1336.821 468.3115,1342.8319 C471.2978,1336.1321 476.9491,1336.1327 481.3205,1341.3155 C485.5041,1335.8408 489.0525,1335.5303 493.088,1341.4683 C496.7318,1335.8069 502.2865,1334.0822 506.2598,1341.1267 C509.1246,1335.3875 514.3387,1336.9475 516.9326,1341.41 C522.0467,1336.2093 526.2632,1336.2507 529.9917,1342.9328 C532.9023,1336.6752 537.4849,1336.5434 541.1077,1342.2723 C545.6347,1336.597 552.0681,1335.892 555.2212,1343.7095 C564.4466,1346.672 563.9952,1354.9884 557.5905,1360.197 C563.5292,1367.8004 562.6337,1373.1606 553.3053,1376.831 C550.1382,1381.6414 546.4778,1381.9527 542.4653,1377.8604 C539.0338,1385.5934 534.2483,1385.1236 528.8214,1379.9738 C526.9004,1386.1373 521.8635,1386.4179 518.1059,1381.799 C516.3308,1388.0057 510.75,1389.6781 506.1035,1384.951 C501.0687,1390.6087 495.8527,1388.9942 492.8037,1382.7348 C488.2349,1387.7079 482.1583,1386.6384 480.0334,1380.0381 C475.7041,1385.2518 471.0744,1383.8486 468.8438,1377.9288 C464.5347,1383.6115 459.8577,1381.1433 457.4224,1375.9595 C447.313,1374.0766 446.2059,1367.1967 452.2672,1360.068 C445.0271,1352.5791 448.0069,1346.5776 456.6553,1343.229" fill="#FEF3C7" style="stroke:#181818;stroke-width:0.5;"/><text fill="#000000" font-family="Monospace" font-size="14" lengthAdjust="spacing" textLength="84.0557" x="462.23" y="1364.0539">.editorconfig</text></g><!--entity tool_gitignore--><g class="entity" data-qualified-name="tool_gitignore" data-source-line="16" id="ent0011"><path d="M465.8053,1426.336 C469.51,1419.1403 475.648,1419.8633 479.8525,1425.8014 C483.0829,1419.6445 488.7581,1421.112 491.8256,1425.9783 C496.3153,1419.8689 501.1064,1419.4937 505.131,1426.4519 C509.6034,1419.4947 515.3811,1420.6938 519.4585,1426.8825 C522.6647,1421.0174 528.2165,1419.9646 532.08,1426.1967 C537.1394,1420.4004 541.0533,1421.2147 544.1046,1428.1007 C553.5107,1430.2276 556.3633,1435.06 552.4729,1444.1289 C557.4013,1452.9286 554.1337,1458.5129 544.3196,1459.485 C541.3269,1467.3957 537.0639,1468.011 531.0648,1462.441 C527.1325,1469.1537 522.5547,1468.56 517.7335,1463.4426 C515.3014,1470.2209 509.7213,1469.8826 505.5636,1465.2892 C500.8978,1471.0574 494.9555,1471.634 491.5166,1464.0031 C486.5209,1469.3413 481.6532,1469.4398 478.8779,1461.8349 C473.5543,1467.0066 469.8256,1465.5441 467.1115,1459.1745 C457.3568,1457.9276 455.3288,1451.4007 459.8594,1443.5313 C453.5699,1436.1512 455.3842,1427.9377 465.8053,1426.336" fill="#FEF3C7" style="stroke:#181818;stroke-width:0.5;"/><text fill="#000000" font-family="Monospace" font-size="14" lengthAdjust="spacing" textLength="64.0498" x="472.24" y="1448.0539">.gitignore</text></g><!--entity tool_agents_md--><g class="entity" data-qualified-name="tool_agents_md" data-source-line="17" id="ent0012"><path d="M458.8512,1510.2314 C462.8221,1505.5171 467.6846,1505.609 470.8673,1511.1545 C474.1713,1506.1229 478.787,1506.2877 482.2858,1510.9244 C485.6834,1505.4606 490.0993,1505.7095 493.8117,1510.5731 C497.9126,1504.6587 502.0395,1505.4685 506.0621,1510.6595 C509.496,1505.4468 513.9298,1503.9302 518.0214,1509.9599 C521.3802,1505.265 524.3701,1505.5336 527.7917,1509.8921 C531.8202,1504.1397 537.459,1503.8676 540.6349,1510.7581 C544.5638,1506.1951 547.7623,1507.2618 550.8617,1511.7005 C560.2022,1514.8401 561.1032,1522.593 553.2109,1528.188 C559.56,1533.436 560.2083,1540.0754 551.3585,1543.4827 C549.0631,1549.1931 543.6661,1551.158 539.6514,1545.209 C536.7044,1550.7482 531.6188,1551.5973 527.8611,1546.073 C525.2915,1551.3277 521.2933,1553.5679 516.711,1548.1822 C513.6386,1553.5874 508.2166,1554.6582 504.2852,1549.1612 C500.3806,1552.9691 497.3029,1553.5471 494.3669,1548.1209 C490.7229,1552.5075 485.3404,1551.3438 483.1685,1546.3614 C478.6987,1553.1871 474.1807,1552.4244 470.3524,1545.7523 C465.4864,1550.6841 461.76,1549.725 458.2986,1544.1421 C450.8396,1539.4323 449.4795,1534.3049 456.3236,1527.86 C448.5403,1521.7652 448.9656,1513.7928 458.8512,1510.2314" fill="#FEF3C7" style="stroke:#181818;stroke-width:0.5;"/><text fill="#000000" font-family="Monospace" font-size="14" lengthAdjust="spacing" textLength="78.4837" x="465.02" y="1532.0539">AGENTS.md</text></g><!--entity tool_changelog_md--><g class="entity" data-qualified-name="tool_changelog_md" data-source-line="18" id="ent0013"><path d="M443.6772,1594.7804 C447.5165,1589.0159 452.0095,1589.8855 455.7391,1594.9031 C458.9958,1589.053 462.8651,1589.0922 466.9665,1594.0234 C471.6152,1588.9543 475.8967,1588.971 479.4632,1595.2185 C482.7265,1588.3357 489.6353,1588.3338 493.2959,1594.8069 C496.1445,1587.7559 501.7281,1586.6646 506.4488,1592.9623 C510.6432,1588.1865 514.7601,1588.7468 518.158,1593.9014 C522.1765,1588.1486 526.2449,1588.4954 530.4359,1593.7084 C534.2982,1587.7651 537.8645,1588.0415 541.7196,1593.7155 C545.3839,1587.5332 551.8763,1587.9045 554.9373,1594.347 C560.0422,1587.4374 564.3953,1589.5194 568.3298,1595.5575 C577.7393,1597.0101 581.0725,1601.4269 577.1849,1610.6706 C581.3868,1619.9011 579.7671,1626.3797 568.5093,1627.7637 C564.6787,1635.3203 559.8637,1634.4857 554.8048,1629.0604 C553.3446,1635.2822 548.1173,1637.4794 543.4409,1632.253 C539.3008,1638.439 534.7875,1639.3476 529.9185,1633.042 C527.0053,1638.6459 521.0224,1640.832 516.8843,1634.3646 C514.443,1641.8102 509.0965,1641.6244 504.3799,1636.6566 C500.558,1641.4225 496.3882,1642.3497 493.1786,1636.0374 C487.6298,1641.2483 482.5253,1639.6312 479.7712,1632.8997 C475.6224,1638.4953 469.951,1638.7574 466.9851,1631.7041 C463.0749,1636.3294 458.8282,1636.7438 455.972,1630.6238 C450.9493,1637.7435 445.4622,1636.5522 442.014,1629.1141 C433.7661,1623.7582 433.709,1617.3769 440.8892,1611.0599 C433.2902,1604.9942 435.4666,1598.1386 443.6772,1594.7804" fill="#FEF3C7" style="stroke:#181818;stroke-width:0.5;"/><text fill="#000000" font-family="Monospace" font-size="14" lengthAdjust="spacing" textLength="110.6976" x="448.91" y="1616.0539">CHANGELOG.md</text></g><!--entity tool_code_of_conduct_md--><g class="entity" data-qualified-name="tool_code_of_conduct_md" data-source-line="19" id="ent0014"><path d="M416.6288,1678.4477 C421.1401,1671.8435 426.4322,1672.6478 430.2481,1679.1692 C433.6707,1672.1743 439.3342,1672.8527 443.6292,1678.2253 C447.2741,1672.2433 450.7468,1672.7862 454.6554,1677.9648 C459.0485,1672.3386 463.5181,1672.2485 468.127,1677.7025 C470.9893,1672.8978 476.0018,1671.0574 479.5618,1676.9573 C484.2579,1671.2344 489.4767,1669.7116 493.7207,1677.4334 C498.0889,1672.1292 502.9376,1671.4413 506.3577,1678.4097 C509.0195,1673.3721 513.9616,1673.4219 517.0819,1677.8925 C521.3466,1672.0376 526.2267,1672.2714 529.956,1678.4646 C533.8655,1671.1887 540.5464,1671.0997 544.0633,1678.8335 C547.7677,1673.3149 551.8627,1673.033 555.9877,1678.3715 C559.1002,1672.2289 564.9833,1671.4582 568.7633,1677.6819 C573.1079,1673.86 577.113,1672.9757 579.7161,1679.5217 C583.6266,1672.6034 588.7862,1672.432 592.7195,1679.5005 C603.3526,1680.458 605.4673,1688.4122 599.693,1696.2151 C605.6449,1703.94 601.9477,1711.0749 592.5529,1711.7429 C589.973,1718.8039 583.8599,1718.4893 579.6553,1713.4788 C577.5338,1719.4775 571.7309,1719.9838 567.942,1715.3085 C563.9211,1721.902 559.8625,1722.3225 554.8119,1716.3877 C551.4853,1722.1873 547.5546,1723.2056 542.7703,1717.9797 C540.5316,1724.1346 535.6886,1724.4448 531.5536,1719.9833 C526.7525,1727.0337 522.1529,1725.8276 517.8633,1719.4614 C515.2787,1726.7018 510.7151,1728.0229 504.9215,1722.7912 C499.0732,1727.5865 494.5866,1726.4882 492.0283,1719.2625 C488.5933,1724.9486 483.2745,1724.504 480.8582,1718.3051 C477.2557,1725.02 471.4385,1725.2768 467.9872,1718.1644 C463.2073,1723.6533 459.5408,1723.3763 456.1588,1716.7946 C450.5764,1721.6545 446.0233,1722.5029 442.4614,1714.6223 C437.9167,1720.9741 432.5801,1720.5153 429.3291,1713.364 C425.3928,1718.3658 420.9084,1717.0164 418.8535,1711.4916 C409.636,1710.8897 405.5813,1704.7489 410.7829,1696.4238 C405.3283,1688.089 406.9371,1681.8568 416.6288,1678.4477" fill="#FEF3C7" style="stroke:#181818;stroke-width:0.5;"/><text fill="#000000" font-family="Monospace" font-size="14" lengthAdjust="spacing" textLength="161.3773" x="423.57" y="1700.0539">CODE_OF_CONDUCT.md</text></g><!--entity tool_contributing_md--><g class="entity" data-qualified-name="tool_contributing_md" data-source-line="20" id="ent0015"><path d="M433.6782,1764.0699 C436.7184,1758.4796 441.6746,1758.7669 445.3301,1763.3663 C448.6861,1757.9846 453.4735,1757.8629 457,1763.1804 C460.4216,1757.4443 464.7822,1755.9833 469.7421,1761.4271 C473.4493,1756.0024 478.4777,1756.0724 481.9219,1761.7165 C485.334,1757.0369 488.9345,1756.893 492.6172,1761.4014 C496.0712,1755.3552 500.9361,1754.7361 505.0724,1760.6934 C509.0141,1754.748 512.6507,1754.7531 516.4323,1760.8445 C521.3374,1754.8661 525.0297,1755.4207 528.4795,1762.217 C532.4804,1755.6961 536.9567,1755.4712 541.6205,1761.5242 C546.1806,1755.4809 550.2406,1756.3921 553.8578,1762.4757 C557.5408,1758.0995 562.3268,1757.3007 565.0596,1763.4837 C568.6068,1757.9212 573.3025,1756.9188 577.187,1763.1364 C586.9233,1767.4663 586.9605,1773.9779 579.0174,1780.2039 C586.3672,1785.9885 586.3198,1792.3449 577.9171,1797.104 C574.4132,1804.6196 569.3912,1805.1907 564.394,1798.5282 C560.9437,1804.0726 555.6768,1804.7906 552.4283,1798.3271 C549.8494,1804.8753 545.3767,1804.7291 541.0824,1800.0627 C538.6233,1805.1379 534.3293,1805.9651 530.3755,1801.7934 C526.2183,1808.1276 521.9182,1808.1036 517.1917,1802.4179 C513.9787,1807.581 510.5433,1809.0489 506.2223,1803.5589 C501.5699,1810.3184 495.8196,1808.7807 492.9724,1801.816 C489.2019,1807.0842 484.3174,1806.3477 481.89,1800.4795 C477.9845,1806.8756 473.0026,1805.4451 469.3403,1800.217 C464.4976,1805.6737 460.5855,1805.1659 457.1105,1798.8019 C453.008,1803.1596 449.6278,1803.1801 446.4646,1797.7774 C441.5675,1803.7817 437.3237,1802.2087 433.8087,1796.3081 C422.9131,1794.7932 420.2589,1788.1835 424.9306,1778.7825 C419.2202,1770.208 424.7225,1763.9244 433.6782,1764.0699" fill="#FEF3C7" style="stroke:#181818;stroke-width:0.5;"/><text fill="#000000" font-family="Monospace" font-size="14" lengthAdjust="spacing" textLength="129.8075" x="439.36" y="1784.0539">CONTRIBUTING.md</text></g><!--entity tool_lessonslearned_md--><g class="entity" data-qualified-name="tool_lessonslearned_md" data-source-line="21" id="ent0016"><path d="M425.9521,1847.9545 C429.3949,1842.3763 433.4871,1842.8199 437.145,1847.7249 C438.8427,1841.8502 443.821,1840.8131 447.5086,1845.8317 C451.2936,1841.0808 455.9684,1840.7655 459.3542,1846.2919 C462.095,1840.9521 467.8858,1840.3103 471.0229,1845.8675 C474.3794,1840.4598 480.1025,1840.1752 483.2263,1846.1178 C486.4318,1842.3415 490.4295,1841.7739 492.8906,1846.9237 C496.354,1841.2348 500.5472,1840.2198 505.5419,1845.0889 C509.3371,1840.1381 514.0482,1841.2064 516.0893,1846.8374 C519.1689,1841.3461 524.6328,1840.3585 528.1949,1846.3279 C531.5704,1841.0222 535.1964,1840.3037 539.4203,1845.4135 C542.7973,1839.9126 547.3856,1840.0777 550.3897,1845.7786 C555.0392,1839.1231 559.4792,1839.4837 563.6895,1846.2149 C566.7438,1842.0051 570.3867,1842.1266 573.3024,1846.3726 C576.726,1840.8471 582.4573,1841.1731 585.1988,1847.0824 C595.724,1848.2091 599.5978,1856.3647 592.4858,1864.7612 C597.0956,1872.9461 594.591,1878.5311 585.3742,1880.4476 C581.7092,1885.6213 577.2456,1885.3191 573.8652,1880.1314 C571.2284,1885.2077 565.781,1885.9317 562.7923,1880.5023 C558.7871,1886.1272 554.8157,1885.8419 551.1067,1880.1953 C548.625,1885.6505 545.0424,1885.7959 540.8826,1882.0625 C537.4149,1887.346 531.6153,1887.4914 528.4175,1881.7572 C525.2699,1886.6915 520.6917,1886.5048 517.4417,1881.8747 C513.8265,1887.3583 509.5223,1887.9045 505.753,1882.0334 C502.0568,1887.9039 497.6163,1887.2201 494.3075,1881.646 C489.9721,1886.1042 486.3846,1886.4951 483.4867,1880.1996 C479.7738,1887.1669 473.3766,1886.5866 469.8762,1879.9864 C466.6453,1885.2856 462.8689,1885.2737 459.2812,1880.3564 C455.8265,1885.7297 451.8712,1885.9515 448.6838,1880.1038 C443.8388,1887.0651 439.616,1886.2561 435.4707,1879.4332 C432.4863,1885.3996 427.1606,1884.7465 423.9758,1879.6413 C417.2541,1875.4489 415.8263,1869.0337 423.1436,1864.0901 C417.1021,1857.2646 417.1536,1852.197 425.9521,1847.9545" fill="#FEF3C7" style="stroke:#181818;stroke-width:0.5;"/><text fill="#000000" font-family="Monospace" font-size="14" lengthAdjust="spacing" textLength="146.6214" x="430.95" y="1868.0539">LESSONSLEARNED.md</text></g><!--entity tool_pull_request_template_md--><g class="entity" data-qualified-name="tool_pull_request_template_md" data-source-line="22" id="ent0017"><path d="M397.8522,1932.7606 C402.6481,1924.8637 408.6506,1922.9856 414.7829,1931.371 C419.0731,1925.1335 423.125,1924.8407 427.6855,1931.0916 C433.4047,1922.7389 438.9944,1924.9431 443.9139,1931.9371 C447.1479,1924.3243 453.4251,1921.7363 459.2782,1929.2823 C464.4457,1922.2667 470.4151,1921.5145 475.2495,1929.6338 C479.0132,1923.2585 485.8299,1921.9752 489.9696,1929.2278 C494.6544,1921.5566 502.1611,1920.0359 507.0939,1928.9722 C512.3875,1921.8966 517.5384,1921.0884 522.2076,1929.5785 C525.8112,1922.4971 532.3613,1921.8435 536.3369,1929.2149 C541.98,1922.1099 548.0446,1922.9512 551.3539,1931.4595 C555.7634,1924.4596 562.9771,1923.2053 567.6118,1931.2155 C572.5617,1923.1094 577.5263,1923.2783 583.5977,1930.0069 C588.7692,1923.7823 593.3455,1923.3031 597.2766,1931.2078 C603.3578,1923.5068 608.8605,1923.8819 613.4157,1932.6988 C621.6965,1933.551 625.4475,1940.5206 621.5417,1947.8912 C626.9234,1957.6502 623.9136,1964.7188 612.3694,1965.8171 C607.4186,1973.079 602.4678,1972.4598 598.4339,1964.952 C593.759,1973.0419 588.0612,1972.7548 582.6781,1965.6883 C578.3849,1972.7998 572.7693,1973.0799 567.5953,1966.6709 C564.3139,1975.0889 558.054,1974.2533 552.7276,1968.8747 C548.1292,1978.0505 541.003,1979.3809 534.9757,1970.2611 C530.1758,1977.1558 526.0536,1975.6089 521.4954,1970.0004 C517.4036,1977.5363 511.1264,1977.1137 506.7229,1970.3218 C502.9117,1976.8122 495.8068,1976.5993 491.7967,1970.5587 C485.5751,1977.1966 477.8534,1978.8401 473.7138,1968.3595 C470.2942,1975.4197 463.1668,1976.1066 459.0127,1969.1287 C454.061,1976.4334 446.3599,1976.6428 442.9663,1967.5993 C438.4663,1973.9462 432.4768,1974.7178 428.1951,1967.364 C422.7949,1972.9764 416.0498,1972.7578 413.4592,1964.4004 C409.0026,1972.1141 404.318,1971.0769 399.5759,1964.6813 C386.8876,1965.3853 380.3517,1960.0506 385.5136,1946.7533 C382.3081,1936.3332 388.0423,1931.7039 397.8522,1932.7606" fill="#FEF3C7" style="stroke:#181818;stroke-width:0.5;"/><text fill="#000000" font-family="Monospace" font-size="14" lengthAdjust="spacing" textLength="200.7592" x="403.88" y="1952.0539">PULL_REQUEST_TEMPLATE.md</text></g><!--entity tool_readme_md--><g class="entity" data-qualified-name="tool_readme_md" data-source-line="23" id="ent0018"><path d="M458.4102,2015.7954 C461.9687,2009.9419 466.5179,2009.6405 470.4589,2015.3985 C473.0716,2009.216 477.8608,2009.276 481.5439,2014.3437 C484.8503,2009.0696 490.4442,2009.5682 493.1203,2015.0237 C495.5385,2007.6666 501.8177,2007.442 506.0286,2013.2685 C509.9889,2007.5535 515.4084,2008.6442 517.6468,2014.9348 C522.0129,2008.7051 525.6752,2010.3775 529.5522,2015.4501 C532.0098,2009.1328 536.7006,2009.9152 540.5143,2014.0244 C544.3936,2008.7668 550.0357,2010.4389 552.1945,2015.8993 C562.2125,2017.8742 565.9221,2022.3081 560.241,2032.0867 C567.1643,2041.306 563.2791,2046.26 553.7204,2049.1988 C549.6347,2054.9301 543.9829,2054.716 540.6116,2048.4201 C537.5553,2054.2594 532.8819,2055.5866 528.4905,2049.8138 C525.4653,2054.9799 521.616,2055.2126 517.8977,2050.5617 C513.7075,2056.0785 509.6549,2056.5709 505.1307,2050.9444 C501.3044,2055.5126 497.9334,2055.8245 494.09,2050.9644 C490.162,2057.7348 485.418,2057.0425 481.5225,2050.9327 C476.3836,2056.8666 472.4248,2055.8249 468.5011,2049.6283 C464.4623,2054.4373 460.4353,2053.7881 457.5777,2048.367 C447.3929,2044.9486 447.0335,2038.0709 453.7362,2030.9317 C448.6175,2024.0879 449.9913,2018.4588 458.4102,2015.7954" fill="#FEF3C7" style="stroke:#181818;stroke-width:0.5;"/><text fill="#000000" font-family="Monospace" font-size="14" lengthAdjust="spacing" textLength="81.5917" x="463.46" y="2036.0539">README.md</text></g><!--entity tool_security_md--><g class="entity" data-qualified-name="tool_security_md" data-source-line="24" id="ent0019"><path d="M454.4783,2098.2837 C458.6463,2093.6378 463.0952,2093.0252 465.9212,2099.6466 C469.155,2092.4618 475.0161,2092.1051 479.3284,2098.5887 C482.3813,2092.8358 488.497,2092.5573 492.3553,2097.6185 C496.8517,2091.4451 501.5698,2091.7143 506.2556,2097.3964 C510.4295,2091.2337 514.2346,2091.6598 518.0573,2097.735 C521.4783,2091.6671 526.9461,2092.97 530.1373,2097.9855 C535.1435,2092.2886 541.18,2091.7402 544.8022,2099.4944 C548.6601,2092.1799 552.5851,2091.8324 557.7095,2098.3091 C568.5617,2099.1628 571.4686,2105.4097 566.3778,2114.6966 C572.6091,2123.4841 567.6851,2131.8463 557.6032,2132.6697 C553.5467,2137.7003 548.6006,2138.9614 545.0534,2132.1308 C541.2005,2138.9447 536.8562,2139.7373 531.5234,2133.6874 C527.596,2140.116 523.5813,2140.3658 519.0177,2134.3255 C514.7367,2141.0121 507.8909,2139.0081 504.9257,2132.8787 C501.7117,2138.9805 495.7672,2140.0895 492.2092,2133.2159 C488.4714,2138.3186 483.1092,2138.1215 479.9399,2132.5619 C476.3877,2139.1574 470.1165,2139.1181 466.7059,2132.4208 C462.4319,2138.4445 458.2622,2138.1087 453.6854,2132.7678 C443.995,2131.5909 439.8965,2123.4306 447.1748,2115.7586 C440.6356,2107.0363 443.41,2099.6471 454.4783,2098.2837" fill="#FEF3C7" style="stroke:#181818;stroke-width:0.5;"/><text fill="#000000" font-family="Monospace" font-size="14" lengthAdjust="spacing" textLength="89.1656" x="459.68" y="2120.0539">SECURITY.md</text></g><!--entity tool_bug_report_md--><g class="entity" data-qualified-name="tool_bug_report_md" data-source-line="25" id="ent0020"><path d="M449.0462,2182.7978 C453.0364,2178.2042 456.2561,2178.8639 459.3156,2183.8007 C462.2017,2177.2027 466.4629,2177.7919 471.0711,2181.9121 C474.5506,2175.7195 479.2373,2177.2121 482.4667,2182.1678 C486.026,2176.3421 489.823,2175.8109 494.5145,2180.9203 C498.249,2175.527 501.5099,2175.106 505.2801,2180.886 C508.8162,2176.7451 513.5218,2176.7007 516.1577,2181.9309 C519.8959,2176.2242 525.1904,2175.0939 528.908,2181.9519 C532.2025,2177.0735 535.8278,2177.245 538.8618,2182.2153 C542.5161,2177.2219 547.9263,2175.8148 551.3127,2182.5009 C554.3481,2177.6807 559.826,2176.6105 562.9606,2182.3918 C572.1854,2186.2793 576.3311,2191.6283 568.3415,2200.6023 C573.4594,2208.0347 571.1047,2214.7221 561.589,2215.5391 C558.5207,2221.3547 554.9671,2222.2963 550.5008,2216.9246 C547.8656,2222.0387 542.8191,2223.2054 539.4496,2217.688 C535.7176,2222.9001 530.7926,2223.9807 527.3293,2217.4116 C524.6998,2222.4147 520.4547,2224.5503 516.2729,2219.0448 C513.8528,2223.9272 509.1739,2223.9022 505.9641,2219.9682 C500.8641,2226.3386 497.024,2225.5752 493.2161,2218.7225 C489.2932,2223.1671 485.6701,2222.8884 483.0239,2217.411 C480.0846,2222.9678 473.9553,2223.1849 470.4185,2218.1201 C465.7286,2223.5008 461.4018,2222.2113 459.265,2215.7212 C456.4795,2221.3956 452.0693,2220.3963 448.9136,2216.1057 C440.0564,2213.9928 436.5742,2206.6076 443.9,2199.5839 C437.2411,2191.9749 439.9493,2185.5765 449.0462,2182.7978" fill="#FEF3C7" style="stroke:#181818;stroke-width:0.5;"/><text fill="#000000" font-family="Monospace" font-size="14" lengthAdjust="spacing" textLength="99.1336" x="454.69" y="2204.0539">bug_report.md</text></g><!--entity tool_cat--><g class="entity" data-qualified-name="tool_cat" data-source-line="26" id="ent0021"><path d="M488.3682,419.102 C492.2519,408.992 499.1192,409.3969 505.8821,416.1033 C513.3659,409.411 517.7246,412.2705 521.3338,420.1983 C529.9492,423.3511 530.4373,428.8433 525.1319,435.4603 C531.0794,441.6174 530.7012,449.5145 521.2511,452.0752 C518.9283,461.8909 511.6467,462.8902 504.2882,457.8096 C496.4732,463.9014 491.2219,461.1764 488.8127,452.2422 C478.0525,450.9926 476.6403,445.5466 481.2637,436.7843 C475.554,428.7136 477.1007,420.3515 488.3682,419.102" fill="#FEF3C7" style="stroke:#181818;stroke-width:0.5;"/><text fill="#000000" font-family="Monospace" font-size="14" lengthAdjust="spacing" textLength="19.6279" x="494.45" y="440.0539">cat</text></g><!--entity tool_contributor_architecture_blueprint_md--><g class="entity" data-qualified-name="tool_contributor_architecture_blueprint_md" data-source-line="27" id="ent0022"><path d="M374.4104,2267.2772 C380.1114,2259.4526 385.6289,2259.2804 391.5432,2267.0428 C396.2816,2255.9736 406.9566,2256.6483 412.9241,2265.7393 C420.5663,2256.5042 426.4724,2257.7365 431.6589,2268.0882 C436.444,2259.1811 443.3999,2259.4585 448.8682,2267.39 C454.1296,2256.3719 460.8274,2255.9312 468.0902,2265.5234 C473.798,2255.5625 483.1712,2258.2095 487.697,2266.7743 C492.3195,2256.5476 500.3007,2256.6007 505.8708,2265.892 C513.6867,2257.5078 520.0155,2256.3334 525.9265,2267.815 C530.5439,2260.3865 536.238,2258.2044 542.6306,2265.8475 C548.2787,2255.7246 556.7447,2256.6698 562.4886,2265.7484 C568.9428,2257.644 578.2107,2258.1341 582.8948,2267.783 C587.8402,2260.0698 596.203,2259.4086 601.3475,2267.5512 C606.1754,2259.3545 614.1201,2258.9082 619.7178,2266.6647 C625.2897,2258.55 633.0293,2258.3334 637.6723,2267.623 C641.825,2269.444 641.8355,2272.8565 638.5176,2275.481 C642.3357,2277.2397 642.5807,2279.9591 640.0151,2282.9907 C643.9964,2286.3444 643.4156,2289.8072 638.4779,2291.5613 C641.4506,2294.6863 640.7805,2298.2065 636.8831,2300.0392 C632.5246,2309.6585 625.6462,2310.9838 618.7908,2302.5401 C612.4274,2311.5222 604.0859,2312.1835 598.4296,2301.7967 C593.2641,2310.5167 585.5242,2308.337 581.0117,2301.0847 C575.2777,2311.1347 566.9505,2311.8439 561.2072,2301.0936 C556.2068,2308.8999 548.6136,2311.6913 542.8658,2301.8712 C539.2283,2310.8202 530.8623,2309.8722 526.0166,2303.172 C520.3109,2313.2396 512.0965,2311.5046 506.4366,2303.1235 C500.8562,2314.0951 491.7717,2313.3205 485.9826,2303.3272 C481.7455,2309.8675 473.7002,2309.5819 469.8774,2302.8255 C464.4046,2312.6936 455.0253,2313.2722 449.1806,2303.2117 C442.0601,2310.9191 435.1108,2312.7301 429.0462,2302.0552 C425.3015,2310.6141 418.017,2310.2748 413.5062,2302.7975 C406.7302,2310.6145 398.0312,2308.7145 394.0164,2299.6161 C388.7215,2310.1741 381.9866,2310.7538 374.0583,2302.3944 C362.349,2303.2509 359.6495,2295.1472 363.6777,2286.0242 C357.5497,2275.3565 362.8288,2267.8061 374.4104,2267.2772" fill="#FEF3C7" style="stroke:#181818;stroke-width:0.5;"/><text fill="#000000" font-family="Monospace" font-size="14" lengthAdjust="spacing" textLength="249.479" x="379.52" y="2288.0539">contributor-architecture-blueprint.md</text></g><!--entity tool_failure_count--><g class="entity" data-qualified-name="tool_failure_count" data-source-line="28" id="ent0023"><path d="M454.5763,1007.8651 C457.2541,1002.4741 463.0179,1001.0961 466.8299,1006.588 C470.6182,998.8948 476.291,998.9847 480.8024,1005.8961 C484.1041,999.9074 489.0227,999.4125 493.1493,1005.0176 C497.3366,998.5333 503.6058,999.8605 506.2933,1006.5177 C509.8448,1001.5202 514.4869,1001.5891 517.9372,1006.635 C521.2487,1000.1015 524.8725,999.9245 529.4912,1005.3747 C534.1114,999.3713 540.0667,999.9061 543.1182,1007.0061 C546.8343,1001.5963 553.1559,1000.7118 556.4083,1007.5108 C565.5398,1009.6611 567.4108,1017.3687 561.8803,1024.2982 C568.7704,1032.5092 564.9115,1039 555.6634,1041.3149 C551.521,1046.0441 546.7587,1046.7583 543.3951,1040.4493 C538.7442,1047.4759 533.533,1045.6976 529.4519,1039.833 C526.8331,1045.7666 521.0398,1045.4053 517.5491,1040.8194 C514.4874,1046.6803 509.7374,1047.7602 505.258,1042.3678 C500.8755,1048.2258 495.7855,1047.896 492.4506,1041.2912 C488.708,1047.1525 484.1371,1047.6537 480.4194,1041.2667 C476.7249,1045.8615 471.133,1046.4845 468.805,1039.8529 C464.6398,1046.7328 459.6658,1046.5267 455.6234,1039.7345 C447.0745,1035.6992 445.174,1029.882 452.3346,1022.7964 C446.8775,1017.8421 446.5735,1010.7985 454.5763,1007.8651" fill="#FEF3C7" style="stroke:#181818;stroke-width:0.5;"/><text fill="#000000" font-family="Monospace" font-size="14" lengthAdjust="spacing" textLength="85.9877" x="461.27" y="1028.0539">failure_count</text></g><!--entity tool_feature_request_md--><g class="entity" data-qualified-name="tool_feature_request_md" data-source-line="29" id="ent0024"><path d="M433.8412,2351.1245 C436.8472,2344.7833 440.5619,2345.8342 444.675,2349.9809 C449.0343,2344.3042 454.2072,2344.472 458.338,2350.2534 C461.3495,2345.4238 465.9654,2345.1714 469.5347,2349.5771 C473.1318,2343.4858 478.6433,2343.9672 481.8381,2349.9859 C485.6242,2343.8357 488.9904,2343.7308 493.0574,2349.7265 C497.1415,2344.0378 502.2526,2343.2666 506.1285,2349.9465 C509.8864,2344.7159 514.5857,2344.1399 518.2324,2350.0671 C521.9881,2345.3976 526.026,2344.3215 529.7097,2350.1458 C532.914,2345.8917 537.9002,2346.3009 540.3146,2351.0739 C544.3238,2345.0217 548.448,2344.9917 552.4858,2351.0453 C556.0952,2344.4482 561.4361,2345.2651 564.7598,2351.3225 C567.9614,2345.0456 573.1777,2344.9109 577.284,2350.3559 C586.5005,2354.4504 588.7663,2359.725 582.8559,2368.472 C588.8437,2375.4902 585.2631,2382.1626 576.9303,2383.5544 C574.0034,2389.6816 569.127,2390.0931 564.5954,2385.3804 C561.5366,2389.6414 556.5383,2389.7785 553.7356,2385.0703 C551.2512,2392.3141 545.0849,2392.972 540.9503,2386.6224 C537.2131,2392.9678 532.655,2392.8879 529.0243,2386.5225 C527.1768,2392.3744 521.7764,2393.5772 518.0268,2388.4231 C515.325,2395.1076 509.4261,2394.4624 505.9058,2389.2576 C501.7024,2394.6418 494.9832,2394.8078 492.4931,2387.4535 C489.1795,2392.8596 484.4132,2392.9325 481.7278,2386.8642 C477.9424,2391.5575 474.2404,2392.731 470.3187,2387.0136 C465.8205,2392.9732 460.3994,2393.4494 456.2648,2386.6142 C452.4376,2391.7336 447.819,2390.8506 445.0322,2385.4983 C440.4669,2390.569 436.5902,2389.6009 433.2563,2384.1235 C425.0951,2380.3994 422.7747,2373.0713 431.4169,2367.489 C425.6217,2361.2474 424.4887,2355.1221 433.8412,2351.1245" fill="#FEF3C7" style="stroke:#181818;stroke-width:0.5;"/><text fill="#000000" font-family="Monospace" font-size="14" lengthAdjust="spacing" textLength="130.2135" x="439.15" y="2372.0539">feature_request.md</text></g><!--entity tool_invalid_count--><g class="entity" data-qualified-name="tool_invalid_count" data-source-line="30" id="ent0025"><path d="M454.5293,1090.9197 C458.8852,1083.7613 464.3749,1084.515 468.2359,1091.4026 C471.5559,1086.4721 476.3542,1086.1933 479.8728,1091.1693 C483.1814,1085.101 487.7368,1082.8264 492.9454,1089.1678 C496.6579,1081.7981 501.9691,1082.1103 506.2841,1088.5873 C510.7691,1084.1278 516.2772,1083.8702 518.5232,1090.96 C521.7566,1085.3848 527.2333,1085.2496 530.7644,1090.6274 C533.9703,1084.3587 539.231,1084.6608 543.0065,1090.0282 C547.6533,1082.8852 552.1946,1083.0757 556.7566,1090.1104 C564.8785,1094.443 566.5954,1099.7964 559.7277,1106.7978 C568.3675,1114.7236 566.9562,1121.6963 555.6214,1125.1536 C551.7203,1130.5854 545.8737,1131.2326 542.177,1124.9197 C539.1329,1130.4267 535.0816,1130.7707 531.0814,1125.9466 C527.6339,1132.4537 523.1184,1132.9479 517.9222,1127.9459 C514.1108,1133.4224 509.3093,1132.2649 506.2751,1127.0955 C502.2118,1133.573 495.763,1133.0547 492.3848,1126.3724 C487.9705,1132.5623 483.4243,1132.9435 479.1884,1126.1905 C474.7982,1130.0966 471.2942,1129.6634 468.2634,1124.5449 C464.4366,1130.6981 457.8412,1132.047 454.0164,1124.5429 C444.3917,1122.5301 442.2291,1115.611 449.3721,1108.6869 C441.0523,1101.4355 445.6951,1093.192 454.5293,1090.9197" fill="#FEF3C7" style="stroke:#181818;stroke-width:0.5;"/><text fill="#000000" font-family="Monospace" font-size="14" lengthAdjust="spacing" textLength="86.8277" x="460.85" y="1112.0539">invalid_count</text></g><!--entity tool_line_number--><g class="entity" data-qualified-name="tool_line_number" data-source-line="31" id="ent0026"><path d="M456.0532,502.8501 C460.3957,496.5277 464.4467,495.476 469.5846,502.0131 C472.4369,497.3165 477.2221,497.1001 480.5638,501.4169 C483.7592,496.0817 489.2851,494.7526 492.8956,500.9739 C497.1002,495.8775 502.3371,494.6891 506.0284,501.5382 C510.0576,495.0376 513.781,495.7525 518.2715,501.0598 C521.8046,496.6825 526.5416,496.9067 528.6938,502.5028 C533.1764,496.9574 538.9173,495.6245 542.7009,503.2465 C545.6023,498.5652 549.1115,498.4058 552.6708,502.4989 C561.3801,506.6528 562.7545,513.8064 556.0163,520.7863 C562.1241,525.7807 563.1859,534.1492 553.8063,537.0375 C550.6036,542.5212 544.7634,542.205 541.6917,536.8905 C539.7794,544.1151 535.03,543.7983 530.1885,539.9274 C526.5726,544.9402 521.5224,545.3753 518.3095,539.4882 C515.4571,546.0408 511.444,547.7309 506.1569,541.8721 C501.6,546.2907 497.0475,545.6934 494.0034,540.0456 C489.3751,547.2125 484.6826,546.2817 480.241,539.8565 C476.2675,544.1525 472.6071,543.5869 470.0793,538.3202 C466.1994,544.4243 460.7866,543.1852 458.0607,537.1753 C447.7618,535.554 443.3629,527.2604 450.6638,518.6222 C445.6249,511.6571 445.9759,504.6499 456.0532,502.8501" fill="#FEF3C7" style="stroke:#181818;stroke-width:0.5;"/><text fill="#000000" font-family="Monospace" font-size="14" lengthAdjust="spacing" textLength="82.6697" x="462.93" y="524.0539">line_number</text></g><!--entity tool_ln--><g class="entity" data-qualified-name="tool_ln" data-source-line="32" id="ent0027"><path d="M492.5732,2519.6683 C494.3869,2512.4882 500.0391,2511.2476 504.9055,2516.6846 C511.0942,2510.1569 515.9075,2511.8913 518.6682,2519.9246 C526.5389,2524.4562 525.798,2530.1729 519.2263,2535.2311 C526.15,2539.9808 525.859,2547.1934 518.5913,2551.3852 C517.8636,2561.5835 513.1813,2563.8162 504.4647,2558.8056 C498.6419,2562.6734 492.3239,2560.852 492.2398,2552.8802 C480.4652,2552.13 476.5057,2544.2809 484.0202,2534.7741 C480.1509,2526.6026 483.2608,2520.3763 492.5732,2519.6683" fill="#FEF3C7" style="stroke:#181818;stroke-width:0.5;"/><text fill="#000000" font-family="Monospace" font-size="14" lengthAdjust="spacing" textLength="12.2639" x="498.13" y="2540.0539">ln</text></g><!--entity tool_log--><g class="entity" data-qualified-name="tool_log" data-source-line="33" id="ent0028"><path d="M488.2012,2602.1566 C492.5257,2594.5582 499.9604,2593.0994 505.3951,2600.9186 C512.7804,2592.8407 518.8645,2594.7849 523.1305,2604.0994 C532.5019,2605.3515 536.5619,2610.2441 531.727,2619.4512 C537.8178,2629.1779 532.1444,2635.602 522.2561,2636.3996 C519.3691,2646.3416 513.7022,2648.707 505.3433,2641.9374 C497.0466,2649.0151 489.2634,2645.1153 487.2946,2635.2117 C479.482,2630.933 477.05,2626.3108 484.5587,2619.3839 C477.4908,2612.1659 478.3757,2605.8028 488.2012,2602.1566" fill="#FEF3C7" style="stroke:#181818;stroke-width:0.5;"/><text fill="#000000" font-family="Monospace" font-size="14" lengthAdjust="spacing" textLength="20.6919" x="493.91" y="2624.0539">log</text></g><!--entity tool_mapfile--><g class="entity" data-qualified-name="tool_mapfile" data-source-line="34" id="ent0029"><path d="M473.5343,2687.2465 C478.1922,2678.3347 485.7885,2678.6978 490.3699,2687.3199 C494.3145,2680.08 499.6431,2680.7483 504.2789,2686.5849 C510.0768,2678.6636 516.5012,2679.6759 521.9171,2687.0261 C526.4748,2678.9945 532.9839,2679.5995 536.9984,2687.539 C547.8873,2688.0579 549.7931,2694.0288 545.7496,2702.9998 C551.3303,2712.7094 548.71,2719.3787 536.8756,2719.9951 C534.5513,2728.4798 526.7427,2728.7356 521.4481,2723.2829 C518.2765,2733.53 512.3259,2734.6706 504.6894,2727.6049 C498.3613,2733.728 493.6387,2733.0088 489.4705,2725.2388 C481.7991,2730.4072 476.3629,2729.899 473.1242,2720.3242 C463.4267,2717.2285 461.0098,2711.4891 468.6729,2703.7351 C463.0815,2696.9014 463.3964,2689.4427 473.5343,2687.2465" fill="#FEF3C7" style="stroke:#181818;stroke-width:0.5;"/><text fill="#000000" font-family="Monospace" font-size="14" lengthAdjust="spacing" textLength="49.4898" x="479.52" y="2708.0539">mapfile</text></g><!--entity tool_mkdir--><g class="entity" data-qualified-name="tool_mkdir" data-source-line="35" id="ent0030"><path d="M479.2913,2770.6453 C483.1159,2764.8092 488.4433,2764.8081 491.7687,2771.1565 C495.2958,2764.2931 500.8626,2764.5706 505.5947,2769.7761 C509.5326,2763.7431 513.7804,2764.2672 518.0756,2769.3759 C522.4227,2764.0338 527.6754,2763.5913 530.7807,2770.6484 C543.3844,2770.868 545.9208,2778.0573 541.5245,2788.5053 C546.1129,2797.2585 540.6185,2803.689 531.7093,2803.7543 C528.7707,2810.0177 524.8979,2812.2713 519.0534,2806.921 C516.2057,2813.6074 510.0146,2815.2515 504.6939,2809.8614 C499.2632,2814.3793 495.3774,2812.2275 493.305,2806.2257 C487.6231,2813.4477 481.2104,2811.4697 478.1583,2803.5884 C468.8084,2801.5254 464.4333,2797.0298 470.2915,2787.5208 C464.8352,2777.0865 469.0996,2772.7344 479.2913,2770.6453" fill="#FEF3C7" style="stroke:#181818;stroke-width:0.5;"/><text fill="#000000" font-family="Monospace" font-size="14" lengthAdjust="spacing" textLength="38.5699" x="484.98" y="2792.0539">mkdir</text></g><!--entity tool_no_ci_count--><g class="entity" data-qualified-name="tool_no_ci_count" data-source-line="36" id="ent0031"><path d="M458.9982,587.1768 C461.951,581.2883 468.0565,581.1829 471.7351,586.3398 C474.9403,581.4896 479.4444,580.234 483.2629,585.6512 C486.8109,580.3544 491.2881,580.5608 494.0369,586.4228 C497.4911,580.7759 502.5784,579.7877 506.0663,586.3898 C509.4504,581.265 513.3716,581.021 517.4042,585.6349 C521.4415,581.4202 525.7308,580.7084 528.6611,586.8394 C532.3972,581.7694 537.6849,582.6586 540.6629,587.7361 C542.8474,582.4159 547.3272,581.8206 550.4034,586.9009 C558.6174,590.0118 561.4762,596.1563 555.2535,603.4884 C560.9991,609.5716 559.3405,616.9448 551.2905,619.6439 C548.1193,625.6439 542.7116,625.8184 538.5857,620.7386 C536.4778,626.2347 531.806,626.1785 528.3741,622.1594 C524.7764,627.9062 520.9605,629.1355 516.3067,623.2557 C513.7326,629.1305 509.249,629.7158 505.4631,624.4334 C501.7507,628.6958 496.8328,629.3097 494.4539,623.0397 C489.5932,627.9449 485.7076,627.2001 482.247,621.4376 C478.1593,626.011 474.7183,626.5675 470.9677,621.0604 C466.8907,626.5717 462.4408,624.2465 460.0056,619.3338 C450.0001,619.5973 446.9676,612.3688 450.586,604.1695 C444.6486,594.957 448.9922,588.4965 458.9982,587.1768" fill="#FEF3C7" style="stroke:#181818;stroke-width:0.5;"/><text fill="#000000" font-family="Monospace" font-size="14" lengthAdjust="spacing" textLength="77.4337" x="465.54" y="608.0539">no_ci_count</text></g><!--entity tool_repo_architecture_drawio--><g class="entity" data-qualified-name="tool_repo_architecture_drawio" data-source-line="37" id="ent0032"><path d="M415.8162,2435.048 C419.2712,2427.7236 425.5936,2428.2271 429.7278,2434.345 C433.8142,2427.6687 439.5683,2428.586 442.6687,2435.298 C445.6274,2428.9197 451.9795,2427.9367 455.7521,2434.4735 C459.8247,2429.0883 463.5337,2429.6946 467.3508,2434.7571 C470.4364,2428.6634 475.8602,2427.987 480.5482,2432.8221 C485.7699,2427.1102 490.2496,2427.0586 493.8914,2434.4331 C497.0165,2427.2062 502.0243,2427.5602 506.6017,2432.9728 C510.6221,2426.5932 515.7803,2427.8029 518.8367,2433.9169 C522.695,2429.0213 527.6628,2428.0677 530.6643,2434.7891 C535.203,2428.9367 539.7453,2428.0605 544.6522,2434.3654 C548.2823,2429.4114 551.85,2429.1496 555.7351,2434.0795 C559.4373,2429.3397 565.3546,2429.6358 567.8461,2435.4665 C571.6345,2429.6807 576.727,2429.4319 580.8264,2435.1144 C584.1489,2428.8608 590.5587,2428.3624 594.2519,2434.7198 C602.7458,2439.0833 605.277,2446.0629 596.4471,2452.5583 C604.7363,2457.2626 603.9879,2464.4143 595.6025,2468.2194 C592.3106,2474.4809 585.6387,2474.9197 581.6435,2469.0272 C578.4644,2475.3705 574.5175,2475.4098 569.5368,2471.0685 C565.4889,2476.6779 560.4705,2477.0708 556.2369,2471.2853 C552.8007,2477.3119 548.9749,2476.9355 544.6227,2472.2813 C541.2999,2479.2893 536.0327,2481.2276 530.1492,2475.1037 C526.36,2482.2731 521.9207,2482.5497 517.1975,2475.9845 C512.9533,2482.5529 508.8024,2482.6232 504.4271,2476.1126 C500.6481,2481.1245 496.1525,2482.1959 492.7781,2475.703 C488.1856,2481.5376 482.6348,2480.5945 480.2931,2473.5252 C475.923,2480.1299 469.8391,2479.2684 466.2135,2472.7278 C461.2899,2477.5105 456.8549,2476.7199 453.5022,2470.8527 C449.6851,2476.4168 444.7504,2475.1553 442.2789,2469.506 C438.2993,2475.3803 433.3343,2475.9117 428.9674,2469.9414 C425.4723,2475.2755 419.023,2475.1788 415.9394,2469.4566 C405.3569,2464.565 405.7807,2457.2953 414.4935,2450.9002 C407.2618,2445.2553 406.9758,2439.3519 415.8162,2435.048" fill="#FEF3C7" style="stroke:#181818;stroke-width:0.5;"/><text fill="#000000" font-family="Monospace" font-size="14" lengthAdjust="spacing" textLength="164.0234" x="422.25" y="2456.0539">repo-architecture.drawio</text></g><!--entity tool_repo_architecture_puml--><g class="entity" data-qualified-name="tool_repo_architecture_puml" data-source-line="38" id="ent0033"><path d="M421.3338,1174.7704 C425.5925,1168.7569 430.5516,1168.8012 434.135,1175.4529 C437.2704,1169.1249 441.7062,1169.3834 445.8196,1174.4501 C449.5691,1168.5077 454.886,1169.6644 457.6368,1175.4559 C460.8836,1168.8402 465.9063,1169.5993 469.9765,1174.5796 C473.0227,1169.8514 476.6944,1169.4806 480.578,1173.5732 C484.2636,1167.904 489.8064,1167.2622 493.3017,1173.772 C496.3863,1167.5528 501.9672,1166.5501 506.1921,1172.5713 C510.1656,1167.2135 515.0324,1167.7513 517.2253,1174.2309 C520.8327,1168.967 524.5933,1167.9378 529.097,1173.2221 C532.7961,1167.2151 537.93,1168.3782 540.745,1174.1 C545.6777,1168.2664 549.6877,1168.0859 553.5352,1175.1743 C555.9112,1169.0406 561.0851,1170.0499 564.3848,1174.1996 C568.188,1167.9756 574.6188,1168.9911 577.7307,1174.9565 C580.3179,1170.3617 584.999,1169.5603 587.811,1174.7243 C596.4199,1179.3641 598.5552,1184.5753 590.6507,1191.939 C599.361,1197.1854 598.0071,1205.4371 588.895,1208.831 C585.4973,1214.5324 579.6111,1214.5141 577.0814,1207.9922 C573.4271,1214.3002 569.9052,1215.0531 565.2549,1208.9404 C562.0086,1214.8671 556.0015,1214.5207 552.6707,1209.0335 C550.334,1215.3102 544.2396,1215.7599 540.1805,1210.979 C537.3101,1215.2442 532.7463,1214.8248 530.1967,1210.6018 C525.8426,1216.2599 521.8663,1217.2908 517.6448,1210.4684 C514.3491,1215.7243 509.9961,1215.603 506.0998,1211.1852 C501.7526,1216.9799 497.7483,1216.4441 494.0038,1210.561 C491.219,1217.1221 485.2106,1217.0959 481.697,1211.2859 C477.3573,1216.9152 473.8282,1216.1076 470.4213,1210.3613 C466.553,1216.0422 460.802,1216.0417 457.2327,1210.0243 C453.7049,1214.7464 450.4039,1215.789 446.4373,1210.4973 C440.8527,1215.3642 436.6763,1214.844 433.2405,1208.0628 C429.5687,1213.4401 425.2548,1213.9939 421.1908,1208.4973 C411.4289,1206.8292 408.5224,1199.6069 414.6299,1191.7294 C408.5845,1182.6206 410.6316,1177.2588 421.3338,1174.7704" fill="#FEF3C7" style="stroke:#181818;stroke-width:0.5;"/><text fill="#000000" font-family="Monospace" font-size="14" lengthAdjust="spacing" textLength="152.6554" x="427.93" y="1196.0539">repo-architecture.puml</text></g><!--entity tool_run--><g class="entity" data-qualified-name="tool_run" data-source-line="39" id="ent0034"><path d="M485.9302,83.7206 C490.8018,74.5793 499.1048,72.9796 506.1651,81.1643 C512.0287,73.4004 520.3535,75.1383 523.7527,83.8025 C533.3423,84.5113 539.0316,89.2644 533.5444,99.4237 C538.7785,108.8702 535.2765,114.29 524.903,115.1728 C524.6646,127.8975 518.3331,132.8921 506.3397,126.7209 C495.433,131.7536 488.2706,130.2676 487.5702,116.5203 C477.9093,115.6856 474.1211,107.594 479.4739,99.5827 C474.4185,91.4557 476.8347,86.0877 485.9302,83.7206" fill="#FEF3C7" style="stroke:#181818;stroke-width:0.5;"/><text fill="#000000" font-family="Monospace" font-size="14" lengthAdjust="spacing" textLength="23.0859" x="492.72" y="104.0539">run</text></g><!--entity tool_select_headsha--><g class="entity" data-qualified-name="tool_select_headsha" data-source-line="40" id="ent0035"><path d="M446.3882,671.4164 C449.5163,666.0873 454.1918,664.9027 458.0403,670.6592 C461.2083,665.9988 466.0053,664.9977 469.2238,670.6043 C473.4338,665.3177 477.2222,665.7839 481.2927,670.7682 C484.453,664.5141 490.2552,665.0363 494.0902,669.9984 C496.9715,664.848 502.3106,664.6182 505.0069,670.1867 C508.6753,664.989 513.0775,664.7882 516.4038,670.5427 C520.1802,664.2264 524.1037,664.7146 527.9854,670.4414 C531.6453,664.1966 536.1477,663.9568 540.3147,669.9297 C543.9121,664.8819 548.2356,664.6211 551.6764,670.0987 C555.5458,664.3987 559.6015,664.774 562.7939,670.7436 C573.276,671.082 576.5501,677.9336 572.0457,686.8699 C577.2516,696.1109 576.4295,702.6086 564.8229,705.2389 C560.9235,709.9489 555.6221,709.5982 553.1384,703.6822 C549.966,709.8774 545.0283,710.5758 540.293,705.4565 C536.3686,710.8752 530.9652,710.0909 528.2703,704.1547 C524.82,709.4714 521.0995,709.4483 516.9825,704.919 C513.2843,710.5731 508.5215,710.6651 505.0607,704.6758 C502.3329,709.7396 496.8898,709.9832 493.781,705.1082 C489.2365,711.1828 485.2208,711.2083 481.0789,704.7017 C478.0076,709.0168 473.0036,709.6719 470.2119,704.3852 C466.672,710.0581 461.6813,709.8927 458.1517,704.3741 C455.0778,710.0216 449.4228,708.7843 446.6381,704.0533 C438.4473,700.0826 434.9013,694.7041 442.5896,686.9702 C436.909,680.5282 438.1805,674.4665 446.3882,671.4164" fill="#FEF3C7" style="stroke:#181818;stroke-width:0.5;"/><text fill="#000000" font-family="Monospace" font-size="14" lengthAdjust="spacing" textLength="103.0396" x="452.74" y="692.0539">select(.headSha</text></g><!--entity tool_sleep--><g class="entity" data-qualified-name="tool_sleep" data-source-line="41" id="ent0036"><path d="M480.5212,755.7032 C482.5717,749.1546 488.6707,748.6404 492.8293,753.4111 C496.7369,746.729 501.1018,746.5839 505.5664,752.8639 C510.0137,747.3144 513.9004,747.5304 517.4619,753.7586 C521.7381,747.947 527.5812,747.9854 530.4673,755.1517 C538.4602,759.0133 539.1811,765.5147 532.6581,771.3406 C539.1702,777.4582 538.289,785.2689 529.6397,788.7592 C527.8817,795.0426 522.573,797.5529 517.191,792.875 C516.166,799.1887 510.8002,800.2892 506.4179,796.4306 C499.8396,801.975 494.3792,800.098 492.7931,791.5903 C486.9629,797.5521 482.1175,796.1629 479.9537,788.2078 C469.3335,786.3328 467.8482,780.2157 473.8449,772.056 C467.9282,763.73 471.7206,758.0207 480.5212,755.7032" fill="#FEF3C7" style="stroke:#181818;stroke-width:0.5;"/><text fill="#000000" font-family="Monospace" font-size="14" lengthAdjust="spacing" textLength="34.7199" x="486.9" y="776.0539">sleep</text></g><!--entity tool_sort--><g class="entity" data-qualified-name="tool_sort" data-source-line="42" id="ent0037"><path d="M486.2872,2854.466 C491.0501,2844.3988 497.7273,2845.7233 504.4371,2852.3491 C512.3091,2842.684 521.4598,2846.0462 526.136,2855.9015 C534.3656,2859.4452 535.4839,2865.2303 528.9293,2871.4328 C535.2394,2878.1265 534.0998,2884.8719 525.878,2889.0484 C523.5284,2901.1686 514.288,2902.9849 505.2696,2896.3931 C495.3003,2903.3294 486.8844,2898.3721 484.8783,2887.3507 C475.9834,2882.9442 476.4423,2874.8806 485.1688,2870.7831 C478.7931,2865.5672 478.4405,2858.707 486.2872,2854.466" fill="#FEF3C7" style="stroke:#181818;stroke-width:0.5;"/><text fill="#000000" font-family="Monospace" font-size="14" lengthAdjust="spacing" textLength="26.0119" x="491.25" y="2876.0539">sort</text></g><!--entity tool_success_count--><g class="entity" data-qualified-name="tool_success_count" data-source-line="43" id="ent0038"><path d="M451.4203,838.9023 C454.6363,832.6319 460.8575,832.6491 464.4433,838.5053 C468.2887,832.3064 474.4015,832.5293 477.4759,839.2812 C481.5151,831.5642 486.2499,831.7434 491.3735,838.2193 C495.9877,830.8016 501.864,830.9568 506.2209,838.4751 C509.8458,832.7786 515.2566,833.6583 518.3712,839.035 C522.6729,831.5846 528.6502,831.8326 533.3678,838.5963 C536.5614,832.4333 540.8357,832.1892 544.8614,837.7828 C550.5826,830.7956 555.4557,832.5973 559.7766,839.3075 C570.8186,838.1502 575.5439,846.0881 569.4413,855.2949 C573.7479,864.6181 570.5053,870.6181 560.3091,872.0246 C555.6228,878.3638 549.5949,878.2676 545.0869,871.8124 C542.1798,877.698 535.9512,878.4612 531.7793,873.3418 C527.6833,880.3032 522.8542,879.4421 518.48,873.6315 C514.2909,879.3435 508.7476,880.4194 504.5963,873.5897 C500.1726,879.374 495.7918,879.1169 491.78,873.1407 C489.0443,880.0267 482.7523,880.1231 479.0819,874.057 C474.7147,880.1635 467.4515,880.3064 464.0376,872.9887 C459.783,879.5627 453.8425,878.1872 450.9874,871.601 C443.2023,867.9496 444.1835,861.2279 450.055,856.7208 C442.7103,850.5531 441.593,843.7542 451.4203,838.9023" fill="#FEF3C7" style="stroke:#181818;stroke-width:0.5;"/><text fill="#000000" font-family="Monospace" font-size="14" lengthAdjust="spacing" textLength="93.8696" x="457.33" y="860.0539">success_count</text></g><!--entity tool_summarize--><g class="entity" data-qualified-name="tool_summarize" data-source-line="44" id="ent0039"><path d="M461.7962,166.5582 C466.9905,158.938 472.2279,160.5117 476.6554,167.3463 C480.2719,160.1952 485.9794,160.4295 490.0602,166.8889 C494.8942,159.4254 499.6609,158.1554 505.8659,165.4173 C509.9267,158.0497 517.0265,158.3157 520.6506,165.8507 C525.2351,158.9913 532.1265,159.2684 535.3424,167.2093 C538.9789,161.3947 545.679,160.8323 548.8417,167.7131 C558.2094,167.7838 562.3194,175.6006 557.2293,183.4012 C563.1739,192.0143 559.5013,198.0168 549.9064,199.6089 C546.1244,207.4605 538.5345,207.3684 533.6162,200.9018 C530.3099,209.0189 525.0283,208.5099 519.7695,202.8665 C516.9774,210.2474 510.0939,209.7345 506.0346,204.2159 C501.2056,209.7927 496.2355,210.7718 491.8981,203.6679 C486.3402,209.3358 480.0188,208.6447 476.9219,200.9165 C472.732,208.6363 466.2419,208.6764 462.3676,200.6253 C451.8076,199.7699 449.8751,190.4676 455.3171,183.1545 C450.0033,175.9706 451.0692,167.4798 461.7962,166.5582" fill="#FEF3C7" style="stroke:#181818;stroke-width:0.5;"/><text fill="#000000" font-family="Monospace" font-size="14" lengthAdjust="spacing" textLength="73.2617" x="467.63" y="188.0539">summarize</text></g><!--entity tool_systemctl--><g class="entity" data-qualified-name="tool_systemctl" data-source-line="45" id="ent0040"><path d="M466.4243,334.3534 C469.8648,328.4346 476.3893,327.7528 479.49,334.6983 C483.2316,327.9876 488.2685,327.9109 492.8023,333.8655 C496.8341,327.6184 501.3724,328.111 505.8176,333.399 C509.3615,327.3649 513.0275,327.9477 516.9713,332.9966 C521.9321,326.3373 526.4037,327.2981 530.2166,334.1241 C533.804,328.7637 540.0425,327.856 543.0965,334.6875 C551.7928,337.4202 554.7891,345.6276 548.3098,352.7422 C553.6452,358.5469 551.862,365.3289 544.2804,367.6399 C541.711,376.1785 536.1783,376.8496 529.871,371.525 C527.2089,377.1251 523.0698,377.8727 518.4165,373.9101 C515.5541,380.5331 510.2362,382.5256 505.2894,375.9895 C499.848,381.5597 495.4152,380.2314 492.9195,373.1169 C488.5227,378.4105 482.8029,378.7854 479.8861,371.5744 C474.9675,375.6436 470.548,376.3731 467.9884,369.1 C457.2243,365.9817 457.0823,360.1142 462.9576,352.0782 C456.1774,344.82 456.4647,338.3375 466.4243,334.3534" fill="#FEF3C7" style="stroke:#181818;stroke-width:0.5;"/><text fill="#000000" font-family="Monospace" font-size="14" lengthAdjust="spacing" textLength="61.9778" x="473.27" y="356.0539">systemctl</text></g><!--entity tool_tachometer--><g class="entity" data-qualified-name="tool_tachometer" data-source-line="46" id="ent0041"><path d="M460.6072,250.5407 C463.3807,245.4674 467.936,245.8275 470.6674,250.5838 C474.7484,244.3592 480.0957,245.7847 483.5526,251.2706 C486.8705,245.7844 490.1263,245.3578 493.8678,250.8735 C496.7586,243.9695 501.3121,243.9311 506.0458,248.9988 C509.8608,243.7614 514.2524,245.8605 516.5333,250.6099 C519.6661,245.4805 523.6949,245.266 527.216,250.1974 C531.0574,244.356 535.9607,245.4784 539.0276,251.0023 C542.096,245.2988 546.7369,246.5977 549.7123,251.0997 C557.9408,254.911 558.6221,261.9247 551.4596,267.3871 C559.48,272.3506 558.961,278.0323 551.6284,283.1601 C548.4461,288.562 544.1587,289.3027 540.2312,283.9498 C537.5729,290.6154 532.5121,290.8738 527.998,285.9002 C524.0325,291.2838 520.7146,290.5477 516.9971,285.6352 C514.5891,291.3225 509.3253,291.4648 506.3216,286.2166 C502.9125,290.9532 497.815,291.3701 494.6993,285.8832 C490.6747,289.6621 485.9651,289.9421 483.8326,283.809 C480.833,290.8278 474.6963,290.0666 470.6572,284.9363 C467.1131,289.4139 461.487,289.0496 459.1347,283.5587 C450.3279,282.4097 447.3725,274.1643 452.2487,267.2411 C447.5321,257.8382 448.9516,251.7494 460.6072,250.5407" fill="#FEF3C7" style="stroke:#181818;stroke-width:0.5;"/><text fill="#000000" font-family="Monospace" font-size="14" lengthAdjust="spacing" textLength="76.4677" x="466.03" y="272.0539">tachometer</text></g><!--entity tool_tee--><g class="entity" data-qualified-name="tool_tee" data-source-line="47" id="ent0042"><path d="M488.1312,2938.1566 C492.4774,2930.5258 499.9457,2929.0628 505.4021,2936.9186 C512.8124,2928.8011 518.9235,2930.7489 523.2145,2940.0994 C532.5859,2941.3515 536.6459,2946.2441 531.811,2955.4512 C537.9018,2965.1779 532.2284,2971.602 522.3401,2972.3996 C519.4278,2982.3786 513.7345,2984.7461 505.3503,2977.9374 C497.0324,2985.0531 489.2146,2981.1497 487.2246,2971.2117 C479.412,2966.933 476.98,2962.3108 484.4887,2955.3839 C477.4208,2948.1659 478.3057,2941.8028 488.1312,2938.1566" fill="#FEF3C7" style="stroke:#181818;stroke-width:0.5;"/><text fill="#000000" font-family="Monospace" font-size="14" lengthAdjust="spacing" textLength="20.8459" x="493.84" y="2960.0539">tee</text></g><!--entity tool_timeout_count--><g class="entity" data-qualified-name="tool_timeout_count" data-source-line="48" id="ent0043"><path d="M450.5883,923.8302 C455.1614,916.2292 459.8913,915.6371 465.3146,922.9932 C468.9125,916.3094 472.6869,917.5319 477.1187,922.1199 C481.0102,914.2427 487.7475,914.2402 492.7556,920.9207 C496.687,913.9056 503.2053,915.4046 506.1569,921.8931 C510.418,915.1356 515.9543,915.5507 519.2632,922.7849 C523.1892,915.8729 528.3714,915.8792 533.5682,921.3124 C538.7525,915.3246 543.3019,915.358 547.338,922.5152 C552.281,915.8931 556.4976,916.8999 560.1984,923.705 C568.9919,926.283 571.0723,932.8708 563.6576,939.0925 C570.1462,945.2417 570.2404,953.8343 560.5888,957.2568 C558.4351,962.2607 553.4505,963.5393 550.2648,958.2965 C546.4599,963.8981 541.2498,964.8801 537.3973,958.3469 C535.1592,963.9294 530.1414,965.207 526.314,959.9758 C524.0503,964.373 520.0662,964.1966 517.2495,960.603 C515.2842,967.2685 509.9498,968.1128 505.49,963.1191 C501.0519,968.5173 495.9329,967.7768 493.3552,961.2293 C490.7292,965.3434 486.1,966.2671 483.4018,961.3084 C478.6895,966.7431 473.2449,964.2062 471.8779,957.9974 C468.2303,961.9839 464.2339,962.5692 461.3141,957.1777 C457.5728,961.2902 452.7183,961.9948 450.258,955.8032 C441.5335,952.9487 441.2315,946.1522 447.591,940.6439 C440.7302,934.4458 441.4975,927.1848 450.5883,923.8302" fill="#FEF3C7" style="stroke:#181818;stroke-width:0.5;"/><text fill="#000000" font-family="Monospace" font-size="14" lengthAdjust="spacing" textLength="95.5916" x="456.46" y="944.0539">timeout_count</text></g><!--entity tool_warn--><g class="entity" data-qualified-name="tool_warn" data-source-line="49" id="ent0044"><path d="M480.8582,1258.4485 C485.0207,1252.5915 489.8307,1252.4306 493.6612,1258.7962 C496.7576,1252.6289 502.2093,1251.7074 506.282,1257.7904 C509.1044,1253.2498 514.2094,1252.0572 517.1998,1257.6086 C521.2346,1252.1641 526.4396,1252.6231 529.4804,1258.6708 C540.3488,1260.7942 539.8995,1270.2009 533.8524,1276.4775 C540.3048,1283.2004 537.8668,1289.2918 529.3484,1291.5374 C527.5011,1297.1243 522.19,1298.672 517.8605,1294.4421 C514.8295,1300.7738 510.2226,1301.5908 505.6143,1296.0721 C501.5616,1301.6337 495.2105,1301.6712 492.4465,1294.7164 C487.6781,1298.6515 482.99,1297.1336 480.825,1291.5409 C470.5063,1291.1208 467.731,1282.3591 472.8057,1274.6366 C467.0228,1266.683 470.1248,1258.1863 480.8582,1258.4485" fill="#FEF3C7" style="stroke:#181818;stroke-width:0.5;"/><text fill="#000000" font-family="Monospace" font-size="14" lengthAdjust="spacing" textLength="33.2919" x="487.61" y="1280.0539">warn</text></g><g class="entity" data-qualified-name="shellGraphSummary" data-source-line="103" id="ent0097"><path d="M58.84,46.0679 L58.84,109.186 L252.6751,109.186 L252.6751,56.0679 L242.6751,46.0679 L58.84,46.0679" fill="#FEFFDD" style="stroke:#181818;stroke-width:0.5;"/><path d="M242.6751,46.0679 L242.6751,56.0679 L252.6751,56.0679 L242.6751,46.0679" fill="#FEFFDD" style="stroke:#181818;stroke-width:1;"/><text fill="#000000" font-family="Monospace" font-size="13" lengthAdjust="spacing" textLength="141.5311" x="64.84" y="64.9649">Scanned&#160;8&#160;shell&#160;scripts.</text><text fill="#000000" font-family="Monospace" font-size="13" lengthAdjust="spacing" textLength="172.8351" x="64.84" y="82.6709">Detected&#160;0&#160;local&#160;shell&#160;edges.</text><text fill="#000000" font-family="Monospace" font-size="13" lengthAdjust="spacing" textLength="163.8911" x="64.84" y="100.377">Detected&#160;35&#160;external&#160;tools.</text></g><!--link shell_scripts_archility_daily_sh to tool_ln--><g class="link" data-entity-1="ent0002" data-entity-2="ent0027" data-link-type="dependency" data-source-line="50" id="lnk45"><path d="M243.62,2769.0979 C254,2769.0979 261,2769.0979 261,2769.0979 C261,2769.0979 261,2546.8879 261,2546.8879 C261,2546.8879 417.14,2546.8879 476.67,2546.8879" fill="none" id="shell_scripts_archility_daily_sh-to-tool_ln" style="stroke:#181818;stroke-width:1;"/><polygon fill="#181818" points="482.67,2546.8879,473.67,2542.8879,477.67,2546.8879,473.67,2550.8879,482.67,2546.8879" style="stroke:#181818;stroke-width:1;"/></g><!--link shell_scripts_archility_daily_sh to tool_log--><g class="link" data-entity-1="ent0002" data-entity-2="ent0028" data-link-type="dependency" data-source-line="51" id="lnk46"><path d="M243.68,2776.1079 C256.24,2776.1079 265,2776.1079 265,2776.1079 C265,2776.1079 265,2626.7979 265,2626.7979 C265,2626.7979 410.93,2626.7979 472.66,2626.7979" fill="none" id="shell_scripts_archility_daily_sh-to-tool_log" style="stroke:#181818;stroke-width:1;"/><polygon fill="#181818" points="478.66,2626.7979,469.66,2622.7979,473.66,2626.7979,469.66,2630.7979,478.66,2626.7979" style="stroke:#181818;stroke-width:1;"/></g><!--link shell_scripts_archility_daily_sh to tool_mapfile--><g class="link" data-entity-1="ent0002" data-entity-2="ent0029" data-link-type="dependency" data-source-line="52" id="lnk47"><path d="M243.59,2783.1179 C258.35,2783.1179 269,2783.1179 269,2783.1179 C269,2783.1179 269,2714.8879 269,2714.8879 C269,2714.8879 390.89,2714.8879 458.09,2714.8879" fill="none" id="shell_scripts_archility_daily_sh-to-tool_mapfile" style="stroke:#181818;stroke-width:1;"/><polygon fill="#181818" points="464.09,2714.8879,455.09,2710.8879,459.09,2714.8879,455.09,2718.8879,464.09,2714.8879" style="stroke:#181818;stroke-width:1;"/></g><!--link shell_scripts_archility_daily_sh to tool_mkdir--><g class="link" data-entity-1="ent0002" data-entity-2="ent0030" data-link-type="dependency" data-source-line="53" id="lnk48"><path d="M243.25,2804.1479 C316.64,2804.1479 411.6,2804.1479 463.84,2804.1479" fill="none" id="shell_scripts_archility_daily_sh-to-tool_mkdir" style="stroke:#181818;stroke-width:1;"/><polygon fill="#181818" points="469.84,2804.1479,460.84,2800.1479,464.84,2804.1479,460.84,2808.1479,469.84,2804.1479" style="stroke:#181818;stroke-width:1;"/></g><!--link shell_scripts_archility_daily_sh to tool_sort--><g class="link" data-entity-1="ent0002" data-entity-2="ent0037" data-link-type="dependency" data-source-line="54" id="lnk49"><path d="M243.64,2825.1879 C346.8,2825.1879 504,2825.1879 504,2825.1879 C504,2825.1879 504,2829.1779 504,2839.7779" fill="none" id="shell_scripts_archility_daily_sh-to-tool_sort" style="stroke:#181818;stroke-width:1;"/><polygon fill="#181818" points="504,2845.7779,508,2836.7779,504,2840.7779,500,2836.7779,504,2845.7779" style="stroke:#181818;stroke-width:1;"/></g><!--link shell_scripts_archility_daily_sh to tool_tee--><g class="link" data-entity-1="ent0002" data-entity-2="ent0042" data-link-type="dependency" data-source-line="55" id="lnk50"><path d="M156,2839.6079 C156,2888.7479 156,2966.8879 156,2966.8879 C156,2966.8879 391.66,2966.8879 472.37,2966.8879" fill="none" id="shell_scripts_archility_daily_sh-to-tool_tee" style="stroke:#181818;stroke-width:1;"/><polygon fill="#181818" points="478.37,2966.8879,469.37,2962.8879,473.37,2966.8879,469.37,2970.8879,478.37,2966.8879" style="stroke:#181818;stroke-width:1;"/></g><!--link shell_scripts_archility_weekly_sh to tool_ln--><g class="link" data-entity-1="ent0003" data-entity-2="ent0027" data-link-type="dependency" data-source-line="56" id="lnk51"><path d="M195,2649.7679 C195,2604.1379 195,2534.6279 195,2534.6279 C195,2534.6279 407.13,2534.6279 477,2534.6279" fill="none" id="shell_scripts_archility_weekly_sh-to-tool_ln" style="stroke:#181818;stroke-width:1;"/><polygon fill="#181818" points="483,2534.6279,474,2530.6279,478,2534.6279,474,2538.6279,483,2534.6279" style="stroke:#181818;stroke-width:1;"/></g><!--link shell_scripts_archility_weekly_sh to tool_log--><g class="link" data-entity-1="ent0003" data-entity-2="ent0028" data-link-type="dependency" data-source-line="57" id="lnk52"><path d="M250.46,2664.0579 C353.58,2664.0579 504,2664.0579 504,2664.0579 C504,2664.0579 504,2660.0779 504,2649.4679" fill="none" id="shell_scripts_archility_weekly_sh-to-tool_log" style="stroke:#181818;stroke-width:1;"/><polygon fill="#181818" points="504,2643.4679,500,2652.4679,504,2648.4679,508,2652.4679,504,2643.4679" style="stroke:#181818;stroke-width:1;"/></g><!--link shell_scripts_archility_weekly_sh to tool_mapfile--><g class="link" data-entity-1="ent0003" data-entity-2="ent0029" data-link-type="dependency" data-source-line="58" id="lnk53"><path d="M250.53,2702.6279 C320.67,2702.6279 406.68,2702.6279 458.43,2702.6279" fill="none" id="shell_scripts_archility_weekly_sh-to-tool_mapfile" style="stroke:#181818;stroke-width:1;"/><polygon fill="#181818" points="464.43,2702.6279,455.43,2698.6279,459.43,2702.6279,455.43,2706.6279,464.43,2702.6279" style="stroke:#181818;stroke-width:1;"/></g><!--link shell_scripts_archility_weekly_sh to tool_mkdir--><g class="link" data-entity-1="ent0003" data-entity-2="ent0030" data-link-type="dependency" data-source-line="59" id="lnk54"><path d="M249,2727.4979 C249,2758.6279 249,2797.1379 249,2797.1379 C249,2797.1379 393.78,2797.1379 463.57,2797.1379" fill="none" id="shell_scripts_archility_weekly_sh-to-tool_mkdir" style="stroke:#181818;stroke-width:1;"/><polygon fill="#181818" points="469.57,2797.1379,460.57,2793.1379,464.57,2797.1379,460.57,2801.1379,469.57,2797.1379" style="stroke:#181818;stroke-width:1;"/></g><!--link shell_scripts_archility_weekly_sh to tool_sort--><g class="link" data-entity-1="ent0003" data-entity-2="ent0037" data-link-type="dependency" data-source-line="60" id="lnk55"><path d="M247,2727.5679 C247,2783.2079 247,2878.7979 247,2878.7979 C247,2878.7979 403.56,2878.7979 470.24,2878.7979" fill="none" id="shell_scripts_archility_weekly_sh-to-tool_sort" style="stroke:#181818;stroke-width:1;"/><polygon fill="#181818" points="476.24,2878.7979,467.24,2874.7979,471.24,2878.7979,467.24,2882.7979,476.24,2878.7979" style="stroke:#181818;stroke-width:1;"/></g><!--link shell_scripts_archility_weekly_sh to tool_tee--><g class="link" data-entity-1="ent0003" data-entity-2="ent0042" data-link-type="dependency" data-source-line="61" id="lnk56"><path d="M245,2727.5879 C245,2801.4679 245,2954.6279 245,2954.6279 C245,2954.6279 406.88,2954.6279 472.45,2954.6279" fill="none" id="shell_scripts_archility_weekly_sh-to-tool_tee" style="stroke:#181818;stroke-width:1;"/><polygon fill="#181818" points="478.45,2954.6279,469.45,2950.6279,473.45,2954.6279,469.45,2958.6279,478.45,2954.6279" style="stroke:#181818;stroke-width:1;"/></g><!--link shell_scripts_check_github_push_ci_sh to tool_cat--><g class="link" data-entity-1="ent0004" data-entity-2="ent0021" data-link-type="dependency" data-source-line="62" id="lnk57"><path d="M271.02,735.5379 C310.54,735.5379 345,735.5379 345,735.5379 C345,735.5379 345,449.3479 345,449.3479 C345,449.3479 428.12,449.3479 473.03,449.3479" fill="none" id="shell_scripts_check_github_push_ci_sh-to-tool_cat" style="stroke:#181818;stroke-width:1;"/><polygon fill="#181818" points="479.03,449.3479,470.03,445.3479,474.03,449.3479,470.03,453.3479,479.03,449.3479" style="stroke:#181818;stroke-width:1;"/></g><!--link shell_scripts_check_github_push_ci_sh to tool_failure_count--><g class="link" data-entity-1="ent0004" data-entity-2="ent0023" data-link-type="dependency" data-source-line="63" id="lnk58"><path d="M263,809.7179 C263,880.5079 263,1022.6279 263,1022.6279 C263,1022.6279 368.46,1022.6279 439.86,1022.6279" fill="none" id="shell_scripts_check_github_push_ci_sh-to-tool_failure_count" style="stroke:#181818;stroke-width:1;"/><polygon fill="#181818" points="445.86,1022.6279,436.86,1018.6279,440.86,1022.6279,436.86,1026.6279,445.86,1022.6279" style="stroke:#181818;stroke-width:1;"/></g><!--link shell_scripts_check_github_push_ci_sh to tool_invalid_count--><g class="link" data-entity-1="ent0004" data-entity-2="ent0025" data-link-type="dependency" data-source-line="64" id="lnk59"><path d="M260,809.4979 C260,897.9379 260,1106.6279 260,1106.6279 C260,1106.6279 367.17,1106.6279 439.44,1106.6279" fill="none" id="shell_scripts_check_github_push_ci_sh-to-tool_invalid_count" style="stroke:#181818;stroke-width:1;"/><polygon fill="#181818" points="445.44,1106.6279,436.44,1102.6279,440.44,1106.6279,436.44,1110.6279,445.44,1106.6279" style="stroke:#181818;stroke-width:1;"/></g><!--link shell_scripts_check_github_push_ci_sh to tool_line_number--><g class="link" data-entity-1="ent0004" data-entity-2="ent0026" data-link-type="dependency" data-source-line="65" id="lnk60"><path d="M271.08,739.0579 C315.14,739.0579 355,739.0579 355,739.0579 C355,739.0579 355,530.8879 355,530.8879 C355,530.8879 399.56,530.8879 441.83,530.8879" fill="none" id="shell_scripts_check_github_push_ci_sh-to-tool_line_number" style="stroke:#181818;stroke-width:1;"/><polygon fill="#181818" points="447.83,530.8879,438.83,526.8879,442.83,530.8879,438.83,534.8879,447.83,530.8879" style="stroke:#181818;stroke-width:1;"/></g><!--link shell_scripts_check_github_push_ci_sh to tool_no_ci_count--><g class="link" data-entity-1="ent0004" data-entity-2="ent0031" data-link-type="dependency" data-source-line="66" id="lnk61"><path d="M156,731.6579 C156,682.0279 156,602.6279 156,602.6279 C156,602.6279 346.41,602.6279 444.23,602.6279" fill="none" id="shell_scripts_check_github_push_ci_sh-to-tool_no_ci_count" style="stroke:#181818;stroke-width:1;"/><polygon fill="#181818" points="450.23,602.6279,441.23,598.6279,445.23,602.6279,441.23,606.6279,450.23,602.6279" style="stroke:#181818;stroke-width:1;"/></g><!--link shell_scripts_check_github_push_ci_sh to tool_select_headsha--><g class="link" data-entity-1="ent0004" data-entity-2="ent0035" data-link-type="dependency" data-source-line="67" id="lnk62"><path d="M271.1,742.5779 C357.91,742.5779 462,742.5779 462,742.5779 C462,742.5779 462,732.5479 462,717.6479" fill="none" id="shell_scripts_check_github_push_ci_sh-to-tool_select_headsha" style="stroke:#181818;stroke-width:1;"/><polygon fill="#181818" points="462,711.6479,458,720.6479,462,716.6479,466,720.6479,462,711.6479" style="stroke:#181818;stroke-width:1;"/></g><!--link shell_scripts_check_github_push_ci_sh to tool_sleep--><g class="link" data-entity-1="ent0004" data-entity-2="ent0036" data-link-type="dependency" data-source-line="68" id="lnk63"><path d="M270.84,770.6279 C341.22,770.6279 420.22,770.6279 465.73,770.6279" fill="none" id="shell_scripts_check_github_push_ci_sh-to-tool_sleep" style="stroke:#181818;stroke-width:1;"/><polygon fill="#181818" points="471.73,770.6279,462.73,766.6279,466.73,770.6279,462.73,774.6279,471.73,770.6279" style="stroke:#181818;stroke-width:1;"/></g><!--link shell_scripts_check_github_push_ci_sh to tool_success_count--><g class="link" data-entity-1="ent0004" data-entity-2="ent0038" data-link-type="dependency" data-source-line="69" id="lnk64"><path d="M270.72,802.1879 C353.99,802.1879 452,802.1879 452,802.1879 C452,802.1879 452,810.1279 452,823.6379" fill="none" id="shell_scripts_check_github_push_ci_sh-to-tool_success_count" style="stroke:#181818;stroke-width:1;"/><polygon fill="#181818" points="452,829.6379,456,820.6379,452,824.6379,448,820.6379,452,829.6379" style="stroke:#181818;stroke-width:1;"/></g><!--link shell_scripts_check_github_push_ci_sh to tool_timeout_count--><g class="link" data-entity-1="ent0004" data-entity-2="ent0043" data-link-type="dependency" data-source-line="70" id="lnk65"><path d="M267,809.5879 C267,859.2179 267,938.6279 267,938.6279 C267,938.6279 364.71,938.6279 434.99,938.6279" fill="none" id="shell_scripts_check_github_push_ci_sh-to-tool_timeout_count" style="stroke:#181818;stroke-width:1;"/><polygon fill="#181818" points="440.99,938.6279,431.99,934.6279,435.99,938.6279,431.99,942.6279,440.99,938.6279" style="stroke:#181818;stroke-width:1;"/></g><!--link shell_scripts_install_archility_daily_systemd_sh to tool_cat--><g class="link" data-entity-1="ent0005" data-entity-2="ent0021" data-link-type="dependency" data-source-line="71" id="lnk66"><path d="M297.81,340.1779 C314.09,340.1779 325,340.1779 325,340.1779 C325,340.1779 325,419.9079 325,419.9079 C325,419.9079 423.54,419.9079 472.96,419.9079" fill="none" id="shell_scripts_install_archility_daily_systemd_sh-to-tool_cat" style="stroke:#181818;stroke-width:1;"/><polygon fill="#181818" points="478.96,419.9079,469.96,415.9079,473.96,419.9079,469.96,423.9079,478.96,419.9079" style="stroke:#181818;stroke-width:1;"/></g><!--link shell_scripts_install_archility_daily_systemd_sh to tool_systemctl--><g class="link" data-entity-1="ent0005" data-entity-2="ent0040" data-link-type="dependency" data-source-line="72" id="lnk67"><path d="M297.76,333.1379 C355.01,333.1379 411.08,333.1379 452.06,333.1379" fill="none" id="shell_scripts_install_archility_daily_systemd_sh-to-tool_systemctl" style="stroke:#181818;stroke-width:1;"/><polygon fill="#181818" points="458.06,333.1379,449.06,329.1379,453.06,333.1379,449.06,337.1379,458.06,333.1379" style="stroke:#181818;stroke-width:1;"/></g><!--link shell_scripts_install_archility_weekly_systemd_sh to tool_cat--><g class="link" data-entity-1="ent0006" data-entity-2="ent0021" data-link-type="dependency" data-source-line="73" id="lnk68"><path d="M304.82,429.7179 C371,429.7179 436.14,429.7179 472.95,429.7179" fill="none" id="shell_scripts_install_archility_weekly_systemd_sh-to-tool_cat" style="stroke:#181818;stroke-width:1;"/><polygon fill="#181818" points="478.95,429.7179,469.95,425.7179,473.95,429.7179,469.95,433.7179,478.95,429.7179" style="stroke:#181818;stroke-width:1;"/></g><!--link shell_scripts_install_archility_weekly_systemd_sh to tool_systemctl--><g class="link" data-entity-1="ent0006" data-entity-2="ent0040" data-link-type="dependency" data-source-line="74" id="lnk69"><path d="M301,381.8679 C301,368.3679 301,356.5379 301,356.5379 C301,356.5379 391.89,356.5379 451.88,356.5379" fill="none" id="shell_scripts_install_archility_weekly_systemd_sh-to-tool_systemctl" style="stroke:#181818;stroke-width:1;"/><polygon fill="#181818" points="457.88,356.5379,448.88,352.5379,452.88,356.5379,448.88,360.5379,457.88,356.5379" style="stroke:#181818;stroke-width:1;"/></g><!--link shell_scripts_install_portfolio_audit_systemd_sh to tool_cat--><g class="link" data-entity-1="ent0007" data-entity-2="ent0021" data-link-type="dependency" data-source-line="75" id="lnk70"><path d="M301.71,518.6279 C321.41,518.6279 335,518.6279 335,518.6279 C335,518.6279 335,439.5279 335,439.5279 C335,439.5279 426.2,439.5279 473.29,439.5279" fill="none" id="shell_scripts_install_portfolio_audit_systemd_sh-to-tool_cat" style="stroke:#181818;stroke-width:1;"/><polygon fill="#181818" points="479.29,439.5279,470.29,435.5279,474.29,439.5279,470.29,443.5279,479.29,439.5279" style="stroke:#181818;stroke-width:1;"/></g><!--link shell_scripts_install_portfolio_audit_systemd_sh to tool_systemctl--><g class="link" data-entity-1="ent0007" data-entity-2="ent0040" data-link-type="dependency" data-source-line="76" id="lnk71"><path d="M301.7,506.3579 C309.97,506.3579 315,506.3579 315,506.3579 C315,506.3579 315,365.8479 315,365.8479 C315,365.8479 395.93,365.8479 451.96,365.8479" fill="none" id="shell_scripts_install_portfolio_audit_systemd_sh-to-tool_systemctl" style="stroke:#181818;stroke-width:1;"/><polygon fill="#181818" points="457.96,365.8479,448.96,361.8479,452.96,365.8479,448.96,369.8479,457.96,365.8479" style="stroke:#181818;stroke-width:1;"/></g><!--link shell_scripts_portfolio_audit_sh to tool_editorconfig--><g class="link" data-entity-1="ent0008" data-entity-2="ent0010" data-link-type="dependency" data-source-line="77" id="lnk72"><path d="M119,2033.7279 C119,1884.7379 119,1358.6279 119,1358.6279 C119,1358.6279 333.68,1358.6279 441,1358.6279" fill="none" id="shell_scripts_portfolio_audit_sh-to-tool_editorconfig" style="stroke:#181818;stroke-width:1;"/><polygon fill="#181818" points="447,1358.6279,438,1354.6279,442,1358.6279,438,1362.6279,447,1358.6279" style="stroke:#181818;stroke-width:1;"/></g><!--link shell_scripts_portfolio_audit_sh to tool_gitignore--><g class="link" data-entity-1="ent0008" data-entity-2="ent0011" data-link-type="dependency" data-source-line="78" id="lnk73"><path d="M137,2033.6879 C137,1896.3379 137,1442.6279 137,1442.6279 C137,1442.6279 351.81,1442.6279 451,1442.6279" fill="none" id="shell_scripts_portfolio_audit_sh-to-tool_gitignore" style="stroke:#181818;stroke-width:1;"/><polygon fill="#181818" points="457,1442.6279,448,1438.6279,452,1442.6279,448,1446.6279,457,1442.6279" style="stroke:#181818;stroke-width:1;"/></g><!--link shell_scripts_portfolio_audit_sh to tool_agents_md--><g class="link" data-entity-1="ent0008" data-entity-2="ent0012" data-link-type="dependency" data-source-line="79" id="lnk74"><path d="M156,2033.7979 C156,1909.0579 156,1526.6279 156,1526.6279 C156,1526.6279 345.9,1526.6279 443.84,1526.6279" fill="none" id="shell_scripts_portfolio_audit_sh-to-tool_agents_md" style="stroke:#181818;stroke-width:1;"/><polygon fill="#181818" points="449.84,1526.6279,440.84,1522.6279,444.84,1526.6279,440.84,1530.6279,449.84,1526.6279" style="stroke:#181818;stroke-width:1;"/></g><!--link shell_scripts_portfolio_audit_sh to tool_changelog_md--><g class="link" data-entity-1="ent0008" data-entity-2="ent0013" data-link-type="dependency" data-source-line="80" id="lnk75"><path d="M174,2033.6279 C174,1922.2479 174,1610.6279 174,1610.6279 C174,1610.6279 330.82,1610.6279 427.82,1610.6279" fill="none" id="shell_scripts_portfolio_audit_sh-to-tool_changelog_md" style="stroke:#181818;stroke-width:1;"/><polygon fill="#181818" points="433.82,1610.6279,424.82,1606.6279,428.82,1610.6279,424.82,1614.6279,433.82,1610.6279" style="stroke:#181818;stroke-width:1;"/></g><!--link shell_scripts_portfolio_audit_sh to tool_code_of_conduct_md--><g class="link" data-entity-1="ent0008" data-entity-2="ent0014" data-link-type="dependency" data-source-line="81" id="lnk76"><path d="M192,2033.5979 C192,1937.0179 192,1694.6279 192,1694.6279 C192,1694.6279 310.66,1694.6279 402.45,1694.6279" fill="none" id="shell_scripts_portfolio_audit_sh-to-tool_code_of_conduct_md" style="stroke:#181818;stroke-width:1;"/><polygon fill="#181818" points="408.45,1694.6279,399.45,1690.6279,403.45,1694.6279,399.45,1698.6279,408.45,1694.6279" style="stroke:#181818;stroke-width:1;"/></g><!--link shell_scripts_portfolio_audit_sh to tool_contributing_md--><g class="link" data-entity-1="ent0008" data-entity-2="ent0015" data-link-type="dependency" data-source-line="82" id="lnk77"><path d="M211,2033.5879 C211,1953.6079 211,1778.6279 211,1778.6279 C211,1778.6279 331.3,1778.6279 418.13,1778.6279" fill="none" id="shell_scripts_portfolio_audit_sh-to-tool_contributing_md" style="stroke:#181818;stroke-width:1;"/><polygon fill="#181818" points="424.13,1778.6279,415.13,1774.6279,419.13,1778.6279,415.13,1782.6279,424.13,1778.6279" style="stroke:#181818;stroke-width:1;"/></g><!--link shell_scripts_portfolio_audit_sh to tool_lessonslearned_md--><g class="link" data-entity-1="ent0008" data-entity-2="ent0016" data-link-type="dependency" data-source-line="83" id="lnk78"><path d="M229,2033.6179 C229,1972.8879 229,1862.6279 229,1862.6279 C229,1862.6279 329.18,1862.6279 409.65,1862.6279" fill="none" id="shell_scripts_portfolio_audit_sh-to-tool_lessonslearned_md" style="stroke:#181818;stroke-width:1;"/><polygon fill="#181818" points="415.65,1862.6279,406.65,1858.6279,410.65,1862.6279,406.65,1866.6279,415.65,1862.6279" style="stroke:#181818;stroke-width:1;"/></g><!--link shell_scripts_portfolio_audit_sh to tool_pull_request_template_md--><g class="link" data-entity-1="ent0008" data-entity-2="ent0017" data-link-type="dependency" data-source-line="84" id="lnk79"><path d="M247.53,2041.0679 C321.76,2041.0679 414,2041.0679 414,2041.0679 C414,2041.0679 414,2005.4179 414,1977.4379" fill="none" id="shell_scripts_portfolio_audit_sh-to-tool_pull_request_template_md" style="stroke:#181818;stroke-width:1;"/><polygon fill="#181818" points="414,1971.4379,410,1980.4379,414,1976.4379,418,1980.4379,414,1971.4379" style="stroke:#181818;stroke-width:1;"/></g><!--link shell_scripts_portfolio_audit_sh to tool_readme_md--><g class="link" data-entity-1="ent0008" data-entity-2="ent0018" data-link-type="dependency" data-source-line="85" id="lnk80"><path d="M247.32,2048.1079 C311.05,2048.1079 387.99,2048.1079 442.15,2048.1079" fill="none" id="shell_scripts_portfolio_audit_sh-to-tool_readme_md" style="stroke:#181818;stroke-width:1;"/><polygon fill="#181818" points="448.15,2048.1079,439.15,2044.1079,443.15,2048.1079,439.15,2052.1079,448.15,2048.1079" style="stroke:#181818;stroke-width:1;"/></g><!--link shell_scripts_portfolio_audit_sh to tool_security_md--><g class="link" data-entity-1="ent0008" data-entity-2="ent0019" data-link-type="dependency" data-source-line="86" id="lnk81"><path d="M247.32,2093.1079 C309.54,2093.1079 384.06,2093.1079 438.24,2093.1079" fill="none" id="shell_scripts_portfolio_audit_sh-to-tool_security_md" style="stroke:#181818;stroke-width:1;"/><polygon fill="#181818" points="444.24,2093.1079,435.24,2089.1079,439.24,2093.1079,435.24,2097.1079,444.24,2093.1079" style="stroke:#181818;stroke-width:1;"/></g><!--link shell_scripts_portfolio_audit_sh to tool_bug_report_md--><g class="link" data-entity-1="ent0008" data-entity-2="ent0020" data-link-type="dependency" data-source-line="87" id="lnk82"><path d="M221,2111.4579 C221,2148.4779 221,2198.6279 221,2198.6279 C221,2198.6279 349.65,2198.6279 433.27,2198.6279" fill="none" id="shell_scripts_portfolio_audit_sh-to-tool_bug_report_md" style="stroke:#181818;stroke-width:1;"/><polygon fill="#181818" points="439.27,2198.6279,430.27,2194.6279,434.27,2198.6279,430.27,2202.6279,439.27,2198.6279" style="stroke:#181818;stroke-width:1;"/></g><!--link shell_scripts_portfolio_audit_sh to tool_contributor_architecture_blueprint_md--><g class="link" data-entity-1="ent0008" data-entity-2="ent0022" data-link-type="dependency" data-source-line="88" id="lnk83"><path d="M247.34,2096.1279 C308.21,2096.1279 377,2096.1279 377,2096.1279 C377,2096.1279 377,2201.1279 377,2251.8579" fill="none" id="shell_scripts_portfolio_audit_sh-to-tool_contributor_architecture_blueprint_md" style="stroke:#181818;stroke-width:1;"/><polygon fill="#181818" points="377,2257.8579,381,2248.8579,377,2252.8579,373,2248.8579,377,2257.8579" style="stroke:#181818;stroke-width:1;"/></g><!--link shell_scripts_portfolio_audit_sh to tool_feature_request_md--><g class="link" data-entity-1="ent0008" data-entity-2="ent0024" data-link-type="dependency" data-source-line="89" id="lnk84"><path d="M169,2111.6679 C169,2191.6379 169,2366.6279 169,2366.6279 C169,2366.6279 318.77,2366.6279 417.96,2366.6279" fill="none" id="shell_scripts_portfolio_audit_sh-to-tool_feature_request_md" style="stroke:#181818;stroke-width:1;"/><polygon fill="#181818" points="423.96,2366.6279,414.96,2362.6279,418.96,2366.6279,414.96,2370.6279,423.96,2366.6279" style="stroke:#181818;stroke-width:1;"/></g><!--link shell_scripts_portfolio_audit_sh to tool_ln--><g class="link" data-entity-1="ent0008" data-entity-2="ent0027" data-link-type="dependency" data-source-line="90" id="lnk85"><path d="M117,2111.3579 C117,2220.4479 117,2522.3579 117,2522.3579 C117,2522.3579 395.7,2522.3579 476.89,2522.3579" fill="none" id="shell_scripts_portfolio_audit_sh-to-tool_ln" style="stroke:#181818;stroke-width:1;"/><polygon fill="#181818" points="482.89,2522.3579,473.89,2518.3579,477.89,2522.3579,473.89,2526.3579,482.89,2522.3579" style="stroke:#181818;stroke-width:1;"/></g><!--link shell_scripts_portfolio_audit_sh to tool_log--><g class="link" data-entity-1="ent0008" data-entity-2="ent0028" data-link-type="dependency" data-source-line="91" id="lnk86"><path d="M91,2111.2979 C91,2234.6179 91,2610.4479 91,2610.4479 C91,2610.4479 382.62,2610.4479 472.72,2610.4479" fill="none" id="shell_scripts_portfolio_audit_sh-to-tool_log" style="stroke:#181818;stroke-width:1;"/><polygon fill="#181818" points="478.72,2610.4479,469.72,2606.4479,473.72,2610.4479,469.72,2614.4479,478.72,2610.4479" style="stroke:#181818;stroke-width:1;"/></g><!--link shell_scripts_portfolio_audit_sh to tool_mapfile--><g class="link" data-entity-1="ent0008" data-entity-2="ent0029" data-link-type="dependency" data-source-line="92" id="lnk87"><path d="M247.44,2099.1479 C253.94,2099.1479 258,2099.1479 258,2099.1479 C258,2099.1479 258,2690.3579 258,2690.3579 C258,2690.3579 388.37,2690.3579 458.15,2690.3579" fill="none" id="shell_scripts_portfolio_audit_sh-to-tool_mapfile" style="stroke:#181818;stroke-width:1;"/><polygon fill="#181818" points="464.15,2690.3579,455.15,2686.3579,459.15,2690.3579,455.15,2694.3579,464.15,2690.3579" style="stroke:#181818;stroke-width:1;"/></g><!--link shell_scripts_portfolio_audit_sh to tool_mkdir--><g class="link" data-entity-1="ent0008" data-entity-2="ent0030" data-link-type="dependency" data-source-line="93" id="lnk88"><path d="M247.45,2102.1679 C252.76,2102.1679 256,2102.1679 256,2102.1679 C256,2102.1679 256,2790.1279 256,2790.1279 C256,2790.1279 395.15,2790.1279 463.48,2790.1279" fill="none" id="shell_scripts_portfolio_audit_sh-to-tool_mkdir" style="stroke:#181818;stroke-width:1;"/><polygon fill="#181818" points="469.48,2790.1279,460.48,2786.1279,464.48,2790.1279,460.48,2794.1279,469.48,2790.1279" style="stroke:#181818;stroke-width:1;"/></g><!--link shell_scripts_portfolio_audit_sh to tool_repo_architecture_drawio--><g class="link" data-entity-1="ent0008" data-entity-2="ent0032" data-link-type="dependency" data-source-line="94" id="lnk89"><path d="M143,2111.6479 C143,2208.2279 143,2450.6279 143,2450.6279 C143,2450.6279 293.97,2450.6279 400.97,2450.6279" fill="none" id="shell_scripts_portfolio_audit_sh-to-tool_repo_architecture_drawio" style="stroke:#181818;stroke-width:1;"/><polygon fill="#181818" points="406.97,2450.6279,397.97,2446.6279,401.97,2450.6279,397.97,2454.6279,406.97,2450.6279" style="stroke:#181818;stroke-width:1;"/></g><!--link shell_scripts_portfolio_audit_sh to tool_repo_architecture_puml--><g class="link" data-entity-1="ent0008" data-entity-2="ent0033" data-link-type="dependency" data-source-line="95" id="lnk90"><path d="M83,2033.5879 C83,1862.8979 83,1190.6279 83,1190.6279 C83,1190.6279 282.67,1190.6279 406.59,1190.6279" fill="none" id="shell_scripts_portfolio_audit_sh-to-tool_repo_architecture_puml" style="stroke:#181818;stroke-width:1;"/><polygon fill="#181818" points="412.59,1190.6279,403.59,1186.6279,407.59,1190.6279,403.59,1194.6279,412.59,1190.6279" style="stroke:#181818;stroke-width:1;"/></g><!--link shell_scripts_portfolio_audit_sh to tool_sort--><g class="link" data-entity-1="ent0008" data-entity-2="ent0037" data-link-type="dependency" data-source-line="96" id="lnk91"><path d="M247.55,2105.1879 C251.6,2105.1879 254,2105.1879 254,2105.1879 C254,2105.1879 254,2862.4479 254,2862.4479 C254,2862.4479 404.59,2862.4479 470.04,2862.4479" fill="none" id="shell_scripts_portfolio_audit_sh-to-tool_sort" style="stroke:#181818;stroke-width:1;"/><polygon fill="#181818" points="476.04,2862.4479,467.04,2858.4479,471.04,2862.4479,467.04,2866.4479,476.04,2862.4479" style="stroke:#181818;stroke-width:1;"/></g><!--link shell_scripts_portfolio_audit_sh to tool_tee--><g class="link" data-entity-1="ent0008" data-entity-2="ent0042" data-link-type="dependency" data-source-line="97" id="lnk92"><path d="M247.36,2108.2079 C250.3,2108.2079 252,2108.2079 252,2108.2079 C252,2108.2079 252,2942.3579 252,2942.3579 C252,2942.3579 408.55,2942.3579 472.68,2942.3579" fill="none" id="shell_scripts_portfolio_audit_sh-to-tool_tee" style="stroke:#181818;stroke-width:1;"/><polygon fill="#181818" points="478.68,2942.3579,469.68,2938.3579,473.68,2942.3579,469.68,2946.3579,478.68,2942.3579" style="stroke:#181818;stroke-width:1;"/></g><!--link shell_scripts_portfolio_audit_sh to tool_warn--><g class="link" data-entity-1="ent0008" data-entity-2="ent0044" data-link-type="dependency" data-source-line="98" id="lnk93"><path d="M101,2033.5979 C101,1873.3779 101,1274.6279 101,1274.6279 C101,1274.6279 370.9,1274.6279 466.28,1274.6279" fill="none" id="shell_scripts_portfolio_audit_sh-to-tool_warn" style="stroke:#181818;stroke-width:1;"/><polygon fill="#181818" points="472.28,1274.6279,463.28,1270.6279,467.28,1274.6279,463.28,1278.6279,472.28,1274.6279" style="stroke:#181818;stroke-width:1;"/></g><!--link shell_scripts_run_tachometer_profile_sh to tool_run--><g class="link" data-entity-1="ent0009" data-entity-2="ent0034" data-link-type="dependency" data-source-line="99" id="lnk94"><path d="M265,143.5879 C265,129.1179 265,116.1679 265,116.1679 C265,116.1679 408.71,116.1679 471.28,116.1679" fill="none" id="shell_scripts_run_tachometer_profile_sh-to-tool_run" style="stroke:#181818;stroke-width:1;"/><polygon fill="#181818" points="477.28,116.1679,468.28,112.1679,472.28,116.1679,468.28,120.1679,477.28,116.1679" style="stroke:#181818;stroke-width:1;"/></g><!--link shell_scripts_run_tachometer_profile_sh to tool_summarize--><g class="link" data-entity-1="ent0009" data-entity-2="ent0039" data-link-type="dependency" data-source-line="100" id="lnk95"><path d="M277.16,182.6279 C337.07,182.6279 400.2,182.6279 446.29,182.6279" fill="none" id="shell_scripts_run_tachometer_profile_sh-to-tool_summarize" style="stroke:#181818;stroke-width:1;"/><polygon fill="#181818" points="452.29,182.6279,443.29,178.6279,447.29,182.6279,443.29,186.6279,452.29,182.6279" style="stroke:#181818;stroke-width:1;"/></g><!--link shell_scripts_run_tachometer_profile_sh to tool_tachometer--><g class="link" data-entity-1="ent0009" data-entity-2="ent0041" data-link-type="dependency" data-source-line="101" id="lnk96"><path d="M277.07,214.1879 C377.57,214.1879 504,214.1879 504,214.1879 C504,214.1879 504,222.1279 504,235.6379" fill="none" id="shell_scripts_run_tachometer_profile_sh-to-tool_tachometer" style="stroke:#181818;stroke-width:1;"/><polygon fill="#181818" points="504,241.6379,508,232.6379,504,236.6379,500,232.6379,504,241.6379" style="stroke:#181818;stroke-width:1;"/></g><?plantuml-src jLXDR-Cs4BthLmZPIozsYmRzkXJmsd8Qm76saNCei011IsE924Mg9DNK_VKb7KUYH5eojzkB3SwyzpWQaKEE554KOYLmfWXdiump9JYDqnAe_iq4gLMyflmred1GiUAn84Mfufm8E34Y-K9OZGMkObdYdByILiG7J2LOdXmEkA5ghSMtk8BuWJCkQvpPc8nNDMV0LAgEEY8ZZrb1RGWb3DInXfWBLVAeXSGtyXIe_1QBh2IKgECinuGUvxBypBwBASymrU6PHuAy0FcP_HZ3tme4qtR5EPKtCPPl27JMGgqMEcaXMSOVLX-JnJePd_aLuEMhJVqcDZ5tLaBsWWgYocQFwaQMA2ENv_zbUdwVu4GCX4c5jOIJjQDKKEMNm_b-Efm9xU38tfFwluJM5xyojbglw0EdX2FSv4HzrT0kQ4z4rh9c9zP895U4ueGmEhLe658uAta5MXVLWXy8XSiHt4u7u9UquyWeR_BuPWuwFYvq6JoGuYHa995jZJ-ia_NjygUMelS9AHWNqE5Rqn2yk4ksktHUvHqM5xheILJbG-pojyNsBjaytlNWMQdJ1PGNFiRZAa6FQxHytAwUbxi-Z-U0-47_ixp9b9UztJtTVtpUtMy7Kvf3WUmRfMkxXxT9qlHncswInTCsMVMO5AJaJ5B0Wa7kuNvwtcpGK_BxSvBkq2vv-BHPx9AUHDtezoZWpmQaGdhXrXGhy2Wz9OlLGvyg0EUL3vico-Ud-zqVFRI4h15c1xluVLDeCREAUupExE5aM5aPnChnloULYzcfUYYz4ne1iprje1Q4AVyxu0BPSDJ2FJ4ST9aqc8mtp8gcPtOuW4-wvvJtWXZuF3CIzXUc91_Es3CFEUPOHwofzY2ibTCP7JopOCpnSclVwi7GN-7QxFqESpOuk1Tznx5GPZZ4C6uEni6pMiOXtYoMtikUvmA_4culsPhtt-yRObgfRYewfcFyZafZfL8FXdu9LBE_cPTw8wKbjlUASI1ZrxS-XqO1QWjiXWv6xneBeaSEeiaoNJw6wUsPNKvLOK7-0Hj_DZdOqpcOAIjhhMc8xSwE3jpP73HOy-k1uoSLy4ODdwnd7d9UTGNje6RK8YQlhRFPh--x9GJCYm3qUHU5CCoE2i2RDH80rtcFfc_LrwJ6Xnx9ZGS-bHmVPJGx7i9eUZnuDp-NRlqjHPzYePJUKHDAxfqQeMJh00cbMXKybDelZC5iKoc3INP132NtQauKt7QDB8qGTbjte_3kAYY44VfK32Djr1KXNCE-586dUsevTcCIG6lxam1EswS4SEnc9OJcz2f1v5wt4i1qkfK0xgKs9K2YRLS2E5RJ4i3gDIvVajgn9YH0p-qdGjuM2m7paEtXFwz76PxZUlnT--_v_qd2NF53revxOnY3knU6CRIveKRNVeJfdgdv0b9xmm-dTkw8SGNjXwCxWUioFUaUepJ3JDU3-EVpPwUp_ZnQWScyzdW-IrdUsny67wZc4R0yDXF-2m00?></g></svg>
