<?plantuml 1.2026.2?><svg xmlns="http://www.w3.org/2000/svg" xmlns:xlink="http://www.w3.org/1999/xlink" contentStyleType="text/css" data-diagram-type="DESCRIPTION" height="527px" preserveAspectRatio="none" style="width:353px;height:527px;background:#FFFFFF;" version="1.1" viewBox="0 0 353 527" width="353px" zoomAndPan="magnify"><title>traction-control Shell Script Flow</title><defs/><g><g class="title" data-source-line="1"><text fill="#000000" font-family="Monospace" font-size="14" font-weight="bold" lengthAdjust="spacing" textLength="226.2217" x="56.7143" y="24.9659">traction-control&#160;Shell&#160;Script&#160;Flow</text></g><!--entity shell_scripts_archility_weekly_sh--><g class="entity" data-qualified-name="shell_scripts_archility_weekly_sh" data-source-line="7" id="ent0002"><rect fill="#DBEAFE" height="77.2038" rx="2.5" ry="2.5" style="stroke:#181818;stroke-width:0.5;" width="189.0773" x="8.38" y="241.929"/><text fill="#000000" font-family="Monospace" font-size="14" lengthAdjust="spacing" textLength="169.0773" x="18.38" y="266.8949">scripts/archility-weekly.sh</text><text fill="#000000" font-family="Monospace" font-size="14" lengthAdjust="spacing" textLength="119.3915" x="18.38" y="285.9628">0&#160;local&#160;shell&#160;edges</text><text fill="#000000" font-family="Monospace" font-size="14" lengthAdjust="spacing" textLength="101.7516" x="18.38" y="305.0307">6&#160;external&#160;tools</text></g><!--entity tool_ln--><g class="entity" data-qualified-name="tool_ln" data-source-line="8" id="ent0003"><path d="M287.8932,55.5794 C289.7069,48.3992 295.3591,47.1587 300.2255,52.5956 C306.4142,46.0679 311.2275,47.8024 313.9882,55.8357 C321.8589,60.3673 321.118,66.084 314.5463,71.1422 C321.47,75.8919 321.179,83.1045 313.9113,87.2963 C313.1836,97.4946 308.5013,99.7273 299.7847,94.7166 C293.9619,98.5845 287.6439,96.763 287.5598,88.7913 C275.7852,88.041 271.8257,80.192 279.3402,70.6851 C275.4709,62.5136 278.5808,56.2874 287.8932,55.5794" fill="#FEF3C7" style="stroke:#181818;stroke-width:0.5;"/><text fill="#000000" font-family="Monospace" font-size="14" lengthAdjust="spacing" textLength="12.2639" x="293.45" y="75.9649">ln</text></g><!--entity tool_log--><g class="entity" data-qualified-name="tool_log" data-source-line="9" id="ent0004"><path d="M283.5212,138.0677 C287.8457,130.4693 295.2804,129.0104 300.7151,136.8296 C308.1004,128.7517 314.1845,130.6959 318.4505,140.0104 C327.8219,141.2625 331.8819,146.1551 327.047,155.3622 C333.1378,165.089 327.4644,171.5131 317.5761,172.3107 C314.6891,182.2527 309.0222,184.6181 300.6633,177.8485 C292.3666,184.9261 284.5834,181.0264 282.6146,171.1228 C274.802,166.8441 272.37,162.2219 279.8787,155.2949 C272.8108,148.0769 273.6957,141.7138 283.5212,138.0677" fill="#FEF3C7" style="stroke:#181818;stroke-width:0.5;"/><text fill="#000000" font-family="Monospace" font-size="14" lengthAdjust="spacing" textLength="20.6919" x="289.23" y="159.9649">log</text></g><!--entity tool_mapfile--><g class="entity" data-qualified-name="tool_mapfile" data-source-line="10" id="ent0005"><path d="M268.8543,223.1575 C273.5122,214.2458 281.1085,214.6089 285.6899,223.231 C289.6345,215.9911 294.9631,216.6593 299.5989,222.4959 C305.3968,214.5747 311.8212,215.587 317.2371,222.9372 C321.7948,214.9055 328.3039,215.5105 332.3184,223.4501 C343.2073,223.9689 345.1131,229.9399 341.0696,238.9109 C346.6503,248.6205 344.03,255.2897 332.1956,255.9061 C329.8713,264.3909 322.0627,264.6467 316.7681,259.1939 C313.5965,269.4411 307.6459,270.5816 300.0094,263.5159 C293.6813,269.6391 288.9587,268.9198 284.7905,261.1499 C277.1191,266.3182 271.6829,265.81 268.4442,256.2352 C258.7467,253.1396 256.3298,247.4001 263.9929,239.6462 C258.4015,232.8124 258.7164,225.3538 268.8543,223.1575" fill="#FEF3C7" style="stroke:#181818;stroke-width:0.5;"/><text fill="#000000" font-family="Monospace" font-size="14" lengthAdjust="spacing" textLength="49.4898" x="274.84" y="243.9649">mapfile</text></g><!--entity tool_mkdir--><g class="entity" data-qualified-name="tool_mkdir" data-source-line="11" id="ent0006"><path d="M274.6113,306.5563 C278.4359,300.7203 283.7633,300.7192 287.0887,307.0676 C290.6158,300.2041 296.1826,300.4817 300.9147,305.6872 C304.8526,299.6542 309.1004,300.1782 313.3956,305.2869 C317.7427,299.9449 322.9954,299.5024 326.1007,306.5594 C338.7044,306.7791 341.2408,313.9684 336.8445,324.4163 C341.4329,333.1695 335.9385,339.6001 327.0293,339.6654 C324.0907,345.9288 320.2179,348.1823 314.3734,342.8321 C311.5257,349.5184 305.3346,351.1626 300.0139,345.7725 C294.5832,350.2904 290.6974,348.1386 288.625,342.1367 C282.9431,349.3588 276.5304,347.3807 273.4783,339.4994 C264.1284,337.4365 259.7533,332.9409 265.6115,323.4319 C260.1552,312.9976 264.4196,308.6455 274.6113,306.5563" fill="#FEF3C7" style="stroke:#181818;stroke-width:0.5;"/><text fill="#000000" font-family="Monospace" font-size="14" lengthAdjust="spacing" textLength="38.5699" x="280.3" y="327.9649">mkdir</text></g><!--entity tool_sort--><g class="entity" data-qualified-name="tool_sort" data-source-line="12" id="ent0007"><path d="M281.6072,390.377 C286.3701,380.3099 293.0473,381.6343 299.7571,388.2601 C307.6291,378.595 316.7798,381.9572 321.456,391.8125 C329.6856,395.3562 330.8039,401.1413 324.2493,407.3439 C330.5594,414.0375 329.4198,420.7829 321.198,424.9595 C318.8484,437.0797 309.608,438.896 300.5896,432.3042 C290.6203,439.2405 282.2044,434.2832 280.1983,423.2618 C271.3034,418.8553 271.7623,410.7916 280.4888,406.6941 C274.1131,401.4783 273.7605,394.6181 281.6072,390.377" fill="#FEF3C7" style="stroke:#181818;stroke-width:0.5;"/><text fill="#000000" font-family="Monospace" font-size="14" lengthAdjust="spacing" textLength="26.0119" x="286.57" y="411.9649">sort</text></g><!--entity tool_tee--><g class="entity" data-qualified-name="tool_tee" data-source-line="13" id="ent0008"><path d="M283.4512,474.0677 C287.7974,466.4368 295.2657,464.9738 300.7221,472.8296 C308.1324,464.7122 314.2435,466.66 318.5345,476.0104 C327.9059,477.2625 331.9659,482.1551 327.131,491.3622 C333.2218,501.089 327.5484,507.5131 317.6601,508.3107 C314.7478,518.2896 309.0545,520.6572 300.6703,513.8485 C292.3524,520.9642 284.5346,517.0607 282.5446,507.1228 C274.732,502.8441 272.3,498.2219 279.8087,491.2949 C272.7408,484.0769 273.6257,477.7138 283.4512,474.0677" fill="#FEF3C7" style="stroke:#181818;stroke-width:0.5;"/><text fill="#000000" font-family="Monospace" font-size="14" lengthAdjust="spacing" textLength="20.8459" x="289.16" y="495.9649">tee</text></g><g class="entity" data-qualified-name="shellGraphSummary" data-source-line="21" id="ent0015"><path d="M6,143.979 L6,207.097 L199.8351,207.097 L199.8351,153.979 L189.8351,143.979 L6,143.979" fill="#FEFFDD" style="stroke:#181818;stroke-width:0.5;"/><path d="M189.8351,143.979 L189.8351,153.979 L199.8351,153.979 L189.8351,143.979" fill="#FEFFDD" style="stroke:#181818;stroke-width:1;"/><text fill="#000000" font-family="Monospace" font-size="13" lengthAdjust="spacing" textLength="135.3041" x="12" y="162.876">Scanned&#160;1&#160;shell&#160;script.</text><text fill="#000000" font-family="Monospace" font-size="13" lengthAdjust="spacing" textLength="172.8351" x="12" y="180.582">Detected&#160;0&#160;local&#160;shell&#160;edges.</text><text fill="#000000" font-family="Monospace" font-size="13" lengthAdjust="spacing" textLength="156.4551" x="12" y="198.288">Detected&#160;6&#160;external&#160;tools.</text></g><!--link shell_scripts_archility_weekly_sh to tool_ln--><g class="link" data-entity-1="ent0002" data-entity-2="ent0003" data-link-type="dependency" data-source-line="14" id="lnk9"><path d="M197.69,247.219 C211.04,247.219 220.32,247.219 220.32,247.219 C220.32,247.219 220.32,70.539 220.32,70.539 C220.32,70.539 248.86,70.539 272.34,70.539" fill="none" id="shell_scripts_archility_weekly_sh-to-tool_ln" style="stroke:#181818;stroke-width:1;"/><polygon fill="#181818" points="278.34,70.539,269.34,66.539,273.34,70.539,269.34,74.539,278.34,70.539" style="stroke:#181818;stroke-width:1;"/></g><!--link shell_scripts_archility_weekly_sh to tool_log--><g class="link" data-entity-1="ent0002" data-entity-2="ent0004" data-link-type="dependency" data-source-line="15" id="lnk10"><path d="M197.6,252.499 C221.4,252.499 240.32,252.499 240.32,252.499 C240.32,252.499 240.32,161.519 240.32,161.519 C240.32,161.519 251.79,161.519 267.76,161.519" fill="none" id="shell_scripts_archility_weekly_sh-to-tool_log" style="stroke:#181818;stroke-width:1;"/><polygon fill="#181818" points="273.76,161.519,264.76,157.519,268.76,161.519,264.76,165.519,273.76,161.519" style="stroke:#181818;stroke-width:1;"/></g><!--link shell_scripts_archility_weekly_sh to tool_mapfile--><g class="link" data-entity-1="ent0002" data-entity-2="ent0005" data-link-type="dependency" data-source-line="16" id="lnk11"><path d="M197.79,257.789 C219.6,257.789 235.63,257.789 253.59,257.789" fill="none" id="shell_scripts_archility_weekly_sh-to-tool_mapfile" style="stroke:#181818;stroke-width:1;"/><polygon fill="#181818" points="259.59,257.789,250.59,253.789,254.59,257.789,250.59,261.789,259.59,257.789" style="stroke:#181818;stroke-width:1;"/></g><!--link shell_scripts_archility_weekly_sh to tool_mkdir--><g class="link" data-entity-1="ent0002" data-entity-2="ent0006" data-link-type="dependency" data-source-line="17" id="lnk12"><path d="M197.79,308.569 C221.76,308.569 240,308.569 258.81,308.569" fill="none" id="shell_scripts_archility_weekly_sh-to-tool_mkdir" style="stroke:#181818;stroke-width:1;"/><polygon fill="#181818" points="264.81,308.569,255.81,304.569,259.81,308.569,255.81,312.569,264.81,308.569" style="stroke:#181818;stroke-width:1;"/></g><!--link shell_scripts_archility_weekly_sh to tool_sort--><g class="link" data-entity-1="ent0002" data-entity-2="ent0007" data-link-type="dependency" data-source-line="18" id="lnk13"><path d="M134.32,319.369 C134.32,356.389 134.32,406.539 134.32,406.539 C134.32,406.539 217.92,406.539 265.17,406.539" fill="none" id="shell_scripts_archility_weekly_sh-to-tool_sort" style="stroke:#181818;stroke-width:1;"/><polygon fill="#181818" points="271.17,406.539,262.17,402.539,266.17,406.539,262.17,410.539,271.17,406.539" style="stroke:#181818;stroke-width:1;"/></g><!--link shell_scripts_archility_weekly_sh to tool_tee--><g class="link" data-entity-1="ent0002" data-entity-2="ent0008" data-link-type="dependency" data-source-line="19" id="lnk14"><path d="M71.32,319.539 C71.32,380.269 71.32,490.539 71.32,490.539 C71.32,490.539 208.15,490.539 267.84,490.539" fill="none" id="shell_scripts_archility_weekly_sh-to-tool_tee" style="stroke:#181818;stroke-width:1;"/><polygon fill="#181818" points="273.84,490.539,264.84,486.539,268.84,490.539,264.84,494.539,273.84,490.539" style="stroke:#181818;stroke-width:1;"/></g><?plantuml-src bP9DIyD048Rl-HL3UqvL1Bq9QXjFUicr49RDD5awcGcxKsh-lPisnX05oMLXzdtcdGz6dHA2UcFL2QTMMBqGv3LIVArthK96Sau83megu5rLAvJEuoKZ2KV7hV6cWL2RKiwEApWO2ZXHIZoO4saMpJzCW_0kBA4rTifOQLfXPCsrYntrzeOhcYBa6BLh4SHhBSc8m2fS6WqtnjlQaTCkFICUgTk4Ui-tG68DnVxwcR2iCEpv0V1JqNFyLn4AAp3XIXI3MJ6Q5LUp8jImthxidhDTOabE9Qo8BtczGq4CwsoNtRy-ZgfK4rcgkTwOzk08VvZXunTtZEkUK7quPqBSoG_IHtD2SL8f1gF-_zHf-lGzuo9QgYNuCFsYb7uLInBwnIpXuvuI5iNnEjwyQUlyr3J6Tqbk3JEMS3VSrjLoasnHusr6uO_JcwZp6zmao2NqvRu0?></g></svg>
