<?plantuml 1.2026.2?><svg xmlns="http://www.w3.org/2000/svg" xmlns:xlink="http://www.w3.org/1999/xlink" contentStyleType="text/css" data-diagram-type="DESCRIPTION" height="976px" preserveAspectRatio="none" style="width:483px;height:976px;background:#FFFFFF;" version="1.1" viewBox="0 0 483 976" width="483px" zoomAndPan="magnify"><title>traction-control Shell Script Flow</title><defs/><g><g class="title" data-source-line="1"><text fill="#000000" font-family="Monospace" font-size="14" font-weight="bold" lengthAdjust="spacing" textLength="226.2217" x="121.7211" y="24.9659">traction-control&#160;Shell&#160;Script&#160;Flow</text></g><!--entity shell_scripts_archility_weekly_sh--><g class="entity" data-qualified-name="shell_scripts_archility_weekly_sh" data-source-line="7" id="ent0002"><rect fill="#DBEAFE" height="77.2038" rx="2.5" ry="2.5" style="stroke:#181818;stroke-width:0.5;" width="189.0773" x="61.22" y="690.0179"/><text fill="#000000" font-family="Monospace" font-size="14" lengthAdjust="spacing" textLength="169.0773" x="71.22" y="714.9839">scripts/archility-weekly.sh</text><text fill="#000000" font-family="Monospace" font-size="14" lengthAdjust="spacing" textLength="119.3915" x="71.22" y="734.0518">0&#160;local&#160;shell&#160;edges</text><text fill="#000000" font-family="Monospace" font-size="14" lengthAdjust="spacing" textLength="101.7516" x="71.22" y="753.1197">6&#160;external&#160;tools</text></g><!--entity shell_scripts_install_archility_weekly_systemd_sh--><g class="entity" data-qualified-name="shell_scripts_install_archility_weekly_systemd_sh" data-source-line="8" id="ent0003"><rect fill="#DBEAFE" height="77.2038" rx="2.5" ry="2.5" style="stroke:#181818;stroke-width:0.5;" width="297.5209" x="7" y="354.0179"/><text fill="#000000" font-family="Monospace" font-size="14" lengthAdjust="spacing" textLength="277.5209" x="17" y="378.9839">scripts/install_archility_weekly_systemd.sh</text><text fill="#000000" font-family="Monospace" font-size="14" lengthAdjust="spacing" textLength="119.3915" x="17" y="398.0518">0&#160;local&#160;shell&#160;edges</text><text fill="#000000" font-family="Monospace" font-size="14" lengthAdjust="spacing" textLength="101.7516" x="17" y="417.1197">2&#160;external&#160;tools</text></g><!--entity shell_scripts_run_tachometer_profile_sh--><g class="entity" data-qualified-name="shell_scripts_run_tachometer_profile_sh" data-source-line="9" id="ent0004"><rect fill="#DBEAFE" height="77.2038" rx="2.5" ry="2.5" style="stroke:#181818;stroke-width:0.5;" width="242.2912" x="34.61" y="144.0179"/><text fill="#000000" font-family="Monospace" font-size="14" lengthAdjust="spacing" textLength="222.2912" x="44.61" y="168.9839">scripts/run_tachometer_profile.sh</text><text fill="#000000" font-family="Monospace" font-size="14" lengthAdjust="spacing" textLength="119.3915" x="44.61" y="188.0518">0&#160;local&#160;shell&#160;edges</text><text fill="#000000" font-family="Monospace" font-size="14" lengthAdjust="spacing" textLength="101.7516" x="44.61" y="207.1197">3&#160;external&#160;tools</text></g><!--entity tool_cat--><g class="entity" data-qualified-name="tool_cat" data-source-line="10" id="ent0005"><path d="M401.8582,335.102 C405.7419,324.992 412.6092,325.3969 419.3721,332.1033 C426.8559,325.411 431.2146,328.2705 434.8238,336.1983 C443.4392,339.3511 443.9273,344.8433 438.6219,351.4603 C444.5694,357.6174 444.1912,365.5145 434.7411,368.0752 C432.4183,377.8909 425.1367,378.8902 417.7782,373.8096 C409.9632,379.9014 404.7119,377.1764 402.3027,368.2422 C391.5425,366.9926 390.1303,361.5466 394.7537,352.7843 C389.044,344.7136 390.5907,336.3515 401.8582,335.102" fill="#FEF3C7" style="stroke:#181818;stroke-width:0.5;"/><text fill="#000000" font-family="Monospace" font-size="14" lengthAdjust="spacing" textLength="19.6279" x="407.94" y="356.0539">cat</text></g><!--entity tool_ln--><g class="entity" data-qualified-name="tool_ln" data-source-line="11" id="ent0006"><path d="M406.0632,503.6683 C407.8769,496.4882 413.5291,495.2476 418.3955,500.6846 C424.5842,494.1569 429.3975,495.8913 432.1582,503.9246 C440.0289,508.4562 439.288,514.1729 432.7163,519.2311 C439.64,523.9808 439.349,531.1934 432.0813,535.3852 C431.3536,545.5835 426.6713,547.8162 417.9547,542.8056 C412.1319,546.6734 405.8139,544.852 405.7298,536.8802 C393.9552,536.13 389.9957,528.2809 397.5102,518.7741 C393.6409,510.6026 396.7508,504.3763 406.0632,503.6683" fill="#FEF3C7" style="stroke:#181818;stroke-width:0.5;"/><text fill="#000000" font-family="Monospace" font-size="14" lengthAdjust="spacing" textLength="12.2639" x="411.62" y="524.0539">ln</text></g><!--entity tool_log--><g class="entity" data-qualified-name="tool_log" data-source-line="12" id="ent0007"><path d="M401.7012,586.1566 C406.0257,578.5582 413.4604,577.0994 418.8951,584.9186 C426.2804,576.8407 432.3645,578.7849 436.6305,588.0994 C446.0019,589.3515 450.0619,594.2441 445.227,603.4512 C451.3178,613.1779 445.6444,619.602 435.7561,620.3996 C432.8691,630.3416 427.2022,632.707 418.8433,625.9374 C410.5466,633.0151 402.7634,629.1153 400.7946,619.2117 C392.982,614.933 390.55,610.3108 398.0587,603.3839 C390.9908,596.1659 391.8757,589.8028 401.7012,586.1566" fill="#FEF3C7" style="stroke:#181818;stroke-width:0.5;"/><text fill="#000000" font-family="Monospace" font-size="14" lengthAdjust="spacing" textLength="20.6919" x="407.41" y="608.0539">log</text></g><!--entity tool_mapfile--><g class="entity" data-qualified-name="tool_mapfile" data-source-line="13" id="ent0008"><path d="M387.0243,671.2465 C391.6822,662.3347 399.2785,662.6978 403.8599,671.3199 C407.8045,664.08 413.1331,664.7483 417.7689,670.5849 C423.5668,662.6636 429.9912,663.6759 435.4071,671.0261 C439.9648,662.9945 446.4739,663.5995 450.4884,671.539 C461.3773,672.0579 463.2831,678.0288 459.2396,686.9998 C464.8203,696.7094 462.2,703.3787 450.3656,703.9951 C448.0413,712.4798 440.2327,712.7356 434.9381,707.2829 C431.7665,717.53 425.8159,718.6706 418.1794,711.6049 C411.8513,717.728 407.1287,717.0088 402.9605,709.2388 C395.2891,714.4072 389.8529,713.899 386.6142,704.3242 C376.9167,701.2285 374.4998,695.4891 382.1629,687.7351 C376.5715,680.9014 376.8864,673.4427 387.0243,671.2465" fill="#FEF3C7" style="stroke:#181818;stroke-width:0.5;"/><text fill="#000000" font-family="Monospace" font-size="14" lengthAdjust="spacing" textLength="49.4898" x="393.01" y="692.0539">mapfile</text></g><!--entity tool_mkdir--><g class="entity" data-qualified-name="tool_mkdir" data-source-line="14" id="ent0009"><path d="M392.7813,754.6453 C396.6059,748.8092 401.9333,748.8081 405.2587,755.1565 C408.7858,748.2931 414.3526,748.5706 419.0847,753.7761 C423.0226,747.7431 427.2704,748.2672 431.5656,753.3759 C435.9127,748.0338 441.1654,747.5913 444.2707,754.6484 C456.8744,754.868 459.4108,762.0573 455.0145,772.5053 C459.6029,781.2585 454.1085,787.689 445.1993,787.7543 C442.2607,794.0177 438.3879,796.2713 432.5434,790.921 C429.6957,797.6074 423.5046,799.2515 418.1839,793.8614 C412.7532,798.3793 408.8674,796.2275 406.795,790.2257 C401.1131,797.4477 394.7004,795.4697 391.6483,787.5884 C382.2984,785.5254 377.9233,781.0298 383.7815,771.5208 C378.3252,761.0865 382.5896,756.7344 392.7813,754.6453" fill="#FEF3C7" style="stroke:#181818;stroke-width:0.5;"/><text fill="#000000" font-family="Monospace" font-size="14" lengthAdjust="spacing" textLength="38.5699" x="398.47" y="776.0539">mkdir</text></g><!--entity tool_run--><g class="entity" data-qualified-name="tool_run" data-source-line="15" id="ent0010"><path d="M399.4202,83.7206 C404.2918,74.5793 412.5948,72.9796 419.6551,81.1643 C425.5187,73.4004 433.8435,75.1383 437.2427,83.8025 C446.8323,84.5113 452.5216,89.2644 447.0344,99.4237 C452.2685,108.8702 448.7665,114.29 438.393,115.1728 C438.1546,127.8975 431.8231,132.8921 419.8297,126.7209 C408.923,131.7536 401.7606,130.2676 401.0602,116.5203 C391.3993,115.6856 387.6111,107.594 392.9639,99.5827 C387.9085,91.4557 390.3247,86.0877 399.4202,83.7206" fill="#FEF3C7" style="stroke:#181818;stroke-width:0.5;"/><text fill="#000000" font-family="Monospace" font-size="14" lengthAdjust="spacing" textLength="23.0859" x="406.21" y="104.0539">run</text></g><!--entity tool_sort--><g class="entity" data-qualified-name="tool_sort" data-source-line="16" id="ent0011"><path d="M399.7872,838.466 C404.5501,828.3988 411.2273,829.7233 417.9371,836.3491 C425.8091,826.684 434.9598,830.0462 439.636,839.9015 C447.8656,843.4452 448.9839,849.2303 442.4293,855.4328 C448.7394,862.1265 447.5998,868.8719 439.378,873.0484 C437.0284,885.1686 427.788,886.9849 418.7696,880.3931 C408.8003,887.3294 400.3844,882.3721 398.3783,871.3507 C389.4834,866.9442 389.9423,858.8806 398.6688,854.7831 C392.2931,849.5672 391.9405,842.707 399.7872,838.466" fill="#FEF3C7" style="stroke:#181818;stroke-width:0.5;"/><text fill="#000000" font-family="Monospace" font-size="14" lengthAdjust="spacing" textLength="26.0119" x="404.75" y="860.0539">sort</text></g><!--entity tool_summarize--><g class="entity" data-qualified-name="tool_summarize" data-source-line="17" id="ent0012"><path d="M375.2862,166.5582 C380.4805,158.938 385.7179,160.5117 390.1454,167.3463 C393.7619,160.1952 399.4694,160.4295 403.5502,166.8889 C408.3842,159.4254 413.1509,158.1554 419.3559,165.4173 C423.4167,158.0497 430.5165,158.3157 434.1406,165.8507 C438.7251,158.9913 445.6165,159.2684 448.8324,167.2093 C452.4689,161.3947 459.169,160.8323 462.3317,167.7131 C471.6994,167.7838 475.8094,175.6006 470.7193,183.4012 C476.6639,192.0143 472.9913,198.0168 463.3964,199.6089 C459.6144,207.4605 452.0245,207.3684 447.1062,200.9018 C443.7999,209.0189 438.5183,208.5099 433.2595,202.8665 C430.4674,210.2474 423.5839,209.7345 419.5246,204.2159 C414.6956,209.7927 409.7255,210.7718 405.3881,203.6679 C399.8302,209.3358 393.5088,208.6447 390.4119,200.9165 C386.222,208.6363 379.7319,208.6764 375.8576,200.6253 C365.2976,199.7699 363.3651,190.4676 368.8071,183.1545 C363.4933,175.9706 364.5592,167.4798 375.2862,166.5582" fill="#FEF3C7" style="stroke:#181818;stroke-width:0.5;"/><text fill="#000000" font-family="Monospace" font-size="14" lengthAdjust="spacing" textLength="73.2617" x="381.12" y="188.0539">summarize</text></g><!--entity tool_systemctl--><g class="entity" data-qualified-name="tool_systemctl" data-source-line="18" id="ent0013"><path d="M379.9243,418.3534 C383.3648,412.4346 389.8893,411.7528 392.99,418.6983 C396.7316,411.9876 401.7685,411.9109 406.3023,417.8655 C410.3341,411.6184 414.8724,412.111 419.3176,417.399 C422.8615,411.3649 426.5275,411.9477 430.4713,416.9966 C435.4321,410.3373 439.9037,411.2981 443.7166,418.1241 C447.304,412.7637 453.5425,411.856 456.5965,418.6875 C465.2928,421.4202 468.2891,429.6276 461.8098,436.7422 C467.1452,442.5469 465.362,449.3289 457.7804,451.6399 C455.211,460.1785 449.6783,460.8496 443.371,455.525 C440.7089,461.1251 436.5698,461.8727 431.9165,457.9101 C429.0541,464.5331 423.7362,466.5256 418.7894,459.9895 C413.348,465.5597 408.9152,464.2314 406.4195,457.1169 C402.0227,462.4105 396.3029,462.7854 393.3861,455.5744 C388.4675,459.6436 384.048,460.3731 381.4884,453.1 C370.7243,449.9817 370.5823,444.1142 376.4576,436.0782 C369.6774,428.82 369.9647,422.3375 379.9243,418.3534" fill="#FEF3C7" style="stroke:#181818;stroke-width:0.5;"/><text fill="#000000" font-family="Monospace" font-size="14" lengthAdjust="spacing" textLength="61.9778" x="386.77" y="440.0539">systemctl</text></g><!--entity tool_tachometer--><g class="entity" data-qualified-name="tool_tachometer" data-source-line="19" id="ent0014"><path d="M374.0972,250.5407 C376.8707,245.4674 381.426,245.8275 384.1574,250.5838 C388.2384,244.3592 393.5857,245.7847 397.0426,251.2706 C400.3605,245.7844 403.6163,245.3578 407.3578,250.8735 C410.2486,243.9695 414.8021,243.9311 419.5358,248.9988 C423.3508,243.7614 427.7424,245.8605 430.0233,250.6099 C433.1561,245.4805 437.1849,245.266 440.706,250.1974 C444.5474,244.356 449.4507,245.4784 452.5176,251.0023 C455.586,245.2988 460.2269,246.5977 463.2023,251.0997 C471.4308,254.911 472.1121,261.9247 464.9496,267.3871 C472.97,272.3506 472.451,278.0323 465.1184,283.1601 C461.9361,288.562 457.6487,289.3027 453.7212,283.9498 C451.0629,290.6154 446.0021,290.8738 441.488,285.9002 C437.5225,291.2838 434.2046,290.5477 430.4871,285.6352 C428.0791,291.3225 422.8153,291.4648 419.8116,286.2166 C416.4025,290.9532 411.305,291.3701 408.1893,285.8832 C404.1647,289.6621 399.4551,289.9421 397.3226,283.809 C394.323,290.8278 388.1863,290.0666 384.1472,284.9363 C380.6031,289.4139 374.977,289.0496 372.6247,283.5587 C363.8179,282.4097 360.8625,274.1643 365.7387,267.2411 C361.0221,257.8382 362.4416,251.7494 374.0972,250.5407" fill="#FEF3C7" style="stroke:#181818;stroke-width:0.5;"/><text fill="#000000" font-family="Monospace" font-size="14" lengthAdjust="spacing" textLength="76.4677" x="379.52" y="272.0539">tachometer</text></g><!--entity tool_tee--><g class="entity" data-qualified-name="tool_tee" data-source-line="20" id="ent0015"><path d="M401.6212,922.1566 C405.9674,914.5258 413.4357,913.0628 418.8921,920.9186 C426.3024,912.8011 432.4135,914.7489 436.7045,924.0994 C446.0759,925.3515 450.1359,930.2441 445.301,939.4512 C451.3918,949.1779 445.7184,955.602 435.8301,956.3996 C432.9178,966.3786 427.2245,968.7461 418.8403,961.9374 C410.5224,969.0531 402.7046,965.1497 400.7146,955.2117 C392.902,950.933 390.47,946.3108 397.9787,939.3839 C390.9108,932.1659 391.7957,925.8028 401.6212,922.1566" fill="#FEF3C7" style="stroke:#181818;stroke-width:0.5;"/><text fill="#000000" font-family="Monospace" font-size="14" lengthAdjust="spacing" textLength="20.8459" x="407.33" y="944.0539">tee</text></g><g class="entity" data-qualified-name="shellGraphSummary" data-source-line="33" id="ent0027"><path d="M58.84,46.0679 L58.84,109.186 L252.6751,109.186 L252.6751,56.0679 L242.6751,46.0679 L58.84,46.0679" fill="#FEFFDD" style="stroke:#181818;stroke-width:0.5;"/><path d="M242.6751,46.0679 L242.6751,56.0679 L252.6751,56.0679 L242.6751,46.0679" fill="#FEFFDD" style="stroke:#181818;stroke-width:1;"/><text fill="#000000" font-family="Monospace" font-size="13" lengthAdjust="spacing" textLength="141.5311" x="64.84" y="64.9649">Scanned&#160;3&#160;shell&#160;scripts.</text><text fill="#000000" font-family="Monospace" font-size="13" lengthAdjust="spacing" textLength="172.8351" x="64.84" y="82.6709">Detected&#160;0&#160;local&#160;shell&#160;edges.</text><text fill="#000000" font-family="Monospace" font-size="13" lengthAdjust="spacing" textLength="163.8911" x="64.84" y="100.377">Detected&#160;11&#160;external&#160;tools.</text></g><!--link shell_scripts_archility_weekly_sh to tool_ln--><g class="link" data-entity-1="ent0002" data-entity-2="ent0006" data-link-type="dependency" data-source-line="21" id="lnk16"><path d="M123.99,689.6179 C123.99,628.8879 123.99,518.6279 123.99,518.6279 C123.99,518.6279 322.31,518.6279 390.15,518.6279" fill="none" id="shell_scripts_archility_weekly_sh-to-tool_ln" style="stroke:#181818;stroke-width:1;"/><polygon fill="#181818" points="396.15,518.6279,387.15,514.6279,391.15,518.6279,387.15,522.6279,396.15,518.6279" style="stroke:#181818;stroke-width:1;"/></g><!--link shell_scripts_archility_weekly_sh to tool_log--><g class="link" data-entity-1="ent0002" data-entity-2="ent0007" data-link-type="dependency" data-source-line="22" id="lnk17"><path d="M186.99,689.7879 C186.99,652.7679 186.99,602.6279 186.99,602.6279 C186.99,602.6279 326.09,602.6279 386.18,602.6279" fill="none" id="shell_scripts_archility_weekly_sh-to-tool_log" style="stroke:#181818;stroke-width:1;"/><polygon fill="#181818" points="392.18,602.6279,383.18,598.6279,387.18,602.6279,383.18,606.6279,392.18,602.6279" style="stroke:#181818;stroke-width:1;"/></g><!--link shell_scripts_archility_weekly_sh to tool_mapfile--><g class="link" data-entity-1="ent0002" data-entity-2="ent0008" data-link-type="dependency" data-source-line="23" id="lnk18"><path d="M250.72,700.5879 C294.5,700.5879 338.11,700.5879 371.81,700.5879" fill="none" id="shell_scripts_archility_weekly_sh-to-tool_mapfile" style="stroke:#181818;stroke-width:1;"/><polygon fill="#181818" points="377.81,700.5879,368.81,696.5879,372.81,700.5879,368.81,704.5879,377.81,700.5879" style="stroke:#181818;stroke-width:1;"/></g><!--link shell_scripts_archility_weekly_sh to tool_mkdir--><g class="link" data-entity-1="ent0002" data-entity-2="ent0009" data-link-type="dependency" data-source-line="24" id="lnk19"><path d="M250.72,756.6579 C296.85,756.6579 343.44,756.6579 377.08,756.6579" fill="none" id="shell_scripts_archility_weekly_sh-to-tool_mkdir" style="stroke:#181818;stroke-width:1;"/><polygon fill="#181818" points="383.08,756.6579,374.08,752.6579,378.08,756.6579,374.08,760.6579,383.08,756.6579" style="stroke:#181818;stroke-width:1;"/></g><!--link shell_scripts_archility_weekly_sh to tool_sort--><g class="link" data-entity-1="ent0002" data-entity-2="ent0011" data-link-type="dependency" data-source-line="25" id="lnk20"><path d="M186.99,767.4579 C186.99,804.4779 186.99,854.6279 186.99,854.6279 C186.99,854.6279 321.84,854.6279 383.46,854.6279" fill="none" id="shell_scripts_archility_weekly_sh-to-tool_sort" style="stroke:#181818;stroke-width:1;"/><polygon fill="#181818" points="389.46,854.6279,380.46,850.6279,384.46,854.6279,380.46,858.6279,389.46,854.6279" style="stroke:#181818;stroke-width:1;"/></g><!--link shell_scripts_archility_weekly_sh to tool_tee--><g class="link" data-entity-1="ent0002" data-entity-2="ent0015" data-link-type="dependency" data-source-line="26" id="lnk21"><path d="M123.99,767.6279 C123.99,828.3579 123.99,938.6279 123.99,938.6279 C123.99,938.6279 314.26,938.6279 385.94,938.6279" fill="none" id="shell_scripts_archility_weekly_sh-to-tool_tee" style="stroke:#181818;stroke-width:1;"/><polygon fill="#181818" points="391.94,938.6279,382.94,934.6279,386.94,938.6279,382.94,942.6279,391.94,938.6279" style="stroke:#181818;stroke-width:1;"/></g><!--link shell_scripts_install_archility_weekly_systemd_sh to tool_cat--><g class="link" data-entity-1="ent0003" data-entity-2="ent0005" data-link-type="dependency" data-source-line="27" id="lnk22"><path d="M304.74,364.5879 C338.85,364.5879 365.29,364.5879 386.59,364.5879" fill="none" id="shell_scripts_install_archility_weekly_systemd_sh-to-tool_cat" style="stroke:#181818;stroke-width:1;"/><polygon fill="#181818" points="392.59,364.5879,383.59,360.5879,387.59,364.5879,383.59,368.5879,392.59,364.5879" style="stroke:#181818;stroke-width:1;"/></g><!--link shell_scripts_install_archility_weekly_systemd_sh to tool_systemctl--><g class="link" data-entity-1="ent0003" data-entity-2="ent0013" data-link-type="dependency" data-source-line="28" id="lnk23"><path d="M304.74,420.6579 C328.94,420.6579 346.3,420.6579 365.44,420.6579" fill="none" id="shell_scripts_install_archility_weekly_systemd_sh-to-tool_systemctl" style="stroke:#181818;stroke-width:1;"/><polygon fill="#181818" points="371.44,420.6579,362.44,416.6579,366.44,420.6579,362.44,424.6579,371.44,420.6579" style="stroke:#181818;stroke-width:1;"/></g><!--link shell_scripts_run_tachometer_profile_sh to tool_run--><g class="link" data-entity-1="ent0004" data-entity-2="ent0010" data-link-type="dependency" data-source-line="29" id="lnk24"><path d="M264.99,143.5879 C264.99,129.1179 264.99,116.1679 264.99,116.1679 C264.99,116.1679 340.94,116.1679 384.79,116.1679" fill="none" id="shell_scripts_run_tachometer_profile_sh-to-tool_run" style="stroke:#181818;stroke-width:1;"/><polygon fill="#181818" points="390.79,116.1679,381.79,112.1679,385.79,116.1679,381.79,120.1679,390.79,116.1679" style="stroke:#181818;stroke-width:1;"/></g><!--link shell_scripts_run_tachometer_profile_sh to tool_summarize--><g class="link" data-entity-1="ent0004" data-entity-2="ent0012" data-link-type="dependency" data-source-line="30" id="lnk25"><path d="M277.17,182.6279 C308.36,182.6279 334.28,182.6279 359.8,182.6279" fill="none" id="shell_scripts_run_tachometer_profile_sh-to-tool_summarize" style="stroke:#181818;stroke-width:1;"/><polygon fill="#181818" points="365.8,182.6279,356.8,178.6279,360.8,182.6279,356.8,186.6279,365.8,182.6279" style="stroke:#181818;stroke-width:1;"/></g><!--link shell_scripts_run_tachometer_profile_sh to tool_tachometer--><g class="link" data-entity-1="ent0004" data-entity-2="ent0014" data-link-type="dependency" data-source-line="31" id="lnk26"><path d="M277.28,214.1879 C345.87,214.1879 417.99,214.1879 417.99,214.1879 C417.99,214.1879 417.99,222.1279 417.99,235.6379" fill="none" id="shell_scripts_run_tachometer_profile_sh-to-tool_tachometer" style="stroke:#181818;stroke-width:1;"/><polygon fill="#181818" points="417.99,241.6379,421.99,232.6379,417.99,236.6379,413.99,232.6379,417.99,241.6379" style="stroke:#181818;stroke-width:1;"/></g><?plantuml-src fLHDZvim4BtpAwpiEMbt8xMtIcqtxAczvBeIiim4h0mpo9uefR--XYLWGLOiwWLf_3xcmGmMAmXAd3PYcRQ6IHoZEfQ0uMcShKMboDS4uIHAM3bRbA9oww1J9FvigTPELygNEkUhfKATD7g8a1nE-eAI1lFVkWBrYubzhKtCCLpLJ41ob2OaQkqr5HXJq198KuDY9oKd0qLjV1VKVzBEb1QjDDihm1cRdIzVwRD2DXf3llQT82_0lz8N1Ny478LpOKQ_KTg_CRBUB1lCiZUpp9VguVd7uNjwkDVRaXSTv7DPumMg_FqiJyjPbimNihaBPQ9DoHM4Hbdj-6GHta-qNqvqtpBEOP0lkTeOBPsyDSf2eHxIGxh_-VM68uqmqWpb8eAvcEALhjk-8wS_cF7EOMKZLbjEEU6LHaOefhWFUpSIsch6k5ILTlPlb6Sucd6xoHd1Y7ixcdB73psInxCP6wB-eHZmvVtURh_T9h6ApSKQUZ-ZLP9sO6i4xNZMyCDtIjR_SuCyBFR_o8V99n_zomPfeAmN3LkvNZh22R70S3EyE5sNnywtIOv64q6kzlszqlllakSWD1AGE_TEX3u-JcwWNGAKgxRXFm00?></g></svg>
