<?plantuml 1.2026.2?><svg xmlns="http://www.w3.org/2000/svg" xmlns:xlink="http://www.w3.org/1999/xlink" contentStyleType="text/css" data-diagram-type="DESCRIPTION" height="2320px" preserveAspectRatio="none" style="width:650px;height:2320px;background:#FFFFFF;" version="1.1" viewBox="0 0 650 2320" width="650px" zoomAndPan="magnify"><title>traction-control Shell Script Flow</title><defs/><g><g class="title" data-source-line="1"><text fill="#000000" font-family="Monospace" font-size="14" font-weight="bold" lengthAdjust="spacing" textLength="226.2217" x="205.3874" y="24.9659">traction-control&#160;Shell&#160;Script&#160;Flow</text></g><!--entity shell_scripts_archility_daily_sh--><g class="entity" data-qualified-name="shell_scripts_archility_daily_sh" data-source-line="7" id="ent0002"><rect fill="#DBEAFE" height="77.2038" rx="2.5" ry="2.5" style="stroke:#181818;stroke-width:0.5;" width="174.8814" x="68.32" y="2090.0179"/><text fill="#000000" font-family="Monospace" font-size="14" lengthAdjust="spacing" textLength="154.8814" x="78.32" y="2114.9839">scripts/archility-daily.sh</text><text fill="#000000" font-family="Monospace" font-size="14" lengthAdjust="spacing" textLength="119.3915" x="78.32" y="2134.0518">0&#160;local&#160;shell&#160;edges</text><text fill="#000000" font-family="Monospace" font-size="14" lengthAdjust="spacing" textLength="101.7516" x="78.32" y="2153.1197">6&#160;external&#160;tools</text></g><!--entity shell_scripts_archility_weekly_sh--><g class="entity" data-qualified-name="shell_scripts_archility_weekly_sh" data-source-line="8" id="ent0003"><rect fill="#DBEAFE" height="77.2038" rx="2.5" ry="2.5" style="stroke:#181818;stroke-width:0.5;" width="189.0773" x="61.22" y="1978.0179"/><text fill="#000000" font-family="Monospace" font-size="14" lengthAdjust="spacing" textLength="169.0773" x="71.22" y="2002.9839">scripts/archility-weekly.sh</text><text fill="#000000" font-family="Monospace" font-size="14" lengthAdjust="spacing" textLength="119.3915" x="71.22" y="2022.0518">0&#160;local&#160;shell&#160;edges</text><text fill="#000000" font-family="Monospace" font-size="14" lengthAdjust="spacing" textLength="101.7516" x="71.22" y="2041.1197">6&#160;external&#160;tools</text></g><!--entity shell_scripts_install_archility_daily_systemd_sh--><g class="entity" data-qualified-name="shell_scripts_install_archility_daily_systemd_sh" data-source-line="9" id="ent0004"><rect fill="#DBEAFE" height="77.2038" rx="2.5" ry="2.5" style="stroke:#181818;stroke-width:0.5;" width="283.325" x="14.1" y="270.0179"/><text fill="#000000" font-family="Monospace" font-size="14" lengthAdjust="spacing" textLength="263.325" x="24.1" y="294.9839">scripts/install_archility_daily_systemd.sh</text><text fill="#000000" font-family="Monospace" font-size="14" lengthAdjust="spacing" textLength="119.3915" x="24.1" y="314.0518">0&#160;local&#160;shell&#160;edges</text><text fill="#000000" font-family="Monospace" font-size="14" lengthAdjust="spacing" textLength="101.7516" x="24.1" y="333.1197">2&#160;external&#160;tools</text></g><!--entity shell_scripts_install_archility_weekly_systemd_sh--><g class="entity" data-qualified-name="shell_scripts_install_archility_weekly_systemd_sh" data-source-line="10" id="ent0005"><rect fill="#DBEAFE" height="77.2038" rx="2.5" ry="2.5" style="stroke:#181818;stroke-width:0.5;" width="297.5209" x="7" y="382.0179"/><text fill="#000000" font-family="Monospace" font-size="14" lengthAdjust="spacing" textLength="277.5209" x="17" y="406.9839">scripts/install_archility_weekly_systemd.sh</text><text fill="#000000" font-family="Monospace" font-size="14" lengthAdjust="spacing" textLength="119.3915" x="17" y="426.0518">0&#160;local&#160;shell&#160;edges</text><text fill="#000000" font-family="Monospace" font-size="14" lengthAdjust="spacing" textLength="101.7516" x="17" y="445.1197">2&#160;external&#160;tools</text></g><!--entity shell_scripts_install_portfolio_audit_systemd_sh--><g class="entity" data-qualified-name="shell_scripts_install_portfolio_audit_systemd_sh" data-source-line="11" id="ent0006"><rect fill="#DBEAFE" height="77.2038" rx="2.5" ry="2.5" style="stroke:#181818;stroke-width:0.5;" width="291.137" x="10.19" y="494.0179"/><text fill="#000000" font-family="Monospace" font-size="14" lengthAdjust="spacing" textLength="271.137" x="20.19" y="518.9839">scripts/install_portfolio_audit_systemd.sh</text><text fill="#000000" font-family="Monospace" font-size="14" lengthAdjust="spacing" textLength="119.3915" x="20.19" y="538.0518">0&#160;local&#160;shell&#160;edges</text><text fill="#000000" font-family="Monospace" font-size="14" lengthAdjust="spacing" textLength="101.7516" x="20.19" y="557.1197">2&#160;external&#160;tools</text></g><!--entity shell_scripts_portfolio_audit_sh--><g class="entity" data-qualified-name="shell_scripts_portfolio_audit_sh" data-source-line="12" id="ent0007"><rect fill="#DBEAFE" height="77.2038" rx="2.5" ry="2.5" style="stroke:#181818;stroke-width:0.5;" width="182.6934" x="64.41" y="1362.0179"/><text fill="#000000" font-family="Monospace" font-size="14" lengthAdjust="spacing" textLength="162.6934" x="74.41" y="1386.9839">scripts/portfolio-audit.sh</text><text fill="#000000" font-family="Monospace" font-size="14" lengthAdjust="spacing" textLength="119.3915" x="74.41" y="1406.0518">0&#160;local&#160;shell&#160;edges</text><text fill="#000000" font-family="Monospace" font-size="14" lengthAdjust="spacing" textLength="109.7596" x="74.41" y="1425.1197">22&#160;external&#160;tools</text></g><!--entity shell_scripts_run_tachometer_profile_sh--><g class="entity" data-qualified-name="shell_scripts_run_tachometer_profile_sh" data-source-line="13" id="ent0008"><rect fill="#DBEAFE" height="77.2038" rx="2.5" ry="2.5" style="stroke:#181818;stroke-width:0.5;" width="242.2912" x="34.61" y="144.0179"/><text fill="#000000" font-family="Monospace" font-size="14" lengthAdjust="spacing" textLength="222.2912" x="44.61" y="168.9839">scripts/run_tachometer_profile.sh</text><text fill="#000000" font-family="Monospace" font-size="14" lengthAdjust="spacing" textLength="119.3915" x="44.61" y="188.0518">0&#160;local&#160;shell&#160;edges</text><text fill="#000000" font-family="Monospace" font-size="14" lengthAdjust="spacing" textLength="101.7516" x="44.61" y="207.1197">3&#160;external&#160;tools</text></g><!--entity tool_editorconfig--><g class="entity" data-qualified-name="tool_editorconfig" data-source-line="14" id="ent0009"><path d="M456.6553,671.229 C459.6611,665.6068 464.9094,664.821 468.3115,670.8319 C471.2978,664.1321 476.9491,664.1327 481.3205,669.3155 C485.5041,663.8408 489.0525,663.5303 493.088,669.4683 C496.7318,663.8069 502.2865,662.0822 506.2598,669.1267 C509.1246,663.3875 514.3387,664.9475 516.9326,669.41 C522.0467,664.2093 526.2632,664.2507 529.9917,670.9328 C532.9023,664.6752 537.4849,664.5434 541.1077,670.2723 C545.6347,664.597 552.0681,663.892 555.2212,671.7095 C564.4466,674.672 563.9952,682.9884 557.5905,688.197 C563.5292,695.8004 562.6337,701.1606 553.3053,704.831 C550.1382,709.6414 546.4778,709.9527 542.4653,705.8604 C539.0338,713.5934 534.2483,713.1236 528.8214,707.9738 C526.9004,714.1373 521.8635,714.4179 518.1059,709.799 C516.3308,716.0057 510.75,717.6781 506.1035,712.951 C501.0687,718.6087 495.8527,716.9942 492.8037,710.7348 C488.2349,715.7079 482.1583,714.6384 480.0334,708.0381 C475.7041,713.2518 471.0744,711.8486 468.8438,705.9288 C464.5347,711.6115 459.8577,709.1433 457.4224,703.9595 C447.313,702.0766 446.2059,695.1967 452.2672,688.068 C445.0271,680.5791 448.0069,674.5776 456.6553,671.229" fill="#FEF3C7" style="stroke:#181818;stroke-width:0.5;"/><text fill="#000000" font-family="Monospace" font-size="14" lengthAdjust="spacing" textLength="84.0557" x="462.23" y="692.0539">.editorconfig</text></g><!--entity tool_gitignore--><g class="entity" data-qualified-name="tool_gitignore" data-source-line="15" id="ent0010"><path d="M465.8053,754.336 C469.51,747.1403 475.648,747.8633 479.8525,753.8014 C483.0829,747.6445 488.7581,749.112 491.8256,753.9783 C496.3153,747.8689 501.1064,747.4937 505.131,754.4519 C509.6034,747.4947 515.3811,748.6938 519.4585,754.8825 C522.6647,749.0174 528.2165,747.9646 532.08,754.1967 C537.1394,748.4004 541.0533,749.2147 544.1046,756.1007 C553.5107,758.2276 556.3633,763.06 552.4729,772.1289 C557.4013,780.9286 554.1337,786.5129 544.3196,787.485 C541.3269,795.3957 537.0639,796.011 531.0648,790.441 C527.1325,797.1537 522.5547,796.56 517.7335,791.4426 C515.3014,798.2209 509.7213,797.8826 505.5636,793.2892 C500.8978,799.0574 494.9555,799.634 491.5166,792.0031 C486.5209,797.3413 481.6532,797.4398 478.8779,789.8349 C473.5543,795.0066 469.8256,793.5441 467.1115,787.1745 C457.3568,785.9276 455.3288,779.4007 459.8594,771.5313 C453.5699,764.1512 455.3842,755.9377 465.8053,754.336" fill="#FEF3C7" style="stroke:#181818;stroke-width:0.5;"/><text fill="#000000" font-family="Monospace" font-size="14" lengthAdjust="spacing" textLength="64.0498" x="472.24" y="776.0539">.gitignore</text></g><!--entity tool_agents_md--><g class="entity" data-qualified-name="tool_agents_md" data-source-line="16" id="ent0011"><path d="M458.8512,838.2314 C462.8221,833.5171 467.6846,833.609 470.8673,839.1545 C474.1713,834.1229 478.787,834.2877 482.2858,838.9244 C485.6834,833.4606 490.0993,833.7095 493.8117,838.5731 C497.9126,832.6587 502.0395,833.4685 506.0621,838.6595 C509.496,833.4468 513.9298,831.9302 518.0214,837.9599 C521.3802,833.265 524.3701,833.5336 527.7917,837.8921 C531.8202,832.1397 537.459,831.8676 540.6349,838.7581 C544.5638,834.1951 547.7623,835.2618 550.8617,839.7005 C560.2022,842.8401 561.1032,850.593 553.2109,856.188 C559.56,861.436 560.2083,868.0754 551.3585,871.4827 C549.0631,877.1931 543.6661,879.158 539.6514,873.209 C536.7044,878.7482 531.6188,879.5973 527.8611,874.073 C525.2915,879.3277 521.2933,881.5679 516.711,876.1822 C513.6386,881.5874 508.2166,882.6582 504.2852,877.1612 C500.3806,880.9691 497.3029,881.5471 494.3669,876.1209 C490.7229,880.5075 485.3404,879.3438 483.1685,874.3614 C478.6987,881.1871 474.1807,880.4244 470.3524,873.7523 C465.4864,878.6841 461.76,877.725 458.2986,872.1421 C450.8396,867.4323 449.4795,862.3049 456.3236,855.86 C448.5403,849.7652 448.9656,841.7928 458.8512,838.2314" fill="#FEF3C7" style="stroke:#181818;stroke-width:0.5;"/><text fill="#000000" font-family="Monospace" font-size="14" lengthAdjust="spacing" textLength="78.4837" x="465.02" y="860.0539">AGENTS.md</text></g><!--entity tool_changelog_md--><g class="entity" data-qualified-name="tool_changelog_md" data-source-line="17" id="ent0012"><path d="M443.6772,922.7804 C447.5165,917.0159 452.0095,917.8855 455.7391,922.9031 C458.9958,917.053 462.8651,917.0922 466.9665,922.0234 C471.6152,916.9543 475.8967,916.971 479.4632,923.2185 C482.7265,916.3357 489.6353,916.3338 493.2959,922.8069 C496.1445,915.7559 501.7281,914.6646 506.4488,920.9623 C510.6432,916.1865 514.7601,916.7468 518.158,921.9014 C522.1765,916.1486 526.2449,916.4954 530.4359,921.7084 C534.2982,915.7651 537.8645,916.0415 541.7196,921.7155 C545.3839,915.5332 551.8763,915.9045 554.9373,922.347 C560.0422,915.4374 564.3953,917.5194 568.3298,923.5575 C577.7393,925.0101 581.0725,929.4269 577.1849,938.6706 C581.3868,947.9011 579.7671,954.3797 568.5093,955.7637 C564.6787,963.3203 559.8637,962.4857 554.8048,957.0604 C553.3446,963.2822 548.1173,965.4794 543.4409,960.253 C539.3008,966.439 534.7875,967.3476 529.9185,961.042 C527.0053,966.6459 521.0224,968.832 516.8843,962.3646 C514.443,969.8102 509.0965,969.6244 504.3799,964.6566 C500.558,969.4225 496.3882,970.3497 493.1786,964.0374 C487.6298,969.2483 482.5253,967.6312 479.7712,960.8997 C475.6224,966.4953 469.951,966.7574 466.9851,959.7041 C463.0749,964.3294 458.8282,964.7438 455.972,958.6238 C450.9493,965.7435 445.4622,964.5522 442.014,957.1141 C433.7661,951.7582 433.709,945.3769 440.8892,939.0599 C433.2902,932.9942 435.4666,926.1386 443.6772,922.7804" fill="#FEF3C7" style="stroke:#181818;stroke-width:0.5;"/><text fill="#000000" font-family="Monospace" font-size="14" lengthAdjust="spacing" textLength="110.6976" x="448.91" y="944.0539">CHANGELOG.md</text></g><!--entity tool_code_of_conduct_md--><g class="entity" data-qualified-name="tool_code_of_conduct_md" data-source-line="18" id="ent0013"><path d="M416.6288,1006.4477 C421.1401,999.8435 426.4322,1000.6478 430.2481,1007.1692 C433.6707,1000.1743 439.3342,1000.8527 443.6292,1006.2253 C447.2741,1000.2433 450.7468,1000.7862 454.6554,1005.9648 C459.0485,1000.3386 463.5181,1000.2485 468.127,1005.7025 C470.9893,1000.8978 476.0018,999.0574 479.5618,1004.9573 C484.2579,999.2344 489.4767,997.7116 493.7207,1005.4334 C498.0889,1000.1292 502.9376,999.4413 506.3577,1006.4097 C509.0195,1001.3721 513.9616,1001.4219 517.0819,1005.8925 C521.3466,1000.0376 526.2267,1000.2714 529.956,1006.4646 C533.8655,999.1887 540.5464,999.0997 544.0633,1006.8335 C547.7677,1001.3149 551.8627,1001.033 555.9877,1006.3715 C559.1002,1000.2289 564.9833,999.4582 568.7633,1005.6819 C573.1079,1001.86 577.113,1000.9757 579.7161,1007.5217 C583.6266,1000.6034 588.7862,1000.432 592.7195,1007.5005 C603.3526,1008.458 605.4673,1016.4122 599.693,1024.2151 C605.6449,1031.94 601.9477,1039.0749 592.5529,1039.7429 C589.973,1046.8039 583.8599,1046.4893 579.6553,1041.4788 C577.5338,1047.4775 571.7309,1047.9838 567.942,1043.3085 C563.9211,1049.902 559.8625,1050.3225 554.8119,1044.3877 C551.4853,1050.1873 547.5546,1051.2056 542.7703,1045.9797 C540.5316,1052.1346 535.6886,1052.4448 531.5536,1047.9833 C526.7525,1055.0337 522.1529,1053.8276 517.8633,1047.4614 C515.2787,1054.7018 510.7151,1056.0229 504.9215,1050.7912 C499.0732,1055.5865 494.5866,1054.4882 492.0283,1047.2625 C488.5933,1052.9486 483.2745,1052.504 480.8582,1046.3051 C477.2557,1053.02 471.4385,1053.2768 467.9872,1046.1644 C463.2073,1051.6533 459.5408,1051.3763 456.1588,1044.7946 C450.5764,1049.6545 446.0233,1050.5029 442.4614,1042.6223 C437.9167,1048.9741 432.5801,1048.5153 429.3291,1041.364 C425.3928,1046.3658 420.9084,1045.0164 418.8535,1039.4916 C409.636,1038.8897 405.5813,1032.7489 410.7829,1024.4238 C405.3283,1016.089 406.9371,1009.8568 416.6288,1006.4477" fill="#FEF3C7" style="stroke:#181818;stroke-width:0.5;"/><text fill="#000000" font-family="Monospace" font-size="14" lengthAdjust="spacing" textLength="161.3773" x="423.57" y="1028.0539">CODE_OF_CONDUCT.md</text></g><!--entity tool_contributing_md--><g class="entity" data-qualified-name="tool_contributing_md" data-source-line="19" id="ent0014"><path d="M433.6782,1092.0699 C436.7184,1086.4796 441.6746,1086.7669 445.3301,1091.3663 C448.6861,1085.9846 453.4735,1085.8629 457,1091.1804 C460.4216,1085.4443 464.7822,1083.9833 469.7421,1089.4271 C473.4493,1084.0024 478.4777,1084.0724 481.9219,1089.7165 C485.334,1085.0369 488.9345,1084.893 492.6172,1089.4014 C496.0712,1083.3552 500.9361,1082.7361 505.0724,1088.6934 C509.0141,1082.748 512.6507,1082.7531 516.4323,1088.8445 C521.3374,1082.8661 525.0297,1083.4207 528.4795,1090.217 C532.4804,1083.6961 536.9567,1083.4712 541.6205,1089.5242 C546.1806,1083.4809 550.2406,1084.3921 553.8578,1090.4757 C557.5408,1086.0995 562.3268,1085.3007 565.0596,1091.4837 C568.6068,1085.9212 573.3025,1084.9188 577.187,1091.1364 C586.9233,1095.4663 586.9605,1101.9779 579.0174,1108.2039 C586.3672,1113.9885 586.3198,1120.3449 577.9171,1125.104 C574.4132,1132.6196 569.3912,1133.1907 564.394,1126.5282 C560.9437,1132.0726 555.6768,1132.7906 552.4283,1126.3271 C549.8494,1132.8753 545.3767,1132.7291 541.0824,1128.0627 C538.6233,1133.1379 534.3293,1133.9651 530.3755,1129.7934 C526.2183,1136.1276 521.9182,1136.1036 517.1917,1130.4179 C513.9787,1135.581 510.5433,1137.0489 506.2223,1131.5589 C501.5699,1138.3184 495.8196,1136.7807 492.9724,1129.816 C489.2019,1135.0842 484.3174,1134.3477 481.89,1128.4795 C477.9845,1134.8756 473.0026,1133.4451 469.3403,1128.217 C464.4976,1133.6737 460.5855,1133.1659 457.1105,1126.8019 C453.008,1131.1596 449.6278,1131.1801 446.4646,1125.7774 C441.5675,1131.7817 437.3237,1130.2087 433.8087,1124.3081 C422.9131,1122.7932 420.2589,1116.1835 424.9306,1106.7825 C419.2202,1098.208 424.7225,1091.9244 433.6782,1092.0699" fill="#FEF3C7" style="stroke:#181818;stroke-width:0.5;"/><text fill="#000000" font-family="Monospace" font-size="14" lengthAdjust="spacing" textLength="129.8075" x="439.36" y="1112.0539">CONTRIBUTING.md</text></g><!--entity tool_lessonslearned_md--><g class="entity" data-qualified-name="tool_lessonslearned_md" data-source-line="20" id="ent0015"><path d="M425.9521,1175.9545 C429.3949,1170.3763 433.4871,1170.8199 437.145,1175.7249 C438.8427,1169.8502 443.821,1168.8131 447.5086,1173.8317 C451.2936,1169.0808 455.9684,1168.7655 459.3542,1174.2919 C462.095,1168.9521 467.8858,1168.3103 471.0229,1173.8675 C474.3794,1168.4598 480.1025,1168.1752 483.2263,1174.1178 C486.4318,1170.3415 490.4295,1169.7739 492.8906,1174.9237 C496.354,1169.2348 500.5472,1168.2198 505.5419,1173.0889 C509.3371,1168.1381 514.0482,1169.2064 516.0893,1174.8374 C519.1689,1169.3461 524.6328,1168.3585 528.1949,1174.3279 C531.5704,1169.0222 535.1964,1168.3037 539.4203,1173.4135 C542.7973,1167.9126 547.3856,1168.0777 550.3897,1173.7786 C555.0392,1167.1231 559.4792,1167.4837 563.6895,1174.2149 C566.7438,1170.0051 570.3867,1170.1266 573.3024,1174.3726 C576.726,1168.8471 582.4573,1169.1731 585.1988,1175.0824 C595.724,1176.2091 599.5978,1184.3647 592.4858,1192.7612 C597.0956,1200.9461 594.591,1206.5311 585.3742,1208.4476 C581.7092,1213.6213 577.2456,1213.3191 573.8652,1208.1314 C571.2284,1213.2077 565.781,1213.9317 562.7923,1208.5023 C558.7871,1214.1272 554.8157,1213.8419 551.1067,1208.1953 C548.625,1213.6505 545.0424,1213.7959 540.8826,1210.0625 C537.4149,1215.346 531.6153,1215.4914 528.4175,1209.7572 C525.2699,1214.6915 520.6917,1214.5048 517.4417,1209.8747 C513.8265,1215.3583 509.5223,1215.9045 505.753,1210.0334 C502.0568,1215.9039 497.6163,1215.2201 494.3075,1209.646 C489.9721,1214.1042 486.3846,1214.4951 483.4867,1208.1996 C479.7738,1215.1669 473.3766,1214.5866 469.8762,1207.9864 C466.6453,1213.2856 462.8689,1213.2737 459.2812,1208.3564 C455.8265,1213.7297 451.8712,1213.9515 448.6838,1208.1038 C443.8388,1215.0651 439.616,1214.2561 435.4707,1207.4332 C432.4863,1213.3996 427.1606,1212.7465 423.9758,1207.6413 C417.2541,1203.4489 415.8263,1197.0337 423.1436,1192.0901 C417.1021,1185.2646 417.1536,1180.197 425.9521,1175.9545" fill="#FEF3C7" style="stroke:#181818;stroke-width:0.5;"/><text fill="#000000" font-family="Monospace" font-size="14" lengthAdjust="spacing" textLength="146.6214" x="430.95" y="1196.0539">LESSONSLEARNED.md</text></g><!--entity tool_pull_request_template_md--><g class="entity" data-qualified-name="tool_pull_request_template_md" data-source-line="21" id="ent0016"><path d="M397.8522,1260.7606 C402.6481,1252.8637 408.6506,1250.9856 414.7829,1259.371 C419.0731,1253.1335 423.125,1252.8407 427.6855,1259.0916 C433.4047,1250.7389 438.9944,1252.9431 443.9139,1259.9371 C447.1479,1252.3243 453.4251,1249.7363 459.2782,1257.2823 C464.4457,1250.2667 470.4151,1249.5145 475.2495,1257.6338 C479.0132,1251.2585 485.8299,1249.9752 489.9696,1257.2278 C494.6544,1249.5566 502.1611,1248.0359 507.0939,1256.9722 C512.3875,1249.8966 517.5384,1249.0884 522.2076,1257.5785 C525.8112,1250.4971 532.3613,1249.8435 536.3369,1257.2149 C541.98,1250.1099 548.0446,1250.9512 551.3539,1259.4595 C555.7634,1252.4596 562.9771,1251.2053 567.6118,1259.2155 C572.5617,1251.1094 577.5263,1251.2783 583.5977,1258.0069 C588.7692,1251.7823 593.3455,1251.3031 597.2766,1259.2078 C603.3578,1251.5068 608.8605,1251.8819 613.4157,1260.6988 C621.6965,1261.551 625.4475,1268.5206 621.5417,1275.8912 C626.9234,1285.6502 623.9136,1292.7188 612.3694,1293.8171 C607.4186,1301.079 602.4678,1300.4598 598.4339,1292.952 C593.759,1301.0419 588.0612,1300.7548 582.6781,1293.6883 C578.3849,1300.7998 572.7693,1301.0799 567.5953,1294.6709 C564.3139,1303.0889 558.054,1302.2533 552.7276,1296.8747 C548.1292,1306.0505 541.003,1307.3809 534.9757,1298.2611 C530.1758,1305.1558 526.0536,1303.6089 521.4954,1298.0004 C517.4036,1305.5363 511.1264,1305.1137 506.7229,1298.3218 C502.9117,1304.8122 495.8068,1304.5993 491.7967,1298.5587 C485.5751,1305.1966 477.8534,1306.8401 473.7138,1296.3595 C470.2942,1303.4197 463.1668,1304.1066 459.0127,1297.1287 C454.061,1304.4334 446.3599,1304.6428 442.9663,1295.5993 C438.4663,1301.9462 432.4768,1302.7178 428.1951,1295.364 C422.7949,1300.9764 416.0498,1300.7578 413.4592,1292.4004 C409.0026,1300.1141 404.318,1299.0769 399.5759,1292.6813 C386.8876,1293.3853 380.3517,1288.0506 385.5136,1274.7533 C382.3081,1264.3332 388.0423,1259.7039 397.8522,1260.7606" fill="#FEF3C7" style="stroke:#181818;stroke-width:0.5;"/><text fill="#000000" font-family="Monospace" font-size="14" lengthAdjust="spacing" textLength="200.7592" x="403.88" y="1280.0539">PULL_REQUEST_TEMPLATE.md</text></g><!--entity tool_readme_md--><g class="entity" data-qualified-name="tool_readme_md" data-source-line="22" id="ent0017"><path d="M458.4102,1343.7954 C461.9687,1337.9419 466.5179,1337.6405 470.4589,1343.3985 C473.0716,1337.216 477.8608,1337.276 481.5439,1342.3437 C484.8503,1337.0696 490.4442,1337.5682 493.1203,1343.0237 C495.5385,1335.6666 501.8177,1335.442 506.0286,1341.2685 C509.9889,1335.5535 515.4084,1336.6442 517.6468,1342.9348 C522.0129,1336.7051 525.6752,1338.3775 529.5522,1343.4501 C532.0098,1337.1328 536.7006,1337.9152 540.5143,1342.0244 C544.3936,1336.7668 550.0357,1338.4389 552.1945,1343.8993 C562.2125,1345.8742 565.9221,1350.3081 560.241,1360.0867 C567.1643,1369.306 563.2791,1374.26 553.7204,1377.1988 C549.6347,1382.9301 543.9829,1382.716 540.6116,1376.4201 C537.5553,1382.2594 532.8819,1383.5866 528.4905,1377.8138 C525.4653,1382.9799 521.616,1383.2126 517.8977,1378.5617 C513.7075,1384.0785 509.6549,1384.5709 505.1307,1378.9444 C501.3044,1383.5126 497.9334,1383.8245 494.09,1378.9644 C490.162,1385.7348 485.418,1385.0425 481.5225,1378.9327 C476.3836,1384.8666 472.4248,1383.8249 468.5011,1377.6283 C464.4623,1382.4373 460.4353,1381.7881 457.5777,1376.367 C447.3929,1372.9486 447.0335,1366.0709 453.7362,1358.9317 C448.6175,1352.0879 449.9913,1346.4588 458.4102,1343.7954" fill="#FEF3C7" style="stroke:#181818;stroke-width:0.5;"/><text fill="#000000" font-family="Monospace" font-size="14" lengthAdjust="spacing" textLength="81.5917" x="463.46" y="1364.0539">README.md</text></g><!--entity tool_security_md--><g class="entity" data-qualified-name="tool_security_md" data-source-line="23" id="ent0018"><path d="M454.4783,1426.2837 C458.6463,1421.6378 463.0952,1421.0252 465.9212,1427.6466 C469.155,1420.4618 475.0161,1420.1051 479.3284,1426.5887 C482.3813,1420.8358 488.497,1420.5573 492.3553,1425.6185 C496.8517,1419.4451 501.5698,1419.7143 506.2556,1425.3964 C510.4295,1419.2337 514.2346,1419.6598 518.0573,1425.735 C521.4783,1419.6671 526.9461,1420.97 530.1373,1425.9855 C535.1435,1420.2886 541.18,1419.7402 544.8022,1427.4944 C548.6601,1420.1799 552.5851,1419.8324 557.7095,1426.3091 C568.5617,1427.1628 571.4686,1433.4097 566.3778,1442.6966 C572.6091,1451.4841 567.6851,1459.8463 557.6032,1460.6697 C553.5467,1465.7003 548.6006,1466.9614 545.0534,1460.1308 C541.2005,1466.9447 536.8562,1467.7373 531.5234,1461.6874 C527.596,1468.116 523.5813,1468.3658 519.0177,1462.3255 C514.7367,1469.0121 507.8909,1467.0081 504.9257,1460.8787 C501.7117,1466.9805 495.7672,1468.0895 492.2092,1461.2159 C488.4714,1466.3186 483.1092,1466.1215 479.9399,1460.5619 C476.3877,1467.1574 470.1165,1467.1181 466.7059,1460.4208 C462.4319,1466.4445 458.2622,1466.1087 453.6854,1460.7678 C443.995,1459.5909 439.8965,1451.4306 447.1748,1443.7586 C440.6356,1435.0363 443.41,1427.6471 454.4783,1426.2837" fill="#FEF3C7" style="stroke:#181818;stroke-width:0.5;"/><text fill="#000000" font-family="Monospace" font-size="14" lengthAdjust="spacing" textLength="89.1656" x="459.68" y="1448.0539">SECURITY.md</text></g><!--entity tool_bug_report_md--><g class="entity" data-qualified-name="tool_bug_report_md" data-source-line="24" id="ent0019"><path d="M449.0462,1510.7978 C453.0364,1506.2042 456.2561,1506.8639 459.3156,1511.8007 C462.2017,1505.2027 466.4629,1505.7919 471.0711,1509.9121 C474.5506,1503.7195 479.2373,1505.2121 482.4667,1510.1678 C486.026,1504.3421 489.823,1503.8109 494.5145,1508.9203 C498.249,1503.527 501.5099,1503.106 505.2801,1508.886 C508.8162,1504.7451 513.5218,1504.7007 516.1577,1509.9309 C519.8959,1504.2242 525.1904,1503.0939 528.908,1509.9519 C532.2025,1505.0735 535.8278,1505.245 538.8618,1510.2153 C542.5161,1505.2219 547.9263,1503.8148 551.3127,1510.5009 C554.3481,1505.6807 559.826,1504.6105 562.9606,1510.3918 C572.1854,1514.2793 576.3311,1519.6283 568.3415,1528.6023 C573.4594,1536.0347 571.1047,1542.7221 561.589,1543.5391 C558.5207,1549.3547 554.9671,1550.2963 550.5008,1544.9246 C547.8656,1550.0387 542.8191,1551.2054 539.4496,1545.688 C535.7176,1550.9001 530.7926,1551.9807 527.3293,1545.4116 C524.6998,1550.4147 520.4547,1552.5503 516.2729,1547.0448 C513.8528,1551.9272 509.1739,1551.9022 505.9641,1547.9682 C500.8641,1554.3386 497.024,1553.5752 493.2161,1546.7225 C489.2932,1551.1671 485.6701,1550.8884 483.0239,1545.411 C480.0846,1550.9678 473.9553,1551.1849 470.4185,1546.1201 C465.7286,1551.5008 461.4018,1550.2113 459.265,1543.7212 C456.4795,1549.3956 452.0693,1548.3963 448.9136,1544.1057 C440.0564,1541.9928 436.5742,1534.6076 443.9,1527.5839 C437.2411,1519.9749 439.9493,1513.5765 449.0462,1510.7978" fill="#FEF3C7" style="stroke:#181818;stroke-width:0.5;"/><text fill="#000000" font-family="Monospace" font-size="14" lengthAdjust="spacing" textLength="99.1336" x="454.69" y="1532.0539">bug_report.md</text></g><!--entity tool_cat--><g class="entity" data-qualified-name="tool_cat" data-source-line="25" id="ent0020"><path d="M488.3682,335.102 C492.2519,324.992 499.1192,325.3969 505.8821,332.1033 C513.3659,325.411 517.7246,328.2705 521.3338,336.1983 C529.9492,339.3511 530.4373,344.8433 525.1319,351.4603 C531.0794,357.6174 530.7012,365.5145 521.2511,368.0752 C518.9283,377.8909 511.6467,378.8902 504.2882,373.8096 C496.4732,379.9014 491.2219,377.1764 488.8127,368.2422 C478.0525,366.9926 476.6403,361.5466 481.2637,352.7843 C475.554,344.7136 477.1007,336.3515 488.3682,335.102" fill="#FEF3C7" style="stroke:#181818;stroke-width:0.5;"/><text fill="#000000" font-family="Monospace" font-size="14" lengthAdjust="spacing" textLength="19.6279" x="494.45" y="356.0539">cat</text></g><!--entity tool_contributor_architecture_blueprint_md--><g class="entity" data-qualified-name="tool_contributor_architecture_blueprint_md" data-source-line="26" id="ent0021"><path d="M374.4104,1595.2772 C380.1114,1587.4526 385.6289,1587.2804 391.5432,1595.0428 C396.2816,1583.9736 406.9566,1584.6483 412.9241,1593.7393 C420.5663,1584.5042 426.4724,1585.7365 431.6589,1596.0882 C436.444,1587.1811 443.3999,1587.4585 448.8682,1595.39 C454.1296,1584.3719 460.8274,1583.9312 468.0902,1593.5234 C473.798,1583.5625 483.1712,1586.2095 487.697,1594.7743 C492.3195,1584.5476 500.3007,1584.6007 505.8708,1593.892 C513.6867,1585.5078 520.0155,1584.3334 525.9265,1595.815 C530.5439,1588.3865 536.238,1586.2044 542.6306,1593.8475 C548.2787,1583.7246 556.7447,1584.6698 562.4886,1593.7484 C568.9428,1585.644 578.2107,1586.1341 582.8948,1595.783 C587.8402,1588.0698 596.203,1587.4086 601.3475,1595.5512 C606.1754,1587.3545 614.1201,1586.9082 619.7178,1594.6647 C625.2897,1586.55 633.0293,1586.3334 637.6723,1595.623 C641.825,1597.444 641.8355,1600.8565 638.5176,1603.481 C642.3357,1605.2397 642.5807,1607.9591 640.0151,1610.9907 C643.9964,1614.3444 643.4156,1617.8072 638.4779,1619.5613 C641.4506,1622.6863 640.7805,1626.2065 636.8831,1628.0392 C632.5246,1637.6585 625.6462,1638.9838 618.7908,1630.5401 C612.4274,1639.5222 604.0859,1640.1835 598.4296,1629.7967 C593.2641,1638.5167 585.5242,1636.337 581.0117,1629.0847 C575.2777,1639.1347 566.9505,1639.8439 561.2072,1629.0936 C556.2068,1636.8999 548.6136,1639.6913 542.8658,1629.8712 C539.2283,1638.8202 530.8623,1637.8722 526.0166,1631.172 C520.3109,1641.2396 512.0965,1639.5046 506.4366,1631.1235 C500.8562,1642.0951 491.7717,1641.3205 485.9826,1631.3272 C481.7455,1637.8675 473.7002,1637.5819 469.8774,1630.8255 C464.4046,1640.6936 455.0253,1641.2722 449.1806,1631.2117 C442.0601,1638.9191 435.1108,1640.7301 429.0462,1630.0552 C425.3015,1638.6141 418.017,1638.2748 413.5062,1630.7975 C406.7302,1638.6145 398.0312,1636.7145 394.0164,1627.6161 C388.7215,1638.1741 381.9866,1638.7538 374.0583,1630.3944 C362.349,1631.2509 359.6495,1623.1472 363.6777,1614.0242 C357.5497,1603.3565 362.8288,1595.8061 374.4104,1595.2772" fill="#FEF3C7" style="stroke:#181818;stroke-width:0.5;"/><text fill="#000000" font-family="Monospace" font-size="14" lengthAdjust="spacing" textLength="249.479" x="379.52" y="1616.0539">contributor-architecture-blueprint.md</text></g><!--entity tool_feature_request_md--><g class="entity" data-qualified-name="tool_feature_request_md" data-source-line="27" id="ent0022"><path d="M433.8412,1679.1245 C436.8472,1672.7833 440.5619,1673.8342 444.675,1677.9809 C449.0343,1672.3042 454.2072,1672.472 458.338,1678.2534 C461.3495,1673.4238 465.9654,1673.1714 469.5347,1677.5771 C473.1318,1671.4858 478.6433,1671.9672 481.8381,1677.9859 C485.6242,1671.8357 488.9904,1671.7308 493.0574,1677.7265 C497.1415,1672.0378 502.2526,1671.2666 506.1285,1677.9465 C509.8864,1672.7159 514.5857,1672.1399 518.2324,1678.0671 C521.9881,1673.3976 526.026,1672.3215 529.7097,1678.1458 C532.914,1673.8917 537.9002,1674.3009 540.3146,1679.0739 C544.3238,1673.0217 548.448,1672.9917 552.4858,1679.0453 C556.0952,1672.4482 561.4361,1673.2651 564.7598,1679.3225 C567.9614,1673.0456 573.1777,1672.9109 577.284,1678.3559 C586.5005,1682.4504 588.7663,1687.725 582.8559,1696.472 C588.8437,1703.4902 585.2631,1710.1626 576.9303,1711.5544 C574.0034,1717.6816 569.127,1718.0931 564.5954,1713.3804 C561.5366,1717.6414 556.5383,1717.7785 553.7356,1713.0703 C551.2512,1720.3141 545.0849,1720.972 540.9503,1714.6224 C537.2131,1720.9678 532.655,1720.8879 529.0243,1714.5225 C527.1768,1720.3744 521.7764,1721.5772 518.0268,1716.4231 C515.325,1723.1076 509.4261,1722.4624 505.9058,1717.2576 C501.7024,1722.6418 494.9832,1722.8078 492.4931,1715.4535 C489.1795,1720.8596 484.4132,1720.9325 481.7278,1714.8642 C477.9424,1719.5575 474.2404,1720.731 470.3187,1715.0136 C465.8205,1720.9732 460.3994,1721.4494 456.2648,1714.6142 C452.4376,1719.7336 447.819,1718.8506 445.0322,1713.4983 C440.4669,1718.569 436.5902,1717.6009 433.2563,1712.1235 C425.0951,1708.3994 422.7747,1701.0713 431.4169,1695.489 C425.6217,1689.2474 424.4887,1683.1221 433.8412,1679.1245" fill="#FEF3C7" style="stroke:#181818;stroke-width:0.5;"/><text fill="#000000" font-family="Monospace" font-size="14" lengthAdjust="spacing" textLength="130.2135" x="439.15" y="1700.0539">feature_request.md</text></g><!--entity tool_ln--><g class="entity" data-qualified-name="tool_ln" data-source-line="28" id="ent0023"><path d="M492.5732,1847.6683 C494.3869,1840.4882 500.0391,1839.2476 504.9055,1844.6846 C511.0942,1838.1569 515.9075,1839.8913 518.6682,1847.9246 C526.5389,1852.4562 525.798,1858.1729 519.2263,1863.2311 C526.15,1867.9808 525.859,1875.1934 518.5913,1879.3852 C517.8636,1889.5835 513.1813,1891.8162 504.4647,1886.8056 C498.6419,1890.6734 492.3239,1888.852 492.2398,1880.8802 C480.4652,1880.13 476.5057,1872.2809 484.0202,1862.7741 C480.1509,1854.6026 483.2608,1848.3763 492.5732,1847.6683" fill="#FEF3C7" style="stroke:#181818;stroke-width:0.5;"/><text fill="#000000" font-family="Monospace" font-size="14" lengthAdjust="spacing" textLength="12.2639" x="498.13" y="1868.0539">ln</text></g><!--entity tool_log--><g class="entity" data-qualified-name="tool_log" data-source-line="29" id="ent0024"><path d="M488.2012,1930.1566 C492.5257,1922.5582 499.9604,1921.0994 505.3951,1928.9186 C512.7804,1920.8407 518.8645,1922.7849 523.1305,1932.0994 C532.5019,1933.3515 536.5619,1938.2441 531.727,1947.4512 C537.8178,1957.1779 532.1444,1963.602 522.2561,1964.3996 C519.3691,1974.3416 513.7022,1976.707 505.3433,1969.9374 C497.0466,1977.0151 489.2634,1973.1153 487.2946,1963.2117 C479.482,1958.933 477.05,1954.3108 484.5587,1947.3839 C477.4908,1940.1659 478.3757,1933.8028 488.2012,1930.1566" fill="#FEF3C7" style="stroke:#181818;stroke-width:0.5;"/><text fill="#000000" font-family="Monospace" font-size="14" lengthAdjust="spacing" textLength="20.6919" x="493.91" y="1952.0539">log</text></g><!--entity tool_mapfile--><g class="entity" data-qualified-name="tool_mapfile" data-source-line="30" id="ent0025"><path d="M473.5343,2015.2465 C478.1922,2006.3347 485.7885,2006.6978 490.3699,2015.3199 C494.3145,2008.08 499.6431,2008.7483 504.2789,2014.5849 C510.0768,2006.6636 516.5012,2007.6759 521.9171,2015.0261 C526.4748,2006.9945 532.9839,2007.5995 536.9984,2015.539 C547.8873,2016.0579 549.7931,2022.0288 545.7496,2030.9998 C551.3303,2040.7094 548.71,2047.3787 536.8756,2047.9951 C534.5513,2056.4798 526.7427,2056.7356 521.4481,2051.2829 C518.2765,2061.53 512.3259,2062.6706 504.6894,2055.6049 C498.3613,2061.728 493.6387,2061.0088 489.4705,2053.2388 C481.7991,2058.4072 476.3629,2057.899 473.1242,2048.3242 C463.4267,2045.2285 461.0098,2039.4891 468.6729,2031.7351 C463.0815,2024.9014 463.3964,2017.4427 473.5343,2015.2465" fill="#FEF3C7" style="stroke:#181818;stroke-width:0.5;"/><text fill="#000000" font-family="Monospace" font-size="14" lengthAdjust="spacing" textLength="49.4898" x="479.52" y="2036.0539">mapfile</text></g><!--entity tool_mkdir--><g class="entity" data-qualified-name="tool_mkdir" data-source-line="31" id="ent0026"><path d="M479.2913,2098.6453 C483.1159,2092.8092 488.4433,2092.8081 491.7687,2099.1565 C495.2958,2092.2931 500.8626,2092.5706 505.5947,2097.7761 C509.5326,2091.7431 513.7804,2092.2672 518.0756,2097.3759 C522.4227,2092.0338 527.6754,2091.5913 530.7807,2098.6484 C543.3844,2098.868 545.9208,2106.0573 541.5245,2116.5053 C546.1129,2125.2585 540.6185,2131.689 531.7093,2131.7543 C528.7707,2138.0177 524.8979,2140.2713 519.0534,2134.921 C516.2057,2141.6074 510.0146,2143.2515 504.6939,2137.8614 C499.2632,2142.3793 495.3774,2140.2275 493.305,2134.2257 C487.6231,2141.4477 481.2104,2139.4697 478.1583,2131.5884 C468.8084,2129.5254 464.4333,2125.0298 470.2915,2115.5208 C464.8352,2105.0865 469.0996,2100.7344 479.2913,2098.6453" fill="#FEF3C7" style="stroke:#181818;stroke-width:0.5;"/><text fill="#000000" font-family="Monospace" font-size="14" lengthAdjust="spacing" textLength="38.5699" x="484.98" y="2120.0539">mkdir</text></g><!--entity tool_repo_architecture_drawio--><g class="entity" data-qualified-name="tool_repo_architecture_drawio" data-source-line="32" id="ent0027"><path d="M415.8162,1763.048 C419.2712,1755.7236 425.5936,1756.2271 429.7278,1762.345 C433.8142,1755.6687 439.5683,1756.586 442.6687,1763.298 C445.6274,1756.9197 451.9795,1755.9367 455.7521,1762.4735 C459.8247,1757.0883 463.5337,1757.6946 467.3508,1762.7571 C470.4364,1756.6634 475.8602,1755.987 480.5482,1760.8221 C485.7699,1755.1102 490.2496,1755.0586 493.8914,1762.4331 C497.0165,1755.2062 502.0243,1755.5602 506.6017,1760.9728 C510.6221,1754.5932 515.7803,1755.8029 518.8367,1761.9169 C522.695,1757.0213 527.6628,1756.0677 530.6643,1762.7891 C535.203,1756.9367 539.7453,1756.0605 544.6522,1762.3654 C548.2823,1757.4114 551.85,1757.1496 555.7351,1762.0795 C559.4373,1757.3397 565.3546,1757.6358 567.8461,1763.4665 C571.6345,1757.6807 576.727,1757.4319 580.8264,1763.1144 C584.1489,1756.8608 590.5587,1756.3624 594.2519,1762.7198 C602.7458,1767.0833 605.277,1774.0629 596.4471,1780.5583 C604.7363,1785.2626 603.9879,1792.4143 595.6025,1796.2194 C592.3106,1802.4809 585.6387,1802.9197 581.6435,1797.0272 C578.4644,1803.3705 574.5175,1803.4098 569.5368,1799.0685 C565.4889,1804.6779 560.4705,1805.0708 556.2369,1799.2853 C552.8007,1805.3119 548.9749,1804.9355 544.6227,1800.2813 C541.2999,1807.2893 536.0327,1809.2276 530.1492,1803.1037 C526.36,1810.2731 521.9207,1810.5497 517.1975,1803.9845 C512.9533,1810.5529 508.8024,1810.6232 504.4271,1804.1126 C500.6481,1809.1245 496.1525,1810.1959 492.7781,1803.703 C488.1856,1809.5376 482.6348,1808.5945 480.2931,1801.5252 C475.923,1808.1299 469.8391,1807.2684 466.2135,1800.7278 C461.2899,1805.5105 456.8549,1804.7199 453.5022,1798.8527 C449.6851,1804.4168 444.7504,1803.1553 442.2789,1797.506 C438.2993,1803.3803 433.3343,1803.9117 428.9674,1797.9414 C425.4723,1803.2755 419.023,1803.1788 415.9394,1797.4566 C405.3569,1792.565 405.7807,1785.2953 414.4935,1778.9002 C407.2618,1773.2553 406.9758,1767.3519 415.8162,1763.048" fill="#FEF3C7" style="stroke:#181818;stroke-width:0.5;"/><text fill="#000000" font-family="Monospace" font-size="14" lengthAdjust="spacing" textLength="164.0234" x="422.25" y="1784.0539">repo-architecture.drawio</text></g><!--entity tool_repo_architecture_puml--><g class="entity" data-qualified-name="tool_repo_architecture_puml" data-source-line="33" id="ent0028"><path d="M421.3338,502.7704 C425.5925,496.7569 430.5516,496.8012 434.135,503.4529 C437.2704,497.1249 441.7062,497.3834 445.8196,502.4501 C449.5691,496.5077 454.886,497.6644 457.6368,503.4559 C460.8836,496.8402 465.9063,497.5993 469.9765,502.5796 C473.0227,497.8514 476.6944,497.4806 480.578,501.5732 C484.2636,495.904 489.8064,495.2622 493.3017,501.772 C496.3863,495.5528 501.9672,494.5501 506.1921,500.5713 C510.1656,495.2135 515.0324,495.7513 517.2253,502.2309 C520.8327,496.967 524.5933,495.9378 529.097,501.2221 C532.7961,495.2151 537.93,496.3782 540.745,502.1 C545.6777,496.2664 549.6877,496.0859 553.5352,503.1743 C555.9112,497.0406 561.0851,498.0499 564.3848,502.1996 C568.188,495.9756 574.6188,496.9911 577.7307,502.9565 C580.3179,498.3617 584.999,497.5603 587.811,502.7243 C596.4199,507.3641 598.5552,512.5753 590.6507,519.939 C599.361,525.1854 598.0071,533.4371 588.895,536.831 C585.4973,542.5324 579.6111,542.5141 577.0814,535.9922 C573.4271,542.3002 569.9052,543.0531 565.2549,536.9404 C562.0086,542.8671 556.0015,542.5207 552.6707,537.0335 C550.334,543.3102 544.2396,543.7599 540.1805,538.979 C537.3101,543.2442 532.7463,542.8248 530.1967,538.6018 C525.8426,544.2599 521.8663,545.2908 517.6448,538.4684 C514.3491,543.7243 509.9961,543.603 506.0998,539.1852 C501.7526,544.9799 497.7483,544.4441 494.0038,538.561 C491.219,545.1221 485.2106,545.0959 481.697,539.2859 C477.3573,544.9152 473.8282,544.1076 470.4213,538.3613 C466.553,544.0422 460.802,544.0417 457.2327,538.0243 C453.7049,542.7464 450.4039,543.789 446.4373,538.4973 C440.8527,543.3642 436.6763,542.844 433.2405,536.0628 C429.5687,541.4401 425.2548,541.9939 421.1908,536.4973 C411.4289,534.8292 408.5224,527.6069 414.6299,519.7294 C408.5845,510.6206 410.6316,505.2588 421.3338,502.7704" fill="#FEF3C7" style="stroke:#181818;stroke-width:0.5;"/><text fill="#000000" font-family="Monospace" font-size="14" lengthAdjust="spacing" textLength="152.6554" x="427.93" y="524.0539">repo-architecture.puml</text></g><!--entity tool_run--><g class="entity" data-qualified-name="tool_run" data-source-line="34" id="ent0029"><path d="M485.9302,83.7206 C490.8018,74.5793 499.1048,72.9796 506.1651,81.1643 C512.0287,73.4004 520.3535,75.1383 523.7527,83.8025 C533.3423,84.5113 539.0316,89.2644 533.5444,99.4237 C538.7785,108.8702 535.2765,114.29 524.903,115.1728 C524.6646,127.8975 518.3331,132.8921 506.3397,126.7209 C495.433,131.7536 488.2706,130.2676 487.5702,116.5203 C477.9093,115.6856 474.1211,107.594 479.4739,99.5827 C474.4185,91.4557 476.8347,86.0877 485.9302,83.7206" fill="#FEF3C7" style="stroke:#181818;stroke-width:0.5;"/><text fill="#000000" font-family="Monospace" font-size="14" lengthAdjust="spacing" textLength="23.0859" x="492.72" y="104.0539">run</text></g><!--entity tool_sort--><g class="entity" data-qualified-name="tool_sort" data-source-line="35" id="ent0030"><path d="M486.2872,2182.466 C491.0501,2172.3988 497.7273,2173.7233 504.4371,2180.3491 C512.3091,2170.684 521.4598,2174.0462 526.136,2183.9015 C534.3656,2187.4452 535.4839,2193.2303 528.9293,2199.4328 C535.2394,2206.1265 534.0998,2212.8719 525.878,2217.0484 C523.5284,2229.1686 514.288,2230.9849 505.2696,2224.3931 C495.3003,2231.3294 486.8844,2226.3721 484.8783,2215.3507 C475.9834,2210.9442 476.4423,2202.8806 485.1688,2198.7831 C478.7931,2193.5672 478.4405,2186.707 486.2872,2182.466" fill="#FEF3C7" style="stroke:#181818;stroke-width:0.5;"/><text fill="#000000" font-family="Monospace" font-size="14" lengthAdjust="spacing" textLength="26.0119" x="491.25" y="2204.0539">sort</text></g><!--entity tool_summarize--><g class="entity" data-qualified-name="tool_summarize" data-source-line="36" id="ent0031"><path d="M461.7962,166.5582 C466.9905,158.938 472.2279,160.5117 476.6554,167.3463 C480.2719,160.1952 485.9794,160.4295 490.0602,166.8889 C494.8942,159.4254 499.6609,158.1554 505.8659,165.4173 C509.9267,158.0497 517.0265,158.3157 520.6506,165.8507 C525.2351,158.9913 532.1265,159.2684 535.3424,167.2093 C538.9789,161.3947 545.679,160.8323 548.8417,167.7131 C558.2094,167.7838 562.3194,175.6006 557.2293,183.4012 C563.1739,192.0143 559.5013,198.0168 549.9064,199.6089 C546.1244,207.4605 538.5345,207.3684 533.6162,200.9018 C530.3099,209.0189 525.0283,208.5099 519.7695,202.8665 C516.9774,210.2474 510.0939,209.7345 506.0346,204.2159 C501.2056,209.7927 496.2355,210.7718 491.8981,203.6679 C486.3402,209.3358 480.0188,208.6447 476.9219,200.9165 C472.732,208.6363 466.2419,208.6764 462.3676,200.6253 C451.8076,199.7699 449.8751,190.4676 455.3171,183.1545 C450.0033,175.9706 451.0692,167.4798 461.7962,166.5582" fill="#FEF3C7" style="stroke:#181818;stroke-width:0.5;"/><text fill="#000000" font-family="Monospace" font-size="14" lengthAdjust="spacing" textLength="73.2617" x="467.63" y="188.0539">summarize</text></g><!--entity tool_systemctl--><g class="entity" data-qualified-name="tool_systemctl" data-source-line="37" id="ent0032"><path d="M466.4243,418.3534 C469.8648,412.4346 476.3893,411.7528 479.49,418.6983 C483.2316,411.9876 488.2685,411.9109 492.8023,417.8655 C496.8341,411.6184 501.3724,412.111 505.8176,417.399 C509.3615,411.3649 513.0275,411.9477 516.9713,416.9966 C521.9321,410.3373 526.4037,411.2981 530.2166,418.1241 C533.804,412.7637 540.0425,411.856 543.0965,418.6875 C551.7928,421.4202 554.7891,429.6276 548.3098,436.7422 C553.6452,442.5469 551.862,449.3289 544.2804,451.6399 C541.711,460.1785 536.1783,460.8496 529.871,455.525 C527.2089,461.1251 523.0698,461.8727 518.4165,457.9101 C515.5541,464.5331 510.2362,466.5256 505.2894,459.9895 C499.848,465.5597 495.4152,464.2314 492.9195,457.1169 C488.5227,462.4105 482.8029,462.7854 479.8861,455.5744 C474.9675,459.6436 470.548,460.3731 467.9884,453.1 C457.2243,449.9817 457.0823,444.1142 462.9576,436.0782 C456.1774,428.82 456.4647,422.3375 466.4243,418.3534" fill="#FEF3C7" style="stroke:#181818;stroke-width:0.5;"/><text fill="#000000" font-family="Monospace" font-size="14" lengthAdjust="spacing" textLength="61.9778" x="473.27" y="440.0539">systemctl</text></g><!--entity tool_tachometer--><g class="entity" data-qualified-name="tool_tachometer" data-source-line="38" id="ent0033"><path d="M460.6072,250.5407 C463.3807,245.4674 467.936,245.8275 470.6674,250.5838 C474.7484,244.3592 480.0957,245.7847 483.5526,251.2706 C486.8705,245.7844 490.1263,245.3578 493.8678,250.8735 C496.7586,243.9695 501.3121,243.9311 506.0458,248.9988 C509.8608,243.7614 514.2524,245.8605 516.5333,250.6099 C519.6661,245.4805 523.6949,245.266 527.216,250.1974 C531.0574,244.356 535.9607,245.4784 539.0276,251.0023 C542.096,245.2988 546.7369,246.5977 549.7123,251.0997 C557.9408,254.911 558.6221,261.9247 551.4596,267.3871 C559.48,272.3506 558.961,278.0323 551.6284,283.1601 C548.4461,288.562 544.1587,289.3027 540.2312,283.9498 C537.5729,290.6154 532.5121,290.8738 527.998,285.9002 C524.0325,291.2838 520.7146,290.5477 516.9971,285.6352 C514.5891,291.3225 509.3253,291.4648 506.3216,286.2166 C502.9125,290.9532 497.815,291.3701 494.6993,285.8832 C490.6747,289.6621 485.9651,289.9421 483.8326,283.809 C480.833,290.8278 474.6963,290.0666 470.6572,284.9363 C467.1131,289.4139 461.487,289.0496 459.1347,283.5587 C450.3279,282.4097 447.3725,274.1643 452.2487,267.2411 C447.5321,257.8382 448.9516,251.7494 460.6072,250.5407" fill="#FEF3C7" style="stroke:#181818;stroke-width:0.5;"/><text fill="#000000" font-family="Monospace" font-size="14" lengthAdjust="spacing" textLength="76.4677" x="466.03" y="272.0539">tachometer</text></g><!--entity tool_tee--><g class="entity" data-qualified-name="tool_tee" data-source-line="39" id="ent0034"><path d="M488.1312,2266.1566 C492.4774,2258.5258 499.9457,2257.0628 505.4021,2264.9186 C512.8124,2256.8011 518.9235,2258.7489 523.2145,2268.0994 C532.5859,2269.3515 536.6459,2274.2441 531.811,2283.4512 C537.9018,2293.1779 532.2284,2299.602 522.3401,2300.3996 C519.4278,2310.3786 513.7345,2312.7461 505.3503,2305.9374 C497.0324,2313.0531 489.2146,2309.1497 487.2246,2299.2117 C479.412,2294.933 476.98,2290.3108 484.4887,2283.3839 C477.4208,2276.1659 478.3057,2269.8028 488.1312,2266.1566" fill="#FEF3C7" style="stroke:#181818;stroke-width:0.5;"/><text fill="#000000" font-family="Monospace" font-size="14" lengthAdjust="spacing" textLength="20.8459" x="493.84" y="2288.0539">tee</text></g><!--entity tool_warn--><g class="entity" data-qualified-name="tool_warn" data-source-line="40" id="ent0035"><path d="M480.8582,586.4485 C485.0207,580.5915 489.8307,580.4306 493.6612,586.7962 C496.7576,580.6289 502.2093,579.7074 506.282,585.7904 C509.1044,581.2498 514.2094,580.0572 517.1998,585.6086 C521.2346,580.1641 526.4396,580.6231 529.4804,586.6708 C540.3488,588.7942 539.8995,598.2009 533.8524,604.4775 C540.3048,611.2004 537.8668,617.2918 529.3484,619.5374 C527.5011,625.1243 522.19,626.672 517.8605,622.4421 C514.8295,628.7738 510.2226,629.5908 505.6143,624.0721 C501.5616,629.6337 495.2105,629.6712 492.4465,622.7164 C487.6781,626.6515 482.99,625.1336 480.825,619.5409 C470.5063,619.1208 467.731,610.3591 472.8057,602.6366 C467.0228,594.683 470.1248,586.1863 480.8582,586.4485" fill="#FEF3C7" style="stroke:#181818;stroke-width:0.5;"/><text fill="#000000" font-family="Monospace" font-size="14" lengthAdjust="spacing" textLength="33.2919" x="487.61" y="608.0539">warn</text></g><g class="entity" data-qualified-name="shellGraphSummary" data-source-line="85" id="ent0079"><path d="M58.84,46.0679 L58.84,109.186 L252.6751,109.186 L252.6751,56.0679 L242.6751,46.0679 L58.84,46.0679" fill="#FEFFDD" style="stroke:#181818;stroke-width:0.5;"/><path d="M242.6751,46.0679 L242.6751,56.0679 L252.6751,56.0679 L242.6751,46.0679" fill="#FEFFDD" style="stroke:#181818;stroke-width:1;"/><text fill="#000000" font-family="Monospace" font-size="13" lengthAdjust="spacing" textLength="141.5311" x="64.84" y="64.9649">Scanned&#160;7&#160;shell&#160;scripts.</text><text fill="#000000" font-family="Monospace" font-size="13" lengthAdjust="spacing" textLength="172.8351" x="64.84" y="82.6709">Detected&#160;0&#160;local&#160;shell&#160;edges.</text><text fill="#000000" font-family="Monospace" font-size="13" lengthAdjust="spacing" textLength="163.8911" x="64.84" y="100.377">Detected&#160;27&#160;external&#160;tools.</text></g><!--link shell_scripts_archility_daily_sh to tool_ln--><g class="link" data-entity-1="ent0002" data-entity-2="ent0023" data-link-type="dependency" data-source-line="41" id="lnk36"><path d="M243.62,2097.0979 C287.77,2097.0979 332,2097.0979 332,2097.0979 C332,2097.0979 332,1874.8879 332,1874.8879 C332,1874.8879 430.61,1874.8879 476.79,1874.8879" fill="none" id="shell_scripts_archility_daily_sh-to-tool_ln" style="stroke:#181818;stroke-width:1;"/><polygon fill="#181818" points="482.79,1874.8879,473.79,1870.8879,477.79,1874.8879,473.79,1878.8879,482.79,1874.8879" style="stroke:#181818;stroke-width:1;"/></g><!--link shell_scripts_archility_daily_sh to tool_log--><g class="link" data-entity-1="ent0002" data-entity-2="ent0024" data-link-type="dependency" data-source-line="42" id="lnk37"><path d="M243.62,2104.1079 C292.27,2104.1079 343,2104.1079 343,2104.1079 C343,2104.1079 343,1954.7979 343,1954.7979 C343,1954.7979 427.24,1954.7979 472.71,1954.7979" fill="none" id="shell_scripts_archility_daily_sh-to-tool_log" style="stroke:#181818;stroke-width:1;"/><polygon fill="#181818" points="478.71,1954.7979,469.71,1950.7979,473.71,1954.7979,469.71,1958.7979,478.71,1954.7979" style="stroke:#181818;stroke-width:1;"/></g><!--link shell_scripts_archility_daily_sh to tool_mapfile--><g class="link" data-entity-1="ent0002" data-entity-2="ent0025" data-link-type="dependency" data-source-line="43" id="lnk38"><path d="M243.43,2111.1179 C298.43,2111.1179 359,2111.1179 359,2111.1179 C359,2111.1179 359,2042.8879 359,2042.8879 C359,2042.8879 415.19,2042.8879 458.18,2042.8879" fill="none" id="shell_scripts_archility_daily_sh-to-tool_mapfile" style="stroke:#181818;stroke-width:1;"/><polygon fill="#181818" points="464.18,2042.8879,455.18,2038.8879,459.18,2042.8879,455.18,2046.8879,464.18,2042.8879" style="stroke:#181818;stroke-width:1;"/></g><!--link shell_scripts_archility_daily_sh to tool_mkdir--><g class="link" data-entity-1="ent0002" data-entity-2="ent0026" data-link-type="dependency" data-source-line="44" id="lnk39"><path d="M243.25,2132.1479 C316.64,2132.1479 411.6,2132.1479 463.84,2132.1479" fill="none" id="shell_scripts_archility_daily_sh-to-tool_mkdir" style="stroke:#181818;stroke-width:1;"/><polygon fill="#181818" points="469.84,2132.1479,460.84,2128.1479,464.84,2132.1479,460.84,2136.1479,469.84,2132.1479" style="stroke:#181818;stroke-width:1;"/></g><!--link shell_scripts_archility_daily_sh to tool_sort--><g class="link" data-entity-1="ent0002" data-entity-2="ent0030" data-link-type="dependency" data-source-line="45" id="lnk40"><path d="M243.64,2153.1879 C346.8,2153.1879 504,2153.1879 504,2153.1879 C504,2153.1879 504,2157.1779 504,2167.7779" fill="none" id="shell_scripts_archility_daily_sh-to-tool_sort" style="stroke:#181818;stroke-width:1;"/><polygon fill="#181818" points="504,2173.7779,508,2164.7779,504,2168.7779,500,2164.7779,504,2173.7779" style="stroke:#181818;stroke-width:1;"/></g><!--link shell_scripts_archility_daily_sh to tool_tee--><g class="link" data-entity-1="ent0002" data-entity-2="ent0034" data-link-type="dependency" data-source-line="46" id="lnk41"><path d="M156,2167.6079 C156,2216.7479 156,2294.8879 156,2294.8879 C156,2294.8879 391.66,2294.8879 472.37,2294.8879" fill="none" id="shell_scripts_archility_daily_sh-to-tool_tee" style="stroke:#181818;stroke-width:1;"/><polygon fill="#181818" points="478.37,2294.8879,469.37,2290.8879,473.37,2294.8879,469.37,2298.8879,478.37,2294.8879" style="stroke:#181818;stroke-width:1;"/></g><!--link shell_scripts_archility_weekly_sh to tool_ln--><g class="link" data-entity-1="ent0003" data-entity-2="ent0023" data-link-type="dependency" data-source-line="47" id="lnk42"><path d="M195,1977.7679 C195,1932.1379 195,1862.6279 195,1862.6279 C195,1862.6279 407.13,1862.6279 477,1862.6279" fill="none" id="shell_scripts_archility_weekly_sh-to-tool_ln" style="stroke:#181818;stroke-width:1;"/><polygon fill="#181818" points="483,1862.6279,474,1858.6279,478,1862.6279,474,1866.6279,483,1862.6279" style="stroke:#181818;stroke-width:1;"/></g><!--link shell_scripts_archility_weekly_sh to tool_log--><g class="link" data-entity-1="ent0003" data-entity-2="ent0024" data-link-type="dependency" data-source-line="48" id="lnk43"><path d="M250.46,1992.0579 C353.58,1992.0579 504,1992.0579 504,1992.0579 C504,1992.0579 504,1988.0779 504,1977.4679" fill="none" id="shell_scripts_archility_weekly_sh-to-tool_log" style="stroke:#181818;stroke-width:1;"/><polygon fill="#181818" points="504,1971.4679,500,1980.4679,504,1976.4679,508,1980.4679,504,1971.4679" style="stroke:#181818;stroke-width:1;"/></g><!--link shell_scripts_archility_weekly_sh to tool_mapfile--><g class="link" data-entity-1="ent0003" data-entity-2="ent0025" data-link-type="dependency" data-source-line="49" id="lnk44"><path d="M250.53,2030.6279 C320.67,2030.6279 406.68,2030.6279 458.43,2030.6279" fill="none" id="shell_scripts_archility_weekly_sh-to-tool_mapfile" style="stroke:#181818;stroke-width:1;"/><polygon fill="#181818" points="464.43,2030.6279,455.43,2026.6279,459.43,2030.6279,455.43,2034.6279,464.43,2030.6279" style="stroke:#181818;stroke-width:1;"/></g><!--link shell_scripts_archility_weekly_sh to tool_mkdir--><g class="link" data-entity-1="ent0003" data-entity-2="ent0026" data-link-type="dependency" data-source-line="50" id="lnk45"><path d="M249,2055.4979 C249,2086.6279 249,2125.1379 249,2125.1379 C249,2125.1379 393.78,2125.1379 463.57,2125.1379" fill="none" id="shell_scripts_archility_weekly_sh-to-tool_mkdir" style="stroke:#181818;stroke-width:1;"/><polygon fill="#181818" points="469.57,2125.1379,460.57,2121.1379,464.57,2125.1379,460.57,2129.1379,469.57,2125.1379" style="stroke:#181818;stroke-width:1;"/></g><!--link shell_scripts_archility_weekly_sh to tool_sort--><g class="link" data-entity-1="ent0003" data-entity-2="ent0030" data-link-type="dependency" data-source-line="51" id="lnk46"><path d="M247,2055.5679 C247,2111.2079 247,2206.7979 247,2206.7979 C247,2206.7979 403.56,2206.7979 470.24,2206.7979" fill="none" id="shell_scripts_archility_weekly_sh-to-tool_sort" style="stroke:#181818;stroke-width:1;"/><polygon fill="#181818" points="476.24,2206.7979,467.24,2202.7979,471.24,2206.7979,467.24,2210.7979,476.24,2206.7979" style="stroke:#181818;stroke-width:1;"/></g><!--link shell_scripts_archility_weekly_sh to tool_tee--><g class="link" data-entity-1="ent0003" data-entity-2="ent0034" data-link-type="dependency" data-source-line="52" id="lnk47"><path d="M245,2055.5879 C245,2129.4679 245,2282.6279 245,2282.6279 C245,2282.6279 406.88,2282.6279 472.45,2282.6279" fill="none" id="shell_scripts_archility_weekly_sh-to-tool_tee" style="stroke:#181818;stroke-width:1;"/><polygon fill="#181818" points="478.45,2282.6279,469.45,2278.6279,473.45,2282.6279,469.45,2286.6279,478.45,2282.6279" style="stroke:#181818;stroke-width:1;"/></g><!--link shell_scripts_install_archility_daily_systemd_sh to tool_cat--><g class="link" data-entity-1="ent0004" data-entity-2="ent0020" data-link-type="dependency" data-source-line="53" id="lnk48"><path d="M297.76,333.1379 C365.93,333.1379 434.93,333.1379 473.03,333.1379" fill="none" id="shell_scripts_install_archility_daily_systemd_sh-to-tool_cat" style="stroke:#181818;stroke-width:1;"/><polygon fill="#181818" points="479.03,333.1379,470.03,329.1379,474.03,333.1379,470.03,337.1379,479.03,333.1379" style="stroke:#181818;stroke-width:1;"/></g><!--link shell_scripts_install_archility_daily_systemd_sh to tool_systemctl--><g class="link" data-entity-1="ent0004" data-entity-2="ent0032" data-link-type="dependency" data-source-line="54" id="lnk49"><path d="M297.72,340.1779 C380.6,340.1779 469,340.1779 469,340.1779 C469,340.1779 469,375.8279 469,403.8079" fill="none" id="shell_scripts_install_archility_daily_systemd_sh-to-tool_systemctl" style="stroke:#181818;stroke-width:1;"/><polygon fill="#181818" points="469,409.8079,473,400.8079,469,404.8079,465,400.8079,469,409.8079" style="stroke:#181818;stroke-width:1;"/></g><!--link shell_scripts_install_archility_weekly_systemd_sh to tool_cat--><g class="link" data-entity-1="ent0005" data-entity-2="ent0020" data-link-type="dependency" data-source-line="55" id="lnk50"><path d="M301,381.8679 C301,368.3679 301,356.5379 301,356.5379 C301,356.5379 419.06,356.5379 473.34,356.5379" fill="none" id="shell_scripts_install_archility_weekly_systemd_sh-to-tool_cat" style="stroke:#181818;stroke-width:1;"/><polygon fill="#181818" points="479.34,356.5379,470.34,352.5379,474.34,356.5379,470.34,360.5379,479.34,356.5379" style="stroke:#181818;stroke-width:1;"/></g><!--link shell_scripts_install_archility_weekly_systemd_sh to tool_systemctl--><g class="link" data-entity-1="ent0005" data-entity-2="ent0032" data-link-type="dependency" data-source-line="56" id="lnk51"><path d="M304.82,426.4479 C360.1,426.4479 412.83,426.4479 452.13,426.4479" fill="none" id="shell_scripts_install_archility_weekly_systemd_sh-to-tool_systemctl" style="stroke:#181818;stroke-width:1;"/><polygon fill="#181818" points="458.13,426.4479,449.13,422.4479,453.13,426.4479,449.13,430.4479,458.13,426.4479" style="stroke:#181818;stroke-width:1;"/></g><!--link shell_scripts_install_portfolio_audit_systemd_sh to tool_cat--><g class="link" data-entity-1="ent0006" data-entity-2="ent0020" data-link-type="dependency" data-source-line="57" id="lnk52"><path d="M301.62,506.3579 C322.46,506.3579 337,506.3579 337,506.3579 C337,506.3579 337,365.8479 337,365.8479 C337,365.8479 426.56,365.8479 473.22,365.8479" fill="none" id="shell_scripts_install_portfolio_audit_systemd_sh-to-tool_cat" style="stroke:#181818;stroke-width:1;"/><polygon fill="#181818" points="479.22,365.8479,470.22,361.8479,474.22,365.8479,470.22,369.8479,479.22,365.8479" style="stroke:#181818;stroke-width:1;"/></g><!--link shell_scripts_install_portfolio_audit_systemd_sh to tool_systemctl--><g class="link" data-entity-1="ent0006" data-entity-2="ent0032" data-link-type="dependency" data-source-line="58" id="lnk53"><path d="M301.46,518.6279 C328.28,518.6279 348,518.6279 348,518.6279 C348,518.6279 348,442.7979 348,442.7979 C348,442.7979 405.74,442.7979 451.8,442.7979" fill="none" id="shell_scripts_install_portfolio_audit_systemd_sh-to-tool_systemctl" style="stroke:#181818;stroke-width:1;"/><polygon fill="#181818" points="457.8,442.7979,448.8,438.7979,452.8,442.7979,448.8,446.7979,457.8,442.7979" style="stroke:#181818;stroke-width:1;"/></g><!--link shell_scripts_portfolio_audit_sh to tool_editorconfig--><g class="link" data-entity-1="ent0007" data-entity-2="ent0009" data-link-type="dependency" data-source-line="59" id="lnk54"><path d="M105,1361.7279 C105,1212.7379 105,686.6279 105,686.6279 C105,686.6279 330.66,686.6279 441.06,686.6279" fill="none" id="shell_scripts_portfolio_audit_sh-to-tool_editorconfig" style="stroke:#181818;stroke-width:1;"/><polygon fill="#181818" points="447.06,686.6279,438.06,682.6279,442.06,686.6279,438.06,690.6279,447.06,686.6279" style="stroke:#181818;stroke-width:1;"/></g><!--link shell_scripts_portfolio_audit_sh to tool_gitignore--><g class="link" data-entity-1="ent0007" data-entity-2="ent0010" data-link-type="dependency" data-source-line="60" id="lnk55"><path d="M125,1361.6879 C125,1224.3379 125,770.6279 125,770.6279 C125,770.6279 349.33,770.6279 450.99,770.6279" fill="none" id="shell_scripts_portfolio_audit_sh-to-tool_gitignore" style="stroke:#181818;stroke-width:1;"/><polygon fill="#181818" points="456.99,770.6279,447.99,766.6279,451.99,770.6279,447.99,774.6279,456.99,770.6279" style="stroke:#181818;stroke-width:1;"/></g><!--link shell_scripts_portfolio_audit_sh to tool_agents_md--><g class="link" data-entity-1="ent0007" data-entity-2="ent0011" data-link-type="dependency" data-source-line="61" id="lnk56"><path d="M146,1361.7979 C146,1237.0579 146,854.6279 146,854.6279 C146,854.6279 343.63,854.6279 443.85,854.6279" fill="none" id="shell_scripts_portfolio_audit_sh-to-tool_agents_md" style="stroke:#181818;stroke-width:1;"/><polygon fill="#181818" points="449.85,854.6279,440.85,850.6279,444.85,854.6279,440.85,858.6279,449.85,854.6279" style="stroke:#181818;stroke-width:1;"/></g><!--link shell_scripts_portfolio_audit_sh to tool_changelog_md--><g class="link" data-entity-1="ent0007" data-entity-2="ent0012" data-link-type="dependency" data-source-line="62" id="lnk57"><path d="M166,1361.6279 C166,1250.2479 166,938.6279 166,938.6279 C166,938.6279 328.63,938.6279 427.76,938.6279" fill="none" id="shell_scripts_portfolio_audit_sh-to-tool_changelog_md" style="stroke:#181818;stroke-width:1;"/><polygon fill="#181818" points="433.76,938.6279,424.76,934.6279,428.76,938.6279,424.76,942.6279,433.76,938.6279" style="stroke:#181818;stroke-width:1;"/></g><!--link shell_scripts_portfolio_audit_sh to tool_code_of_conduct_md--><g class="link" data-entity-1="ent0007" data-entity-2="ent0013" data-link-type="dependency" data-source-line="63" id="lnk58"><path d="M186,1361.5979 C186,1265.0179 186,1022.6279 186,1022.6279 C186,1022.6279 308.63,1022.6279 402.34,1022.6279" fill="none" id="shell_scripts_portfolio_audit_sh-to-tool_code_of_conduct_md" style="stroke:#181818;stroke-width:1;"/><polygon fill="#181818" points="408.34,1022.6279,399.34,1018.6279,403.34,1022.6279,399.34,1026.6279,408.34,1022.6279" style="stroke:#181818;stroke-width:1;"/></g><!--link shell_scripts_portfolio_audit_sh to tool_contributing_md--><g class="link" data-entity-1="ent0007" data-entity-2="ent0014" data-link-type="dependency" data-source-line="64" id="lnk59"><path d="M207,1361.5879 C207,1281.6079 207,1106.6279 207,1106.6279 C207,1106.6279 330.16,1106.6279 418.21,1106.6279" fill="none" id="shell_scripts_portfolio_audit_sh-to-tool_contributing_md" style="stroke:#181818;stroke-width:1;"/><polygon fill="#181818" points="424.21,1106.6279,415.21,1102.6279,419.21,1106.6279,415.21,1110.6279,424.21,1106.6279" style="stroke:#181818;stroke-width:1;"/></g><!--link shell_scripts_portfolio_audit_sh to tool_lessonslearned_md--><g class="link" data-entity-1="ent0007" data-entity-2="ent0015" data-link-type="dependency" data-source-line="65" id="lnk60"><path d="M227,1361.6179 C227,1300.8879 227,1190.6279 227,1190.6279 C227,1190.6279 328.63,1190.6279 409.77,1190.6279" fill="none" id="shell_scripts_portfolio_audit_sh-to-tool_lessonslearned_md" style="stroke:#181818;stroke-width:1;"/><polygon fill="#181818" points="415.77,1190.6279,406.77,1186.6279,410.77,1190.6279,406.77,1194.6279,415.77,1190.6279" style="stroke:#181818;stroke-width:1;"/></g><!--link shell_scripts_portfolio_audit_sh to tool_pull_request_template_md--><g class="link" data-entity-1="ent0007" data-entity-2="ent0016" data-link-type="dependency" data-source-line="66" id="lnk61"><path d="M247.53,1372.5879 C321.76,1372.5879 414,1372.5879 414,1372.5879 C414,1372.5879 414,1334.6279 414,1305.5979" fill="none" id="shell_scripts_portfolio_audit_sh-to-tool_pull_request_template_md" style="stroke:#181818;stroke-width:1;"/><polygon fill="#181818" points="414,1299.5979,410,1308.5979,414,1304.5979,418,1308.5979,414,1299.5979" style="stroke:#181818;stroke-width:1;"/></g><!--link shell_scripts_portfolio_audit_sh to tool_readme_md--><g class="link" data-entity-1="ent0007" data-entity-2="ent0017" data-link-type="dependency" data-source-line="67" id="lnk62"><path d="M247.32,1377.8779 C311.05,1377.8779 387.99,1377.8779 442.15,1377.8779" fill="none" id="shell_scripts_portfolio_audit_sh-to-tool_readme_md" style="stroke:#181818;stroke-width:1;"/><polygon fill="#181818" points="448.15,1377.8779,439.15,1373.8779,443.15,1377.8779,439.15,1381.8779,448.15,1377.8779" style="stroke:#181818;stroke-width:1;"/></g><!--link shell_scripts_portfolio_audit_sh to tool_security_md--><g class="link" data-entity-1="ent0007" data-entity-2="ent0018" data-link-type="dependency" data-source-line="68" id="lnk63"><path d="M247.32,1421.1079 C309.54,1421.1079 384.06,1421.1079 438.24,1421.1079" fill="none" id="shell_scripts_portfolio_audit_sh-to-tool_security_md" style="stroke:#181818;stroke-width:1;"/><polygon fill="#181818" points="444.24,1421.1079,435.24,1417.1079,439.24,1421.1079,435.24,1425.1079,444.24,1421.1079" style="stroke:#181818;stroke-width:1;"/></g><!--link shell_scripts_portfolio_audit_sh to tool_bug_report_md--><g class="link" data-entity-1="ent0007" data-entity-2="ent0019" data-link-type="dependency" data-source-line="69" id="lnk64"><path d="M221,1439.4579 C221,1476.4779 221,1526.6279 221,1526.6279 C221,1526.6279 349.65,1526.6279 433.27,1526.6279" fill="none" id="shell_scripts_portfolio_audit_sh-to-tool_bug_report_md" style="stroke:#181818;stroke-width:1;"/><polygon fill="#181818" points="439.27,1526.6279,430.27,1522.6279,434.27,1526.6279,430.27,1530.6279,439.27,1526.6279" style="stroke:#181818;stroke-width:1;"/></g><!--link shell_scripts_portfolio_audit_sh to tool_contributor_architecture_blueprint_md--><g class="link" data-entity-1="ent0007" data-entity-2="ent0021" data-link-type="dependency" data-source-line="70" id="lnk65"><path d="M247.34,1424.1279 C308.21,1424.1279 377,1424.1279 377,1424.1279 C377,1424.1279 377,1529.1279 377,1579.8579" fill="none" id="shell_scripts_portfolio_audit_sh-to-tool_contributor_architecture_blueprint_md" style="stroke:#181818;stroke-width:1;"/><polygon fill="#181818" points="377,1585.8579,381,1576.8579,377,1580.8579,373,1576.8579,377,1585.8579" style="stroke:#181818;stroke-width:1;"/></g><!--link shell_scripts_portfolio_audit_sh to tool_feature_request_md--><g class="link" data-entity-1="ent0007" data-entity-2="ent0022" data-link-type="dependency" data-source-line="71" id="lnk66"><path d="M169,1439.6679 C169,1519.6379 169,1694.6279 169,1694.6279 C169,1694.6279 318.77,1694.6279 417.96,1694.6279" fill="none" id="shell_scripts_portfolio_audit_sh-to-tool_feature_request_md" style="stroke:#181818;stroke-width:1;"/><polygon fill="#181818" points="423.96,1694.6279,414.96,1690.6279,418.96,1694.6279,414.96,1698.6279,423.96,1694.6279" style="stroke:#181818;stroke-width:1;"/></g><!--link shell_scripts_portfolio_audit_sh to tool_ln--><g class="link" data-entity-1="ent0007" data-entity-2="ent0023" data-link-type="dependency" data-source-line="72" id="lnk67"><path d="M117,1439.3579 C117,1548.4479 117,1850.3579 117,1850.3579 C117,1850.3579 395.7,1850.3579 476.89,1850.3579" fill="none" id="shell_scripts_portfolio_audit_sh-to-tool_ln" style="stroke:#181818;stroke-width:1;"/><polygon fill="#181818" points="482.89,1850.3579,473.89,1846.3579,477.89,1850.3579,473.89,1854.3579,482.89,1850.3579" style="stroke:#181818;stroke-width:1;"/></g><!--link shell_scripts_portfolio_audit_sh to tool_log--><g class="link" data-entity-1="ent0007" data-entity-2="ent0024" data-link-type="dependency" data-source-line="73" id="lnk68"><path d="M91,1439.2979 C91,1562.6179 91,1938.4479 91,1938.4479 C91,1938.4479 382.62,1938.4479 472.72,1938.4479" fill="none" id="shell_scripts_portfolio_audit_sh-to-tool_log" style="stroke:#181818;stroke-width:1;"/><polygon fill="#181818" points="478.72,1938.4479,469.72,1934.4479,473.72,1938.4479,469.72,1942.4479,478.72,1938.4479" style="stroke:#181818;stroke-width:1;"/></g><!--link shell_scripts_portfolio_audit_sh to tool_mapfile--><g class="link" data-entity-1="ent0007" data-entity-2="ent0025" data-link-type="dependency" data-source-line="74" id="lnk69"><path d="M247.36,1427.1479 C287.65,1427.1479 326,1427.1479 326,1427.1479 C326,1427.1479 326,2018.3579 326,2018.3579 C326,2018.3579 405.7,2018.3579 458.26,2018.3579" fill="none" id="shell_scripts_portfolio_audit_sh-to-tool_mapfile" style="stroke:#181818;stroke-width:1;"/><polygon fill="#181818" points="464.26,2018.3579,455.26,2014.3579,459.26,2018.3579,455.26,2022.3579,464.26,2018.3579" style="stroke:#181818;stroke-width:1;"/></g><!--link shell_scripts_portfolio_audit_sh to tool_mkdir--><g class="link" data-entity-1="ent0007" data-entity-2="ent0026" data-link-type="dependency" data-source-line="75" id="lnk70"><path d="M247.56,1430.1679 C285.59,1430.1679 321,1430.1679 321,1430.1679 C321,1430.1679 321,2118.1279 321,2118.1279 C321,2118.1279 410.7,2118.1279 463.79,2118.1279" fill="none" id="shell_scripts_portfolio_audit_sh-to-tool_mkdir" style="stroke:#181818;stroke-width:1;"/><polygon fill="#181818" points="469.79,2118.1279,460.79,2114.1279,464.79,2118.1279,460.79,2122.1279,469.79,2118.1279" style="stroke:#181818;stroke-width:1;"/></g><!--link shell_scripts_portfolio_audit_sh to tool_repo_architecture_drawio--><g class="link" data-entity-1="ent0007" data-entity-2="ent0027" data-link-type="dependency" data-source-line="76" id="lnk71"><path d="M143,1439.6479 C143,1536.2279 143,1778.6279 143,1778.6279 C143,1778.6279 293.97,1778.6279 400.97,1778.6279" fill="none" id="shell_scripts_portfolio_audit_sh-to-tool_repo_architecture_drawio" style="stroke:#181818;stroke-width:1;"/><polygon fill="#181818" points="406.97,1778.6279,397.97,1774.6279,401.97,1778.6279,397.97,1782.6279,406.97,1778.6279" style="stroke:#181818;stroke-width:1;"/></g><!--link shell_scripts_portfolio_audit_sh to tool_repo_architecture_puml--><g class="link" data-entity-1="ent0007" data-entity-2="ent0028" data-link-type="dependency" data-source-line="77" id="lnk72"><path d="M247.34,1367.3079 C299.28,1367.3079 354,1367.3079 354,1367.3079 C354,1367.3079 354,530.8879 354,530.8879 C354,530.8879 375.24,530.8879 406.52,530.8879" fill="none" id="shell_scripts_portfolio_audit_sh-to-tool_repo_architecture_puml" style="stroke:#181818;stroke-width:1;"/><polygon fill="#181818" points="412.52,530.8879,403.52,526.8879,407.52,530.8879,403.52,534.8879,412.52,530.8879" style="stroke:#181818;stroke-width:1;"/></g><!--link shell_scripts_portfolio_audit_sh to tool_sort--><g class="link" data-entity-1="ent0007" data-entity-2="ent0030" data-link-type="dependency" data-source-line="78" id="lnk73"><path d="M247.47,1433.1879 C282.87,1433.1879 315,1433.1879 315,1433.1879 C315,1433.1879 315,2190.4479 315,2190.4479 C315,2190.4479 417.13,2190.4479 469.93,2190.4479" fill="none" id="shell_scripts_portfolio_audit_sh-to-tool_sort" style="stroke:#181818;stroke-width:1;"/><polygon fill="#181818" points="475.93,2190.4479,466.93,2186.4479,470.93,2190.4479,466.93,2194.4479,475.93,2190.4479" style="stroke:#181818;stroke-width:1;"/></g><!--link shell_scripts_portfolio_audit_sh to tool_tee--><g class="link" data-entity-1="ent0007" data-entity-2="ent0034" data-link-type="dependency" data-source-line="79" id="lnk74"><path d="M247.26,1436.2079 C280.48,1436.2079 310,1436.2079 310,1436.2079 C310,1436.2079 310,2270.3579 310,2270.3579 C310,2270.3579 419.62,2270.3579 472.46,2270.3579" fill="none" id="shell_scripts_portfolio_audit_sh-to-tool_tee" style="stroke:#181818;stroke-width:1;"/><polygon fill="#181818" points="478.46,2270.3579,469.46,2266.3579,473.46,2270.3579,469.46,2274.3579,478.46,2270.3579" style="stroke:#181818;stroke-width:1;"/></g><!--link shell_scripts_portfolio_audit_sh to tool_warn--><g class="link" data-entity-1="ent0007" data-entity-2="ent0035" data-link-type="dependency" data-source-line="80" id="lnk75"><path d="M85,1361.5979 C85,1201.3779 85,602.6279 85,602.6279 C85,602.6279 368.56,602.6279 466.4,602.6279" fill="none" id="shell_scripts_portfolio_audit_sh-to-tool_warn" style="stroke:#181818;stroke-width:1;"/><polygon fill="#181818" points="472.4,602.6279,463.4,598.6279,467.4,602.6279,463.4,606.6279,472.4,602.6279" style="stroke:#181818;stroke-width:1;"/></g><!--link shell_scripts_run_tachometer_profile_sh to tool_run--><g class="link" data-entity-1="ent0008" data-entity-2="ent0029" data-link-type="dependency" data-source-line="81" id="lnk76"><path d="M265,143.5879 C265,129.1179 265,116.1679 265,116.1679 C265,116.1679 408.71,116.1679 471.28,116.1679" fill="none" id="shell_scripts_run_tachometer_profile_sh-to-tool_run" style="stroke:#181818;stroke-width:1;"/><polygon fill="#181818" points="477.28,116.1679,468.28,112.1679,472.28,116.1679,468.28,120.1679,477.28,116.1679" style="stroke:#181818;stroke-width:1;"/></g><!--link shell_scripts_run_tachometer_profile_sh to tool_summarize--><g class="link" data-entity-1="ent0008" data-entity-2="ent0031" data-link-type="dependency" data-source-line="82" id="lnk77"><path d="M277.16,182.6279 C337.07,182.6279 400.2,182.6279 446.29,182.6279" fill="none" id="shell_scripts_run_tachometer_profile_sh-to-tool_summarize" style="stroke:#181818;stroke-width:1;"/><polygon fill="#181818" points="452.29,182.6279,443.29,178.6279,447.29,182.6279,443.29,186.6279,452.29,182.6279" style="stroke:#181818;stroke-width:1;"/></g><!--link shell_scripts_run_tachometer_profile_sh to tool_tachometer--><g class="link" data-entity-1="ent0008" data-entity-2="ent0033" data-link-type="dependency" data-source-line="83" id="lnk78"><path d="M277.07,214.1879 C377.57,214.1879 504,214.1879 504,214.1879 C504,214.1879 504,222.1279 504,235.6379" fill="none" id="shell_scripts_run_tachometer_profile_sh-to-tool_tachometer" style="stroke:#181818;stroke-width:1;"/><polygon fill="#181818" points="504,241.6379,508,232.6379,504,236.6379,500,232.6379,504,241.6379" style="stroke:#181818;stroke-width:1;"/></g><?plantuml-src jLTBZvim6BppAwpTSzAgbRgtIcb2jYjbapOaXqgLa1U-WBN6fhPHclxw6ZOB1Xo8-xWaiZqp7Zu_61HH590IE5A4iqd4cHASeY05gdyZGNA5bfGVFGe7XHH7WYIfGZ4HK34y-KnOZWNEa4nnp8-49UY0gGHZ98O3BgXQQl4rpW0zSiPbZYCJ4_4ivmoO2jH9EohbCKke2Q64WJhbWBXGAVTg2BgHbL7v1eie9PIeqoJ6X9wcCltEtYBA8qorlVAH84v0VcSV4FnK89ZkLvnJUOEmV464PwsmrWehhL2cw7RnoPyj_U6PZm3F_spg5x6HkGcJ2cjwp_59AiZYorRUZLiPqNPszlf0_yLQM_nARxdUJGTE2Gzn4HFrJwrTq1vnLhCc5Ml0oHLMUXO6fnO52nMEKfw1rWrpmG-4mcK7xySDs2LD7n7bHOnkfg3zSQ6le0D9Ag5ICZHxqUtINxwVtzMKX2YIC2wWmTTTNV3itb_lWcaMDrYSw0j7XbdSnSu_pzRt_cfptu97gIuNK9xO69k57swMuNopNkpdkpQFnn3oW_vdSH4fAtkzspvyskyUrfqfomkPF1LAtwiMtieFWiqwMFcpxTfVj9WKfEHCKi22GMpXVjclLk7M_xhtWrsuyn-_h6OxloMH5teT1VmeGAfGRzoSOWKMfQq_MposgG9mdDcmWJ_VRnzstrfe2L4XoXFSnpyLYHOhTt6BqNHRE15MHWMnwes_5fMBINLxA7qI2W6J9rf0BWXJzZNW8ZJXOGstU3W0hZ3dyhK4EsCMDcN6GhBUA3VEXsvqnpESbsUimPmxUhXd_HutK6MpYocBt2hID1RuIBYvr3blr-K5CQwK5naTqYd7Uog5KHhTw8vBlIMCZQLRFKIHPLYGNqPzwguUjhgm8sNOhBkwsEQIQy1DNmyDnlowqHq_wcFR0CfMZHZDAPF9nzUjumBcYGFwlALS6ENsSi2NQ-S0rpNqncFKDQMneGTgOu6F5ST66QoEXJ1O7Wk-NvyhibtDrhVeNx3hC-EvHpWd2mFqCGy3MUqA2zUmBpcmHBIQOwOV1reTWXmuTHXou9Y9o8NM2qHEv5OaSc3s8f43zr8MSf2eCv43nqX63gnMElgJqWub7GUzVj1nMItc0kOknyD-FmyoBDVpy5hRGz5VIPHvo6NlzDyGG_3-2s88NIOIxzellUQPYZyWrUdCdTeCUumhgBzExmNEqw3IFNb1X9c-3z3T-Tlsh3_r5b1MNezOldsDqNTtdQ_WgGSiHkM4lm40?></g></svg>
