<?plantuml 1.2026.2?><svg xmlns="http://www.w3.org/2000/svg" xmlns:xlink="http://www.w3.org/1999/xlink" contentStyleType="text/css" data-diagram-type="DESCRIPTION" height="353px" preserveAspectRatio="none" style="width:551px;height:353px;background:#FFFFFF;" version="1.1" viewBox="0 0 551 353" width="551px" zoomAndPan="magnify"><title>traction-control Tooling Integrations</title><defs/><g><g class="title" data-source-line="1"><text fill="#000000" font-family="Monospace" font-size="14" font-weight="bold" lengthAdjust="spacing" textLength="255.3556" x="141.2116" y="24.9659">traction-control&#160;Tooling&#160;Integrations</text></g><!--entity source_github_workflows_ci_yml--><g class="entity" data-qualified-name="source_github_workflows_ci_yml" data-source-line="7" id="ent0002"><rect fill="#E0F2FE" height="39.0679" rx="2.5" ry="2.5" style="stroke:#181818;stroke-width:0.5;" width="301.8189" x="7" y="176.5146"/><text fill="#000000" font-family="Monospace" font-size="14" lengthAdjust="spacing" textLength="281.8189" x="17" y="201.4805">.github/workflows/ci.yml\n4&#160;detected&#160;tools</text></g><!--entity tool_actions_checkout--><g class="entity" data-qualified-name="tool_actions_checkout" data-source-line="8" id="ent0003"><path d="M392.4321,53.8803 C396.2839,47.7213 401.0265,47.8618 404.756,54.0028 C408.0617,47.2399 413.0634,48.4888 417.102,53.2153 C421.7223,46.0679 425.9829,46.1928 430.6239,53.1956 C434.8987,46.9122 438.7313,47.9002 442.8273,53.3812 C446.1588,48.6952 451.3724,48.8489 454.1526,54.0149 C456.8508,48.3572 463.1173,47.8653 466.6945,52.9928 C470.7741,46.9554 476.0719,47.015 480.445,52.6469 C485.6196,47.2114 490.3812,47.7115 493.2316,54.9852 C496.2026,48.8612 501.6829,48.9453 504.7215,54.921 C508.6903,49.0874 513.0744,49.8445 517.0844,54.874 C526.7657,57.2837 528.0759,63.4434 523.0782,71.2317 C528.5231,79.6889 527.058,84.7921 517.1147,87.6652 C514.8671,93.3365 509.5073,93.8078 506.3314,88.584 C502.7444,95.0942 496.5823,95.6835 491.9911,89.7403 C489.2576,95.6427 485.2871,97.2581 480.0571,92.5475 C476.7762,99.0514 472.2801,98.8755 468.2001,93.334 C465.6717,100.7731 459.1543,101.2401 455.146,94.7178 C450.2427,101.1156 444.7836,99.0399 442.2965,92.3462 C438.3606,99.1242 432.4389,98.9687 428.8681,91.9898 C424.3334,97.5081 419.6451,96.0295 416.9715,90.0621 C413.0943,95.1797 407.7353,94.8018 405.1914,88.6665 C400.7305,94.1295 394.5086,94.8653 391.2471,87.3753 C384.1491,83.3238 382.7477,75.3409 391.3287,71.3694 C383.0864,65.3412 384.0335,58.8586 392.4321,53.8803" fill="#FEF3C7" style="stroke:#181818;stroke-width:0.5;"/><text fill="#000000" font-family="Monospace" font-size="14" lengthAdjust="spacing" textLength="111.9156" x="398" y="75.4805">actions/checkout</text></g><!--entity tool_actions_setup_python--><g class="entity" data-qualified-name="tool_actions_setup_python" data-source-line="9" id="ent0004"><path d="M378.0691,139.0653 C380.2816,133.0104 384.4952,132.9487 388.3139,137.5162 C393.1776,132.1865 397.5169,132.8353 400.9097,139.1123 C402.8057,134.523 407.6036,132.6687 411.0596,137.4164 C414.4191,131.1239 418.0266,131.2305 422.0951,136.7543 C425.6753,131.2677 429.413,132.166 432.8627,136.8919 C436.7014,132.5503 440.3398,132.8787 443.116,138.0385 C446.2914,132.2339 451.3479,130.5811 456.0898,136.2702 C459.1356,131.2994 462.074,131.358 465.195,136.2005 C469.5281,130.4578 473.8561,131.0985 477.5853,136.8515 C481.628,131.9141 485.4971,132.5779 488.5586,137.9009 C491.3271,132.528 496.0905,133.2043 499.1999,137.5267 C502.2503,131.8827 507.0518,132.5978 509.7825,137.8376 C514.0074,132.1954 517.8072,132.8788 521.8437,138.0476 C525.6354,132.7773 530.0872,133.0907 533.2876,138.6712 C542.4326,141.3725 544.2641,149.3956 537.744,156.1019 C544.7789,164.1975 542.3316,170.7354 531.7414,172.2994 C528.2594,177.8902 524.481,177.8178 521.2967,172.0262 C519.2518,177.902 514.3128,177.5255 510.8459,173.5319 C508.099,179.3945 503.4712,179.5459 499.5738,174.7485 C496.4527,180.8644 490.7031,180.5999 487.6338,174.6971 C485.2105,180.2628 481.9816,179.6416 478.0833,176.2741 C474.9292,181.4071 470.3685,182.0431 466.8569,176.6555 C464.4821,182.0373 458.8219,182.5113 455.4729,177.7488 C451.8916,183.7723 447.3483,183.4457 443.661,177.8565 C440.0863,182.4354 434.8935,183.1241 432.1966,176.923 C428.5468,181.4066 424.2418,179.8954 422.4953,174.9623 C418.0432,178.9929 414.3124,178.6572 411.1581,173.3813 C407.0218,179.4902 403.1078,178.1863 399.2284,173.1073 C397.001,177.5332 392.3723,177.3996 389.7188,173.5998 C385.9447,179.2753 380.3649,178.6616 377.8662,172.3398 C368.1293,171.054 364.5589,163.8861 369.1311,155.2756 C364.1685,146.3595 366.6967,138.9746 378.0691,139.0653" fill="#FEF3C7" style="stroke:#181818;stroke-width:0.5;"/><text fill="#000000" font-family="Monospace" font-size="14" lengthAdjust="spacing" textLength="140.2795" x="383.82" y="159.4805">actions/setup-python</text></g><!--entity tool_pip--><g class="entity" data-qualified-name="tool_pip" data-source-line="10" id="ent0005"><path d="M437.8312,221.5833 C442.1755,213.9554 449.6407,212.4928 455.0951,220.3452 C462.5031,212.2314 468.6118,214.1788 472.9005,223.526 C482.2719,224.7781 486.3319,229.6707 481.497,238.8778 C487.5878,248.6046 481.9144,255.0287 472.0261,255.8263 C469.1161,265.8019 463.4252,268.1692 455.0433,261.3641 C446.7273,268.4763 438.9126,264.5732 436.9246,254.6384 C429.112,250.3597 426.68,245.7375 434.1887,238.8106 C427.1208,231.5925 428.0057,225.2294 437.8312,221.5833" fill="#FEF3C7" style="stroke:#181818;stroke-width:0.5;"/><text fill="#000000" font-family="Monospace" font-size="14" lengthAdjust="spacing" textLength="20.8319" x="443.54" y="243.4805">pip</text></g><!--entity tool_pre_commit--><g class="entity" data-qualified-name="tool_pre_commit" data-source-line="11" id="ent0006"><path d="M410.1172,305.9674 C412.9031,300.871 417.479,301.2327 420.2229,306.0105 C424.3171,299.7632 429.6835,301.1927 433.1536,306.6973 C436.487,301.1875 439.7573,300.7596 443.5143,306.3002 C446.4195,299.3726 450.9897,299.3366 455.7378,304.4255 C459.5656,299.1633 463.9772,301.2685 466.2708,306.0365 C469.4178,300.8859 473.4637,300.6712 476.999,305.6241 C480.8536,299.7593 485.776,300.8846 488.8561,306.429 C491.9373,300.7011 496.5981,302.0053 499.5863,306.5264 C507.8148,310.3376 508.4961,317.3514 501.3336,322.8138 C509.354,327.7773 508.835,333.4589 501.5024,338.5867 C498.306,344.0092 494.0013,344.7517 490.0597,339.3764 C487.3879,346.0647 482.3086,346.3212 477.781,341.3269 C473.7997,346.7332 470.468,345.9943 466.7346,341.0618 C464.315,346.7728 459.0288,346.9144 456.0136,341.6433 C452.5917,346.3988 447.4744,346.8179 444.3458,341.3099 C440.3078,345.1072 435.5795,345.3919 433.4336,339.2356 C430.4216,346.2776 424.2641,345.512 420.2127,340.363 C416.6568,344.8597 411.0087,344.4965 408.6447,338.9854 C399.8379,337.8363 396.8825,329.591 401.7587,322.6678 C397.0421,313.2649 398.4616,307.176 410.1172,305.9674" fill="#FEF3C7" style="stroke:#181818;stroke-width:0.5;"/><text fill="#000000" font-family="Monospace" font-size="14" lengthAdjust="spacing" textLength="76.8317" x="415.54" y="327.4805">pre-commit</text></g><g class="entity" data-qualified-name="toolingGraphSummary" data-source-line="17" id="ent0011"><path d="M57.27,96.3446 L57.27,141.7566 L258.5542,141.7566 L258.5542,106.3446 L248.5542,96.3446 L57.27,96.3446" fill="#FEFFDD" style="stroke:#181818;stroke-width:0.5;"/><path d="M248.5542,96.3446 L248.5542,106.3446 L258.5542,106.3446 L248.5542,96.3446" fill="#FEFFDD" style="stroke:#181818;stroke-width:1;"/><text fill="#000000" font-family="Monospace" font-size="13" lengthAdjust="spacing" textLength="180.2842" x="63.27" y="115.2416">Scanned&#160;1&#160;tooling&#160;entrypoint.</text><text fill="#000000" font-family="Monospace" font-size="13" lengthAdjust="spacing" textLength="171.7822" x="63.27" y="132.9476">Detected&#160;4&#160;third-party&#160;tools.</text></g><!--link source_github_workflows_ci_yml to tool_actions_checkout--><g class="link" data-entity-1="ent0002" data-entity-2="ent0003" data-link-type="dependency" data-source-line="12" id="lnk7"><path d="M284.1,176.0846 C284.1,140.5546 284.1,70.0546 284.1,70.0546 C284.1,70.0546 330.36,70.0546 376.91,70.0546" fill="none" id="source_github_workflows_ci_yml-to-tool_actions_checkout" style="stroke:#181818;stroke-width:1;"/><polygon fill="#181818" points="382.91,70.0546,373.91,66.0546,377.91,70.0546,373.91,74.0546,382.91,70.0546" style="stroke:#181818;stroke-width:1;"/></g><!--link source_github_workflows_ci_yml to tool_actions_setup_python--><g class="link" data-entity-1="ent0002" data-entity-2="ent0004" data-link-type="dependency" data-source-line="13" id="lnk8"><path d="M309.13,187.3146 C350.95,187.3146 385.1,187.3146 385.1,187.3146 C385.1,187.3146 385.1,189.7346 385.1,184.9246" fill="none" id="source_github_workflows_ci_yml-to-tool_actions_setup_python" style="stroke:#181818;stroke-width:1;"/><polygon fill="#181818" points="385.1,178.9246,381.1,187.9246,385.1,183.9246,389.1,187.9246,385.1,178.9246" style="stroke:#181818;stroke-width:1;"/></g><!--link source_github_workflows_ci_yml to tool_pip--><g class="link" data-entity-1="ent0002" data-entity-2="ent0005" data-link-type="dependency" data-source-line="14" id="lnk9"><path d="M309.04,196.0546 C382.06,196.0546 454.1,196.0546 454.1,196.0546 C454.1,196.0546 454.1,198.0946 454.1,207.1346" fill="none" id="source_github_workflows_ci_yml-to-tool_pip" style="stroke:#181818;stroke-width:1;"/><polygon fill="#181818" points="454.1,213.1346,458.1,204.1346,454.1,208.1346,450.1,204.1346,454.1,213.1346" style="stroke:#181818;stroke-width:1;"/></g><!--link source_github_workflows_ci_yml to tool_pre_commit--><g class="link" data-entity-1="ent0002" data-entity-2="ent0006" data-link-type="dependency" data-source-line="15" id="lnk10"><path d="M309.16,204.7846 C364.62,204.7846 414.1,204.7846 414.1,204.7846 C414.1,204.7846 414.1,256.7546 414.1,291.1846" fill="none" id="source_github_workflows_ci_yml-to-tool_pre_commit" style="stroke:#181818;stroke-width:1;"/><polygon fill="#181818" points="414.1,297.1846,418.1,288.1846,414.1,292.1846,410.1,288.1846,414.1,297.1846" style="stroke:#181818;stroke-width:1;"/></g><?plantuml-src bLBBReCm4Bpp5Qla3EaZKc-zjA7geRsanqZ8DGjOCLxBNXJnzrr2IL5IgUaHpuCPUzYmHU2WD1jogIR7WIny45dZQdXrZ7LG0nOJYnK34mHJDmob2NWK9N5ld5T1jH0RLT9X45RAHfmX9LQgivoB_xjg4Tx8KVHAppcQMayE7M-vbr23lNArdLCa57Bl4IXmGyc90ekiDjnqdwi3XNrbwH1NscHzQtSxjvQ_ip2nbFHaum9KX4XTq5YCgkAaAhGfH0NBpKr-bsyIRQahOJ5UZtWsgFVKyT5YC2k-aM92O9blylkdXtDbHEvywdk9xIxLHxGOqNC7R_oFG3uky83oRcrhPgdah1ZFJkm_2gVfu--5_YsSTxbQBBskvvxA9OuOfz8okvUWVBFjsbQ5FjbgvPoy-Us4Wamhz9wCuonvdYQn1cvCA5CP6FVZGB84NGc3znS0?></g></svg>
