<?plantuml 1.2026.2?><svg xmlns="http://www.w3.org/2000/svg" xmlns:xlink="http://www.w3.org/1999/xlink" contentStyleType="text/css" data-diagram-type="DESCRIPTION" height="3295px" preserveAspectRatio="none" style="width:650px;height:3295px;background:#FFFFFF;" version="1.1" viewBox="0 0 650 3295" width="650px" zoomAndPan="magnify"><title>traction-control Tooling Integrations</title><defs/><g><g class="title" data-source-line="1"><text fill="#000000" font-family="Monospace" font-size="14" font-weight="bold" lengthAdjust="spacing" textLength="255.3556" x="190.8204" y="24.9659">traction-control&#160;Tooling&#160;Integrations</text></g><!--entity source_github_workflows_ci_yml--><g class="entity" data-qualified-name="source_github_workflows_ci_yml" data-source-line="7" id="ent0002"><rect fill="#E0F2FE" height="58.1358" rx="2.5" ry="2.5" style="stroke:#181818;stroke-width:0.5;" width="182.6234" x="64.45" y="3108.7079"/><text fill="#000000" font-family="Monospace" font-size="14" lengthAdjust="spacing" textLength="162.6234" x="74.45" y="3133.6739">.github/workflows/ci.yml</text><text fill="#000000" font-family="Monospace" font-size="14" lengthAdjust="spacing" textLength="105.3356" x="74.45" y="3152.7418">4&#160;detected&#160;tools</text></g><!--entity source_scripts_archility_daily_sh--><g class="entity" data-qualified-name="source_scripts_archility_daily_sh" data-source-line="8" id="ent0003"><rect fill="#E0F2FE" height="58.1358" rx="2.5" ry="2.5" style="stroke:#181818;stroke-width:0.5;" width="174.8814" x="68.32" y="2735.7079"/><text fill="#000000" font-family="Monospace" font-size="14" lengthAdjust="spacing" textLength="154.8814" x="78.32" y="2760.6739">scripts/archility-daily.sh</text><text fill="#000000" font-family="Monospace" font-size="14" lengthAdjust="spacing" textLength="105.3356" x="78.32" y="2779.7418">6&#160;detected&#160;tools</text></g><!--entity source_scripts_archility_weekly_sh--><g class="entity" data-qualified-name="source_scripts_archility_weekly_sh" data-source-line="9" id="ent0004"><rect fill="#E0F2FE" height="58.1358" rx="2.5" ry="2.5" style="stroke:#181818;stroke-width:0.5;" width="189.0773" x="61.22" y="2642.7079"/><text fill="#000000" font-family="Monospace" font-size="14" lengthAdjust="spacing" textLength="169.0773" x="71.22" y="2667.6739">scripts/archility-weekly.sh</text><text fill="#000000" font-family="Monospace" font-size="14" lengthAdjust="spacing" textLength="105.3356" x="71.22" y="2686.7418">6&#160;detected&#160;tools</text></g><!--entity source_scripts_check_github_push_ci_sh--><g class="entity" data-qualified-name="source_scripts_check_github_push_ci_sh" data-source-line="10" id="ent0005"><rect fill="#E0F2FE" height="58.1358" rx="2.5" ry="2.5" style="stroke:#181818;stroke-width:0.5;" width="229.7612" x="40.88" y="714.7079"/><text fill="#000000" font-family="Monospace" font-size="14" lengthAdjust="spacing" textLength="209.7612" x="50.88" y="739.6739">scripts/check_github_push_ci.sh</text><text fill="#000000" font-family="Monospace" font-size="14" lengthAdjust="spacing" textLength="105.3356" x="50.88" y="758.7418">9&#160;detected&#160;tools</text></g><!--entity source_scripts_install_archility_daily_systemd_sh--><g class="entity" data-qualified-name="source_scripts_install_archility_daily_systemd_sh" data-source-line="11" id="ent0006"><rect fill="#E0F2FE" height="58.1358" rx="2.5" ry="2.5" style="stroke:#181818;stroke-width:0.5;" width="283.325" x="14.1" y="252.7079"/><text fill="#000000" font-family="Monospace" font-size="14" lengthAdjust="spacing" textLength="263.325" x="24.1" y="277.6739">scripts/install_archility_daily_systemd.sh</text><text fill="#000000" font-family="Monospace" font-size="14" lengthAdjust="spacing" textLength="105.3356" x="24.1" y="296.7418">2&#160;detected&#160;tools</text></g><!--entity source_scripts_install_archility_weekly_systemd_sh--><g class="entity" data-qualified-name="source_scripts_install_archility_weekly_systemd_sh" data-source-line="12" id="ent0007"><rect fill="#E0F2FE" height="58.1358" rx="2.5" ry="2.5" style="stroke:#181818;stroke-width:0.5;" width="297.5209" x="7" y="345.7079"/><text fill="#000000" font-family="Monospace" font-size="14" lengthAdjust="spacing" textLength="277.5209" x="17" y="370.6739">scripts/install_archility_weekly_systemd.sh</text><text fill="#000000" font-family="Monospace" font-size="14" lengthAdjust="spacing" textLength="105.3356" x="17" y="389.7418">2&#160;detected&#160;tools</text></g><!--entity source_scripts_install_portfolio_audit_systemd_sh--><g class="entity" data-qualified-name="source_scripts_install_portfolio_audit_systemd_sh" data-source-line="13" id="ent0008"><rect fill="#E0F2FE" height="58.1358" rx="2.5" ry="2.5" style="stroke:#181818;stroke-width:0.5;" width="291.137" x="10.19" y="438.7079"/><text fill="#000000" font-family="Monospace" font-size="14" lengthAdjust="spacing" textLength="271.137" x="20.19" y="463.6739">scripts/install_portfolio_audit_systemd.sh</text><text fill="#000000" font-family="Monospace" font-size="14" lengthAdjust="spacing" textLength="105.3356" x="20.19" y="482.7418">2&#160;detected&#160;tools</text></g><!--entity source_scripts_portfolio_audit_sh--><g class="entity" data-qualified-name="source_scripts_portfolio_audit_sh" data-source-line="14" id="ent0009"><rect fill="#E0F2FE" height="58.1358" rx="2.5" ry="2.5" style="stroke:#181818;stroke-width:0.5;" width="182.6934" x="64.41" y="2016.7079"/><text fill="#000000" font-family="Monospace" font-size="14" lengthAdjust="spacing" textLength="162.6934" x="74.41" y="2041.6739">scripts/portfolio-audit.sh</text><text fill="#000000" font-family="Monospace" font-size="14" lengthAdjust="spacing" textLength="113.3436" x="74.41" y="2060.7418">22&#160;detected&#160;tools</text></g><!--entity source_scripts_run_tachometer_profile_sh--><g class="entity" data-qualified-name="source_scripts_run_tachometer_profile_sh" data-source-line="15" id="ent0010"><rect fill="#E0F2FE" height="58.1358" rx="2.5" ry="2.5" style="stroke:#181818;stroke-width:0.5;" width="242.2912" x="34.61" y="126.7079"/><text fill="#000000" font-family="Monospace" font-size="14" lengthAdjust="spacing" textLength="222.2912" x="44.61" y="151.6739">scripts/run_tachometer_profile.sh</text><text fill="#000000" font-family="Monospace" font-size="14" lengthAdjust="spacing" textLength="105.3356" x="44.61" y="170.7418">3&#160;detected&#160;tools</text></g><!--entity tool_editorconfig--><g class="entity" data-qualified-name="tool_editorconfig" data-source-line="16" id="ent0011"><path d="M456.6553,1316.379 C459.6611,1310.7568 464.9094,1309.971 468.3115,1315.9819 C471.2978,1309.2821 476.9491,1309.2827 481.3205,1314.4655 C485.5041,1308.9908 489.0525,1308.6803 493.088,1314.6183 C496.7318,1308.9569 502.2865,1307.2322 506.2598,1314.2767 C509.1246,1308.5375 514.3387,1310.0975 516.9326,1314.56 C522.0467,1309.3593 526.2632,1309.4007 529.9917,1316.0828 C532.9023,1309.8252 537.4849,1309.6934 541.1077,1315.4223 C545.6347,1309.747 552.0681,1309.042 555.2212,1316.8595 C564.4466,1319.822 563.9952,1328.1384 557.5905,1333.347 C563.5292,1340.9504 562.6337,1346.3106 553.3053,1349.981 C550.1382,1354.7914 546.4778,1355.1027 542.4653,1351.0104 C539.0338,1358.7434 534.2483,1358.2736 528.8214,1353.1238 C526.9004,1359.2873 521.8635,1359.5679 518.1059,1354.949 C516.3308,1361.1557 510.75,1362.8281 506.1035,1358.101 C501.0687,1363.7587 495.8527,1362.1442 492.8037,1355.8848 C488.2349,1360.8579 482.1583,1359.7884 480.0334,1353.1881 C475.7041,1358.4018 471.0744,1356.9986 468.8438,1351.0788 C464.5347,1356.7615 459.8577,1354.2933 457.4224,1349.1095 C447.313,1347.2266 446.2059,1340.3467 452.2672,1333.218 C445.0271,1325.7291 448.0069,1319.7276 456.6553,1316.379" fill="#FEF3C7" style="stroke:#181818;stroke-width:0.5;"/><text fill="#000000" font-family="Monospace" font-size="14" lengthAdjust="spacing" textLength="84.0557" x="462.23" y="1337.2039">.editorconfig</text></g><!--entity tool_gitignore--><g class="entity" data-qualified-name="tool_gitignore" data-source-line="17" id="ent0012"><path d="M465.8053,1399.486 C469.51,1392.2903 475.648,1393.0133 479.8525,1398.9514 C483.0829,1392.7945 488.7581,1394.262 491.8256,1399.1283 C496.3153,1393.0189 501.1064,1392.6437 505.131,1399.6019 C509.6034,1392.6447 515.3811,1393.8438 519.4585,1400.0325 C522.6647,1394.1674 528.2165,1393.1146 532.08,1399.3467 C537.1394,1393.5504 541.0533,1394.3647 544.1046,1401.2507 C553.5107,1403.3776 556.3633,1408.21 552.4729,1417.2789 C557.4013,1426.0786 554.1337,1431.6629 544.3196,1432.635 C541.3269,1440.5457 537.0639,1441.161 531.0648,1435.591 C527.1325,1442.3037 522.5547,1441.71 517.7335,1436.5926 C515.3014,1443.3709 509.7213,1443.0326 505.5636,1438.4392 C500.8978,1444.2074 494.9555,1444.784 491.5166,1437.1531 C486.5209,1442.4913 481.6532,1442.5898 478.8779,1434.9849 C473.5543,1440.1566 469.8256,1438.6941 467.1115,1432.3245 C457.3568,1431.0776 455.3288,1424.5507 459.8594,1416.6813 C453.5699,1409.3012 455.3842,1401.0877 465.8053,1399.486" fill="#FEF3C7" style="stroke:#181818;stroke-width:0.5;"/><text fill="#000000" font-family="Monospace" font-size="14" lengthAdjust="spacing" textLength="64.0498" x="472.24" y="1421.2039">.gitignore</text></g><!--entity tool_agents_md--><g class="entity" data-qualified-name="tool_agents_md" data-source-line="18" id="ent0013"><path d="M458.8512,1483.3814 C462.8221,1478.6671 467.6846,1478.759 470.8673,1484.3045 C474.1713,1479.2729 478.787,1479.4377 482.2858,1484.0744 C485.6834,1478.6106 490.0993,1478.8595 493.8117,1483.7231 C497.9126,1477.8087 502.0395,1478.6185 506.0621,1483.8095 C509.496,1478.5968 513.9298,1477.0802 518.0214,1483.1099 C521.3802,1478.415 524.3701,1478.6836 527.7917,1483.0421 C531.8202,1477.2897 537.459,1477.0176 540.6349,1483.9081 C544.5638,1479.3451 547.7623,1480.4118 550.8617,1484.8505 C560.2022,1487.9901 561.1032,1495.743 553.2109,1501.338 C559.56,1506.586 560.2083,1513.2254 551.3585,1516.6327 C549.0631,1522.3431 543.6661,1524.308 539.6514,1518.359 C536.7044,1523.8982 531.6188,1524.7473 527.8611,1519.223 C525.2915,1524.4777 521.2933,1526.7179 516.711,1521.3322 C513.6386,1526.7374 508.2166,1527.8082 504.2852,1522.3112 C500.3806,1526.1191 497.3029,1526.6971 494.3669,1521.2709 C490.7229,1525.6575 485.3404,1524.4938 483.1685,1519.5114 C478.6987,1526.3371 474.1807,1525.5744 470.3524,1518.9023 C465.4864,1523.8341 461.76,1522.875 458.2986,1517.2921 C450.8396,1512.5823 449.4795,1507.4549 456.3236,1501.01 C448.5403,1494.9152 448.9656,1486.9428 458.8512,1483.3814" fill="#FEF3C7" style="stroke:#181818;stroke-width:0.5;"/><text fill="#000000" font-family="Monospace" font-size="14" lengthAdjust="spacing" textLength="78.4837" x="465.02" y="1505.2039">AGENTS.md</text></g><!--entity tool_changelog_md--><g class="entity" data-qualified-name="tool_changelog_md" data-source-line="19" id="ent0014"><path d="M443.6772,1567.9304 C447.5165,1562.1659 452.0095,1563.0355 455.7391,1568.0531 C458.9958,1562.203 462.8651,1562.2422 466.9665,1567.1734 C471.6152,1562.1043 475.8967,1562.121 479.4632,1568.3685 C482.7265,1561.4857 489.6353,1561.4838 493.2959,1567.9569 C496.1445,1560.9059 501.7281,1559.8146 506.4488,1566.1123 C510.6432,1561.3365 514.7601,1561.8968 518.158,1567.0514 C522.1765,1561.2986 526.2449,1561.6454 530.4359,1566.8584 C534.2982,1560.9151 537.8645,1561.1915 541.7196,1566.8655 C545.3839,1560.6832 551.8763,1561.0545 554.9373,1567.497 C560.0422,1560.5874 564.3953,1562.6694 568.3298,1568.7075 C577.7393,1570.1601 581.0725,1574.5769 577.1849,1583.8206 C581.3868,1593.0511 579.7671,1599.5297 568.5093,1600.9137 C564.6787,1608.4703 559.8637,1607.6357 554.8048,1602.2104 C553.3446,1608.4322 548.1173,1610.6294 543.4409,1605.403 C539.3008,1611.589 534.7875,1612.4976 529.9185,1606.192 C527.0053,1611.7959 521.0224,1613.982 516.8843,1607.5146 C514.443,1614.9602 509.0965,1614.7744 504.3799,1609.8066 C500.558,1614.5725 496.3882,1615.4997 493.1786,1609.1874 C487.6298,1614.3983 482.5253,1612.7812 479.7712,1606.0497 C475.6224,1611.6453 469.951,1611.9074 466.9851,1604.8541 C463.0749,1609.4794 458.8282,1609.8938 455.972,1603.7738 C450.9493,1610.8935 445.4622,1609.7022 442.014,1602.2641 C433.7661,1596.9082 433.709,1590.5269 440.8892,1584.2099 C433.2902,1578.1442 435.4666,1571.2886 443.6772,1567.9304" fill="#FEF3C7" style="stroke:#181818;stroke-width:0.5;"/><text fill="#000000" font-family="Monospace" font-size="14" lengthAdjust="spacing" textLength="110.6976" x="448.91" y="1589.2039">CHANGELOG.md</text></g><!--entity tool_code_of_conduct_md--><g class="entity" data-qualified-name="tool_code_of_conduct_md" data-source-line="20" id="ent0015"><path d="M416.6288,1651.5977 C421.1401,1644.9935 426.4322,1645.7978 430.2481,1652.3192 C433.6707,1645.3243 439.3342,1646.0027 443.6292,1651.3753 C447.2741,1645.3933 450.7468,1645.9362 454.6554,1651.1148 C459.0485,1645.4886 463.5181,1645.3985 468.127,1650.8525 C470.9893,1646.0478 476.0018,1644.2074 479.5618,1650.1073 C484.2579,1644.3844 489.4767,1642.8616 493.7207,1650.5834 C498.0889,1645.2792 502.9376,1644.5913 506.3577,1651.5597 C509.0195,1646.5221 513.9616,1646.5719 517.0819,1651.0425 C521.3466,1645.1876 526.2267,1645.4214 529.956,1651.6146 C533.8655,1644.3387 540.5464,1644.2497 544.0633,1651.9835 C547.7677,1646.4649 551.8627,1646.183 555.9877,1651.5215 C559.1002,1645.3789 564.9833,1644.6082 568.7633,1650.8319 C573.1079,1647.01 577.113,1646.1257 579.7161,1652.6717 C583.6266,1645.7534 588.7862,1645.582 592.7195,1652.6505 C603.3526,1653.608 605.4673,1661.5622 599.693,1669.3651 C605.6449,1677.09 601.9477,1684.2249 592.5529,1684.8929 C589.973,1691.9539 583.8599,1691.6393 579.6553,1686.6288 C577.5338,1692.6275 571.7309,1693.1338 567.942,1688.4585 C563.9211,1695.052 559.8625,1695.4725 554.8119,1689.5377 C551.4853,1695.3373 547.5546,1696.3556 542.7703,1691.1297 C540.5316,1697.2846 535.6886,1697.5948 531.5536,1693.1333 C526.7525,1700.1837 522.1529,1698.9776 517.8633,1692.6114 C515.2787,1699.8518 510.7151,1701.1729 504.9215,1695.9412 C499.0732,1700.7365 494.5866,1699.6382 492.0283,1692.4125 C488.5933,1698.0986 483.2745,1697.654 480.8582,1691.4551 C477.2557,1698.17 471.4385,1698.4268 467.9872,1691.3144 C463.2073,1696.8033 459.5408,1696.5263 456.1588,1689.9446 C450.5764,1694.8045 446.0233,1695.6529 442.4614,1687.7723 C437.9167,1694.1241 432.5801,1693.6653 429.3291,1686.514 C425.3928,1691.5158 420.9084,1690.1664 418.8535,1684.6416 C409.636,1684.0397 405.5813,1677.8989 410.7829,1669.5738 C405.3283,1661.239 406.9371,1655.0068 416.6288,1651.5977" fill="#FEF3C7" style="stroke:#181818;stroke-width:0.5;"/><text fill="#000000" font-family="Monospace" font-size="14" lengthAdjust="spacing" textLength="161.3773" x="423.57" y="1673.2039">CODE_OF_CONDUCT.md</text></g><!--entity tool_contributing_md--><g class="entity" data-qualified-name="tool_contributing_md" data-source-line="21" id="ent0016"><path d="M433.6782,1737.2199 C436.7184,1731.6296 441.6746,1731.9169 445.3301,1736.5163 C448.6861,1731.1346 453.4735,1731.0129 457,1736.3304 C460.4216,1730.5943 464.7822,1729.1333 469.7421,1734.5771 C473.4493,1729.1524 478.4777,1729.2224 481.9219,1734.8665 C485.334,1730.1869 488.9345,1730.043 492.6172,1734.5514 C496.0712,1728.5052 500.9361,1727.8861 505.0724,1733.8434 C509.0141,1727.898 512.6507,1727.9031 516.4323,1733.9945 C521.3374,1728.0161 525.0297,1728.5707 528.4795,1735.367 C532.4804,1728.8461 536.9567,1728.6212 541.6205,1734.6742 C546.1806,1728.6309 550.2406,1729.5421 553.8578,1735.6257 C557.5408,1731.2495 562.3268,1730.4507 565.0596,1736.6337 C568.6068,1731.0712 573.3025,1730.0688 577.187,1736.2864 C586.9233,1740.6163 586.9605,1747.1279 579.0174,1753.3539 C586.3672,1759.1385 586.3198,1765.4949 577.9171,1770.254 C574.4132,1777.7696 569.3912,1778.3407 564.394,1771.6782 C560.9437,1777.2226 555.6768,1777.9406 552.4283,1771.4771 C549.8494,1778.0253 545.3767,1777.8791 541.0824,1773.2127 C538.6233,1778.2879 534.3293,1779.1151 530.3755,1774.9434 C526.2183,1781.2776 521.9182,1781.2536 517.1917,1775.5679 C513.9787,1780.731 510.5433,1782.1989 506.2223,1776.7089 C501.5699,1783.4684 495.8196,1781.9307 492.9724,1774.966 C489.2019,1780.2342 484.3174,1779.4977 481.89,1773.6295 C477.9845,1780.0256 473.0026,1778.5951 469.3403,1773.367 C464.4976,1778.8237 460.5855,1778.3159 457.1105,1771.9519 C453.008,1776.3096 449.6278,1776.3301 446.4646,1770.9274 C441.5675,1776.9317 437.3237,1775.3587 433.8087,1769.4581 C422.9131,1767.9432 420.2589,1761.3335 424.9306,1751.9325 C419.2202,1743.358 424.7225,1737.0744 433.6782,1737.2199" fill="#FEF3C7" style="stroke:#181818;stroke-width:0.5;"/><text fill="#000000" font-family="Monospace" font-size="14" lengthAdjust="spacing" textLength="129.8075" x="439.36" y="1757.2039">CONTRIBUTING.md</text></g><!--entity tool_lessonslearned_md--><g class="entity" data-qualified-name="tool_lessonslearned_md" data-source-line="22" id="ent0017"><path d="M425.9521,1821.1045 C429.3949,1815.5263 433.4871,1815.9699 437.145,1820.8749 C438.8427,1815.0002 443.821,1813.9631 447.5086,1818.9817 C451.2936,1814.2308 455.9684,1813.9155 459.3542,1819.4419 C462.095,1814.1021 467.8858,1813.4603 471.0229,1819.0175 C474.3794,1813.6098 480.1025,1813.3252 483.2263,1819.2678 C486.4318,1815.4915 490.4295,1814.9239 492.8906,1820.0737 C496.354,1814.3848 500.5472,1813.3698 505.5419,1818.2389 C509.3371,1813.2881 514.0482,1814.3564 516.0893,1819.9874 C519.1689,1814.4961 524.6328,1813.5085 528.1949,1819.4779 C531.5704,1814.1722 535.1964,1813.4537 539.4203,1818.5635 C542.7973,1813.0626 547.3856,1813.2277 550.3897,1818.9286 C555.0392,1812.2731 559.4792,1812.6337 563.6895,1819.3649 C566.7438,1815.1551 570.3867,1815.2766 573.3024,1819.5226 C576.726,1813.9971 582.4573,1814.3231 585.1988,1820.2324 C595.724,1821.3591 599.5978,1829.5147 592.4858,1837.9112 C597.0956,1846.0961 594.591,1851.6811 585.3742,1853.5976 C581.7092,1858.7713 577.2456,1858.4691 573.8652,1853.2814 C571.2284,1858.3577 565.781,1859.0817 562.7923,1853.6523 C558.7871,1859.2772 554.8157,1858.9919 551.1067,1853.3453 C548.625,1858.8005 545.0424,1858.9459 540.8826,1855.2125 C537.4149,1860.496 531.6153,1860.6414 528.4175,1854.9072 C525.2699,1859.8415 520.6917,1859.6548 517.4417,1855.0247 C513.8265,1860.5083 509.5223,1861.0545 505.753,1855.1834 C502.0568,1861.0539 497.6163,1860.3701 494.3075,1854.796 C489.9721,1859.2542 486.3846,1859.6451 483.4867,1853.3496 C479.7738,1860.3169 473.3766,1859.7366 469.8762,1853.1364 C466.6453,1858.4356 462.8689,1858.4237 459.2812,1853.5064 C455.8265,1858.8797 451.8712,1859.1015 448.6838,1853.2538 C443.8388,1860.2151 439.616,1859.4061 435.4707,1852.5832 C432.4863,1858.5496 427.1606,1857.8965 423.9758,1852.7913 C417.2541,1848.5989 415.8263,1842.1837 423.1436,1837.2401 C417.1021,1830.4146 417.1536,1825.347 425.9521,1821.1045" fill="#FEF3C7" style="stroke:#181818;stroke-width:0.5;"/><text fill="#000000" font-family="Monospace" font-size="14" lengthAdjust="spacing" textLength="146.6214" x="430.95" y="1841.2039">LESSONSLEARNED.md</text></g><!--entity tool_pull_request_template_md--><g class="entity" data-qualified-name="tool_pull_request_template_md" data-source-line="23" id="ent0018"><path d="M397.8522,1905.9106 C402.6481,1898.0137 408.6506,1896.1356 414.7829,1904.521 C419.0731,1898.2835 423.125,1897.9907 427.6855,1904.2416 C433.4047,1895.8889 438.9944,1898.0931 443.9139,1905.0871 C447.1479,1897.4743 453.4251,1894.8863 459.2782,1902.4323 C464.4457,1895.4167 470.4151,1894.6645 475.2495,1902.7838 C479.0132,1896.4085 485.8299,1895.1252 489.9696,1902.3778 C494.6544,1894.7066 502.1611,1893.1859 507.0939,1902.1222 C512.3875,1895.0466 517.5384,1894.2384 522.2076,1902.7285 C525.8112,1895.6471 532.3613,1894.9935 536.3369,1902.3649 C541.98,1895.2599 548.0446,1896.1012 551.3539,1904.6095 C555.7634,1897.6096 562.9771,1896.3553 567.6118,1904.3655 C572.5617,1896.2594 577.5263,1896.4283 583.5977,1903.1569 C588.7692,1896.9323 593.3455,1896.4531 597.2766,1904.3578 C603.3578,1896.6568 608.8605,1897.0319 613.4157,1905.8488 C621.6965,1906.701 625.4475,1913.6706 621.5417,1921.0412 C626.9234,1930.8002 623.9136,1937.8688 612.3694,1938.9671 C607.4186,1946.229 602.4678,1945.6098 598.4339,1938.102 C593.759,1946.1919 588.0612,1945.9048 582.6781,1938.8383 C578.3849,1945.9498 572.7693,1946.2299 567.5953,1939.8209 C564.3139,1948.2389 558.054,1947.4033 552.7276,1942.0247 C548.1292,1951.2005 541.003,1952.5309 534.9757,1943.4111 C530.1758,1950.3058 526.0536,1948.7589 521.4954,1943.1504 C517.4036,1950.6863 511.1264,1950.2637 506.7229,1943.4718 C502.9117,1949.9622 495.8068,1949.7493 491.7967,1943.7087 C485.5751,1950.3466 477.8534,1951.9901 473.7138,1941.5095 C470.2942,1948.5697 463.1668,1949.2566 459.0127,1942.2787 C454.061,1949.5834 446.3599,1949.7928 442.9663,1940.7493 C438.4663,1947.0962 432.4768,1947.8678 428.1951,1940.514 C422.7949,1946.1264 416.0498,1945.9078 413.4592,1937.5504 C409.0026,1945.2641 404.318,1944.2269 399.5759,1937.8313 C386.8876,1938.5353 380.3517,1933.2006 385.5136,1919.9033 C382.3081,1909.4832 388.0423,1904.8539 397.8522,1905.9106" fill="#FEF3C7" style="stroke:#181818;stroke-width:0.5;"/><text fill="#000000" font-family="Monospace" font-size="14" lengthAdjust="spacing" textLength="200.7592" x="403.88" y="1925.2039">PULL_REQUEST_TEMPLATE.md</text></g><!--entity tool_readme_md--><g class="entity" data-qualified-name="tool_readme_md" data-source-line="24" id="ent0019"><path d="M458.4102,1988.9454 C461.9687,1983.0919 466.5179,1982.7905 470.4589,1988.5485 C473.0716,1982.366 477.8608,1982.426 481.5439,1987.4937 C484.8503,1982.2196 490.4442,1982.7182 493.1203,1988.1737 C495.5385,1980.8166 501.8177,1980.592 506.0286,1986.4185 C509.9889,1980.7035 515.4084,1981.7942 517.6468,1988.0848 C522.0129,1981.8551 525.6752,1983.5275 529.5522,1988.6001 C532.0098,1982.2828 536.7006,1983.0652 540.5143,1987.1744 C544.3936,1981.9168 550.0357,1983.5889 552.1945,1989.0493 C562.2125,1991.0242 565.9221,1995.4581 560.241,2005.2367 C567.1643,2014.456 563.2791,2019.41 553.7204,2022.3488 C549.6347,2028.0801 543.9829,2027.866 540.6116,2021.5701 C537.5553,2027.4094 532.8819,2028.7366 528.4905,2022.9638 C525.4653,2028.1299 521.616,2028.3626 517.8977,2023.7117 C513.7075,2029.2285 509.6549,2029.7209 505.1307,2024.0944 C501.3044,2028.6626 497.9334,2028.9745 494.09,2024.1144 C490.162,2030.8848 485.418,2030.1925 481.5225,2024.0827 C476.3836,2030.0166 472.4248,2028.9749 468.5011,2022.7783 C464.4623,2027.5873 460.4353,2026.9381 457.5777,2021.517 C447.3929,2018.0986 447.0335,2011.2209 453.7362,2004.0817 C448.6175,1997.2379 449.9913,1991.6088 458.4102,1988.9454" fill="#FEF3C7" style="stroke:#181818;stroke-width:0.5;"/><text fill="#000000" font-family="Monospace" font-size="14" lengthAdjust="spacing" textLength="81.5917" x="463.46" y="2009.2039">README.md</text></g><!--entity tool_security_md--><g class="entity" data-qualified-name="tool_security_md" data-source-line="25" id="ent0020"><path d="M454.4783,2071.4337 C458.6463,2066.7878 463.0952,2066.1752 465.9212,2072.7966 C469.155,2065.6118 475.0161,2065.2551 479.3284,2071.7387 C482.3813,2065.9858 488.497,2065.7073 492.3553,2070.7685 C496.8517,2064.5951 501.5698,2064.8643 506.2556,2070.5464 C510.4295,2064.3837 514.2346,2064.8098 518.0573,2070.885 C521.4783,2064.8171 526.9461,2066.12 530.1373,2071.1355 C535.1435,2065.4386 541.18,2064.8902 544.8022,2072.6444 C548.6601,2065.3299 552.5851,2064.9824 557.7095,2071.4591 C568.5617,2072.3128 571.4686,2078.5597 566.3778,2087.8466 C572.6091,2096.6341 567.6851,2104.9963 557.6032,2105.8197 C553.5467,2110.8503 548.6006,2112.1114 545.0534,2105.2808 C541.2005,2112.0947 536.8562,2112.8873 531.5234,2106.8374 C527.596,2113.266 523.5813,2113.5158 519.0177,2107.4755 C514.7367,2114.1621 507.8909,2112.1581 504.9257,2106.0287 C501.7117,2112.1305 495.7672,2113.2395 492.2092,2106.3659 C488.4714,2111.4686 483.1092,2111.2715 479.9399,2105.7119 C476.3877,2112.3074 470.1165,2112.2681 466.7059,2105.5708 C462.4319,2111.5945 458.2622,2111.2587 453.6854,2105.9178 C443.995,2104.7409 439.8965,2096.5806 447.1748,2088.9086 C440.6356,2080.1863 443.41,2072.7971 454.4783,2071.4337" fill="#FEF3C7" style="stroke:#181818;stroke-width:0.5;"/><text fill="#000000" font-family="Monospace" font-size="14" lengthAdjust="spacing" textLength="89.1656" x="459.68" y="2093.2039">SECURITY.md</text></g><!--entity tool_actions_checkout--><g class="entity" data-qualified-name="tool_actions_checkout" data-source-line="26" id="ent0021"><path d="M442.7321,2995.6036 C446.5839,2989.4446 451.3265,2989.5851 455.056,2995.7262 C458.3617,2988.9632 463.3634,2990.2122 467.402,2994.9387 C472.0223,2987.7913 476.2829,2987.9161 480.9239,2994.919 C485.1987,2988.6356 489.0313,2989.6236 493.1273,2995.1045 C496.4588,2990.4186 501.6724,2990.5722 504.4526,2995.7382 C507.1508,2990.0805 513.4173,2989.5886 516.9945,2994.7161 C521.0741,2988.6788 526.3719,2988.7384 530.745,2994.3702 C535.9196,2988.9347 540.6812,2989.4348 543.5316,2996.7085 C546.5026,2990.5845 551.9829,2990.6686 555.0215,2996.6443 C558.9903,2990.8108 563.3744,2991.5678 567.3844,2996.5974 C577.0657,2999.007 578.3759,3005.1667 573.3782,3012.955 C578.8231,3021.4122 577.358,3026.5155 567.4147,3029.3885 C565.1671,3035.0599 559.8073,3035.5312 556.6314,3030.3073 C553.0444,3036.8175 546.8823,3037.4068 542.2911,3031.4636 C539.5576,3037.3661 535.5871,3038.9815 530.3571,3034.2708 C527.0762,3040.7747 522.5801,3040.5988 518.5001,3035.0573 C515.9717,3042.4965 509.4543,3042.9634 505.446,3036.4411 C500.5427,3042.8389 495.0836,3040.7632 492.5965,3034.0695 C488.6606,3040.8475 482.7389,3040.6921 479.1681,3033.7131 C474.6334,3039.2315 469.9451,3037.7529 467.2715,3031.7855 C463.3943,3036.903 458.0353,3036.5251 455.4914,3030.3898 C451.0305,3035.8529 444.8086,3036.5887 441.5471,3029.0986 C434.4491,3025.0471 433.0477,3017.0642 441.6287,3013.0927 C433.3864,3007.0645 434.3335,3000.5819 442.7321,2995.6036" fill="#FEF3C7" style="stroke:#181818;stroke-width:0.5;"/><text fill="#000000" font-family="Monospace" font-size="14" lengthAdjust="spacing" textLength="111.9156" x="448.3" y="3017.2039">actions/checkout</text></g><!--entity tool_actions_setup_python--><g class="entity" data-qualified-name="tool_actions_setup_python" data-source-line="27" id="ent0022"><path d="M428.3691,3080.7886 C430.5816,3074.7338 434.7952,3074.672 438.6139,3079.2395 C443.4776,3073.9098 447.8169,3074.5586 451.2097,3080.8357 C453.1057,3076.2463 457.9036,3074.3921 461.3596,3079.1398 C464.7191,3072.8472 468.3266,3072.9538 472.3951,3078.4776 C475.9753,3072.9911 479.713,3073.8893 483.1627,3078.6152 C487.0014,3074.2736 490.6398,3074.602 493.416,3079.7618 C496.5914,3073.9573 501.6479,3072.3045 506.3898,3077.9936 C509.4356,3073.0228 512.374,3073.0813 515.495,3077.9238 C519.8281,3072.1812 524.1561,3072.8219 527.8853,3078.5748 C531.928,3073.6374 535.7971,3074.3012 538.8586,3079.6243 C541.6271,3074.2513 546.3905,3074.9276 549.4999,3079.2501 C552.5503,3073.606 557.3518,3074.3211 560.0825,3079.5609 C564.3074,3073.9187 568.1072,3074.6022 572.1437,3079.771 C575.9354,3074.5006 580.3872,3074.814 583.5876,3080.3945 C592.7326,3083.0958 594.5641,3091.119 588.044,3097.8252 C595.0789,3105.9209 592.6316,3112.4588 582.0414,3114.0228 C578.5594,3119.6135 574.781,3119.5411 571.5967,3113.7495 C569.5518,3119.6253 564.6128,3119.2488 561.1459,3115.2552 C558.399,3121.1179 553.7712,3121.2693 549.8738,3116.4719 C546.7527,3122.5877 541.0031,3122.3233 537.9338,3116.4204 C535.5105,3121.9861 532.2816,3121.365 528.3833,3117.9974 C525.2292,3123.1305 520.6685,3123.7664 517.1569,3118.3789 C514.7821,3123.7606 509.1219,3124.2346 505.7729,3119.4721 C502.1916,3125.4957 497.6483,3125.169 493.961,3119.5798 C490.3863,3124.1587 485.1935,3124.8475 482.4966,3118.6464 C478.8468,3123.1299 474.5418,3121.6187 472.7953,3116.6856 C468.3432,3120.7163 464.6124,3120.3805 461.4581,3115.1046 C457.3218,3121.2135 453.4078,3119.9096 449.5284,3114.8306 C447.301,3119.2565 442.6723,3119.123 440.0188,3115.3232 C436.2447,3120.9986 430.6649,3120.3849 428.1662,3114.0631 C418.4293,3112.7773 414.8589,3105.6095 419.4311,3096.9989 C414.4685,3088.0828 416.9967,3080.6979 428.3691,3080.7886" fill="#FEF3C7" style="stroke:#181818;stroke-width:0.5;"/><text fill="#000000" font-family="Monospace" font-size="14" lengthAdjust="spacing" textLength="140.2795" x="434.12" y="3101.2039">actions/setup-python</text></g><!--entity tool_bug_report_md--><g class="entity" data-qualified-name="tool_bug_report_md" data-source-line="28" id="ent0023"><path d="M449.0462,2155.9478 C453.0364,2151.3542 456.2561,2152.0139 459.3156,2156.9507 C462.2017,2150.3527 466.4629,2150.9419 471.0711,2155.0621 C474.5506,2148.8695 479.2373,2150.3621 482.4667,2155.3178 C486.026,2149.4921 489.823,2148.9609 494.5145,2154.0703 C498.249,2148.677 501.5099,2148.256 505.2801,2154.036 C508.8162,2149.8951 513.5218,2149.8507 516.1577,2155.0809 C519.8959,2149.3742 525.1904,2148.2439 528.908,2155.1019 C532.2025,2150.2235 535.8278,2150.395 538.8618,2155.3653 C542.5161,2150.3719 547.9263,2148.9648 551.3127,2155.6509 C554.3481,2150.8307 559.826,2149.7605 562.9606,2155.5418 C572.1854,2159.4293 576.3311,2164.7783 568.3415,2173.7523 C573.4594,2181.1847 571.1047,2187.8721 561.589,2188.6891 C558.5207,2194.5047 554.9671,2195.4463 550.5008,2190.0746 C547.8656,2195.1887 542.8191,2196.3554 539.4496,2190.838 C535.7176,2196.0501 530.7926,2197.1307 527.3293,2190.5616 C524.6998,2195.5647 520.4547,2197.7003 516.2729,2192.1948 C513.8528,2197.0772 509.1739,2197.0522 505.9641,2193.1182 C500.8641,2199.4886 497.024,2198.7252 493.2161,2191.8725 C489.2932,2196.3171 485.6701,2196.0384 483.0239,2190.561 C480.0846,2196.1178 473.9553,2196.3349 470.4185,2191.2701 C465.7286,2196.6508 461.4018,2195.3613 459.265,2188.8712 C456.4795,2194.5456 452.0693,2193.5463 448.9136,2189.2557 C440.0564,2187.1428 436.5742,2179.7576 443.9,2172.7339 C437.2411,2165.1249 439.9493,2158.7265 449.0462,2155.9478" fill="#FEF3C7" style="stroke:#181818;stroke-width:0.5;"/><text fill="#000000" font-family="Monospace" font-size="14" lengthAdjust="spacing" textLength="99.1336" x="454.69" y="2177.2039">bug_report.md</text></g><!--entity tool_cat--><g class="entity" data-qualified-name="tool_cat" data-source-line="29" id="ent0024"><path d="M488.3682,392.252 C492.2519,382.142 499.1192,382.5469 505.8821,389.2533 C513.3659,382.561 517.7246,385.4205 521.3338,393.3483 C529.9492,396.5011 530.4373,401.9933 525.1319,408.6103 C531.0794,414.7674 530.7012,422.6645 521.2511,425.2252 C518.9283,435.0409 511.6467,436.0402 504.2882,430.9596 C496.4732,437.0514 491.2219,434.3264 488.8127,425.3922 C478.0525,424.1426 476.6403,418.6966 481.2637,409.9343 C475.554,401.8636 477.1007,393.5015 488.3682,392.252" fill="#FEF3C7" style="stroke:#181818;stroke-width:0.5;"/><text fill="#000000" font-family="Monospace" font-size="14" lengthAdjust="spacing" textLength="19.6279" x="494.45" y="413.2039">cat</text></g><!--entity tool_contributor_architecture_blueprint_md--><g class="entity" data-qualified-name="tool_contributor_architecture_blueprint_md" data-source-line="30" id="ent0025"><path d="M374.4104,2240.4272 C380.1114,2232.6026 385.6289,2232.4304 391.5432,2240.1928 C396.2816,2229.1236 406.9566,2229.7983 412.9241,2238.8893 C420.5663,2229.6542 426.4724,2230.8865 431.6589,2241.2382 C436.444,2232.3311 443.3999,2232.6085 448.8682,2240.54 C454.1296,2229.5219 460.8274,2229.0812 468.0902,2238.6734 C473.798,2228.7125 483.1712,2231.3595 487.697,2239.9243 C492.3195,2229.6976 500.3007,2229.7507 505.8708,2239.042 C513.6867,2230.6578 520.0155,2229.4834 525.9265,2240.965 C530.5439,2233.5365 536.238,2231.3544 542.6306,2238.9975 C548.2787,2228.8746 556.7447,2229.8198 562.4886,2238.8984 C568.9428,2230.794 578.2107,2231.2841 582.8948,2240.933 C587.8402,2233.2198 596.203,2232.5586 601.3475,2240.7012 C606.1754,2232.5045 614.1201,2232.0582 619.7178,2239.8147 C625.2897,2231.7 633.0293,2231.4834 637.6723,2240.773 C641.825,2242.594 641.8355,2246.0065 638.5176,2248.631 C642.3357,2250.3897 642.5807,2253.1091 640.0151,2256.1407 C643.9964,2259.4944 643.4156,2262.9572 638.4779,2264.7113 C641.4506,2267.8363 640.7805,2271.3565 636.8831,2273.1892 C632.5246,2282.8085 625.6462,2284.1338 618.7908,2275.6901 C612.4274,2284.6722 604.0859,2285.3335 598.4296,2274.9467 C593.2641,2283.6667 585.5242,2281.487 581.0117,2274.2347 C575.2777,2284.2847 566.9505,2284.9939 561.2072,2274.2436 C556.2068,2282.0499 548.6136,2284.8413 542.8658,2275.0212 C539.2283,2283.9702 530.8623,2283.0222 526.0166,2276.322 C520.3109,2286.3896 512.0965,2284.6546 506.4366,2276.2735 C500.8562,2287.2451 491.7717,2286.4705 485.9826,2276.4772 C481.7455,2283.0175 473.7002,2282.7319 469.8774,2275.9755 C464.4046,2285.8436 455.0253,2286.4222 449.1806,2276.3617 C442.0601,2284.0691 435.1108,2285.8801 429.0462,2275.2052 C425.3015,2283.7641 418.017,2283.4248 413.5062,2275.9475 C406.7302,2283.7645 398.0312,2281.8645 394.0164,2272.7661 C388.7215,2283.3241 381.9866,2283.9038 374.0583,2275.5444 C362.349,2276.4009 359.6495,2268.2972 363.6777,2259.1742 C357.5497,2248.5065 362.8288,2240.9561 374.4104,2240.4272" fill="#FEF3C7" style="stroke:#181818;stroke-width:0.5;"/><text fill="#000000" font-family="Monospace" font-size="14" lengthAdjust="spacing" textLength="249.479" x="379.52" y="2261.2039">contributor-architecture-blueprint.md</text></g><!--entity tool_failure_count--><g class="entity" data-qualified-name="tool_failure_count" data-source-line="31" id="ent0026"><path d="M454.5763,981.0151 C457.2541,975.6241 463.0179,974.2461 466.8299,979.738 C470.6182,972.0448 476.291,972.1347 480.8024,979.0461 C484.1041,973.0574 489.0227,972.5625 493.1493,978.1676 C497.3366,971.6833 503.6058,973.0105 506.2933,979.6677 C509.8448,974.6702 514.4869,974.7391 517.9372,979.785 C521.2487,973.2515 524.8725,973.0745 529.4912,978.5247 C534.1114,972.5213 540.0667,973.0561 543.1182,980.1561 C546.8343,974.7463 553.1559,973.8618 556.4083,980.6608 C565.5398,982.8111 567.4108,990.5187 561.8803,997.4482 C568.7704,1005.6592 564.9115,1012.15 555.6634,1014.4649 C551.521,1019.1941 546.7587,1019.9083 543.3951,1013.5993 C538.7442,1020.6259 533.533,1018.8476 529.4519,1012.983 C526.8331,1018.9166 521.0398,1018.5553 517.5491,1013.9694 C514.4874,1019.8303 509.7374,1020.9102 505.258,1015.5178 C500.8755,1021.3758 495.7855,1021.046 492.4506,1014.4412 C488.708,1020.3025 484.1371,1020.8037 480.4194,1014.4167 C476.7249,1019.0115 471.133,1019.6345 468.805,1013.0029 C464.6398,1019.8828 459.6658,1019.6767 455.6234,1012.8845 C447.0745,1008.8492 445.174,1003.032 452.3346,995.9464 C446.8775,990.9921 446.5735,983.9485 454.5763,981.0151" fill="#FEF3C7" style="stroke:#181818;stroke-width:0.5;"/><text fill="#000000" font-family="Monospace" font-size="14" lengthAdjust="spacing" textLength="85.9877" x="461.27" y="1001.2039">failure_count</text></g><!--entity tool_feature_request_md--><g class="entity" data-qualified-name="tool_feature_request_md" data-source-line="32" id="ent0027"><path d="M433.8412,2324.2745 C436.8472,2317.9333 440.5619,2318.9842 444.675,2323.1309 C449.0343,2317.4542 454.2072,2317.622 458.338,2323.4034 C461.3495,2318.5738 465.9654,2318.3214 469.5347,2322.7271 C473.1318,2316.6358 478.6433,2317.1172 481.8381,2323.1359 C485.6242,2316.9857 488.9904,2316.8808 493.0574,2322.8765 C497.1415,2317.1878 502.2526,2316.4166 506.1285,2323.0965 C509.8864,2317.8659 514.5857,2317.2899 518.2324,2323.2171 C521.9881,2318.5476 526.026,2317.4715 529.7097,2323.2958 C532.914,2319.0417 537.9002,2319.4509 540.3146,2324.2239 C544.3238,2318.1717 548.448,2318.1417 552.4858,2324.1953 C556.0952,2317.5982 561.4361,2318.4151 564.7598,2324.4725 C567.9614,2318.1956 573.1777,2318.0609 577.284,2323.5059 C586.5005,2327.6004 588.7663,2332.875 582.8559,2341.622 C588.8437,2348.6402 585.2631,2355.3126 576.9303,2356.7044 C574.0034,2362.8316 569.127,2363.2431 564.5954,2358.5304 C561.5366,2362.7914 556.5383,2362.9285 553.7356,2358.2203 C551.2512,2365.4641 545.0849,2366.122 540.9503,2359.7724 C537.2131,2366.1178 532.655,2366.0379 529.0243,2359.6725 C527.1768,2365.5244 521.7764,2366.7272 518.0268,2361.5731 C515.325,2368.2576 509.4261,2367.6124 505.9058,2362.4076 C501.7024,2367.7918 494.9832,2367.9578 492.4931,2360.6035 C489.1795,2366.0096 484.4132,2366.0825 481.7278,2360.0142 C477.9424,2364.7075 474.2404,2365.881 470.3187,2360.1636 C465.8205,2366.1232 460.3994,2366.5994 456.2648,2359.7642 C452.4376,2364.8836 447.819,2364.0006 445.0322,2358.6483 C440.4669,2363.719 436.5902,2362.7509 433.2563,2357.2735 C425.0951,2353.5494 422.7747,2346.2213 431.4169,2340.639 C425.6217,2334.3974 424.4887,2328.2721 433.8412,2324.2745" fill="#FEF3C7" style="stroke:#181818;stroke-width:0.5;"/><text fill="#000000" font-family="Monospace" font-size="14" lengthAdjust="spacing" textLength="130.2135" x="439.15" y="2345.2039">feature_request.md</text></g><!--entity tool_invalid_count--><g class="entity" data-qualified-name="tool_invalid_count" data-source-line="33" id="ent0028"><path d="M454.5293,1064.0697 C458.8852,1056.9113 464.3749,1057.665 468.2359,1064.5526 C471.5559,1059.6221 476.3542,1059.3433 479.8728,1064.3193 C483.1814,1058.251 487.7368,1055.9764 492.9454,1062.3178 C496.6579,1054.9481 501.9691,1055.2603 506.2841,1061.7373 C510.7691,1057.2778 516.2772,1057.0202 518.5232,1064.11 C521.7566,1058.5348 527.2333,1058.3996 530.7644,1063.7774 C533.9703,1057.5087 539.231,1057.8108 543.0065,1063.1782 C547.6533,1056.0352 552.1946,1056.2257 556.7566,1063.2604 C564.8785,1067.593 566.5954,1072.9464 559.7277,1079.9478 C568.3675,1087.8736 566.9562,1094.8463 555.6214,1098.3036 C551.7203,1103.7354 545.8737,1104.3826 542.177,1098.0697 C539.1329,1103.5767 535.0816,1103.9207 531.0814,1099.0966 C527.6339,1105.6037 523.1184,1106.0979 517.9222,1101.0959 C514.1108,1106.5724 509.3093,1105.4149 506.2751,1100.2455 C502.2118,1106.723 495.763,1106.2047 492.3848,1099.5224 C487.9705,1105.7123 483.4243,1106.0935 479.1884,1099.3405 C474.7982,1103.2466 471.2942,1102.8134 468.2634,1097.6949 C464.4366,1103.8481 457.8412,1105.197 454.0164,1097.6929 C444.3917,1095.6801 442.2291,1088.761 449.3721,1081.8369 C441.0523,1074.5855 445.6951,1066.342 454.5293,1064.0697" fill="#FEF3C7" style="stroke:#181818;stroke-width:0.5;"/><text fill="#000000" font-family="Monospace" font-size="14" lengthAdjust="spacing" textLength="86.8277" x="460.85" y="1085.2039">invalid_count</text></g><!--entity tool_line_number--><g class="entity" data-qualified-name="tool_line_number" data-source-line="34" id="ent0029"><path d="M456.0532,476.0001 C460.3957,469.6777 464.4467,468.626 469.5846,475.1631 C472.4369,470.4665 477.2221,470.2501 480.5638,474.5669 C483.7592,469.2317 489.2851,467.9026 492.8956,474.1239 C497.1002,469.0275 502.3371,467.8391 506.0284,474.6882 C510.0576,468.1876 513.781,468.9025 518.2715,474.2098 C521.8046,469.8325 526.5416,470.0567 528.6938,475.6528 C533.1764,470.1074 538.9173,468.7745 542.7009,476.3965 C545.6023,471.7152 549.1115,471.5558 552.6708,475.6489 C561.3801,479.8028 562.7545,486.9564 556.0163,493.9363 C562.1241,498.9307 563.1859,507.2992 553.8063,510.1875 C550.6036,515.6712 544.7634,515.355 541.6917,510.0405 C539.7794,517.2651 535.03,516.9483 530.1885,513.0774 C526.5726,518.0902 521.5224,518.5253 518.3095,512.6382 C515.4571,519.1908 511.444,520.8809 506.1569,515.0221 C501.6,519.4407 497.0475,518.8434 494.0034,513.1956 C489.3751,520.3625 484.6826,519.4317 480.241,513.0065 C476.2675,517.3025 472.6071,516.7369 470.0793,511.4702 C466.1994,517.5743 460.7866,516.3352 458.0607,510.3253 C447.7618,508.704 443.3629,500.4104 450.6638,491.7722 C445.6249,484.8071 445.9759,477.7999 456.0532,476.0001" fill="#FEF3C7" style="stroke:#181818;stroke-width:0.5;"/><text fill="#000000" font-family="Monospace" font-size="14" lengthAdjust="spacing" textLength="82.6697" x="462.93" y="497.2039">line_number</text></g><!--entity tool_ln--><g class="entity" data-qualified-name="tool_ln" data-source-line="35" id="ent0030"><path d="M492.5732,2492.8183 C494.3869,2485.6382 500.0391,2484.3976 504.9055,2489.8346 C511.0942,2483.3069 515.9075,2485.0413 518.6682,2493.0746 C526.5389,2497.6062 525.798,2503.3229 519.2263,2508.3811 C526.15,2513.1308 525.859,2520.3434 518.5913,2524.5352 C517.8636,2534.7335 513.1813,2536.9662 504.4647,2531.9556 C498.6419,2535.8234 492.3239,2534.002 492.2398,2526.0302 C480.4652,2525.28 476.5057,2517.4309 484.0202,2507.9241 C480.1509,2499.7526 483.2608,2493.5263 492.5732,2492.8183" fill="#FEF3C7" style="stroke:#181818;stroke-width:0.5;"/><text fill="#000000" font-family="Monospace" font-size="14" lengthAdjust="spacing" textLength="12.2639" x="498.13" y="2513.2039">ln</text></g><!--entity tool_log--><g class="entity" data-qualified-name="tool_log" data-source-line="36" id="ent0031"><path d="M488.2012,2575.3066 C492.5257,2567.7082 499.9604,2566.2494 505.3951,2574.0686 C512.7804,2565.9907 518.8645,2567.9349 523.1305,2577.2494 C532.5019,2578.5015 536.5619,2583.3941 531.727,2592.6012 C537.8178,2602.3279 532.1444,2608.752 522.2561,2609.5496 C519.3691,2619.4916 513.7022,2621.857 505.3433,2615.0874 C497.0466,2622.1651 489.2634,2618.2653 487.2946,2608.3617 C479.482,2604.083 477.05,2599.4608 484.5587,2592.5339 C477.4908,2585.3159 478.3757,2578.9528 488.2012,2575.3066" fill="#FEF3C7" style="stroke:#181818;stroke-width:0.5;"/><text fill="#000000" font-family="Monospace" font-size="14" lengthAdjust="spacing" textLength="20.6919" x="493.91" y="2597.2039">log</text></g><!--entity tool_mapfile--><g class="entity" data-qualified-name="tool_mapfile" data-source-line="37" id="ent0032"><path d="M473.5343,2660.3965 C478.1922,2651.4847 485.7885,2651.8478 490.3699,2660.4699 C494.3145,2653.23 499.6431,2653.8983 504.2789,2659.7349 C510.0768,2651.8136 516.5012,2652.8259 521.9171,2660.1761 C526.4748,2652.1445 532.9839,2652.7495 536.9984,2660.689 C547.8873,2661.2079 549.7931,2667.1788 545.7496,2676.1498 C551.3303,2685.8594 548.71,2692.5287 536.8756,2693.1451 C534.5513,2701.6298 526.7427,2701.8856 521.4481,2696.4329 C518.2765,2706.68 512.3259,2707.8206 504.6894,2700.7549 C498.3613,2706.878 493.6387,2706.1588 489.4705,2698.3888 C481.7991,2703.5572 476.3629,2703.049 473.1242,2693.4742 C463.4267,2690.3785 461.0098,2684.6391 468.6729,2676.8851 C463.0815,2670.0514 463.3964,2662.5927 473.5343,2660.3965" fill="#FEF3C7" style="stroke:#181818;stroke-width:0.5;"/><text fill="#000000" font-family="Monospace" font-size="14" lengthAdjust="spacing" textLength="49.4898" x="479.52" y="2681.2039">mapfile</text></g><!--entity tool_mkdir--><g class="entity" data-qualified-name="tool_mkdir" data-source-line="38" id="ent0033"><path d="M479.2913,2743.7953 C483.1159,2737.9592 488.4433,2737.9581 491.7687,2744.3065 C495.2958,2737.4431 500.8626,2737.7206 505.5947,2742.9261 C509.5326,2736.8931 513.7804,2737.4172 518.0756,2742.5259 C522.4227,2737.1838 527.6754,2736.7413 530.7807,2743.7984 C543.3844,2744.018 545.9208,2751.2073 541.5245,2761.6553 C546.1129,2770.4085 540.6185,2776.839 531.7093,2776.9043 C528.7707,2783.1677 524.8979,2785.4213 519.0534,2780.071 C516.2057,2786.7574 510.0146,2788.4015 504.6939,2783.0114 C499.2632,2787.5293 495.3774,2785.3775 493.305,2779.3757 C487.6231,2786.5977 481.2104,2784.6197 478.1583,2776.7384 C468.8084,2774.6754 464.4333,2770.1798 470.2915,2760.6708 C464.8352,2750.2365 469.0996,2745.8844 479.2913,2743.7953" fill="#FEF3C7" style="stroke:#181818;stroke-width:0.5;"/><text fill="#000000" font-family="Monospace" font-size="14" lengthAdjust="spacing" textLength="38.5699" x="484.98" y="2765.2039">mkdir</text></g><!--entity tool_no_ci_count--><g class="entity" data-qualified-name="tool_no_ci_count" data-source-line="39" id="ent0034"><path d="M458.9982,560.3268 C461.951,554.4383 468.0565,554.3329 471.7351,559.4898 C474.9403,554.6396 479.4444,553.384 483.2629,558.8012 C486.8109,553.5044 491.2881,553.7108 494.0369,559.5728 C497.4911,553.9259 502.5784,552.9377 506.0663,559.5398 C509.4504,554.415 513.3716,554.171 517.4042,558.7849 C521.4415,554.5702 525.7308,553.8584 528.6611,559.9894 C532.3972,554.9194 537.6849,555.8086 540.6629,560.8861 C542.8474,555.5659 547.3272,554.9706 550.4034,560.0509 C558.6174,563.1618 561.4762,569.3063 555.2535,576.6384 C560.9991,582.7216 559.3405,590.0948 551.2905,592.7939 C548.1193,598.7939 542.7116,598.9684 538.5857,593.8886 C536.4778,599.3847 531.806,599.3285 528.3741,595.3094 C524.7764,601.0562 520.9605,602.2855 516.3067,596.4057 C513.7326,602.2805 509.249,602.8658 505.4631,597.5834 C501.7507,601.8458 496.8328,602.4597 494.4539,596.1897 C489.5932,601.0949 485.7076,600.3501 482.247,594.5876 C478.1593,599.161 474.7183,599.7175 470.9677,594.2104 C466.8907,599.7217 462.4408,597.3965 460.0056,592.4838 C450.0001,592.7473 446.9676,585.5188 450.586,577.3195 C444.6486,568.107 448.9922,561.6465 458.9982,560.3268" fill="#FEF3C7" style="stroke:#181818;stroke-width:0.5;"/><text fill="#000000" font-family="Monospace" font-size="14" lengthAdjust="spacing" textLength="77.4337" x="465.54" y="581.2039">no_ci_count</text></g><!--entity tool_pip--><g class="entity" data-qualified-name="tool_pip" data-source-line="40" id="ent0035"><path d="M488.1312,3163.3066 C492.4755,3155.6787 499.9407,3154.2161 505.3951,3162.0686 C512.8031,3153.9547 518.9118,3155.9022 523.2005,3165.2494 C532.5719,3166.5015 536.6319,3171.3941 531.797,3180.6012 C537.8878,3190.3279 532.2144,3196.752 522.3261,3197.5496 C519.4161,3207.5252 513.7252,3209.8925 505.3433,3203.0874 C497.0273,3210.1997 489.2126,3206.2965 487.2246,3196.3617 C479.412,3192.083 476.98,3187.4608 484.4887,3180.5339 C477.4208,3173.3159 478.3057,3166.9528 488.1312,3163.3066" fill="#FEF3C7" style="stroke:#181818;stroke-width:0.5;"/><text fill="#000000" font-family="Monospace" font-size="14" lengthAdjust="spacing" textLength="20.8319" x="493.84" y="3185.2039">pip</text></g><!--entity tool_pre_commit--><g class="entity" data-qualified-name="tool_pre_commit" data-source-line="41" id="ent0036"><path d="M460.4172,3247.6907 C463.2031,3242.5944 467.779,3242.9561 470.5229,3247.7338 C474.6171,3241.4865 479.9835,3242.916 483.4536,3248.4206 C486.787,3242.9108 490.0573,3242.4829 493.8143,3248.0235 C496.7195,3241.0959 501.2897,3241.06 506.0378,3246.1488 C509.8656,3240.8867 514.2772,3242.9919 516.5708,3247.7599 C519.7178,3242.6092 523.7637,3242.3945 527.299,3247.3474 C531.1536,3241.4826 536.076,3242.608 539.1561,3248.1523 C542.2373,3242.4244 546.8981,3243.7286 549.8863,3248.2497 C558.1148,3252.061 558.7961,3259.0747 551.6336,3264.5371 C559.654,3269.5006 559.135,3275.1823 551.8024,3280.3101 C548.606,3285.7326 544.3013,3286.475 540.3597,3281.0998 C537.6879,3287.7881 532.6086,3288.0445 528.081,3283.0502 C524.0997,3288.4565 520.768,3287.7176 517.0346,3282.7852 C514.615,3288.4961 509.3288,3288.6378 506.3136,3283.3666 C502.8917,3288.1221 497.7744,3288.5412 494.6458,3283.0332 C490.6078,3286.8305 485.8795,3287.1152 483.7336,3280.959 C480.7216,3288.001 474.5641,3287.2354 470.5127,3282.0863 C466.9568,3286.583 461.3087,3286.2198 458.9447,3280.7087 C450.1379,3279.5597 447.1825,3271.3143 452.0587,3264.3911 C447.3421,3254.9882 448.7616,3248.8994 460.4172,3247.6907" fill="#FEF3C7" style="stroke:#181818;stroke-width:0.5;"/><text fill="#000000" font-family="Monospace" font-size="14" lengthAdjust="spacing" textLength="76.8317" x="465.84" y="3269.2039">pre-commit</text></g><!--entity tool_repo_architecture_drawio--><g class="entity" data-qualified-name="tool_repo_architecture_drawio" data-source-line="42" id="ent0037"><path d="M415.8162,2408.198 C419.2712,2400.8736 425.5936,2401.3771 429.7278,2407.495 C433.8142,2400.8187 439.5683,2401.736 442.6687,2408.448 C445.6274,2402.0697 451.9795,2401.0867 455.7521,2407.6235 C459.8247,2402.2383 463.5337,2402.8446 467.3508,2407.9071 C470.4364,2401.8134 475.8602,2401.137 480.5482,2405.9721 C485.7699,2400.2602 490.2496,2400.2086 493.8914,2407.5831 C497.0165,2400.3562 502.0243,2400.7102 506.6017,2406.1228 C510.6221,2399.7432 515.7803,2400.9529 518.8367,2407.0669 C522.695,2402.1713 527.6628,2401.2177 530.6643,2407.9391 C535.203,2402.0867 539.7453,2401.2105 544.6522,2407.5154 C548.2823,2402.5614 551.85,2402.2996 555.7351,2407.2295 C559.4373,2402.4897 565.3546,2402.7858 567.8461,2408.6165 C571.6345,2402.8307 576.727,2402.5819 580.8264,2408.2644 C584.1489,2402.0108 590.5587,2401.5124 594.2519,2407.8698 C602.7458,2412.2333 605.277,2419.2129 596.4471,2425.7083 C604.7363,2430.4126 603.9879,2437.5643 595.6025,2441.3694 C592.3106,2447.6309 585.6387,2448.0697 581.6435,2442.1772 C578.4644,2448.5205 574.5175,2448.5598 569.5368,2444.2185 C565.4889,2449.8279 560.4705,2450.2208 556.2369,2444.4353 C552.8007,2450.4619 548.9749,2450.0855 544.6227,2445.4313 C541.2999,2452.4393 536.0327,2454.3776 530.1492,2448.2537 C526.36,2455.4231 521.9207,2455.6997 517.1975,2449.1345 C512.9533,2455.7029 508.8024,2455.7732 504.4271,2449.2626 C500.6481,2454.2745 496.1525,2455.3459 492.7781,2448.853 C488.1856,2454.6876 482.6348,2453.7445 480.2931,2446.6752 C475.923,2453.2799 469.8391,2452.4184 466.2135,2445.8778 C461.2899,2450.6605 456.8549,2449.8699 453.5022,2444.0027 C449.6851,2449.5668 444.7504,2448.3053 442.2789,2442.656 C438.2993,2448.5303 433.3343,2449.0617 428.9674,2443.0914 C425.4723,2448.4255 419.023,2448.3288 415.9394,2442.6066 C405.3569,2437.715 405.7807,2430.4453 414.4935,2424.0502 C407.2618,2418.4053 406.9758,2412.5019 415.8162,2408.198" fill="#FEF3C7" style="stroke:#181818;stroke-width:0.5;"/><text fill="#000000" font-family="Monospace" font-size="14" lengthAdjust="spacing" textLength="164.0234" x="422.25" y="2429.2039">repo-architecture.drawio</text></g><!--entity tool_repo_architecture_puml--><g class="entity" data-qualified-name="tool_repo_architecture_puml" data-source-line="43" id="ent0038"><path d="M421.3338,1147.9204 C425.5925,1141.9069 430.5516,1141.9512 434.135,1148.6029 C437.2704,1142.2749 441.7062,1142.5334 445.8196,1147.6001 C449.5691,1141.6577 454.886,1142.8144 457.6368,1148.6059 C460.8836,1141.9902 465.9063,1142.7493 469.9765,1147.7296 C473.0227,1143.0014 476.6944,1142.6306 480.578,1146.7232 C484.2636,1141.054 489.8064,1140.4122 493.3017,1146.922 C496.3863,1140.7028 501.9672,1139.7001 506.1921,1145.7213 C510.1656,1140.3635 515.0324,1140.9013 517.2253,1147.3809 C520.8327,1142.117 524.5933,1141.0878 529.097,1146.3721 C532.7961,1140.3651 537.93,1141.5282 540.745,1147.25 C545.6777,1141.4164 549.6877,1141.2359 553.5352,1148.3243 C555.9112,1142.1906 561.0851,1143.1999 564.3848,1147.3496 C568.188,1141.1256 574.6188,1142.1411 577.7307,1148.1065 C580.3179,1143.5117 584.999,1142.7103 587.811,1147.8743 C596.4199,1152.5141 598.5552,1157.7253 590.6507,1165.089 C599.361,1170.3354 598.0071,1178.5871 588.895,1181.981 C585.4973,1187.6824 579.6111,1187.6641 577.0814,1181.1422 C573.4271,1187.4502 569.9052,1188.2031 565.2549,1182.0904 C562.0086,1188.0171 556.0015,1187.6707 552.6707,1182.1835 C550.334,1188.4602 544.2396,1188.9099 540.1805,1184.129 C537.3101,1188.3942 532.7463,1187.9748 530.1967,1183.7518 C525.8426,1189.4099 521.8663,1190.4408 517.6448,1183.6184 C514.3491,1188.8743 509.9961,1188.753 506.0998,1184.3352 C501.7526,1190.1299 497.7483,1189.5941 494.0038,1183.711 C491.219,1190.2721 485.2106,1190.2459 481.697,1184.4359 C477.3573,1190.0652 473.8282,1189.2576 470.4213,1183.5113 C466.553,1189.1922 460.802,1189.1917 457.2327,1183.1743 C453.7049,1187.8964 450.4039,1188.939 446.4373,1183.6473 C440.8527,1188.5142 436.6763,1187.994 433.2405,1181.2128 C429.5687,1186.5901 425.2548,1187.1439 421.1908,1181.6473 C411.4289,1179.9792 408.5224,1172.7569 414.6299,1164.8794 C408.5845,1155.7706 410.6316,1150.4088 421.3338,1147.9204" fill="#FEF3C7" style="stroke:#181818;stroke-width:0.5;"/><text fill="#000000" font-family="Monospace" font-size="14" lengthAdjust="spacing" textLength="152.6554" x="427.93" y="1169.2039">repo-architecture.puml</text></g><!--entity tool_run--><g class="entity" data-qualified-name="tool_run" data-source-line="44" id="ent0039"><path d="M485.9302,56.8706 C490.8018,47.7293 499.1048,46.1296 506.1651,54.3143 C512.0287,46.5504 520.3535,48.2883 523.7527,56.9525 C533.3423,57.6613 539.0316,62.4144 533.5444,72.5737 C538.7785,82.0202 535.2765,87.44 524.903,88.3228 C524.6646,101.0475 518.3331,106.0421 506.3397,99.8709 C495.433,104.9036 488.2706,103.4176 487.5702,89.6703 C477.9093,88.8356 474.1211,80.744 479.4739,72.7327 C474.4185,64.6057 476.8347,59.2377 485.9302,56.8706" fill="#FEF3C7" style="stroke:#181818;stroke-width:0.5;"/><text fill="#000000" font-family="Monospace" font-size="14" lengthAdjust="spacing" textLength="23.0859" x="492.72" y="77.2039">run</text></g><!--entity tool_select_headsha--><g class="entity" data-qualified-name="tool_select_headsha" data-source-line="45" id="ent0040"><path d="M446.3882,644.5664 C449.5163,639.2373 454.1918,638.0527 458.0403,643.8092 C461.2083,639.1488 466.0053,638.1477 469.2238,643.7543 C473.4338,638.4677 477.2222,638.9339 481.2927,643.9182 C484.453,637.6641 490.2552,638.1863 494.0902,643.1484 C496.9715,637.998 502.3106,637.7682 505.0069,643.3367 C508.6753,638.139 513.0775,637.9382 516.4038,643.6927 C520.1802,637.3764 524.1037,637.8646 527.9854,643.5914 C531.6453,637.3466 536.1477,637.1068 540.3147,643.0797 C543.9121,638.0319 548.2356,637.7711 551.6764,643.2487 C555.5458,637.5487 559.6015,637.924 562.7939,643.8936 C573.276,644.232 576.5501,651.0836 572.0457,660.0199 C577.2516,669.2609 576.4295,675.7586 564.8229,678.3889 C560.9235,683.0989 555.6221,682.7482 553.1384,676.8322 C549.966,683.0274 545.0283,683.7258 540.293,678.6065 C536.3686,684.0252 530.9652,683.2409 528.2703,677.3047 C524.82,682.6214 521.0995,682.5983 516.9825,678.069 C513.2843,683.7231 508.5215,683.8151 505.0607,677.8258 C502.3329,682.8896 496.8898,683.1332 493.781,678.2582 C489.2365,684.3328 485.2208,684.3583 481.0789,677.8517 C478.0076,682.1668 473.0036,682.8219 470.2119,677.5352 C466.672,683.2081 461.6813,683.0427 458.1517,677.5241 C455.0778,683.1716 449.4228,681.9343 446.6381,677.2033 C438.4473,673.2326 434.9013,667.8541 442.5896,660.1202 C436.909,653.6782 438.1805,647.6165 446.3882,644.5664" fill="#FEF3C7" style="stroke:#181818;stroke-width:0.5;"/><text fill="#000000" font-family="Monospace" font-size="14" lengthAdjust="spacing" textLength="103.0396" x="452.74" y="665.2039">select(.headSha</text></g><!--entity tool_sleep--><g class="entity" data-qualified-name="tool_sleep" data-source-line="46" id="ent0041"><path d="M480.5212,728.8532 C482.5717,722.3046 488.6707,721.7904 492.8293,726.5611 C496.7369,719.879 501.1018,719.7339 505.5664,726.0139 C510.0137,720.4644 513.9004,720.6804 517.4619,726.9086 C521.7381,721.097 527.5812,721.1354 530.4673,728.3017 C538.4602,732.1633 539.1811,738.6647 532.6581,744.4906 C539.1702,750.6082 538.289,758.4189 529.6397,761.9092 C527.8817,768.1926 522.573,770.7029 517.191,766.025 C516.166,772.3387 510.8002,773.4392 506.4179,769.5806 C499.8396,775.125 494.3792,773.248 492.7931,764.7403 C486.9629,770.7021 482.1175,769.3129 479.9537,761.3578 C469.3335,759.4828 467.8482,753.3657 473.8449,745.206 C467.9282,736.88 471.7206,731.1707 480.5212,728.8532" fill="#FEF3C7" style="stroke:#181818;stroke-width:0.5;"/><text fill="#000000" font-family="Monospace" font-size="14" lengthAdjust="spacing" textLength="34.7199" x="486.9" y="749.2039">sleep</text></g><!--entity tool_sort--><g class="entity" data-qualified-name="tool_sort" data-source-line="47" id="ent0042"><path d="M486.2872,2827.616 C491.0501,2817.5488 497.7273,2818.8733 504.4371,2825.4991 C512.3091,2815.834 521.4598,2819.1962 526.136,2829.0515 C534.3656,2832.5952 535.4839,2838.3803 528.9293,2844.5828 C535.2394,2851.2765 534.0998,2858.0219 525.878,2862.1984 C523.5284,2874.3186 514.288,2876.1349 505.2696,2869.5431 C495.3003,2876.4794 486.8844,2871.5221 484.8783,2860.5007 C475.9834,2856.0942 476.4423,2848.0306 485.1688,2843.9331 C478.7931,2838.7172 478.4405,2831.857 486.2872,2827.616" fill="#FEF3C7" style="stroke:#181818;stroke-width:0.5;"/><text fill="#000000" font-family="Monospace" font-size="14" lengthAdjust="spacing" textLength="26.0119" x="491.25" y="2849.2039">sort</text></g><!--entity tool_success_count--><g class="entity" data-qualified-name="tool_success_count" data-source-line="48" id="ent0043"><path d="M451.4203,812.0523 C454.6363,805.7819 460.8575,805.7991 464.4433,811.6553 C468.2887,805.4564 474.4015,805.6793 477.4759,812.4312 C481.5151,804.7142 486.2499,804.8934 491.3735,811.3693 C495.9877,803.9516 501.864,804.1068 506.2209,811.6251 C509.8458,805.9286 515.2566,806.8083 518.3712,812.185 C522.6729,804.7346 528.6502,804.9826 533.3678,811.7463 C536.5614,805.5833 540.8357,805.3392 544.8614,810.9328 C550.5826,803.9456 555.4557,805.7473 559.7766,812.4575 C570.8186,811.3002 575.5439,819.2381 569.4413,828.4449 C573.7479,837.7681 570.5053,843.7681 560.3091,845.1746 C555.6228,851.5138 549.5949,851.4176 545.0869,844.9624 C542.1798,850.848 535.9512,851.6112 531.7793,846.4918 C527.6833,853.4532 522.8542,852.5921 518.48,846.7815 C514.2909,852.4935 508.7476,853.5694 504.5963,846.7397 C500.1726,852.524 495.7918,852.2669 491.78,846.2907 C489.0443,853.1767 482.7523,853.2731 479.0819,847.207 C474.7147,853.3135 467.4515,853.4564 464.0376,846.1387 C459.783,852.7127 453.8425,851.3372 450.9874,844.751 C443.2023,841.0996 444.1835,834.3779 450.055,829.8708 C442.7103,823.7031 441.593,816.9042 451.4203,812.0523" fill="#FEF3C7" style="stroke:#181818;stroke-width:0.5;"/><text fill="#000000" font-family="Monospace" font-size="14" lengthAdjust="spacing" textLength="93.8696" x="457.33" y="833.2039">success_count</text></g><!--entity tool_summarize--><g class="entity" data-qualified-name="tool_summarize" data-source-line="49" id="ent0044"><path d="M461.7962,139.7082 C466.9905,132.088 472.2279,133.6617 476.6554,140.4963 C480.2719,133.3452 485.9794,133.5795 490.0602,140.0389 C494.8942,132.5754 499.6609,131.3054 505.8659,138.5673 C509.9267,131.1997 517.0265,131.4657 520.6506,139.0007 C525.2351,132.1413 532.1265,132.4184 535.3424,140.3593 C538.9789,134.5447 545.679,133.9823 548.8417,140.8631 C558.2094,140.9338 562.3194,148.7506 557.2293,156.5512 C563.1739,165.1643 559.5013,171.1668 549.9064,172.7589 C546.1244,180.6105 538.5345,180.5184 533.6162,174.0518 C530.3099,182.1689 525.0283,181.6599 519.7695,176.0165 C516.9774,183.3974 510.0939,182.8845 506.0346,177.3659 C501.2056,182.9427 496.2355,183.9218 491.8981,176.8179 C486.3402,182.4858 480.0188,181.7947 476.9219,174.0665 C472.732,181.7863 466.2419,181.8264 462.3676,173.7753 C451.8076,172.9199 449.8751,163.6176 455.3171,156.3045 C450.0033,149.1206 451.0692,140.6298 461.7962,139.7082" fill="#FEF3C7" style="stroke:#181818;stroke-width:0.5;"/><text fill="#000000" font-family="Monospace" font-size="14" lengthAdjust="spacing" textLength="73.2617" x="467.63" y="161.2039">summarize</text></g><!--entity tool_systemctl--><g class="entity" data-qualified-name="tool_systemctl" data-source-line="50" id="ent0045"><path d="M466.4243,307.5034 C469.8648,301.5846 476.3893,300.9028 479.49,307.8483 C483.2316,301.1376 488.2685,301.0609 492.8023,307.0155 C496.8341,300.7684 501.3724,301.261 505.8176,306.549 C509.3615,300.5149 513.0275,301.0977 516.9713,306.1466 C521.9321,299.4873 526.4037,300.4481 530.2166,307.2741 C533.804,301.9137 540.0425,301.006 543.0965,307.8375 C551.7928,310.5702 554.7891,318.7776 548.3098,325.8922 C553.6452,331.6969 551.862,338.4789 544.2804,340.7899 C541.711,349.3285 536.1783,349.9996 529.871,344.675 C527.2089,350.2751 523.0698,351.0227 518.4165,347.0601 C515.5541,353.6831 510.2362,355.6756 505.2894,349.1395 C499.848,354.7097 495.4152,353.3814 492.9195,346.2669 C488.5227,351.5605 482.8029,351.9354 479.8861,344.7244 C474.9675,348.7936 470.548,349.5231 467.9884,342.25 C457.2243,339.1317 457.0823,333.2642 462.9576,325.2282 C456.1774,317.97 456.4647,311.4875 466.4243,307.5034" fill="#FEF3C7" style="stroke:#181818;stroke-width:0.5;"/><text fill="#000000" font-family="Monospace" font-size="14" lengthAdjust="spacing" textLength="61.9778" x="473.27" y="329.2039">systemctl</text></g><!--entity tool_tachometer--><g class="entity" data-qualified-name="tool_tachometer" data-source-line="51" id="ent0046"><path d="M460.6072,223.6907 C463.3807,218.6174 467.936,218.9775 470.6674,223.7338 C474.7484,217.5092 480.0957,218.9347 483.5526,224.4206 C486.8705,218.9344 490.1263,218.5078 493.8678,224.0235 C496.7586,217.1195 501.3121,217.0811 506.0458,222.1488 C509.8608,216.9114 514.2524,219.0105 516.5333,223.7599 C519.6661,218.6305 523.6949,218.416 527.216,223.3474 C531.0574,217.506 535.9607,218.6284 539.0276,224.1523 C542.096,218.4488 546.7369,219.7477 549.7123,224.2497 C557.9408,228.061 558.6221,235.0747 551.4596,240.5371 C559.48,245.5006 558.961,251.1823 551.6284,256.3101 C548.4461,261.712 544.1587,262.4527 540.2312,257.0998 C537.5729,263.7654 532.5121,264.0238 527.998,259.0502 C524.0325,264.4338 520.7146,263.6977 516.9971,258.7852 C514.5891,264.4725 509.3253,264.6148 506.3216,259.3666 C502.9125,264.1032 497.815,264.5201 494.6993,259.0332 C490.6747,262.8121 485.9651,263.0921 483.8326,256.959 C480.833,263.9778 474.6963,263.2166 470.6572,258.0863 C467.1131,262.5639 461.487,262.1996 459.1347,256.7087 C450.3279,255.5597 447.3725,247.3143 452.2487,240.3911 C447.5321,230.9882 448.9516,224.8994 460.6072,223.6907" fill="#FEF3C7" style="stroke:#181818;stroke-width:0.5;"/><text fill="#000000" font-family="Monospace" font-size="14" lengthAdjust="spacing" textLength="76.4677" x="466.03" y="245.2039">tachometer</text></g><!--entity tool_tee--><g class="entity" data-qualified-name="tool_tee" data-source-line="52" id="ent0047"><path d="M488.1312,2911.3066 C492.4774,2903.6758 499.9457,2902.2128 505.4021,2910.0686 C512.8124,2901.9511 518.9235,2903.8989 523.2145,2913.2494 C532.5859,2914.5015 536.6459,2919.3941 531.811,2928.6012 C537.9018,2938.3279 532.2284,2944.752 522.3401,2945.5496 C519.4278,2955.5286 513.7345,2957.8961 505.3503,2951.0874 C497.0324,2958.2031 489.2146,2954.2997 487.2246,2944.3617 C479.412,2940.083 476.98,2935.4608 484.4887,2928.5339 C477.4208,2921.3159 478.3057,2914.9528 488.1312,2911.3066" fill="#FEF3C7" style="stroke:#181818;stroke-width:0.5;"/><text fill="#000000" font-family="Monospace" font-size="14" lengthAdjust="spacing" textLength="20.8459" x="493.84" y="2933.2039">tee</text></g><!--entity tool_timeout_count--><g class="entity" data-qualified-name="tool_timeout_count" data-source-line="53" id="ent0048"><path d="M450.5883,896.9802 C455.1614,889.3792 459.8913,888.7871 465.3146,896.1432 C468.9125,889.4594 472.6869,890.6819 477.1187,895.2699 C481.0102,887.3927 487.7475,887.3902 492.7556,894.0707 C496.687,887.0556 503.2053,888.5546 506.1569,895.0431 C510.418,888.2856 515.9543,888.7007 519.2632,895.9349 C523.1892,889.0229 528.3714,889.0292 533.5682,894.4624 C538.7525,888.4746 543.3019,888.508 547.338,895.6652 C552.281,889.0431 556.4976,890.0499 560.1984,896.855 C568.9919,899.433 571.0723,906.0208 563.6576,912.2425 C570.1462,918.3917 570.2404,926.9843 560.5888,930.4068 C558.4351,935.4107 553.4505,936.6893 550.2648,931.4465 C546.4599,937.0481 541.2498,938.0301 537.3973,931.4969 C535.1592,937.0794 530.1414,938.357 526.314,933.1258 C524.0503,937.523 520.0662,937.3466 517.2495,933.753 C515.2842,940.4185 509.9498,941.2628 505.49,936.2691 C501.0519,941.6673 495.9329,940.9268 493.3552,934.3793 C490.7292,938.4934 486.1,939.4171 483.4018,934.4584 C478.6895,939.8931 473.2449,937.3562 471.8779,931.1474 C468.2303,935.1339 464.2339,935.7192 461.3141,930.3277 C457.5728,934.4402 452.7183,935.1448 450.258,928.9532 C441.5335,926.0987 441.2315,919.3022 447.591,913.7939 C440.7302,907.5958 441.4975,900.3348 450.5883,896.9802" fill="#FEF3C7" style="stroke:#181818;stroke-width:0.5;"/><text fill="#000000" font-family="Monospace" font-size="14" lengthAdjust="spacing" textLength="95.5916" x="456.46" y="917.2039">timeout_count</text></g><!--entity tool_warn--><g class="entity" data-qualified-name="tool_warn" data-source-line="54" id="ent0049"><path d="M480.8582,1231.5985 C485.0207,1225.7415 489.8307,1225.5806 493.6612,1231.9462 C496.7576,1225.7789 502.2093,1224.8574 506.282,1230.9404 C509.1044,1226.3998 514.2094,1225.2072 517.1998,1230.7586 C521.2346,1225.3141 526.4396,1225.7731 529.4804,1231.8208 C540.3488,1233.9442 539.8995,1243.3509 533.8524,1249.6275 C540.3048,1256.3504 537.8668,1262.4418 529.3484,1264.6874 C527.5011,1270.2743 522.19,1271.822 517.8605,1267.5921 C514.8295,1273.9238 510.2226,1274.7408 505.6143,1269.2221 C501.5616,1274.7837 495.2105,1274.8212 492.4465,1267.8664 C487.6781,1271.8015 482.99,1270.2836 480.825,1264.6909 C470.5063,1264.2708 467.731,1255.5091 472.8057,1247.7866 C467.0228,1239.833 470.1248,1231.3363 480.8582,1231.5985" fill="#FEF3C7" style="stroke:#181818;stroke-width:0.5;"/><text fill="#000000" font-family="Monospace" font-size="14" lengthAdjust="spacing" textLength="33.2919" x="487.61" y="1253.2039">warn</text></g><g class="entity" data-qualified-name="toolingGraphSummary" data-source-line="112" id="ent0106"><path d="M52,46.0679 L52,91.4799 L259.5112,91.4799 L259.5112,56.0679 L249.5112,46.0679 L52,46.0679" fill="#FEFFDD" style="stroke:#181818;stroke-width:0.5;"/><path d="M249.5112,46.0679 L249.5112,56.0679 L259.5112,56.0679 L249.5112,46.0679" fill="#FEFFDD" style="stroke:#181818;stroke-width:1;"/><text fill="#000000" font-family="Monospace" font-size="13" lengthAdjust="spacing" textLength="186.5112" x="58" y="64.9649">Scanned&#160;9&#160;tooling&#160;entrypoints.</text><text fill="#000000" font-family="Monospace" font-size="13" lengthAdjust="spacing" textLength="179.2182" x="58" y="82.6709">Detected&#160;39&#160;third-party&#160;tools.</text></g><!--link source_github_workflows_ci_yml to tool_actions_checkout--><g class="link" data-entity-1="ent0002" data-entity-2="ent0021" data-link-type="dependency" data-source-line="55" id="lnk50"><path d="M185,3108.2279 C185,3070.9879 185,3011.7779 185,3011.7779 C185,3011.7779 332.92,3011.7779 427.01,3011.7779" fill="none" id="source_github_workflows_ci_yml-to-tool_actions_checkout" style="stroke:#181818;stroke-width:1;"/><polygon fill="#181818" points="433.01,3011.7779,424.01,3007.7779,428.01,3011.7779,424.01,3015.7779,433.01,3011.7779" style="stroke:#181818;stroke-width:1;"/></g><!--link source_github_workflows_ci_yml to tool_actions_setup_python--><g class="link" data-entity-1="ent0002" data-entity-2="ent0022" data-link-type="dependency" data-source-line="56" id="lnk51"><path d="M247.32,3114.5079 C300.36,3114.5079 360.71,3114.5079 412.69,3114.5079" fill="none" id="source_github_workflows_ci_yml-to-tool_actions_setup_python" style="stroke:#181818;stroke-width:1;"/><polygon fill="#181818" points="418.69,3114.5079,409.69,3110.5079,413.69,3114.5079,409.69,3118.5079,418.69,3114.5079" style="stroke:#181818;stroke-width:1;"/></g><!--link source_github_workflows_ci_yml to tool_pip--><g class="link" data-entity-1="ent0002" data-entity-2="ent0035" data-link-type="dependency" data-source-line="57" id="lnk52"><path d="M247.32,3159.1079 C324.77,3159.1079 424.57,3159.1079 472.63,3159.1079" fill="none" id="source_github_workflows_ci_yml-to-tool_pip" style="stroke:#181818;stroke-width:1;"/><polygon fill="#181818" points="478.63,3159.1079,469.63,3155.1079,473.63,3159.1079,469.63,3163.1079,478.63,3159.1079" style="stroke:#181818;stroke-width:1;"/></g><!--link source_github_workflows_ci_yml to tool_pre_commit--><g class="link" data-entity-1="ent0002" data-entity-2="ent0036" data-link-type="dependency" data-source-line="58" id="lnk53"><path d="M247.29,3162.9779 C338.47,3162.9779 465,3162.9779 465,3162.9779 C465,3162.9779 465,3203.0079 465,3232.8579" fill="none" id="source_github_workflows_ci_yml-to-tool_pre_commit" style="stroke:#181818;stroke-width:1;"/><polygon fill="#181818" points="465,3238.8579,469,3229.8579,465,3233.8579,461,3229.8579,465,3238.8579" style="stroke:#181818;stroke-width:1;"/></g><!--link source_scripts_archility_daily_sh to tool_ln--><g class="link" data-entity-1="ent0003" data-entity-2="ent0030" data-link-type="dependency" data-source-line="59" id="lnk54"><path d="M243.64,2756.5379 C255.67,2756.5379 264,2756.5379 264,2756.5379 C264,2756.5379 264,2520.0379 264,2520.0379 C264,2520.0379 418.14,2520.0379 476.94,2520.0379" fill="none" id="source_scripts_archility_daily_sh-to-tool_ln" style="stroke:#181818;stroke-width:1;"/><polygon fill="#181818" points="482.94,2520.0379,473.94,2516.0379,477.94,2520.0379,473.94,2524.0379,482.94,2520.0379" style="stroke:#181818;stroke-width:1;"/></g><!--link source_scripts_archility_daily_sh to tool_log--><g class="link" data-entity-1="ent0003" data-entity-2="ent0031" data-link-type="dependency" data-source-line="60" id="lnk55"><path d="M243.68,2763.4779 C256.24,2763.4779 265,2763.4779 265,2763.4779 C265,2763.4779 265,2599.9479 265,2599.9479 C265,2599.9479 410.93,2599.9479 472.66,2599.9479" fill="none" id="source_scripts_archility_daily_sh-to-tool_log" style="stroke:#181818;stroke-width:1;"/><polygon fill="#181818" points="478.66,2599.9479,469.66,2595.9479,473.66,2599.9479,469.66,2603.9479,478.66,2599.9479" style="stroke:#181818;stroke-width:1;"/></g><!--link source_scripts_archility_daily_sh to tool_mapfile--><g class="link" data-entity-1="ent0003" data-entity-2="ent0032" data-link-type="dependency" data-source-line="61" id="lnk56"><path d="M243.68,2770.4179 C257.32,2770.4179 267,2770.4179 267,2770.4179 C267,2770.4179 267,2679.2779 267,2679.2779 C267,2679.2779 390.66,2679.2779 458.28,2679.2779" fill="none" id="source_scripts_archility_daily_sh-to-tool_mapfile" style="stroke:#181818;stroke-width:1;"/><polygon fill="#181818" points="464.28,2679.2779,455.28,2675.2779,459.28,2679.2779,455.28,2683.2779,464.28,2679.2779" style="stroke:#181818;stroke-width:1;"/></g><!--link source_scripts_archility_daily_sh to tool_mkdir--><g class="link" data-entity-1="ent0003" data-entity-2="ent0033" data-link-type="dependency" data-source-line="62" id="lnk57"><path d="M243.25,2777.3679 C316.64,2777.3679 411.6,2777.3679 463.84,2777.3679" fill="none" id="source_scripts_archility_daily_sh-to-tool_mkdir" style="stroke:#181818;stroke-width:1;"/><polygon fill="#181818" points="469.84,2777.3679,460.84,2773.3679,464.84,2777.3679,460.84,2781.3679,469.84,2777.3679" style="stroke:#181818;stroke-width:1;"/></g><!--link source_scripts_archility_daily_sh to tool_sort--><g class="link" data-entity-1="ent0003" data-entity-2="ent0042" data-link-type="dependency" data-source-line="63" id="lnk58"><path d="M243.64,2789.0779 C346.8,2789.0779 504,2789.0779 504,2789.0779 C504,2789.0779 504,2798.5079 504,2812.9879" fill="none" id="source_scripts_archility_daily_sh-to-tool_sort" style="stroke:#181818;stroke-width:1;"/><polygon fill="#181818" points="504,2818.9879,508,2809.9879,504,2813.9879,500,2809.9879,504,2818.9879" style="stroke:#181818;stroke-width:1;"/></g><!--link source_scripts_archility_daily_sh to tool_tee--><g class="link" data-entity-1="ent0003" data-entity-2="ent0047" data-link-type="dependency" data-source-line="64" id="lnk59"><path d="M127,2794.1079 C127,2844.0079 127,2940.0379 127,2940.0379 C127,2940.0379 387.72,2940.0379 472.63,2940.0379" fill="none" id="source_scripts_archility_daily_sh-to-tool_tee" style="stroke:#181818;stroke-width:1;"/><polygon fill="#181818" points="478.63,2940.0379,469.63,2936.0379,473.63,2940.0379,469.63,2944.0379,478.63,2940.0379" style="stroke:#181818;stroke-width:1;"/></g><!--link source_scripts_archility_weekly_sh to tool_ln--><g class="link" data-entity-1="ent0004" data-entity-2="ent0030" data-link-type="dependency" data-source-line="65" id="lnk60"><path d="M195,2642.4579 C195,2595.2779 195,2507.7779 195,2507.7779 C195,2507.7779 407.13,2507.7779 477,2507.7779" fill="none" id="source_scripts_archility_weekly_sh-to-tool_ln" style="stroke:#181818;stroke-width:1;"/><polygon fill="#181818" points="483,2507.7779,474,2503.7779,478,2507.7779,474,2511.7779,483,2507.7779" style="stroke:#181818;stroke-width:1;"/></g><!--link source_scripts_archility_weekly_sh to tool_log--><g class="link" data-entity-1="ent0004" data-entity-2="ent0031" data-link-type="dependency" data-source-line="66" id="lnk61"><path d="M250.46,2646.9779 C353.58,2646.9779 504,2646.9779 504,2646.9779 C504,2646.9779 504,2637.3979 504,2622.7879" fill="none" id="source_scripts_archility_weekly_sh-to-tool_log" style="stroke:#181818;stroke-width:1;"/><polygon fill="#181818" points="504,2616.7879,500,2625.7879,504,2621.7879,508,2625.7879,504,2616.7879" style="stroke:#181818;stroke-width:1;"/></g><!--link source_scripts_archility_weekly_sh to tool_mapfile--><g class="link" data-entity-1="ent0004" data-entity-2="ent0032" data-link-type="dependency" data-source-line="67" id="lnk62"><path d="M250.53,2665.2579 C320.67,2665.2579 406.68,2665.2579 458.43,2665.2579" fill="none" id="source_scripts_archility_weekly_sh-to-tool_mapfile" style="stroke:#181818;stroke-width:1;"/><polygon fill="#181818" points="464.43,2665.2579,455.43,2661.2579,459.43,2665.2579,455.43,2669.2579,464.43,2665.2579" style="stroke:#181818;stroke-width:1;"/></g><!--link source_scripts_archility_weekly_sh to tool_mkdir--><g class="link" data-entity-1="ent0004" data-entity-2="ent0033" data-link-type="dependency" data-source-line="68" id="lnk63"><path d="M250.52,2672.2679 C256.99,2672.2679 261,2672.2679 261,2672.2679 C261,2672.2679 261,2749.5879 261,2749.5879 C261,2749.5879 396.51,2749.5879 463.67,2749.5879" fill="none" id="source_scripts_archility_weekly_sh-to-tool_mkdir" style="stroke:#181818;stroke-width:1;"/><polygon fill="#181818" points="469.67,2749.5879,460.67,2745.5879,464.67,2749.5879,460.67,2753.5879,469.67,2749.5879" style="stroke:#181818;stroke-width:1;"/></g><!--link source_scripts_archility_weekly_sh to tool_sort--><g class="link" data-entity-1="ent0004" data-entity-2="ent0042" data-link-type="dependency" data-source-line="69" id="lnk64"><path d="M250.67,2686.2879 C254.65,2686.2879 257,2686.2879 257,2686.2879 C257,2686.2879 257,2851.9479 257,2851.9479 C257,2851.9479 404.95,2851.9479 469.9,2851.9479" fill="none" id="source_scripts_archility_weekly_sh-to-tool_sort" style="stroke:#181818;stroke-width:1;"/><polygon fill="#181818" points="475.9,2851.9479,466.9,2847.9479,470.9,2851.9479,466.9,2855.9479,475.9,2851.9479" style="stroke:#181818;stroke-width:1;"/></g><!--link source_scripts_archility_weekly_sh to tool_tee--><g class="link" data-entity-1="ent0004" data-entity-2="ent0047" data-link-type="dependency" data-source-line="70" id="lnk65"><path d="M250.6,2693.2979 C252.15,2693.2979 253,2693.2979 253,2693.2979 C253,2693.2979 253,2927.7779 253,2927.7779 C253,2927.7779 408.91,2927.7779 472.79,2927.7779" fill="none" id="source_scripts_archility_weekly_sh-to-tool_tee" style="stroke:#181818;stroke-width:1;"/><polygon fill="#181818" points="478.79,2927.7779,469.79,2923.7779,473.79,2927.7779,469.79,2931.7779,478.79,2927.7779" style="stroke:#181818;stroke-width:1;"/></g><!--link source_scripts_check_github_push_ci_sh to tool_cat--><g class="link" data-entity-1="ent0005" data-entity-2="ent0024" data-link-type="dependency" data-source-line="71" id="lnk66"><path d="M270.99,731.5079 C300.95,731.5079 325,731.5079 325,731.5079 C325,731.5079 325,418.0779 325,418.0779 C325,418.0779 423.54,418.0779 472.96,418.0779" fill="none" id="source_scripts_check_github_push_ci_sh-to-tool_cat" style="stroke:#181818;stroke-width:1;"/><polygon fill="#181818" points="478.96,418.0779,469.96,414.0779,473.96,418.0779,469.96,422.0779,478.96,418.0779" style="stroke:#181818;stroke-width:1;"/></g><!--link source_scripts_check_github_push_ci_sh to tool_failure_count--><g class="link" data-entity-1="ent0005" data-entity-2="ent0026" data-link-type="dependency" data-source-line="72" id="lnk67"><path d="M256,773.1779 C256,839.6479 256,995.7779 256,995.7779 C256,995.7779 366.68,995.7779 440.05,995.7779" fill="none" id="source_scripts_check_github_push_ci_sh-to-tool_failure_count" style="stroke:#181818;stroke-width:1;"/><polygon fill="#181818" points="446.05,995.7779,437.05,991.7779,441.05,995.7779,437.05,999.7779,446.05,995.7779" style="stroke:#181818;stroke-width:1;"/></g><!--link source_scripts_check_github_push_ci_sh to tool_invalid_count--><g class="link" data-entity-1="ent0005" data-entity-2="ent0028" data-link-type="dependency" data-source-line="73" id="lnk68"><path d="M252,773.2979 C252,855.2879 252,1079.7779 252,1079.7779 C252,1079.7779 364.89,1079.7779 439.43,1079.7779" fill="none" id="source_scripts_check_github_push_ci_sh-to-tool_invalid_count" style="stroke:#181818;stroke-width:1;"/><polygon fill="#181818" points="445.43,1079.7779,436.43,1075.7779,440.43,1079.7779,436.43,1083.7779,445.43,1079.7779" style="stroke:#181818;stroke-width:1;"/></g><!--link source_scripts_check_github_push_ci_sh to tool_line_number--><g class="link" data-entity-1="ent0005" data-entity-2="ent0029" data-link-type="dependency" data-source-line="74" id="lnk69"><path d="M117,714.2079 C117,650.6279 117,506.5779 117,506.5779 C117,506.5779 333.97,506.5779 441.53,506.5779" fill="none" id="source_scripts_check_github_push_ci_sh-to-tool_line_number" style="stroke:#181818;stroke-width:1;"/><polygon fill="#181818" points="447.53,506.5779,438.53,502.5779,442.53,506.5779,438.53,510.5779,447.53,506.5779" style="stroke:#181818;stroke-width:1;"/></g><!--link source_scripts_check_github_push_ci_sh to tool_no_ci_count--><g class="link" data-entity-1="ent0005" data-entity-2="ent0034" data-link-type="dependency" data-source-line="75" id="lnk70"><path d="M194,714.5079 C194,666.3779 194,575.7779 194,575.7779 C194,575.7779 355.33,575.7779 444.22,575.7779" fill="none" id="source_scripts_check_github_push_ci_sh-to-tool_no_ci_count" style="stroke:#181818;stroke-width:1;"/><polygon fill="#181818" points="450.22,575.7779,441.22,571.7779,445.22,575.7779,441.22,579.7779,450.22,575.7779" style="stroke:#181818;stroke-width:1;"/></g><!--link source_scripts_check_github_push_ci_sh to tool_select_headsha--><g class="link" data-entity-1="ent0005" data-entity-2="ent0040" data-link-type="dependency" data-source-line="76" id="lnk71"><path d="M270.94,743.7779 C355.98,743.7779 457,743.7779 457,743.7779 C457,743.7779 457,715.2979 457,690.5179" fill="none" id="source_scripts_check_github_push_ci_sh-to-tool_select_headsha" style="stroke:#181818;stroke-width:1;"/><polygon fill="#181818" points="457,684.5179,453,693.5179,457,689.5179,461,693.5179,457,684.5179" style="stroke:#181818;stroke-width:1;"/></g><!--link source_scripts_check_github_push_ci_sh to tool_sleep--><g class="link" data-entity-1="ent0005" data-entity-2="ent0041" data-link-type="dependency" data-source-line="77" id="lnk72"><path d="M270.84,756.0379 C341.22,756.0379 420.22,756.0379 465.73,756.0379" fill="none" id="source_scripts_check_github_push_ci_sh-to-tool_sleep" style="stroke:#181818;stroke-width:1;"/><polygon fill="#181818" points="471.73,756.0379,462.73,752.0379,466.73,756.0379,462.73,760.0379,471.73,756.0379" style="stroke:#181818;stroke-width:1;"/></g><!--link source_scripts_check_github_push_ci_sh to tool_success_count--><g class="link" data-entity-1="ent0005" data-entity-2="ent0043" data-link-type="dependency" data-source-line="78" id="lnk73"><path d="M269,773.1579 C269,797.3779 269,827.7779 269,827.7779 C269,827.7779 366.14,827.7779 435.83,827.7779" fill="none" id="source_scripts_check_github_push_ci_sh-to-tool_success_count" style="stroke:#181818;stroke-width:1;"/><polygon fill="#181818" points="441.83,827.7779,432.83,823.7779,436.83,827.7779,432.83,831.7779,441.83,827.7779" style="stroke:#181818;stroke-width:1;"/></g><!--link source_scripts_check_github_push_ci_sh to tool_timeout_count--><g class="link" data-entity-1="ent0005" data-entity-2="ent0048" data-link-type="dependency" data-source-line="79" id="lnk74"><path d="M260,773.0379 C260,821.1679 260,911.7779 260,911.7779 C260,911.7779 362.67,911.7779 435.04,911.7779" fill="none" id="source_scripts_check_github_push_ci_sh-to-tool_timeout_count" style="stroke:#181818;stroke-width:1;"/><polygon fill="#181818" points="441.04,911.7779,432.04,907.7779,436.04,911.7779,432.04,915.7779,441.04,911.7779" style="stroke:#181818;stroke-width:1;"/></g><!--link source_scripts_install_archility_daily_systemd_sh to tool_cat--><g class="link" data-entity-1="ent0006" data-entity-2="ent0024" data-link-type="dependency" data-source-line="80" id="lnk75"><path d="M297.73,306.9779 C324.87,306.9779 345,306.9779 345,306.9779 C345,306.9779 345,390.1079 345,390.1079 C345,390.1079 428.12,390.1079 473.03,390.1079" fill="none" id="source_scripts_install_archility_daily_systemd_sh-to-tool_cat" style="stroke:#181818;stroke-width:1;"/><polygon fill="#181818" points="479.03,390.1079,470.03,386.1079,474.03,390.1079,470.03,394.1079,479.03,390.1079" style="stroke:#181818;stroke-width:1;"/></g><!--link source_scripts_install_archility_daily_systemd_sh to tool_systemctl--><g class="link" data-entity-1="ent0006" data-entity-2="ent0045" data-link-type="dependency" data-source-line="81" id="lnk76"><path d="M297.76,303.1079 C355.01,303.1079 411.08,303.1079 452.06,303.1079" fill="none" id="source_scripts_install_archility_daily_systemd_sh-to-tool_systemctl" style="stroke:#181818;stroke-width:1;"/><polygon fill="#181818" points="458.06,303.1079,449.06,299.1079,453.06,303.1079,449.06,307.1079,458.06,303.1079" style="stroke:#181818;stroke-width:1;"/></g><!--link source_scripts_install_archility_weekly_systemd_sh to tool_cat--><g class="link" data-entity-1="ent0007" data-entity-2="ent0024" data-link-type="dependency" data-source-line="82" id="lnk77"><path d="M304.82,396.9779 C371,396.9779 436.14,396.9779 472.95,396.9779" fill="none" id="source_scripts_install_archility_weekly_systemd_sh-to-tool_cat" style="stroke:#181818;stroke-width:1;"/><polygon fill="#181818" points="478.95,396.9779,469.95,392.9779,473.95,396.9779,469.95,400.9779,478.95,396.9779" style="stroke:#181818;stroke-width:1;"/></g><!--link source_scripts_install_archility_weekly_systemd_sh to tool_systemctl--><g class="link" data-entity-1="ent0007" data-entity-2="ent0045" data-link-type="dependency" data-source-line="83" id="lnk78"><path d="M301,345.3279 C301,336.0979 301,328.2779 301,328.2779 C301,328.2779 391.89,328.2779 451.88,328.2779" fill="none" id="source_scripts_install_archility_weekly_systemd_sh-to-tool_systemctl" style="stroke:#181818;stroke-width:1;"/><polygon fill="#181818" points="457.88,328.2779,448.88,324.2779,452.88,328.2779,448.88,332.2779,457.88,328.2779" style="stroke:#181818;stroke-width:1;"/></g><!--link source_scripts_install_portfolio_audit_systemd_sh to tool_cat--><g class="link" data-entity-1="ent0008" data-entity-2="ent0024" data-link-type="dependency" data-source-line="84" id="lnk79"><path d="M301.68,457.7279 C397.04,457.7279 504,457.7279 504,457.7279 C504,457.7279 504,451.2379 504,438.7479" fill="none" id="source_scripts_install_portfolio_audit_systemd_sh-to-tool_cat" style="stroke:#181818;stroke-width:1;"/><polygon fill="#181818" points="504,432.7479,500,441.7479,504,437.7479,508,441.7479,504,432.7479" style="stroke:#181818;stroke-width:1;"/></g><!--link source_scripts_install_portfolio_audit_systemd_sh to tool_systemctl--><g class="link" data-entity-1="ent0008" data-entity-2="ent0045" data-link-type="dependency" data-source-line="85" id="lnk80"><path d="M301.38,448.2179 C383.18,448.2179 469,448.2179 469,448.2179 C469,448.2179 469,390.9779 469,354.6579" fill="none" id="source_scripts_install_portfolio_audit_systemd_sh-to-tool_systemctl" style="stroke:#181818;stroke-width:1;"/><polygon fill="#181818" points="469,348.6579,465,357.6579,469,353.6579,473,357.6579,469,348.6579" style="stroke:#181818;stroke-width:1;"/></g><!--link source_scripts_portfolio_audit_sh to tool_editorconfig--><g class="link" data-entity-1="ent0009" data-entity-2="ent0011" data-link-type="dependency" data-source-line="86" id="lnk81"><path d="M119,2016.4579 C119,1882.0979 119,1331.7779 119,1331.7779 C119,1331.7779 333.68,1331.7779 441,1331.7779" fill="none" id="source_scripts_portfolio_audit_sh-to-tool_editorconfig" style="stroke:#181818;stroke-width:1;"/><polygon fill="#181818" points="447,1331.7779,438,1327.7779,442,1331.7779,438,1335.7779,447,1331.7779" style="stroke:#181818;stroke-width:1;"/></g><!--link source_scripts_portfolio_audit_sh to tool_gitignore--><g class="link" data-entity-1="ent0009" data-entity-2="ent0012" data-link-type="dependency" data-source-line="87" id="lnk82"><path d="M137,2016.2279 C137,1891.6779 137,1415.7779 137,1415.7779 C137,1415.7779 351.81,1415.7779 451,1415.7779" fill="none" id="source_scripts_portfolio_audit_sh-to-tool_gitignore" style="stroke:#181818;stroke-width:1;"/><polygon fill="#181818" points="457,1415.7779,448,1411.7779,452,1415.7779,448,1419.7779,457,1415.7779" style="stroke:#181818;stroke-width:1;"/></g><!--link source_scripts_portfolio_audit_sh to tool_agents_md--><g class="link" data-entity-1="ent0009" data-entity-2="ent0013" data-link-type="dependency" data-source-line="88" id="lnk83"><path d="M156,2016.4179 C156,1903.0079 156,1499.7779 156,1499.7779 C156,1499.7779 345.9,1499.7779 443.84,1499.7779" fill="none" id="source_scripts_portfolio_audit_sh-to-tool_agents_md" style="stroke:#181818;stroke-width:1;"/><polygon fill="#181818" points="449.84,1499.7779,440.84,1495.7779,444.84,1499.7779,440.84,1503.7779,449.84,1499.7779" style="stroke:#181818;stroke-width:1;"/></g><!--link source_scripts_portfolio_audit_sh to tool_changelog_md--><g class="link" data-entity-1="ent0009" data-entity-2="ent0014" data-link-type="dependency" data-source-line="89" id="lnk84"><path d="M174,2016.5279 C174,1914.9679 174,1583.7779 174,1583.7779 C174,1583.7779 330.82,1583.7779 427.82,1583.7779" fill="none" id="source_scripts_portfolio_audit_sh-to-tool_changelog_md" style="stroke:#181818;stroke-width:1;"/><polygon fill="#181818" points="433.82,1583.7779,424.82,1579.7779,428.82,1583.7779,424.82,1587.7779,433.82,1583.7779" style="stroke:#181818;stroke-width:1;"/></g><!--link source_scripts_portfolio_audit_sh to tool_code_of_conduct_md--><g class="link" data-entity-1="ent0009" data-entity-2="ent0015" data-link-type="dependency" data-source-line="90" id="lnk85"><path d="M192,2016.4279 C192,1927.6179 192,1667.7779 192,1667.7779 C192,1667.7779 310.66,1667.7779 402.45,1667.7779" fill="none" id="source_scripts_portfolio_audit_sh-to-tool_code_of_conduct_md" style="stroke:#181818;stroke-width:1;"/><polygon fill="#181818" points="408.45,1667.7779,399.45,1663.7779,403.45,1667.7779,399.45,1671.7779,408.45,1667.7779" style="stroke:#181818;stroke-width:1;"/></g><!--link source_scripts_portfolio_audit_sh to tool_contributing_md--><g class="link" data-entity-1="ent0009" data-entity-2="ent0016" data-link-type="dependency" data-source-line="91" id="lnk86"><path d="M211,2016.2379 C211,1941.6879 211,1751.7779 211,1751.7779 C211,1751.7779 331.3,1751.7779 418.13,1751.7779" fill="none" id="source_scripts_portfolio_audit_sh-to-tool_contributing_md" style="stroke:#181818;stroke-width:1;"/><polygon fill="#181818" points="424.13,1751.7779,415.13,1747.7779,419.13,1751.7779,415.13,1755.7779,424.13,1751.7779" style="stroke:#181818;stroke-width:1;"/></g><!--link source_scripts_portfolio_audit_sh to tool_lessonslearned_md--><g class="link" data-entity-1="ent0009" data-entity-2="ent0017" data-link-type="dependency" data-source-line="92" id="lnk87"><path d="M229,2016.5779 C229,1958.8679 229,1835.7779 229,1835.7779 C229,1835.7779 329.18,1835.7779 409.65,1835.7779" fill="none" id="source_scripts_portfolio_audit_sh-to-tool_lessonslearned_md" style="stroke:#181818;stroke-width:1;"/><polygon fill="#181818" points="415.65,1835.7779,406.65,1831.7779,410.65,1835.7779,406.65,1839.7779,415.65,1835.7779" style="stroke:#181818;stroke-width:1;"/></g><!--link source_scripts_portfolio_audit_sh to tool_pull_request_template_md--><g class="link" data-entity-1="ent0009" data-entity-2="ent0018" data-link-type="dependency" data-source-line="93" id="lnk88"><path d="M247.53,2020.5779 C321.76,2020.5779 414,2020.5779 414,2020.5779 C414,2020.5779 414,1980.5379 414,1950.6879" fill="none" id="source_scripts_portfolio_audit_sh-to-tool_pull_request_template_md" style="stroke:#181818;stroke-width:1;"/><polygon fill="#181818" points="414,1944.6879,410,1953.6879,414,1949.6879,418,1953.6879,414,1944.6879" style="stroke:#181818;stroke-width:1;"/></g><!--link source_scripts_portfolio_audit_sh to tool_readme_md--><g class="link" data-entity-1="ent0009" data-entity-2="ent0019" data-link-type="dependency" data-source-line="94" id="lnk89"><path d="M247.32,2024.4379 C311.05,2024.4379 387.99,2024.4379 442.15,2024.4379" fill="none" id="source_scripts_portfolio_audit_sh-to-tool_readme_md" style="stroke:#181818;stroke-width:1;"/><polygon fill="#181818" points="448.15,2024.4379,439.15,2020.4379,443.15,2024.4379,439.15,2028.4379,448.15,2024.4379" style="stroke:#181818;stroke-width:1;"/></g><!--link source_scripts_portfolio_audit_sh to tool_security_md--><g class="link" data-entity-1="ent0009" data-entity-2="ent0020" data-link-type="dependency" data-source-line="95" id="lnk90"><path d="M247.32,2065.1779 C309.54,2065.1779 384.06,2065.1779 438.24,2065.1779" fill="none" id="source_scripts_portfolio_audit_sh-to-tool_security_md" style="stroke:#181818;stroke-width:1;"/><polygon fill="#181818" points="444.24,2065.1779,435.24,2061.1779,439.24,2065.1779,435.24,2069.1779,444.24,2065.1779" style="stroke:#181818;stroke-width:1;"/></g><!--link source_scripts_portfolio_audit_sh to tool_bug_report_md--><g class="link" data-entity-1="ent0009" data-entity-2="ent0023" data-link-type="dependency" data-source-line="96" id="lnk91"><path d="M221,2075.3179 C221,2112.5579 221,2171.7779 221,2171.7779 C221,2171.7779 349.65,2171.7779 433.27,2171.7779" fill="none" id="source_scripts_portfolio_audit_sh-to-tool_bug_report_md" style="stroke:#181818;stroke-width:1;"/><polygon fill="#181818" points="439.27,2171.7779,430.27,2167.7779,434.27,2171.7779,430.27,2175.7779,439.27,2171.7779" style="stroke:#181818;stroke-width:1;"/></g><!--link source_scripts_portfolio_audit_sh to tool_contributor_architecture_blueprint_md--><g class="link" data-entity-1="ent0009" data-entity-2="ent0025" data-link-type="dependency" data-source-line="97" id="lnk92"><path d="M247.34,2067.1079 C308.21,2067.1079 377,2067.1079 377,2067.1079 C377,2067.1079 377,2173.9679 377,2225.1079" fill="none" id="source_scripts_portfolio_audit_sh-to-tool_contributor_architecture_blueprint_md" style="stroke:#181818;stroke-width:1;"/><polygon fill="#181818" points="377,2231.1079,381,2222.1079,377,2226.1079,373,2222.1079,377,2231.1079" style="stroke:#181818;stroke-width:1;"/></g><!--link source_scripts_portfolio_audit_sh to tool_feature_request_md--><g class="link" data-entity-1="ent0009" data-entity-2="ent0027" data-link-type="dependency" data-source-line="98" id="lnk93"><path d="M169,2075.3079 C169,2149.8679 169,2339.7779 169,2339.7779 C169,2339.7779 318.77,2339.7779 417.96,2339.7779" fill="none" id="source_scripts_portfolio_audit_sh-to-tool_feature_request_md" style="stroke:#181818;stroke-width:1;"/><polygon fill="#181818" points="423.96,2339.7779,414.96,2335.7779,418.96,2339.7779,414.96,2343.7779,423.96,2339.7779" style="stroke:#181818;stroke-width:1;"/></g><!--link source_scripts_portfolio_audit_sh to tool_ln--><g class="link" data-entity-1="ent0009" data-entity-2="ent0030" data-link-type="dependency" data-source-line="99" id="lnk94"><path d="M117,2075.2779 C117,2175.3379 117,2495.5079 117,2495.5079 C117,2495.5079 395.7,2495.5079 476.89,2495.5079" fill="none" id="source_scripts_portfolio_audit_sh-to-tool_ln" style="stroke:#181818;stroke-width:1;"/><polygon fill="#181818" points="482.89,2495.5079,473.89,2491.5079,477.89,2495.5079,473.89,2499.5079,482.89,2495.5079" style="stroke:#181818;stroke-width:1;"/></g><!--link source_scripts_portfolio_audit_sh to tool_log--><g class="link" data-entity-1="ent0009" data-entity-2="ent0031" data-link-type="dependency" data-source-line="100" id="lnk95"><path d="M91,2075.0679 C91,2187.3079 91,2583.5979 91,2583.5979 C91,2583.5979 382.62,2583.5979 472.72,2583.5979" fill="none" id="source_scripts_portfolio_audit_sh-to-tool_log" style="stroke:#181818;stroke-width:1;"/><polygon fill="#181818" points="478.72,2583.5979,469.72,2579.5979,473.72,2583.5979,469.72,2587.5979,478.72,2583.5979" style="stroke:#181818;stroke-width:1;"/></g><!--link source_scripts_portfolio_audit_sh to tool_mapfile--><g class="link" data-entity-1="ent0009" data-entity-2="ent0032" data-link-type="dependency" data-source-line="101" id="lnk96"><path d="M247.41,2069.0379 C259.61,2069.0379 268,2069.0379 268,2069.0379 C268,2069.0379 268,2658.2479 268,2658.2479 C268,2658.2479 390.78,2658.2479 458.18,2658.2479" fill="none" id="source_scripts_portfolio_audit_sh-to-tool_mapfile" style="stroke:#181818;stroke-width:1;"/><polygon fill="#181818" points="464.18,2658.2479,455.18,2654.2479,459.18,2658.2479,455.18,2662.2479,464.18,2658.2479" style="stroke:#181818;stroke-width:1;"/></g><!--link source_scripts_portfolio_audit_sh to tool_mkdir--><g class="link" data-entity-1="ent0009" data-entity-2="ent0033" data-link-type="dependency" data-source-line="102" id="lnk97"><path d="M247.18,2070.9779 C256.71,2070.9779 263,2070.9779 263,2070.9779 C263,2070.9779 263,2742.6479 263,2742.6479 C263,2742.6479 396.98,2742.6479 463.69,2742.6479" fill="none" id="source_scripts_portfolio_audit_sh-to-tool_mkdir" style="stroke:#181818;stroke-width:1;"/><polygon fill="#181818" points="469.69,2742.6479,460.69,2738.6479,464.69,2742.6479,460.69,2746.6479,469.69,2742.6479" style="stroke:#181818;stroke-width:1;"/></g><!--link source_scripts_portfolio_audit_sh to tool_repo_architecture_drawio--><g class="link" data-entity-1="ent0009" data-entity-2="ent0037" data-link-type="dependency" data-source-line="103" id="lnk98"><path d="M143,2075.1179 C143,2163.9379 143,2423.7779 143,2423.7779 C143,2423.7779 293.97,2423.7779 400.97,2423.7779" fill="none" id="source_scripts_portfolio_audit_sh-to-tool_repo_architecture_drawio" style="stroke:#181818;stroke-width:1;"/><polygon fill="#181818" points="406.97,2423.7779,397.97,2419.7779,401.97,2423.7779,397.97,2427.7779,406.97,2423.7779" style="stroke:#181818;stroke-width:1;"/></g><!--link source_scripts_portfolio_audit_sh to tool_repo_architecture_puml--><g class="link" data-entity-1="ent0009" data-entity-2="ent0038" data-link-type="dependency" data-source-line="104" id="lnk99"><path d="M83,2016.4279 C83,1863.3879 83,1163.7779 83,1163.7779 C83,1163.7779 282.67,1163.7779 406.59,1163.7779" fill="none" id="source_scripts_portfolio_audit_sh-to-tool_repo_architecture_puml" style="stroke:#181818;stroke-width:1;"/><polygon fill="#181818" points="412.59,1163.7779,403.59,1159.7779,407.59,1163.7779,403.59,1167.7779,412.59,1163.7779" style="stroke:#181818;stroke-width:1;"/></g><!--link source_scripts_portfolio_audit_sh to tool_sort--><g class="link" data-entity-1="ent0009" data-entity-2="ent0042" data-link-type="dependency" data-source-line="105" id="lnk100"><path d="M247.44,2072.9079 C253.94,2072.9079 258,2072.9079 258,2072.9079 C258,2072.9079 258,2835.5979 258,2835.5979 C258,2835.5979 405.33,2835.5979 470.01,2835.5979" fill="none" id="source_scripts_portfolio_audit_sh-to-tool_sort" style="stroke:#181818;stroke-width:1;"/><polygon fill="#181818" points="476.01,2835.5979,467.01,2831.5979,471.01,2835.5979,467.01,2839.5979,476.01,2835.5979" style="stroke:#181818;stroke-width:1;"/></g><!--link source_scripts_portfolio_audit_sh to tool_tee--><g class="link" data-entity-1="ent0009" data-entity-2="ent0047" data-link-type="dependency" data-source-line="106" id="lnk101"><path d="M247.55,2045.7779 C251.6,2045.7779 254,2045.7779 254,2045.7779 C254,2045.7779 254,2915.5079 254,2915.5079 C254,2915.5079 408.48,2915.5079 472.42,2915.5079" fill="none" id="source_scripts_portfolio_audit_sh-to-tool_tee" style="stroke:#181818;stroke-width:1;"/><polygon fill="#181818" points="478.42,2915.5079,469.42,2911.5079,473.42,2915.5079,469.42,2919.5079,478.42,2915.5079" style="stroke:#181818;stroke-width:1;"/></g><!--link source_scripts_portfolio_audit_sh to tool_warn--><g class="link" data-entity-1="ent0009" data-entity-2="ent0049" data-link-type="dependency" data-source-line="107" id="lnk102"><path d="M101,2016.4279 C101,1872.4579 101,1247.7779 101,1247.7779 C101,1247.7779 370.9,1247.7779 466.28,1247.7779" fill="none" id="source_scripts_portfolio_audit_sh-to-tool_warn" style="stroke:#181818;stroke-width:1;"/><polygon fill="#181818" points="472.28,1247.7779,463.28,1243.7779,467.28,1247.7779,463.28,1251.7779,472.28,1247.7779" style="stroke:#181818;stroke-width:1;"/></g><!--link source_scripts_run_tachometer_profile_sh to tool_run--><g class="link" data-entity-1="ent0010" data-entity-2="ent0039" data-link-type="dependency" data-source-line="108" id="lnk103"><path d="M268,126.5179 C268,101.4479 268,69.3579 268,69.3579 C268,69.3579 409.83,69.3579 471.62,69.3579" fill="none" id="source_scripts_run_tachometer_profile_sh-to-tool_run" style="stroke:#181818;stroke-width:1;"/><polygon fill="#181818" points="477.62,69.3579,468.62,65.3579,472.62,69.3579,468.62,73.3579,477.62,69.3579" style="stroke:#181818;stroke-width:1;"/></g><!--link source_scripts_run_tachometer_profile_sh to tool_summarize--><g class="link" data-entity-1="ent0010" data-entity-2="ent0044" data-link-type="dependency" data-source-line="109" id="lnk104"><path d="M277.16,155.7779 C337.07,155.7779 400.2,155.7779 446.29,155.7779" fill="none" id="source_scripts_run_tachometer_profile_sh-to-tool_summarize" style="stroke:#181818;stroke-width:1;"/><polygon fill="#181818" points="452.29,155.7779,443.29,151.7779,447.29,155.7779,443.29,159.7779,452.29,155.7779" style="stroke:#181818;stroke-width:1;"/></g><!--link source_scripts_run_tachometer_profile_sh to tool_tachometer--><g class="link" data-entity-1="ent0010" data-entity-2="ent0046" data-link-type="dependency" data-source-line="110" id="lnk105"><path d="M156,185.3379 C156,207.4779 156,233.9779 156,233.9779 C156,233.9779 346.92,233.9779 444.61,233.9779" fill="none" id="source_scripts_run_tachometer_profile_sh-to-tool_tachometer" style="stroke:#181818;stroke-width:1;"/><polygon fill="#181818" points="450.61,233.9779,441.61,229.9779,445.61,233.9779,441.61,237.9779,450.61,233.9779" style="stroke:#181818;stroke-width:1;"/></g><?plantuml-src fPXDR-Cs48Rl-XN2xgKNEyMcQB6N0caYfm4SPnixXm8B48n4MqGeakL73VVNToZRCYNHikWz1UAypyoO7qDE33MCf4RXt5319xdWHWcMheHWb6_I9sx8Hc5dqmaZQvCQaIgwAKrQK4LgAD4Vb4kiS9Ng4XTYwy0rPffubeAiiMLc1luNk2Bfi-12IvpxcbnKKd32pTBi82dd7lCDyoMG534xILAXJ2cIHf9-ccweAUtxpLQeZpKJMtsJq-ckOj_vBn3SW90KaBnW-bEATQg5LJb1UmWr4Cef0YZzdFqy-pBB_00wLrGQVODLNb96pMvIOCfsKrr-vxyEX3XmgE5GpI5TZeko9UJZgZ1xy4ASl2Jvnt4QfDKbp40Tw-k8M27uGZpAjS6CzMTZfmsfYZhqbn6XB_Y9pk8uMJ-SHjlHo3maRESrd3Y1i2sekJgDCtukPD5GavhQHnqJjXTkC8oo71cSbw82nmf99TQKaJhQxOXWOToFcJDX2wW4178H2ahPccvgJyudyaVJpxDiTdl_MuF07gORBXGvwPkXhlZkCLkibjEgE6dn1ggMHbNHrTx_URTupEOlZorvNiBK42Os8UBb8KClCtJ_idXukr-rEL4G9DRmbnSsDq5wiNfz-kDjzRJeX7I5dRvR0yKvmCspvV9biPndTw-BxA55Cg8rL7z6iEAa2B3VtkPpz9hzzPOjLsYLFN-RtwsobWjfOMygyeybsY3Oa99XGmAUNhExX-SsgWWkgf1scTs_lJwj_cwfDScjSgUmhzzVS8U29wpn5czlGKVBEL8JO-L4xk3YuNswjgAzjUlXtMxWXxZJqihsD1p8DyTUYl3HinyNLAX9NNtS-R6AJDwP9L9HRiBhBnJovQYH1t9OGqbrcbnOxcNJ6kun1DT-3ylTIg9Z2qIa_5_CQD6Ds1hkCkvDWBYjtedoTkrfiAVtLe_rrWfEfMSMlL9HOUdgpabp6EZfFk21vAdSPrV3XRimEx_L6-pg9PNUeQAoPuVbXqTKHJrtibueDzPLkwtNsZhJGk4j5VxXawAzM_QAovwahTYG7sVlUR7Umi17rwu90_gdQGabOLbY_zGx0tBZy03jOOmGRzhgpvu6pg0dWQ-UmkOv5CBkOhM6-qnLOKN_8xx-CDJJrZTrRhnPQuQwsjCjU1AVndfguiM7ZvwTLWIgNlUNjOQxp1RkWfFKVJMA2m_hoUJtSDMD1ls2Eng6GpDUsvoSvF9Jlg4OZrABJOpyK6kY45TuOW2t-sFqiAMI4Jt8g0aAoOTcAA2_E4KXPdYE0iJm90M0m2oTwvuQ1cxzQAPrDqVJhNisclRkt6ZMk_MYsNRzZyVTZH1F-PK_ccvLroI-jntQ8p5uSySaLpIsSKaCy1Up6EXhnoGn1Z-RGw39RI2_fupXcjuo1cgQp1Z8RpMZk5wh6KUtkiqOjDTkni3d6iqO7qt76GDvZMSCrke0hvhWeNOknc6_DOjQD1wb5b67vSoDFeY4BlJXHGztEZ_cmtKvKRieyAeOqWSU5KDozqvFHlzNxVIxx3LKq-bSmPxC2HU671iDA2QF2ijoMRlU9SiSSwWHwTUZDOK2gNPImFRNq-JX-2_5Mn2KL1KJYPNPxV_3E4q8BrBd_Ny0?></g></svg>
