<?plantuml 1.2026.2?><svg xmlns="http://www.w3.org/2000/svg" xmlns:xlink="http://www.w3.org/1999/xlink" contentStyleType="text/css" data-diagram-type="DESCRIPTION" height="2623px" preserveAspectRatio="none" style="width:650px;height:2623px;background:#FFFFFF;" version="1.1" viewBox="0 0 650 2623" width="650px" zoomAndPan="magnify"><title>traction-control Tooling Integrations</title><defs/><g><g class="title" data-source-line="1"><text fill="#000000" font-family="Monospace" font-size="14" font-weight="bold" lengthAdjust="spacing" textLength="255.3556" x="190.8204" y="24.9659">traction-control&#160;Tooling&#160;Integrations</text></g><!--entity source_github_workflows_ci_yml--><g class="entity" data-qualified-name="source_github_workflows_ci_yml" data-source-line="7" id="ent0002"><rect fill="#E0F2FE" height="58.1358" rx="2.5" ry="2.5" style="stroke:#181818;stroke-width:0.5;" width="182.6234" x="64.45" y="2436.7079"/><text fill="#000000" font-family="Monospace" font-size="14" lengthAdjust="spacing" textLength="162.6234" x="74.45" y="2461.6739">.github/workflows/ci.yml</text><text fill="#000000" font-family="Monospace" font-size="14" lengthAdjust="spacing" textLength="105.3356" x="74.45" y="2480.7418">4&#160;detected&#160;tools</text></g><!--entity source_scripts_archility_daily_sh--><g class="entity" data-qualified-name="source_scripts_archility_daily_sh" data-source-line="8" id="ent0003"><rect fill="#E0F2FE" height="58.1358" rx="2.5" ry="2.5" style="stroke:#181818;stroke-width:0.5;" width="174.8814" x="68.32" y="2063.7079"/><text fill="#000000" font-family="Monospace" font-size="14" lengthAdjust="spacing" textLength="154.8814" x="78.32" y="2088.6739">scripts/archility-daily.sh</text><text fill="#000000" font-family="Monospace" font-size="14" lengthAdjust="spacing" textLength="105.3356" x="78.32" y="2107.7418">6&#160;detected&#160;tools</text></g><!--entity source_scripts_archility_weekly_sh--><g class="entity" data-qualified-name="source_scripts_archility_weekly_sh" data-source-line="9" id="ent0004"><rect fill="#E0F2FE" height="58.1358" rx="2.5" ry="2.5" style="stroke:#181818;stroke-width:0.5;" width="189.0773" x="61.22" y="1970.7079"/><text fill="#000000" font-family="Monospace" font-size="14" lengthAdjust="spacing" textLength="169.0773" x="71.22" y="1995.6739">scripts/archility-weekly.sh</text><text fill="#000000" font-family="Monospace" font-size="14" lengthAdjust="spacing" textLength="105.3356" x="71.22" y="2014.7418">6&#160;detected&#160;tools</text></g><!--entity source_scripts_install_archility_daily_systemd_sh--><g class="entity" data-qualified-name="source_scripts_install_archility_daily_systemd_sh" data-source-line="10" id="ent0005"><rect fill="#E0F2FE" height="58.1358" rx="2.5" ry="2.5" style="stroke:#181818;stroke-width:0.5;" width="283.325" x="14.1" y="252.7079"/><text fill="#000000" font-family="Monospace" font-size="14" lengthAdjust="spacing" textLength="263.325" x="24.1" y="277.6739">scripts/install_archility_daily_systemd.sh</text><text fill="#000000" font-family="Monospace" font-size="14" lengthAdjust="spacing" textLength="105.3356" x="24.1" y="296.7418">2&#160;detected&#160;tools</text></g><!--entity source_scripts_install_archility_weekly_systemd_sh--><g class="entity" data-qualified-name="source_scripts_install_archility_weekly_systemd_sh" data-source-line="11" id="ent0006"><rect fill="#E0F2FE" height="58.1358" rx="2.5" ry="2.5" style="stroke:#181818;stroke-width:0.5;" width="297.5209" x="7" y="345.7079"/><text fill="#000000" font-family="Monospace" font-size="14" lengthAdjust="spacing" textLength="277.5209" x="17" y="370.6739">scripts/install_archility_weekly_systemd.sh</text><text fill="#000000" font-family="Monospace" font-size="14" lengthAdjust="spacing" textLength="105.3356" x="17" y="389.7418">2&#160;detected&#160;tools</text></g><!--entity source_scripts_install_portfolio_audit_systemd_sh--><g class="entity" data-qualified-name="source_scripts_install_portfolio_audit_systemd_sh" data-source-line="12" id="ent0007"><rect fill="#E0F2FE" height="58.1358" rx="2.5" ry="2.5" style="stroke:#181818;stroke-width:0.5;" width="291.137" x="10.19" y="438.7079"/><text fill="#000000" font-family="Monospace" font-size="14" lengthAdjust="spacing" textLength="271.137" x="20.19" y="463.6739">scripts/install_portfolio_audit_systemd.sh</text><text fill="#000000" font-family="Monospace" font-size="14" lengthAdjust="spacing" textLength="105.3356" x="20.19" y="482.7418">2&#160;detected&#160;tools</text></g><!--entity source_scripts_portfolio_audit_sh--><g class="entity" data-qualified-name="source_scripts_portfolio_audit_sh" data-source-line="13" id="ent0008"><rect fill="#E0F2FE" height="58.1358" rx="2.5" ry="2.5" style="stroke:#181818;stroke-width:0.5;" width="182.6934" x="64.41" y="1344.7079"/><text fill="#000000" font-family="Monospace" font-size="14" lengthAdjust="spacing" textLength="162.6934" x="74.41" y="1369.6739">scripts/portfolio-audit.sh</text><text fill="#000000" font-family="Monospace" font-size="14" lengthAdjust="spacing" textLength="113.3436" x="74.41" y="1388.7418">22&#160;detected&#160;tools</text></g><!--entity source_scripts_run_tachometer_profile_sh--><g class="entity" data-qualified-name="source_scripts_run_tachometer_profile_sh" data-source-line="14" id="ent0009"><rect fill="#E0F2FE" height="58.1358" rx="2.5" ry="2.5" style="stroke:#181818;stroke-width:0.5;" width="242.2912" x="34.61" y="126.7079"/><text fill="#000000" font-family="Monospace" font-size="14" lengthAdjust="spacing" textLength="222.2912" x="44.61" y="151.6739">scripts/run_tachometer_profile.sh</text><text fill="#000000" font-family="Monospace" font-size="14" lengthAdjust="spacing" textLength="105.3356" x="44.61" y="170.7418">3&#160;detected&#160;tools</text></g><!--entity tool_editorconfig--><g class="entity" data-qualified-name="tool_editorconfig" data-source-line="15" id="ent0010"><path d="M456.6553,644.379 C459.6611,638.7568 464.9094,637.971 468.3115,643.9819 C471.2978,637.2821 476.9491,637.2827 481.3205,642.4655 C485.5041,636.9908 489.0525,636.6803 493.088,642.6183 C496.7318,636.9569 502.2865,635.2322 506.2598,642.2767 C509.1246,636.5375 514.3387,638.0975 516.9326,642.56 C522.0467,637.3593 526.2632,637.4007 529.9917,644.0828 C532.9023,637.8252 537.4849,637.6934 541.1077,643.4223 C545.6347,637.747 552.0681,637.042 555.2212,644.8595 C564.4466,647.822 563.9952,656.1384 557.5905,661.347 C563.5292,668.9504 562.6337,674.3106 553.3053,677.981 C550.1382,682.7914 546.4778,683.1027 542.4653,679.0104 C539.0338,686.7434 534.2483,686.2736 528.8214,681.1238 C526.9004,687.2873 521.8635,687.5679 518.1059,682.949 C516.3308,689.1557 510.75,690.8281 506.1035,686.101 C501.0687,691.7587 495.8527,690.1442 492.8037,683.8848 C488.2349,688.8579 482.1583,687.7884 480.0334,681.1881 C475.7041,686.4018 471.0744,684.9986 468.8438,679.0788 C464.5347,684.7615 459.8577,682.2933 457.4224,677.1095 C447.313,675.2266 446.2059,668.3467 452.2672,661.218 C445.0271,653.7291 448.0069,647.7276 456.6553,644.379" fill="#FEF3C7" style="stroke:#181818;stroke-width:0.5;"/><text fill="#000000" font-family="Monospace" font-size="14" lengthAdjust="spacing" textLength="84.0557" x="462.23" y="665.2039">.editorconfig</text></g><!--entity tool_gitignore--><g class="entity" data-qualified-name="tool_gitignore" data-source-line="16" id="ent0011"><path d="M465.8053,727.486 C469.51,720.2903 475.648,721.0133 479.8525,726.9514 C483.0829,720.7945 488.7581,722.262 491.8256,727.1283 C496.3153,721.0189 501.1064,720.6437 505.131,727.6019 C509.6034,720.6447 515.3811,721.8438 519.4585,728.0325 C522.6647,722.1674 528.2165,721.1146 532.08,727.3467 C537.1394,721.5504 541.0533,722.3647 544.1046,729.2507 C553.5107,731.3776 556.3633,736.21 552.4729,745.2789 C557.4013,754.0786 554.1337,759.6629 544.3196,760.635 C541.3269,768.5457 537.0639,769.161 531.0648,763.591 C527.1325,770.3037 522.5547,769.71 517.7335,764.5926 C515.3014,771.3709 509.7213,771.0326 505.5636,766.4392 C500.8978,772.2074 494.9555,772.784 491.5166,765.1531 C486.5209,770.4913 481.6532,770.5898 478.8779,762.9849 C473.5543,768.1566 469.8256,766.6941 467.1115,760.3245 C457.3568,759.0776 455.3288,752.5507 459.8594,744.6813 C453.5699,737.3012 455.3842,729.0877 465.8053,727.486" fill="#FEF3C7" style="stroke:#181818;stroke-width:0.5;"/><text fill="#000000" font-family="Monospace" font-size="14" lengthAdjust="spacing" textLength="64.0498" x="472.24" y="749.2039">.gitignore</text></g><!--entity tool_agents_md--><g class="entity" data-qualified-name="tool_agents_md" data-source-line="17" id="ent0012"><path d="M458.8512,811.3814 C462.8221,806.6671 467.6846,806.759 470.8673,812.3045 C474.1713,807.2729 478.787,807.4377 482.2858,812.0744 C485.6834,806.6106 490.0993,806.8595 493.8117,811.7231 C497.9126,805.8087 502.0395,806.6185 506.0621,811.8095 C509.496,806.5968 513.9298,805.0802 518.0214,811.1099 C521.3802,806.415 524.3701,806.6836 527.7917,811.0421 C531.8202,805.2897 537.459,805.0176 540.6349,811.9081 C544.5638,807.3451 547.7623,808.4118 550.8617,812.8505 C560.2022,815.9901 561.1032,823.743 553.2109,829.338 C559.56,834.586 560.2083,841.2254 551.3585,844.6327 C549.0631,850.3431 543.6661,852.308 539.6514,846.359 C536.7044,851.8982 531.6188,852.7473 527.8611,847.223 C525.2915,852.4777 521.2933,854.7179 516.711,849.3322 C513.6386,854.7374 508.2166,855.8082 504.2852,850.3112 C500.3806,854.1191 497.3029,854.6971 494.3669,849.2709 C490.7229,853.6575 485.3404,852.4938 483.1685,847.5114 C478.6987,854.3371 474.1807,853.5744 470.3524,846.9023 C465.4864,851.8341 461.76,850.875 458.2986,845.2921 C450.8396,840.5823 449.4795,835.4549 456.3236,829.01 C448.5403,822.9152 448.9656,814.9428 458.8512,811.3814" fill="#FEF3C7" style="stroke:#181818;stroke-width:0.5;"/><text fill="#000000" font-family="Monospace" font-size="14" lengthAdjust="spacing" textLength="78.4837" x="465.02" y="833.2039">AGENTS.md</text></g><!--entity tool_changelog_md--><g class="entity" data-qualified-name="tool_changelog_md" data-source-line="18" id="ent0013"><path d="M443.6772,895.9304 C447.5165,890.1659 452.0095,891.0355 455.7391,896.0531 C458.9958,890.203 462.8651,890.2422 466.9665,895.1734 C471.6152,890.1043 475.8967,890.121 479.4632,896.3685 C482.7265,889.4857 489.6353,889.4838 493.2959,895.9569 C496.1445,888.9059 501.7281,887.8146 506.4488,894.1123 C510.6432,889.3365 514.7601,889.8968 518.158,895.0514 C522.1765,889.2986 526.2449,889.6454 530.4359,894.8584 C534.2982,888.9151 537.8645,889.1915 541.7196,894.8655 C545.3839,888.6832 551.8763,889.0545 554.9373,895.497 C560.0422,888.5874 564.3953,890.6694 568.3298,896.7075 C577.7393,898.1601 581.0725,902.5769 577.1849,911.8206 C581.3868,921.0511 579.7671,927.5297 568.5093,928.9137 C564.6787,936.4703 559.8637,935.6357 554.8048,930.2104 C553.3446,936.4322 548.1173,938.6294 543.4409,933.403 C539.3008,939.589 534.7875,940.4976 529.9185,934.192 C527.0053,939.7959 521.0224,941.982 516.8843,935.5146 C514.443,942.9602 509.0965,942.7744 504.3799,937.8066 C500.558,942.5725 496.3882,943.4997 493.1786,937.1874 C487.6298,942.3983 482.5253,940.7812 479.7712,934.0497 C475.6224,939.6453 469.951,939.9074 466.9851,932.8541 C463.0749,937.4794 458.8282,937.8938 455.972,931.7738 C450.9493,938.8935 445.4622,937.7022 442.014,930.2641 C433.7661,924.9082 433.709,918.5269 440.8892,912.2099 C433.2902,906.1442 435.4666,899.2886 443.6772,895.9304" fill="#FEF3C7" style="stroke:#181818;stroke-width:0.5;"/><text fill="#000000" font-family="Monospace" font-size="14" lengthAdjust="spacing" textLength="110.6976" x="448.91" y="917.2039">CHANGELOG.md</text></g><!--entity tool_code_of_conduct_md--><g class="entity" data-qualified-name="tool_code_of_conduct_md" data-source-line="19" id="ent0014"><path d="M416.6288,979.5977 C421.1401,972.9935 426.4322,973.7978 430.2481,980.3192 C433.6707,973.3243 439.3342,974.0027 443.6292,979.3753 C447.2741,973.3933 450.7468,973.9362 454.6554,979.1148 C459.0485,973.4886 463.5181,973.3985 468.127,978.8525 C470.9893,974.0478 476.0018,972.2074 479.5618,978.1073 C484.2579,972.3844 489.4767,970.8616 493.7207,978.5834 C498.0889,973.2792 502.9376,972.5913 506.3577,979.5597 C509.0195,974.5221 513.9616,974.5719 517.0819,979.0425 C521.3466,973.1876 526.2267,973.4214 529.956,979.6146 C533.8655,972.3387 540.5464,972.2497 544.0633,979.9835 C547.7677,974.4649 551.8627,974.183 555.9877,979.5215 C559.1002,973.3789 564.9833,972.6082 568.7633,978.8319 C573.1079,975.01 577.113,974.1257 579.7161,980.6717 C583.6266,973.7534 588.7862,973.582 592.7195,980.6505 C603.3526,981.608 605.4673,989.5622 599.693,997.3651 C605.6449,1005.09 601.9477,1012.2249 592.5529,1012.8929 C589.973,1019.9539 583.8599,1019.6393 579.6553,1014.6288 C577.5338,1020.6275 571.7309,1021.1338 567.942,1016.4585 C563.9211,1023.052 559.8625,1023.4725 554.8119,1017.5377 C551.4853,1023.3373 547.5546,1024.3556 542.7703,1019.1297 C540.5316,1025.2846 535.6886,1025.5948 531.5536,1021.1333 C526.7525,1028.1837 522.1529,1026.9776 517.8633,1020.6114 C515.2787,1027.8518 510.7151,1029.1729 504.9215,1023.9412 C499.0732,1028.7365 494.5866,1027.6382 492.0283,1020.4125 C488.5933,1026.0986 483.2745,1025.654 480.8582,1019.4551 C477.2557,1026.17 471.4385,1026.4268 467.9872,1019.3144 C463.2073,1024.8033 459.5408,1024.5263 456.1588,1017.9446 C450.5764,1022.8045 446.0233,1023.6529 442.4614,1015.7723 C437.9167,1022.1241 432.5801,1021.6653 429.3291,1014.514 C425.3928,1019.5158 420.9084,1018.1664 418.8535,1012.6416 C409.636,1012.0397 405.5813,1005.8989 410.7829,997.5738 C405.3283,989.239 406.9371,983.0068 416.6288,979.5977" fill="#FEF3C7" style="stroke:#181818;stroke-width:0.5;"/><text fill="#000000" font-family="Monospace" font-size="14" lengthAdjust="spacing" textLength="161.3773" x="423.57" y="1001.2039">CODE_OF_CONDUCT.md</text></g><!--entity tool_contributing_md--><g class="entity" data-qualified-name="tool_contributing_md" data-source-line="20" id="ent0015"><path d="M433.6782,1065.2199 C436.7184,1059.6296 441.6746,1059.9169 445.3301,1064.5163 C448.6861,1059.1346 453.4735,1059.0129 457,1064.3304 C460.4216,1058.5943 464.7822,1057.1333 469.7421,1062.5771 C473.4493,1057.1524 478.4777,1057.2224 481.9219,1062.8665 C485.334,1058.1869 488.9345,1058.043 492.6172,1062.5514 C496.0712,1056.5052 500.9361,1055.8861 505.0724,1061.8434 C509.0141,1055.898 512.6507,1055.9031 516.4323,1061.9945 C521.3374,1056.0161 525.0297,1056.5707 528.4795,1063.367 C532.4804,1056.8461 536.9567,1056.6212 541.6205,1062.6742 C546.1806,1056.6309 550.2406,1057.5421 553.8578,1063.6257 C557.5408,1059.2495 562.3268,1058.4507 565.0596,1064.6337 C568.6068,1059.0712 573.3025,1058.0688 577.187,1064.2864 C586.9233,1068.6163 586.9605,1075.1279 579.0174,1081.3539 C586.3672,1087.1385 586.3198,1093.4949 577.9171,1098.254 C574.4132,1105.7696 569.3912,1106.3407 564.394,1099.6782 C560.9437,1105.2226 555.6768,1105.9406 552.4283,1099.4771 C549.8494,1106.0253 545.3767,1105.8791 541.0824,1101.2127 C538.6233,1106.2879 534.3293,1107.1151 530.3755,1102.9434 C526.2183,1109.2776 521.9182,1109.2536 517.1917,1103.5679 C513.9787,1108.731 510.5433,1110.1989 506.2223,1104.7089 C501.5699,1111.4684 495.8196,1109.9307 492.9724,1102.966 C489.2019,1108.2342 484.3174,1107.4977 481.89,1101.6295 C477.9845,1108.0256 473.0026,1106.5951 469.3403,1101.367 C464.4976,1106.8237 460.5855,1106.3159 457.1105,1099.9519 C453.008,1104.3096 449.6278,1104.3301 446.4646,1098.9274 C441.5675,1104.9317 437.3237,1103.3587 433.8087,1097.4581 C422.9131,1095.9432 420.2589,1089.3335 424.9306,1079.9325 C419.2202,1071.358 424.7225,1065.0744 433.6782,1065.2199" fill="#FEF3C7" style="stroke:#181818;stroke-width:0.5;"/><text fill="#000000" font-family="Monospace" font-size="14" lengthAdjust="spacing" textLength="129.8075" x="439.36" y="1085.2039">CONTRIBUTING.md</text></g><!--entity tool_lessonslearned_md--><g class="entity" data-qualified-name="tool_lessonslearned_md" data-source-line="21" id="ent0016"><path d="M425.9521,1149.1045 C429.3949,1143.5263 433.4871,1143.9699 437.145,1148.8749 C438.8427,1143.0002 443.821,1141.9631 447.5086,1146.9817 C451.2936,1142.2308 455.9684,1141.9155 459.3542,1147.4419 C462.095,1142.1021 467.8858,1141.4603 471.0229,1147.0175 C474.3794,1141.6098 480.1025,1141.3252 483.2263,1147.2678 C486.4318,1143.4915 490.4295,1142.9239 492.8906,1148.0737 C496.354,1142.3848 500.5472,1141.3698 505.5419,1146.2389 C509.3371,1141.2881 514.0482,1142.3564 516.0893,1147.9874 C519.1689,1142.4961 524.6328,1141.5085 528.1949,1147.4779 C531.5704,1142.1722 535.1964,1141.4537 539.4203,1146.5635 C542.7973,1141.0626 547.3856,1141.2277 550.3897,1146.9286 C555.0392,1140.2731 559.4792,1140.6337 563.6895,1147.3649 C566.7438,1143.1551 570.3867,1143.2766 573.3024,1147.5226 C576.726,1141.9971 582.4573,1142.3231 585.1988,1148.2324 C595.724,1149.3591 599.5978,1157.5147 592.4858,1165.9112 C597.0956,1174.0961 594.591,1179.6811 585.3742,1181.5976 C581.7092,1186.7713 577.2456,1186.4691 573.8652,1181.2814 C571.2284,1186.3577 565.781,1187.0817 562.7923,1181.6523 C558.7871,1187.2772 554.8157,1186.9919 551.1067,1181.3453 C548.625,1186.8005 545.0424,1186.9459 540.8826,1183.2125 C537.4149,1188.496 531.6153,1188.6414 528.4175,1182.9072 C525.2699,1187.8415 520.6917,1187.6548 517.4417,1183.0247 C513.8265,1188.5083 509.5223,1189.0545 505.753,1183.1834 C502.0568,1189.0539 497.6163,1188.3701 494.3075,1182.796 C489.9721,1187.2542 486.3846,1187.6451 483.4867,1181.3496 C479.7738,1188.3169 473.3766,1187.7366 469.8762,1181.1364 C466.6453,1186.4356 462.8689,1186.4237 459.2812,1181.5064 C455.8265,1186.8797 451.8712,1187.1015 448.6838,1181.2538 C443.8388,1188.2151 439.616,1187.4061 435.4707,1180.5832 C432.4863,1186.5496 427.1606,1185.8965 423.9758,1180.7913 C417.2541,1176.5989 415.8263,1170.1837 423.1436,1165.2401 C417.1021,1158.4146 417.1536,1153.347 425.9521,1149.1045" fill="#FEF3C7" style="stroke:#181818;stroke-width:0.5;"/><text fill="#000000" font-family="Monospace" font-size="14" lengthAdjust="spacing" textLength="146.6214" x="430.95" y="1169.2039">LESSONSLEARNED.md</text></g><!--entity tool_pull_request_template_md--><g class="entity" data-qualified-name="tool_pull_request_template_md" data-source-line="22" id="ent0017"><path d="M397.8522,1233.9106 C402.6481,1226.0137 408.6506,1224.1356 414.7829,1232.521 C419.0731,1226.2835 423.125,1225.9907 427.6855,1232.2416 C433.4047,1223.8889 438.9944,1226.0931 443.9139,1233.0871 C447.1479,1225.4743 453.4251,1222.8863 459.2782,1230.4323 C464.4457,1223.4167 470.4151,1222.6645 475.2495,1230.7838 C479.0132,1224.4085 485.8299,1223.1252 489.9696,1230.3778 C494.6544,1222.7066 502.1611,1221.1859 507.0939,1230.1222 C512.3875,1223.0466 517.5384,1222.2384 522.2076,1230.7285 C525.8112,1223.6471 532.3613,1222.9935 536.3369,1230.3649 C541.98,1223.2599 548.0446,1224.1012 551.3539,1232.6095 C555.7634,1225.6096 562.9771,1224.3553 567.6118,1232.3655 C572.5617,1224.2594 577.5263,1224.4283 583.5977,1231.1569 C588.7692,1224.9323 593.3455,1224.4531 597.2766,1232.3578 C603.3578,1224.6568 608.8605,1225.0319 613.4157,1233.8488 C621.6965,1234.701 625.4475,1241.6706 621.5417,1249.0412 C626.9234,1258.8002 623.9136,1265.8688 612.3694,1266.9671 C607.4186,1274.229 602.4678,1273.6098 598.4339,1266.102 C593.759,1274.1919 588.0612,1273.9048 582.6781,1266.8383 C578.3849,1273.9498 572.7693,1274.2299 567.5953,1267.8209 C564.3139,1276.2389 558.054,1275.4033 552.7276,1270.0247 C548.1292,1279.2005 541.003,1280.5309 534.9757,1271.4111 C530.1758,1278.3058 526.0536,1276.7589 521.4954,1271.1504 C517.4036,1278.6863 511.1264,1278.2637 506.7229,1271.4718 C502.9117,1277.9622 495.8068,1277.7493 491.7967,1271.7087 C485.5751,1278.3466 477.8534,1279.9901 473.7138,1269.5095 C470.2942,1276.5697 463.1668,1277.2566 459.0127,1270.2787 C454.061,1277.5834 446.3599,1277.7928 442.9663,1268.7493 C438.4663,1275.0962 432.4768,1275.8678 428.1951,1268.514 C422.7949,1274.1264 416.0498,1273.9078 413.4592,1265.5504 C409.0026,1273.2641 404.318,1272.2269 399.5759,1265.8313 C386.8876,1266.5353 380.3517,1261.2006 385.5136,1247.9033 C382.3081,1237.4832 388.0423,1232.8539 397.8522,1233.9106" fill="#FEF3C7" style="stroke:#181818;stroke-width:0.5;"/><text fill="#000000" font-family="Monospace" font-size="14" lengthAdjust="spacing" textLength="200.7592" x="403.88" y="1253.2039">PULL_REQUEST_TEMPLATE.md</text></g><!--entity tool_readme_md--><g class="entity" data-qualified-name="tool_readme_md" data-source-line="23" id="ent0018"><path d="M458.4102,1316.9454 C461.9687,1311.0919 466.5179,1310.7905 470.4589,1316.5485 C473.0716,1310.366 477.8608,1310.426 481.5439,1315.4937 C484.8503,1310.2196 490.4442,1310.7182 493.1203,1316.1737 C495.5385,1308.8166 501.8177,1308.592 506.0286,1314.4185 C509.9889,1308.7035 515.4084,1309.7942 517.6468,1316.0848 C522.0129,1309.8551 525.6752,1311.5275 529.5522,1316.6001 C532.0098,1310.2828 536.7006,1311.0652 540.5143,1315.1744 C544.3936,1309.9168 550.0357,1311.5889 552.1945,1317.0493 C562.2125,1319.0242 565.9221,1323.4581 560.241,1333.2367 C567.1643,1342.456 563.2791,1347.41 553.7204,1350.3488 C549.6347,1356.0801 543.9829,1355.866 540.6116,1349.5701 C537.5553,1355.4094 532.8819,1356.7366 528.4905,1350.9638 C525.4653,1356.1299 521.616,1356.3626 517.8977,1351.7117 C513.7075,1357.2285 509.6549,1357.7209 505.1307,1352.0944 C501.3044,1356.6626 497.9334,1356.9745 494.09,1352.1144 C490.162,1358.8848 485.418,1358.1925 481.5225,1352.0827 C476.3836,1358.0166 472.4248,1356.9749 468.5011,1350.7783 C464.4623,1355.5873 460.4353,1354.9381 457.5777,1349.517 C447.3929,1346.0986 447.0335,1339.2209 453.7362,1332.0817 C448.6175,1325.2379 449.9913,1319.6088 458.4102,1316.9454" fill="#FEF3C7" style="stroke:#181818;stroke-width:0.5;"/><text fill="#000000" font-family="Monospace" font-size="14" lengthAdjust="spacing" textLength="81.5917" x="463.46" y="1337.2039">README.md</text></g><!--entity tool_security_md--><g class="entity" data-qualified-name="tool_security_md" data-source-line="24" id="ent0019"><path d="M454.4783,1399.4337 C458.6463,1394.7878 463.0952,1394.1752 465.9212,1400.7966 C469.155,1393.6118 475.0161,1393.2551 479.3284,1399.7387 C482.3813,1393.9858 488.497,1393.7073 492.3553,1398.7685 C496.8517,1392.5951 501.5698,1392.8643 506.2556,1398.5464 C510.4295,1392.3837 514.2346,1392.8098 518.0573,1398.885 C521.4783,1392.8171 526.9461,1394.12 530.1373,1399.1355 C535.1435,1393.4386 541.18,1392.8902 544.8022,1400.6444 C548.6601,1393.3299 552.5851,1392.9824 557.7095,1399.4591 C568.5617,1400.3128 571.4686,1406.5597 566.3778,1415.8466 C572.6091,1424.6341 567.6851,1432.9963 557.6032,1433.8197 C553.5467,1438.8503 548.6006,1440.1114 545.0534,1433.2808 C541.2005,1440.0947 536.8562,1440.8873 531.5234,1434.8374 C527.596,1441.266 523.5813,1441.5158 519.0177,1435.4755 C514.7367,1442.1621 507.8909,1440.1581 504.9257,1434.0287 C501.7117,1440.1305 495.7672,1441.2395 492.2092,1434.3659 C488.4714,1439.4686 483.1092,1439.2715 479.9399,1433.7119 C476.3877,1440.3074 470.1165,1440.2681 466.7059,1433.5708 C462.4319,1439.5945 458.2622,1439.2587 453.6854,1433.9178 C443.995,1432.7409 439.8965,1424.5806 447.1748,1416.9086 C440.6356,1408.1863 443.41,1400.7971 454.4783,1399.4337" fill="#FEF3C7" style="stroke:#181818;stroke-width:0.5;"/><text fill="#000000" font-family="Monospace" font-size="14" lengthAdjust="spacing" textLength="89.1656" x="459.68" y="1421.2039">SECURITY.md</text></g><!--entity tool_actions_checkout--><g class="entity" data-qualified-name="tool_actions_checkout" data-source-line="25" id="ent0020"><path d="M442.7321,2323.6036 C446.5839,2317.4446 451.3265,2317.5851 455.056,2323.7262 C458.3617,2316.9632 463.3634,2318.2122 467.402,2322.9387 C472.0223,2315.7913 476.2829,2315.9161 480.9239,2322.919 C485.1987,2316.6356 489.0313,2317.6236 493.1273,2323.1045 C496.4588,2318.4186 501.6724,2318.5722 504.4526,2323.7382 C507.1508,2318.0805 513.4173,2317.5886 516.9945,2322.7161 C521.0741,2316.6788 526.3719,2316.7384 530.745,2322.3702 C535.9196,2316.9347 540.6812,2317.4348 543.5316,2324.7085 C546.5026,2318.5845 551.9829,2318.6686 555.0215,2324.6443 C558.9903,2318.8108 563.3744,2319.5678 567.3844,2324.5974 C577.0657,2327.007 578.3759,2333.1667 573.3782,2340.955 C578.8231,2349.4122 577.358,2354.5155 567.4147,2357.3885 C565.1671,2363.0599 559.8073,2363.5312 556.6314,2358.3073 C553.0444,2364.8175 546.8823,2365.4068 542.2911,2359.4636 C539.5576,2365.3661 535.5871,2366.9815 530.3571,2362.2708 C527.0762,2368.7747 522.5801,2368.5988 518.5001,2363.0573 C515.9717,2370.4965 509.4543,2370.9634 505.446,2364.4411 C500.5427,2370.8389 495.0836,2368.7632 492.5965,2362.0695 C488.6606,2368.8475 482.7389,2368.6921 479.1681,2361.7131 C474.6334,2367.2315 469.9451,2365.7529 467.2715,2359.7855 C463.3943,2364.903 458.0353,2364.5251 455.4914,2358.3898 C451.0305,2363.8529 444.8086,2364.5887 441.5471,2357.0986 C434.4491,2353.0471 433.0477,2345.0642 441.6287,2341.0927 C433.3864,2335.0645 434.3335,2328.5819 442.7321,2323.6036" fill="#FEF3C7" style="stroke:#181818;stroke-width:0.5;"/><text fill="#000000" font-family="Monospace" font-size="14" lengthAdjust="spacing" textLength="111.9156" x="448.3" y="2345.2039">actions/checkout</text></g><!--entity tool_actions_setup_python--><g class="entity" data-qualified-name="tool_actions_setup_python" data-source-line="26" id="ent0021"><path d="M428.3691,2408.7886 C430.5816,2402.7338 434.7952,2402.672 438.6139,2407.2395 C443.4776,2401.9098 447.8169,2402.5586 451.2097,2408.8357 C453.1057,2404.2463 457.9036,2402.3921 461.3596,2407.1398 C464.7191,2400.8472 468.3266,2400.9538 472.3951,2406.4776 C475.9753,2400.9911 479.713,2401.8893 483.1627,2406.6152 C487.0014,2402.2736 490.6398,2402.602 493.416,2407.7618 C496.5914,2401.9573 501.6479,2400.3045 506.3898,2405.9936 C509.4356,2401.0228 512.374,2401.0813 515.495,2405.9238 C519.8281,2400.1812 524.1561,2400.8219 527.8853,2406.5748 C531.928,2401.6374 535.7971,2402.3012 538.8586,2407.6243 C541.6271,2402.2513 546.3905,2402.9276 549.4999,2407.2501 C552.5503,2401.606 557.3518,2402.3211 560.0825,2407.5609 C564.3074,2401.9187 568.1072,2402.6022 572.1437,2407.771 C575.9354,2402.5006 580.3872,2402.814 583.5876,2408.3945 C592.7326,2411.0958 594.5641,2419.119 588.044,2425.8252 C595.0789,2433.9209 592.6316,2440.4588 582.0414,2442.0228 C578.5594,2447.6135 574.781,2447.5411 571.5967,2441.7495 C569.5518,2447.6253 564.6128,2447.2488 561.1459,2443.2552 C558.399,2449.1179 553.7712,2449.2693 549.8738,2444.4719 C546.7527,2450.5877 541.0031,2450.3233 537.9338,2444.4204 C535.5105,2449.9861 532.2816,2449.365 528.3833,2445.9974 C525.2292,2451.1305 520.6685,2451.7664 517.1569,2446.3789 C514.7821,2451.7606 509.1219,2452.2346 505.7729,2447.4721 C502.1916,2453.4957 497.6483,2453.169 493.961,2447.5798 C490.3863,2452.1587 485.1935,2452.8475 482.4966,2446.6464 C478.8468,2451.1299 474.5418,2449.6187 472.7953,2444.6856 C468.3432,2448.7163 464.6124,2448.3805 461.4581,2443.1046 C457.3218,2449.2135 453.4078,2447.9096 449.5284,2442.8306 C447.301,2447.2565 442.6723,2447.123 440.0188,2443.3232 C436.2447,2448.9986 430.6649,2448.3849 428.1662,2442.0631 C418.4293,2440.7773 414.8589,2433.6095 419.4311,2424.9989 C414.4685,2416.0828 416.9967,2408.6979 428.3691,2408.7886" fill="#FEF3C7" style="stroke:#181818;stroke-width:0.5;"/><text fill="#000000" font-family="Monospace" font-size="14" lengthAdjust="spacing" textLength="140.2795" x="434.12" y="2429.2039">actions/setup-python</text></g><!--entity tool_bug_report_md--><g class="entity" data-qualified-name="tool_bug_report_md" data-source-line="27" id="ent0022"><path d="M449.0462,1483.9478 C453.0364,1479.3542 456.2561,1480.0139 459.3156,1484.9507 C462.2017,1478.3527 466.4629,1478.9419 471.0711,1483.0621 C474.5506,1476.8695 479.2373,1478.3621 482.4667,1483.3178 C486.026,1477.4921 489.823,1476.9609 494.5145,1482.0703 C498.249,1476.677 501.5099,1476.256 505.2801,1482.036 C508.8162,1477.8951 513.5218,1477.8507 516.1577,1483.0809 C519.8959,1477.3742 525.1904,1476.2439 528.908,1483.1019 C532.2025,1478.2235 535.8278,1478.395 538.8618,1483.3653 C542.5161,1478.3719 547.9263,1476.9648 551.3127,1483.6509 C554.3481,1478.8307 559.826,1477.7605 562.9606,1483.5418 C572.1854,1487.4293 576.3311,1492.7783 568.3415,1501.7523 C573.4594,1509.1847 571.1047,1515.8721 561.589,1516.6891 C558.5207,1522.5047 554.9671,1523.4463 550.5008,1518.0746 C547.8656,1523.1887 542.8191,1524.3554 539.4496,1518.838 C535.7176,1524.0501 530.7926,1525.1307 527.3293,1518.5616 C524.6998,1523.5647 520.4547,1525.7003 516.2729,1520.1948 C513.8528,1525.0772 509.1739,1525.0522 505.9641,1521.1182 C500.8641,1527.4886 497.024,1526.7252 493.2161,1519.8725 C489.2932,1524.3171 485.6701,1524.0384 483.0239,1518.561 C480.0846,1524.1178 473.9553,1524.3349 470.4185,1519.2701 C465.7286,1524.6508 461.4018,1523.3613 459.265,1516.8712 C456.4795,1522.5456 452.0693,1521.5463 448.9136,1517.2557 C440.0564,1515.1428 436.5742,1507.7576 443.9,1500.7339 C437.2411,1493.1249 439.9493,1486.7265 449.0462,1483.9478" fill="#FEF3C7" style="stroke:#181818;stroke-width:0.5;"/><text fill="#000000" font-family="Monospace" font-size="14" lengthAdjust="spacing" textLength="99.1336" x="454.69" y="1505.2039">bug_report.md</text></g><!--entity tool_cat--><g class="entity" data-qualified-name="tool_cat" data-source-line="28" id="ent0023"><path d="M488.3682,308.252 C492.2519,298.142 499.1192,298.5469 505.8821,305.2533 C513.3659,298.561 517.7246,301.4205 521.3338,309.3483 C529.9492,312.5011 530.4373,317.9933 525.1319,324.6103 C531.0794,330.7674 530.7012,338.6645 521.2511,341.2252 C518.9283,351.0409 511.6467,352.0402 504.2882,346.9596 C496.4732,353.0514 491.2219,350.3264 488.8127,341.3922 C478.0525,340.1426 476.6403,334.6966 481.2637,325.9343 C475.554,317.8636 477.1007,309.5015 488.3682,308.252" fill="#FEF3C7" style="stroke:#181818;stroke-width:0.5;"/><text fill="#000000" font-family="Monospace" font-size="14" lengthAdjust="spacing" textLength="19.6279" x="494.45" y="329.2039">cat</text></g><!--entity tool_contributor_architecture_blueprint_md--><g class="entity" data-qualified-name="tool_contributor_architecture_blueprint_md" data-source-line="29" id="ent0024"><path d="M374.4104,1568.4272 C380.1114,1560.6026 385.6289,1560.4304 391.5432,1568.1928 C396.2816,1557.1236 406.9566,1557.7983 412.9241,1566.8893 C420.5663,1557.6542 426.4724,1558.8865 431.6589,1569.2382 C436.444,1560.3311 443.3999,1560.6085 448.8682,1568.54 C454.1296,1557.5219 460.8274,1557.0812 468.0902,1566.6734 C473.798,1556.7125 483.1712,1559.3595 487.697,1567.9243 C492.3195,1557.6976 500.3007,1557.7507 505.8708,1567.042 C513.6867,1558.6578 520.0155,1557.4834 525.9265,1568.965 C530.5439,1561.5365 536.238,1559.3544 542.6306,1566.9975 C548.2787,1556.8746 556.7447,1557.8198 562.4886,1566.8984 C568.9428,1558.794 578.2107,1559.2841 582.8948,1568.933 C587.8402,1561.2198 596.203,1560.5586 601.3475,1568.7012 C606.1754,1560.5045 614.1201,1560.0582 619.7178,1567.8147 C625.2897,1559.7 633.0293,1559.4834 637.6723,1568.773 C641.825,1570.594 641.8355,1574.0065 638.5176,1576.631 C642.3357,1578.3897 642.5807,1581.1091 640.0151,1584.1407 C643.9964,1587.4944 643.4156,1590.9572 638.4779,1592.7113 C641.4506,1595.8363 640.7805,1599.3565 636.8831,1601.1892 C632.5246,1610.8085 625.6462,1612.1338 618.7908,1603.6901 C612.4274,1612.6722 604.0859,1613.3335 598.4296,1602.9467 C593.2641,1611.6667 585.5242,1609.487 581.0117,1602.2347 C575.2777,1612.2847 566.9505,1612.9939 561.2072,1602.2436 C556.2068,1610.0499 548.6136,1612.8413 542.8658,1603.0212 C539.2283,1611.9702 530.8623,1611.0222 526.0166,1604.322 C520.3109,1614.3896 512.0965,1612.6546 506.4366,1604.2735 C500.8562,1615.2451 491.7717,1614.4705 485.9826,1604.4772 C481.7455,1611.0175 473.7002,1610.7319 469.8774,1603.9755 C464.4046,1613.8436 455.0253,1614.4222 449.1806,1604.3617 C442.0601,1612.0691 435.1108,1613.8801 429.0462,1603.2052 C425.3015,1611.7641 418.017,1611.4248 413.5062,1603.9475 C406.7302,1611.7645 398.0312,1609.8645 394.0164,1600.7661 C388.7215,1611.3241 381.9866,1611.9038 374.0583,1603.5444 C362.349,1604.4009 359.6495,1596.2972 363.6777,1587.1742 C357.5497,1576.5065 362.8288,1568.9561 374.4104,1568.4272" fill="#FEF3C7" style="stroke:#181818;stroke-width:0.5;"/><text fill="#000000" font-family="Monospace" font-size="14" lengthAdjust="spacing" textLength="249.479" x="379.52" y="1589.2039">contributor-architecture-blueprint.md</text></g><!--entity tool_feature_request_md--><g class="entity" data-qualified-name="tool_feature_request_md" data-source-line="30" id="ent0025"><path d="M433.8412,1652.2745 C436.8472,1645.9333 440.5619,1646.9842 444.675,1651.1309 C449.0343,1645.4542 454.2072,1645.622 458.338,1651.4034 C461.3495,1646.5738 465.9654,1646.3214 469.5347,1650.7271 C473.1318,1644.6358 478.6433,1645.1172 481.8381,1651.1359 C485.6242,1644.9857 488.9904,1644.8808 493.0574,1650.8765 C497.1415,1645.1878 502.2526,1644.4166 506.1285,1651.0965 C509.8864,1645.8659 514.5857,1645.2899 518.2324,1651.2171 C521.9881,1646.5476 526.026,1645.4715 529.7097,1651.2958 C532.914,1647.0417 537.9002,1647.4509 540.3146,1652.2239 C544.3238,1646.1717 548.448,1646.1417 552.4858,1652.1953 C556.0952,1645.5982 561.4361,1646.4151 564.7598,1652.4725 C567.9614,1646.1956 573.1777,1646.0609 577.284,1651.5059 C586.5005,1655.6004 588.7663,1660.875 582.8559,1669.622 C588.8437,1676.6402 585.2631,1683.3126 576.9303,1684.7044 C574.0034,1690.8316 569.127,1691.2431 564.5954,1686.5304 C561.5366,1690.7914 556.5383,1690.9285 553.7356,1686.2203 C551.2512,1693.4641 545.0849,1694.122 540.9503,1687.7724 C537.2131,1694.1178 532.655,1694.0379 529.0243,1687.6725 C527.1768,1693.5244 521.7764,1694.7272 518.0268,1689.5731 C515.325,1696.2576 509.4261,1695.6124 505.9058,1690.4076 C501.7024,1695.7918 494.9832,1695.9578 492.4931,1688.6035 C489.1795,1694.0096 484.4132,1694.0825 481.7278,1688.0142 C477.9424,1692.7075 474.2404,1693.881 470.3187,1688.1636 C465.8205,1694.1232 460.3994,1694.5994 456.2648,1687.7642 C452.4376,1692.8836 447.819,1692.0006 445.0322,1686.6483 C440.4669,1691.719 436.5902,1690.7509 433.2563,1685.2735 C425.0951,1681.5494 422.7747,1674.2213 431.4169,1668.639 C425.6217,1662.3974 424.4887,1656.2721 433.8412,1652.2745" fill="#FEF3C7" style="stroke:#181818;stroke-width:0.5;"/><text fill="#000000" font-family="Monospace" font-size="14" lengthAdjust="spacing" textLength="130.2135" x="439.15" y="1673.2039">feature_request.md</text></g><!--entity tool_ln--><g class="entity" data-qualified-name="tool_ln" data-source-line="31" id="ent0026"><path d="M492.5732,1820.8183 C494.3869,1813.6382 500.0391,1812.3976 504.9055,1817.8346 C511.0942,1811.3069 515.9075,1813.0413 518.6682,1821.0746 C526.5389,1825.6062 525.798,1831.3229 519.2263,1836.3811 C526.15,1841.1308 525.859,1848.3434 518.5913,1852.5352 C517.8636,1862.7335 513.1813,1864.9662 504.4647,1859.9556 C498.6419,1863.8234 492.3239,1862.002 492.2398,1854.0302 C480.4652,1853.28 476.5057,1845.4309 484.0202,1835.9241 C480.1509,1827.7526 483.2608,1821.5263 492.5732,1820.8183" fill="#FEF3C7" style="stroke:#181818;stroke-width:0.5;"/><text fill="#000000" font-family="Monospace" font-size="14" lengthAdjust="spacing" textLength="12.2639" x="498.13" y="1841.2039">ln</text></g><!--entity tool_log--><g class="entity" data-qualified-name="tool_log" data-source-line="32" id="ent0027"><path d="M488.2012,1903.3066 C492.5257,1895.7082 499.9604,1894.2494 505.3951,1902.0686 C512.7804,1893.9907 518.8645,1895.9349 523.1305,1905.2494 C532.5019,1906.5015 536.5619,1911.3941 531.727,1920.6012 C537.8178,1930.3279 532.1444,1936.752 522.2561,1937.5496 C519.3691,1947.4916 513.7022,1949.857 505.3433,1943.0874 C497.0466,1950.1651 489.2634,1946.2653 487.2946,1936.3617 C479.482,1932.083 477.05,1927.4608 484.5587,1920.5339 C477.4908,1913.3159 478.3757,1906.9528 488.2012,1903.3066" fill="#FEF3C7" style="stroke:#181818;stroke-width:0.5;"/><text fill="#000000" font-family="Monospace" font-size="14" lengthAdjust="spacing" textLength="20.6919" x="493.91" y="1925.2039">log</text></g><!--entity tool_mapfile--><g class="entity" data-qualified-name="tool_mapfile" data-source-line="33" id="ent0028"><path d="M473.5343,1988.3965 C478.1922,1979.4847 485.7885,1979.8478 490.3699,1988.4699 C494.3145,1981.23 499.6431,1981.8983 504.2789,1987.7349 C510.0768,1979.8136 516.5012,1980.8259 521.9171,1988.1761 C526.4748,1980.1445 532.9839,1980.7495 536.9984,1988.689 C547.8873,1989.2079 549.7931,1995.1788 545.7496,2004.1498 C551.3303,2013.8594 548.71,2020.5287 536.8756,2021.1451 C534.5513,2029.6298 526.7427,2029.8856 521.4481,2024.4329 C518.2765,2034.68 512.3259,2035.8206 504.6894,2028.7549 C498.3613,2034.878 493.6387,2034.1588 489.4705,2026.3888 C481.7991,2031.5572 476.3629,2031.049 473.1242,2021.4742 C463.4267,2018.3785 461.0098,2012.6391 468.6729,2004.8851 C463.0815,1998.0514 463.3964,1990.5927 473.5343,1988.3965" fill="#FEF3C7" style="stroke:#181818;stroke-width:0.5;"/><text fill="#000000" font-family="Monospace" font-size="14" lengthAdjust="spacing" textLength="49.4898" x="479.52" y="2009.2039">mapfile</text></g><!--entity tool_mkdir--><g class="entity" data-qualified-name="tool_mkdir" data-source-line="34" id="ent0029"><path d="M479.2913,2071.7953 C483.1159,2065.9592 488.4433,2065.9581 491.7687,2072.3065 C495.2958,2065.4431 500.8626,2065.7206 505.5947,2070.9261 C509.5326,2064.8931 513.7804,2065.4172 518.0756,2070.5259 C522.4227,2065.1838 527.6754,2064.7413 530.7807,2071.7984 C543.3844,2072.018 545.9208,2079.2073 541.5245,2089.6553 C546.1129,2098.4085 540.6185,2104.839 531.7093,2104.9043 C528.7707,2111.1677 524.8979,2113.4213 519.0534,2108.071 C516.2057,2114.7574 510.0146,2116.4015 504.6939,2111.0114 C499.2632,2115.5293 495.3774,2113.3775 493.305,2107.3757 C487.6231,2114.5977 481.2104,2112.6197 478.1583,2104.7384 C468.8084,2102.6754 464.4333,2098.1798 470.2915,2088.6708 C464.8352,2078.2365 469.0996,2073.8844 479.2913,2071.7953" fill="#FEF3C7" style="stroke:#181818;stroke-width:0.5;"/><text fill="#000000" font-family="Monospace" font-size="14" lengthAdjust="spacing" textLength="38.5699" x="484.98" y="2093.2039">mkdir</text></g><!--entity tool_pip--><g class="entity" data-qualified-name="tool_pip" data-source-line="35" id="ent0030"><path d="M488.1312,2491.3066 C492.4755,2483.6787 499.9407,2482.2161 505.3951,2490.0686 C512.8031,2481.9547 518.9118,2483.9022 523.2005,2493.2494 C532.5719,2494.5015 536.6319,2499.3941 531.797,2508.6012 C537.8878,2518.3279 532.2144,2524.752 522.3261,2525.5496 C519.4161,2535.5252 513.7252,2537.8925 505.3433,2531.0874 C497.0273,2538.1997 489.2126,2534.2965 487.2246,2524.3617 C479.412,2520.083 476.98,2515.4608 484.4887,2508.5339 C477.4208,2501.3159 478.3057,2494.9528 488.1312,2491.3066" fill="#FEF3C7" style="stroke:#181818;stroke-width:0.5;"/><text fill="#000000" font-family="Monospace" font-size="14" lengthAdjust="spacing" textLength="20.8319" x="493.84" y="2513.2039">pip</text></g><!--entity tool_pre_commit--><g class="entity" data-qualified-name="tool_pre_commit" data-source-line="36" id="ent0031"><path d="M460.4172,2575.6907 C463.2031,2570.5944 467.779,2570.9561 470.5229,2575.7338 C474.6171,2569.4865 479.9835,2570.916 483.4536,2576.4206 C486.787,2570.9108 490.0573,2570.4829 493.8143,2576.0235 C496.7195,2569.0959 501.2897,2569.06 506.0378,2574.1488 C509.8656,2568.8867 514.2772,2570.9919 516.5708,2575.7599 C519.7178,2570.6092 523.7637,2570.3945 527.299,2575.3474 C531.1536,2569.4826 536.076,2570.608 539.1561,2576.1523 C542.2373,2570.4244 546.8981,2571.7286 549.8863,2576.2497 C558.1148,2580.061 558.7961,2587.0747 551.6336,2592.5371 C559.654,2597.5006 559.135,2603.1823 551.8024,2608.3101 C548.606,2613.7326 544.3013,2614.475 540.3597,2609.0998 C537.6879,2615.7881 532.6086,2616.0445 528.081,2611.0502 C524.0997,2616.4565 520.768,2615.7176 517.0346,2610.7852 C514.615,2616.4961 509.3288,2616.6378 506.3136,2611.3666 C502.8917,2616.1221 497.7744,2616.5412 494.6458,2611.0332 C490.6078,2614.8305 485.8795,2615.1152 483.7336,2608.959 C480.7216,2616.001 474.5641,2615.2354 470.5127,2610.0863 C466.9568,2614.583 461.3087,2614.2198 458.9447,2608.7087 C450.1379,2607.5597 447.1825,2599.3143 452.0587,2592.3911 C447.3421,2582.9882 448.7616,2576.8994 460.4172,2575.6907" fill="#FEF3C7" style="stroke:#181818;stroke-width:0.5;"/><text fill="#000000" font-family="Monospace" font-size="14" lengthAdjust="spacing" textLength="76.8317" x="465.84" y="2597.2039">pre-commit</text></g><!--entity tool_repo_architecture_drawio--><g class="entity" data-qualified-name="tool_repo_architecture_drawio" data-source-line="37" id="ent0032"><path d="M415.8162,1736.198 C419.2712,1728.8736 425.5936,1729.3771 429.7278,1735.495 C433.8142,1728.8187 439.5683,1729.736 442.6687,1736.448 C445.6274,1730.0697 451.9795,1729.0867 455.7521,1735.6235 C459.8247,1730.2383 463.5337,1730.8446 467.3508,1735.9071 C470.4364,1729.8134 475.8602,1729.137 480.5482,1733.9721 C485.7699,1728.2602 490.2496,1728.2086 493.8914,1735.5831 C497.0165,1728.3562 502.0243,1728.7102 506.6017,1734.1228 C510.6221,1727.7432 515.7803,1728.9529 518.8367,1735.0669 C522.695,1730.1713 527.6628,1729.2177 530.6643,1735.9391 C535.203,1730.0867 539.7453,1729.2105 544.6522,1735.5154 C548.2823,1730.5614 551.85,1730.2996 555.7351,1735.2295 C559.4373,1730.4897 565.3546,1730.7858 567.8461,1736.6165 C571.6345,1730.8307 576.727,1730.5819 580.8264,1736.2644 C584.1489,1730.0108 590.5587,1729.5124 594.2519,1735.8698 C602.7458,1740.2333 605.277,1747.2129 596.4471,1753.7083 C604.7363,1758.4126 603.9879,1765.5643 595.6025,1769.3694 C592.3106,1775.6309 585.6387,1776.0697 581.6435,1770.1772 C578.4644,1776.5205 574.5175,1776.5598 569.5368,1772.2185 C565.4889,1777.8279 560.4705,1778.2208 556.2369,1772.4353 C552.8007,1778.4619 548.9749,1778.0855 544.6227,1773.4313 C541.2999,1780.4393 536.0327,1782.3776 530.1492,1776.2537 C526.36,1783.4231 521.9207,1783.6997 517.1975,1777.1345 C512.9533,1783.7029 508.8024,1783.7732 504.4271,1777.2626 C500.6481,1782.2745 496.1525,1783.3459 492.7781,1776.853 C488.1856,1782.6876 482.6348,1781.7445 480.2931,1774.6752 C475.923,1781.2799 469.8391,1780.4184 466.2135,1773.8778 C461.2899,1778.6605 456.8549,1777.8699 453.5022,1772.0027 C449.6851,1777.5668 444.7504,1776.3053 442.2789,1770.656 C438.2993,1776.5303 433.3343,1777.0617 428.9674,1771.0914 C425.4723,1776.4255 419.023,1776.3288 415.9394,1770.6066 C405.3569,1765.715 405.7807,1758.4453 414.4935,1752.0502 C407.2618,1746.4053 406.9758,1740.5019 415.8162,1736.198" fill="#FEF3C7" style="stroke:#181818;stroke-width:0.5;"/><text fill="#000000" font-family="Monospace" font-size="14" lengthAdjust="spacing" textLength="164.0234" x="422.25" y="1757.2039">repo-architecture.drawio</text></g><!--entity tool_repo_architecture_puml--><g class="entity" data-qualified-name="tool_repo_architecture_puml" data-source-line="38" id="ent0033"><path d="M421.3338,475.9204 C425.5925,469.9069 430.5516,469.9512 434.135,476.6029 C437.2704,470.2749 441.7062,470.5334 445.8196,475.6001 C449.5691,469.6577 454.886,470.8144 457.6368,476.6059 C460.8836,469.9902 465.9063,470.7493 469.9765,475.7296 C473.0227,471.0014 476.6944,470.6306 480.578,474.7232 C484.2636,469.054 489.8064,468.4122 493.3017,474.922 C496.3863,468.7028 501.9672,467.7001 506.1921,473.7213 C510.1656,468.3635 515.0324,468.9013 517.2253,475.3809 C520.8327,470.117 524.5933,469.0878 529.097,474.3721 C532.7961,468.3651 537.93,469.5282 540.745,475.25 C545.6777,469.4164 549.6877,469.2359 553.5352,476.3243 C555.9112,470.1906 561.0851,471.1999 564.3848,475.3496 C568.188,469.1256 574.6188,470.1411 577.7307,476.1065 C580.3179,471.5117 584.999,470.7103 587.811,475.8743 C596.4199,480.5141 598.5552,485.7253 590.6507,493.089 C599.361,498.3354 598.0071,506.5871 588.895,509.981 C585.4973,515.6824 579.6111,515.6641 577.0814,509.1422 C573.4271,515.4502 569.9052,516.2031 565.2549,510.0904 C562.0086,516.0171 556.0015,515.6707 552.6707,510.1835 C550.334,516.4602 544.2396,516.9099 540.1805,512.129 C537.3101,516.3942 532.7463,515.9748 530.1967,511.7518 C525.8426,517.4099 521.8663,518.4408 517.6448,511.6184 C514.3491,516.8743 509.9961,516.753 506.0998,512.3352 C501.7526,518.1299 497.7483,517.5941 494.0038,511.711 C491.219,518.2721 485.2106,518.2459 481.697,512.4359 C477.3573,518.0652 473.8282,517.2576 470.4213,511.5113 C466.553,517.1922 460.802,517.1917 457.2327,511.1743 C453.7049,515.8964 450.4039,516.939 446.4373,511.6473 C440.8527,516.5142 436.6763,515.994 433.2405,509.2128 C429.5687,514.5901 425.2548,515.1439 421.1908,509.6473 C411.4289,507.9792 408.5224,500.7569 414.6299,492.8794 C408.5845,483.7706 410.6316,478.4088 421.3338,475.9204" fill="#FEF3C7" style="stroke:#181818;stroke-width:0.5;"/><text fill="#000000" font-family="Monospace" font-size="14" lengthAdjust="spacing" textLength="152.6554" x="427.93" y="497.2039">repo-architecture.puml</text></g><!--entity tool_run--><g class="entity" data-qualified-name="tool_run" data-source-line="39" id="ent0034"><path d="M485.9302,56.8706 C490.8018,47.7293 499.1048,46.1296 506.1651,54.3143 C512.0287,46.5504 520.3535,48.2883 523.7527,56.9525 C533.3423,57.6613 539.0316,62.4144 533.5444,72.5737 C538.7785,82.0202 535.2765,87.44 524.903,88.3228 C524.6646,101.0475 518.3331,106.0421 506.3397,99.8709 C495.433,104.9036 488.2706,103.4176 487.5702,89.6703 C477.9093,88.8356 474.1211,80.744 479.4739,72.7327 C474.4185,64.6057 476.8347,59.2377 485.9302,56.8706" fill="#FEF3C7" style="stroke:#181818;stroke-width:0.5;"/><text fill="#000000" font-family="Monospace" font-size="14" lengthAdjust="spacing" textLength="23.0859" x="492.72" y="77.2039">run</text></g><!--entity tool_sort--><g class="entity" data-qualified-name="tool_sort" data-source-line="40" id="ent0035"><path d="M486.2872,2155.616 C491.0501,2145.5488 497.7273,2146.8733 504.4371,2153.4991 C512.3091,2143.834 521.4598,2147.1962 526.136,2157.0515 C534.3656,2160.5952 535.4839,2166.3803 528.9293,2172.5828 C535.2394,2179.2765 534.0998,2186.0219 525.878,2190.1984 C523.5284,2202.3186 514.288,2204.1349 505.2696,2197.5431 C495.3003,2204.4794 486.8844,2199.5221 484.8783,2188.5007 C475.9834,2184.0942 476.4423,2176.0306 485.1688,2171.9331 C478.7931,2166.7172 478.4405,2159.857 486.2872,2155.616" fill="#FEF3C7" style="stroke:#181818;stroke-width:0.5;"/><text fill="#000000" font-family="Monospace" font-size="14" lengthAdjust="spacing" textLength="26.0119" x="491.25" y="2177.2039">sort</text></g><!--entity tool_summarize--><g class="entity" data-qualified-name="tool_summarize" data-source-line="41" id="ent0036"><path d="M461.7962,139.7082 C466.9905,132.088 472.2279,133.6617 476.6554,140.4963 C480.2719,133.3452 485.9794,133.5795 490.0602,140.0389 C494.8942,132.5754 499.6609,131.3054 505.8659,138.5673 C509.9267,131.1997 517.0265,131.4657 520.6506,139.0007 C525.2351,132.1413 532.1265,132.4184 535.3424,140.3593 C538.9789,134.5447 545.679,133.9823 548.8417,140.8631 C558.2094,140.9338 562.3194,148.7506 557.2293,156.5512 C563.1739,165.1643 559.5013,171.1668 549.9064,172.7589 C546.1244,180.6105 538.5345,180.5184 533.6162,174.0518 C530.3099,182.1689 525.0283,181.6599 519.7695,176.0165 C516.9774,183.3974 510.0939,182.8845 506.0346,177.3659 C501.2056,182.9427 496.2355,183.9218 491.8981,176.8179 C486.3402,182.4858 480.0188,181.7947 476.9219,174.0665 C472.732,181.7863 466.2419,181.8264 462.3676,173.7753 C451.8076,172.9199 449.8751,163.6176 455.3171,156.3045 C450.0033,149.1206 451.0692,140.6298 461.7962,139.7082" fill="#FEF3C7" style="stroke:#181818;stroke-width:0.5;"/><text fill="#000000" font-family="Monospace" font-size="14" lengthAdjust="spacing" textLength="73.2617" x="467.63" y="161.2039">summarize</text></g><!--entity tool_systemctl--><g class="entity" data-qualified-name="tool_systemctl" data-source-line="42" id="ent0037"><path d="M466.4243,391.5034 C469.8648,385.5846 476.3893,384.9028 479.49,391.8483 C483.2316,385.1376 488.2685,385.0609 492.8023,391.0155 C496.8341,384.7684 501.3724,385.261 505.8176,390.549 C509.3615,384.5149 513.0275,385.0977 516.9713,390.1466 C521.9321,383.4873 526.4037,384.4481 530.2166,391.2741 C533.804,385.9137 540.0425,385.006 543.0965,391.8375 C551.7928,394.5702 554.7891,402.7776 548.3098,409.8922 C553.6452,415.6969 551.862,422.4789 544.2804,424.7899 C541.711,433.3285 536.1783,433.9996 529.871,428.675 C527.2089,434.2751 523.0698,435.0227 518.4165,431.0601 C515.5541,437.6831 510.2362,439.6756 505.2894,433.1395 C499.848,438.7097 495.4152,437.3814 492.9195,430.2669 C488.5227,435.5605 482.8029,435.9354 479.8861,428.7244 C474.9675,432.7936 470.548,433.5231 467.9884,426.25 C457.2243,423.1317 457.0823,417.2642 462.9576,409.2282 C456.1774,401.97 456.4647,395.4875 466.4243,391.5034" fill="#FEF3C7" style="stroke:#181818;stroke-width:0.5;"/><text fill="#000000" font-family="Monospace" font-size="14" lengthAdjust="spacing" textLength="61.9778" x="473.27" y="413.2039">systemctl</text></g><!--entity tool_tachometer--><g class="entity" data-qualified-name="tool_tachometer" data-source-line="43" id="ent0038"><path d="M460.6072,223.6907 C463.3807,218.6174 467.936,218.9775 470.6674,223.7338 C474.7484,217.5092 480.0957,218.9347 483.5526,224.4206 C486.8705,218.9344 490.1263,218.5078 493.8678,224.0235 C496.7586,217.1195 501.3121,217.0811 506.0458,222.1488 C509.8608,216.9114 514.2524,219.0105 516.5333,223.7599 C519.6661,218.6305 523.6949,218.416 527.216,223.3474 C531.0574,217.506 535.9607,218.6284 539.0276,224.1523 C542.096,218.4488 546.7369,219.7477 549.7123,224.2497 C557.9408,228.061 558.6221,235.0747 551.4596,240.5371 C559.48,245.5006 558.961,251.1823 551.6284,256.3101 C548.4461,261.712 544.1587,262.4527 540.2312,257.0998 C537.5729,263.7654 532.5121,264.0238 527.998,259.0502 C524.0325,264.4338 520.7146,263.6977 516.9971,258.7852 C514.5891,264.4725 509.3253,264.6148 506.3216,259.3666 C502.9125,264.1032 497.815,264.5201 494.6993,259.0332 C490.6747,262.8121 485.9651,263.0921 483.8326,256.959 C480.833,263.9778 474.6963,263.2166 470.6572,258.0863 C467.1131,262.5639 461.487,262.1996 459.1347,256.7087 C450.3279,255.5597 447.3725,247.3143 452.2487,240.3911 C447.5321,230.9882 448.9516,224.8994 460.6072,223.6907" fill="#FEF3C7" style="stroke:#181818;stroke-width:0.5;"/><text fill="#000000" font-family="Monospace" font-size="14" lengthAdjust="spacing" textLength="76.4677" x="466.03" y="245.2039">tachometer</text></g><!--entity tool_tee--><g class="entity" data-qualified-name="tool_tee" data-source-line="44" id="ent0039"><path d="M488.1312,2239.3066 C492.4774,2231.6758 499.9457,2230.2128 505.4021,2238.0686 C512.8124,2229.9511 518.9235,2231.8989 523.2145,2241.2494 C532.5859,2242.5015 536.6459,2247.3941 531.811,2256.6012 C537.9018,2266.3279 532.2284,2272.752 522.3401,2273.5496 C519.4278,2283.5286 513.7345,2285.8961 505.3503,2279.0874 C497.0324,2286.2031 489.2146,2282.2997 487.2246,2272.3617 C479.412,2268.083 476.98,2263.4608 484.4887,2256.5339 C477.4208,2249.3159 478.3057,2242.9528 488.1312,2239.3066" fill="#FEF3C7" style="stroke:#181818;stroke-width:0.5;"/><text fill="#000000" font-family="Monospace" font-size="14" lengthAdjust="spacing" textLength="20.8459" x="493.84" y="2261.2039">tee</text></g><!--entity tool_warn--><g class="entity" data-qualified-name="tool_warn" data-source-line="45" id="ent0040"><path d="M480.8582,559.5985 C485.0207,553.7415 489.8307,553.5806 493.6612,559.9462 C496.7576,553.7789 502.2093,552.8574 506.282,558.9404 C509.1044,554.3998 514.2094,553.2072 517.1998,558.7586 C521.2346,553.3141 526.4396,553.7731 529.4804,559.8208 C540.3488,561.9442 539.8995,571.3509 533.8524,577.6275 C540.3048,584.3504 537.8668,590.4418 529.3484,592.6874 C527.5011,598.2743 522.19,599.822 517.8605,595.5921 C514.8295,601.9238 510.2226,602.7408 505.6143,597.2221 C501.5616,602.7837 495.2105,602.8212 492.4465,595.8664 C487.6781,599.8015 482.99,598.2836 480.825,592.6909 C470.5063,592.2708 467.731,583.5091 472.8057,575.7866 C467.0228,567.833 470.1248,559.3363 480.8582,559.5985" fill="#FEF3C7" style="stroke:#181818;stroke-width:0.5;"/><text fill="#000000" font-family="Monospace" font-size="14" lengthAdjust="spacing" textLength="33.2919" x="487.61" y="581.2039">warn</text></g><g class="entity" data-qualified-name="toolingGraphSummary" data-source-line="94" id="ent0088"><path d="M52,46.0679 L52,91.4799 L259.5112,91.4799 L259.5112,56.0679 L249.5112,46.0679 L52,46.0679" fill="#FEFFDD" style="stroke:#181818;stroke-width:0.5;"/><path d="M249.5112,46.0679 L249.5112,56.0679 L259.5112,56.0679 L249.5112,46.0679" fill="#FEFFDD" style="stroke:#181818;stroke-width:1;"/><text fill="#000000" font-family="Monospace" font-size="13" lengthAdjust="spacing" textLength="186.5112" x="58" y="64.9649">Scanned&#160;8&#160;tooling&#160;entrypoints.</text><text fill="#000000" font-family="Monospace" font-size="13" lengthAdjust="spacing" textLength="179.2182" x="58" y="82.6709">Detected&#160;31&#160;third-party&#160;tools.</text></g><!--link source_github_workflows_ci_yml to tool_actions_checkout--><g class="link" data-entity-1="ent0002" data-entity-2="ent0020" data-link-type="dependency" data-source-line="46" id="lnk41"><path d="M185,2436.2279 C185,2398.9879 185,2339.7779 185,2339.7779 C185,2339.7779 332.92,2339.7779 427.01,2339.7779" fill="none" id="source_github_workflows_ci_yml-to-tool_actions_checkout" style="stroke:#181818;stroke-width:1;"/><polygon fill="#181818" points="433.01,2339.7779,424.01,2335.7779,428.01,2339.7779,424.01,2343.7779,433.01,2339.7779" style="stroke:#181818;stroke-width:1;"/></g><!--link source_github_workflows_ci_yml to tool_actions_setup_python--><g class="link" data-entity-1="ent0002" data-entity-2="ent0021" data-link-type="dependency" data-source-line="47" id="lnk42"><path d="M247.32,2442.5079 C300.36,2442.5079 360.71,2442.5079 412.69,2442.5079" fill="none" id="source_github_workflows_ci_yml-to-tool_actions_setup_python" style="stroke:#181818;stroke-width:1;"/><polygon fill="#181818" points="418.69,2442.5079,409.69,2438.5079,413.69,2442.5079,409.69,2446.5079,418.69,2442.5079" style="stroke:#181818;stroke-width:1;"/></g><!--link source_github_workflows_ci_yml to tool_pip--><g class="link" data-entity-1="ent0002" data-entity-2="ent0030" data-link-type="dependency" data-source-line="48" id="lnk43"><path d="M247.32,2487.1079 C324.77,2487.1079 424.57,2487.1079 472.63,2487.1079" fill="none" id="source_github_workflows_ci_yml-to-tool_pip" style="stroke:#181818;stroke-width:1;"/><polygon fill="#181818" points="478.63,2487.1079,469.63,2483.1079,473.63,2487.1079,469.63,2491.1079,478.63,2487.1079" style="stroke:#181818;stroke-width:1;"/></g><!--link source_github_workflows_ci_yml to tool_pre_commit--><g class="link" data-entity-1="ent0002" data-entity-2="ent0031" data-link-type="dependency" data-source-line="49" id="lnk44"><path d="M247.29,2490.9779 C338.47,2490.9779 465,2490.9779 465,2490.9779 C465,2490.9779 465,2531.0079 465,2560.8579" fill="none" id="source_github_workflows_ci_yml-to-tool_pre_commit" style="stroke:#181818;stroke-width:1;"/><polygon fill="#181818" points="465,2566.8579,469,2557.8579,465,2561.8579,461,2557.8579,465,2566.8579" style="stroke:#181818;stroke-width:1;"/></g><!--link source_scripts_archility_daily_sh to tool_ln--><g class="link" data-entity-1="ent0003" data-entity-2="ent0026" data-link-type="dependency" data-source-line="50" id="lnk45"><path d="M243.68,2084.5379 C263.6,2084.5379 279,2084.5379 279,2084.5379 C279,2084.5379 279,1848.0379 279,1848.0379 C279,1848.0379 420.28,1848.0379 476.66,1848.0379" fill="none" id="source_scripts_archility_daily_sh-to-tool_ln" style="stroke:#181818;stroke-width:1;"/><polygon fill="#181818" points="482.66,1848.0379,473.66,1844.0379,477.66,1848.0379,473.66,1852.0379,482.66,1848.0379" style="stroke:#181818;stroke-width:1;"/></g><!--link source_scripts_archility_daily_sh to tool_log--><g class="link" data-entity-1="ent0003" data-entity-2="ent0027" data-link-type="dependency" data-source-line="51" id="lnk46"><path d="M243.66,2091.4779 C267.57,2091.4779 287,2091.4779 287,2091.4779 C287,2091.4779 287,1927.9479 287,1927.9479 C287,1927.9479 414.93,1927.9479 472.48,1927.9479" fill="none" id="source_scripts_archility_daily_sh-to-tool_log" style="stroke:#181818;stroke-width:1;"/><polygon fill="#181818" points="478.48,1927.9479,469.48,1923.9479,473.48,1927.9479,469.48,1931.9479,478.48,1927.9479" style="stroke:#181818;stroke-width:1;"/></g><!--link source_scripts_archility_daily_sh to tool_mapfile--><g class="link" data-entity-1="ent0003" data-entity-2="ent0028" data-link-type="dependency" data-source-line="52" id="lnk47"><path d="M243.31,2098.4179 C270.74,2098.4179 294,2098.4179 294,2098.4179 C294,2098.4179 294,2021.2979 294,2021.2979 C294,2021.2979 397.21,2021.2979 458.22,2021.2979" fill="none" id="source_scripts_archility_daily_sh-to-tool_mapfile" style="stroke:#181818;stroke-width:1;"/><polygon fill="#181818" points="464.22,2021.2979,455.22,2017.2979,459.22,2021.2979,455.22,2025.2979,464.22,2021.2979" style="stroke:#181818;stroke-width:1;"/></g><!--link source_scripts_archility_daily_sh to tool_mkdir--><g class="link" data-entity-1="ent0003" data-entity-2="ent0029" data-link-type="dependency" data-source-line="53" id="lnk48"><path d="M243.25,2105.3679 C316.64,2105.3679 411.6,2105.3679 463.84,2105.3679" fill="none" id="source_scripts_archility_daily_sh-to-tool_mkdir" style="stroke:#181818;stroke-width:1;"/><polygon fill="#181818" points="469.84,2105.3679,460.84,2101.3679,464.84,2105.3679,460.84,2109.3679,469.84,2105.3679" style="stroke:#181818;stroke-width:1;"/></g><!--link source_scripts_archility_daily_sh to tool_sort--><g class="link" data-entity-1="ent0003" data-entity-2="ent0035" data-link-type="dependency" data-source-line="54" id="lnk49"><path d="M243.64,2117.0779 C346.8,2117.0779 504,2117.0779 504,2117.0779 C504,2117.0779 504,2126.5079 504,2140.9879" fill="none" id="source_scripts_archility_daily_sh-to-tool_sort" style="stroke:#181818;stroke-width:1;"/><polygon fill="#181818" points="504,2146.9879,508,2137.9879,504,2141.9879,500,2137.9879,504,2146.9879" style="stroke:#181818;stroke-width:1;"/></g><!--link source_scripts_archility_daily_sh to tool_tee--><g class="link" data-entity-1="ent0003" data-entity-2="ent0039" data-link-type="dependency" data-source-line="55" id="lnk50"><path d="M127,2122.1079 C127,2172.0079 127,2268.0379 127,2268.0379 C127,2268.0379 387.72,2268.0379 472.63,2268.0379" fill="none" id="source_scripts_archility_daily_sh-to-tool_tee" style="stroke:#181818;stroke-width:1;"/><polygon fill="#181818" points="478.63,2268.0379,469.63,2264.0379,473.63,2268.0379,469.63,2272.0379,478.63,2268.0379" style="stroke:#181818;stroke-width:1;"/></g><!--link source_scripts_archility_weekly_sh to tool_ln--><g class="link" data-entity-1="ent0004" data-entity-2="ent0026" data-link-type="dependency" data-source-line="56" id="lnk51"><path d="M195,1970.4579 C195,1923.2779 195,1835.7779 195,1835.7779 C195,1835.7779 407.13,1835.7779 477,1835.7779" fill="none" id="source_scripts_archility_weekly_sh-to-tool_ln" style="stroke:#181818;stroke-width:1;"/><polygon fill="#181818" points="483,1835.7779,474,1831.7779,478,1835.7779,474,1839.7779,483,1835.7779" style="stroke:#181818;stroke-width:1;"/></g><!--link source_scripts_archility_weekly_sh to tool_log--><g class="link" data-entity-1="ent0004" data-entity-2="ent0027" data-link-type="dependency" data-source-line="57" id="lnk52"><path d="M250.46,1974.9779 C353.58,1974.9779 504,1974.9779 504,1974.9779 C504,1974.9779 504,1965.3979 504,1950.7879" fill="none" id="source_scripts_archility_weekly_sh-to-tool_log" style="stroke:#181818;stroke-width:1;"/><polygon fill="#181818" points="504,1944.7879,500,1953.7879,504,1949.7879,508,1953.7879,504,1944.7879" style="stroke:#181818;stroke-width:1;"/></g><!--link source_scripts_archility_weekly_sh to tool_mapfile--><g class="link" data-entity-1="ent0004" data-entity-2="ent0028" data-link-type="dependency" data-source-line="58" id="lnk53"><path d="M250.53,1993.2579 C320.67,1993.2579 406.68,1993.2579 458.43,1993.2579" fill="none" id="source_scripts_archility_weekly_sh-to-tool_mapfile" style="stroke:#181818;stroke-width:1;"/><polygon fill="#181818" points="464.43,1993.2579,455.43,1989.2579,459.43,1993.2579,455.43,1997.2579,464.43,1993.2579" style="stroke:#181818;stroke-width:1;"/></g><!--link source_scripts_archility_weekly_sh to tool_mkdir--><g class="link" data-entity-1="ent0004" data-entity-2="ent0029" data-link-type="dependency" data-source-line="59" id="lnk54"><path d="M250.72,2014.2879 C259.39,2014.2879 265,2014.2879 265,2014.2879 C265,2014.2879 265,2077.5879 265,2077.5879 C265,2077.5879 397.47,2077.5879 463.73,2077.5879" fill="none" id="source_scripts_archility_weekly_sh-to-tool_mkdir" style="stroke:#181818;stroke-width:1;"/><polygon fill="#181818" points="469.73,2077.5879,460.73,2073.5879,464.73,2077.5879,460.73,2081.5879,469.73,2077.5879" style="stroke:#181818;stroke-width:1;"/></g><!--link source_scripts_archility_weekly_sh to tool_sort--><g class="link" data-entity-1="ent0004" data-entity-2="ent0035" data-link-type="dependency" data-source-line="60" id="lnk55"><path d="M250.77,2000.2679 C289.35,2000.2679 325,2000.2679 325,2000.2679 C325,2000.2679 325,2179.9479 325,2179.9479 C325,2179.9479 419.31,2179.9479 469.86,2179.9479" fill="none" id="source_scripts_archility_weekly_sh-to-tool_sort" style="stroke:#181818;stroke-width:1;"/><polygon fill="#181818" points="475.86,2179.9479,466.86,2175.9479,470.86,2179.9479,466.86,2183.9479,475.86,2179.9479" style="stroke:#181818;stroke-width:1;"/></g><!--link source_scripts_archility_weekly_sh to tool_tee--><g class="link" data-entity-1="ent0004" data-entity-2="ent0039" data-link-type="dependency" data-source-line="61" id="lnk56"><path d="M250.69,2007.2779 C284.79,2007.2779 315,2007.2779 315,2007.2779 C315,2007.2779 315,2243.5079 315,2243.5079 C315,2243.5079 420.51,2243.5079 472.34,2243.5079" fill="none" id="source_scripts_archility_weekly_sh-to-tool_tee" style="stroke:#181818;stroke-width:1;"/><polygon fill="#181818" points="478.34,2243.5079,469.34,2239.5079,473.34,2243.5079,469.34,2247.5079,478.34,2243.5079" style="stroke:#181818;stroke-width:1;"/></g><!--link source_scripts_install_archility_daily_systemd_sh to tool_cat--><g class="link" data-entity-1="ent0005" data-entity-2="ent0023" data-link-type="dependency" data-source-line="62" id="lnk57"><path d="M297.76,303.1079 C365.93,303.1079 434.93,303.1079 473.03,303.1079" fill="none" id="source_scripts_install_archility_daily_systemd_sh-to-tool_cat" style="stroke:#181818;stroke-width:1;"/><polygon fill="#181818" points="479.03,303.1079,470.03,299.1079,474.03,303.1079,470.03,307.1079,479.03,303.1079" style="stroke:#181818;stroke-width:1;"/></g><!--link source_scripts_install_archility_daily_systemd_sh to tool_systemctl--><g class="link" data-entity-1="ent0005" data-entity-2="ent0037" data-link-type="dependency" data-source-line="63" id="lnk58"><path d="M297.72,306.9779 C380.6,306.9779 469,306.9779 469,306.9779 C469,306.9779 469,347.0079 469,376.8579" fill="none" id="source_scripts_install_archility_daily_systemd_sh-to-tool_systemctl" style="stroke:#181818;stroke-width:1;"/><polygon fill="#181818" points="469,382.8579,473,373.8579,469,377.8579,465,373.8579,469,382.8579" style="stroke:#181818;stroke-width:1;"/></g><!--link source_scripts_install_archility_weekly_systemd_sh to tool_cat--><g class="link" data-entity-1="ent0006" data-entity-2="ent0023" data-link-type="dependency" data-source-line="64" id="lnk59"><path d="M301,345.2579 C301,333.3879 301,322.4679 301,322.4679 C301,322.4679 419.06,322.4679 473.34,322.4679" fill="none" id="source_scripts_install_archility_weekly_systemd_sh-to-tool_cat" style="stroke:#181818;stroke-width:1;"/><polygon fill="#181818" points="479.34,322.4679,470.34,318.4679,474.34,322.4679,470.34,326.4679,479.34,322.4679" style="stroke:#181818;stroke-width:1;"/></g><!--link source_scripts_install_archility_weekly_systemd_sh to tool_systemctl--><g class="link" data-entity-1="ent0006" data-entity-2="ent0037" data-link-type="dependency" data-source-line="65" id="lnk60"><path d="M304.82,393.5379 C360.1,393.5379 412.83,393.5379 452.13,393.5379" fill="none" id="source_scripts_install_archility_weekly_systemd_sh-to-tool_systemctl" style="stroke:#181818;stroke-width:1;"/><polygon fill="#181818" points="458.13,393.5379,449.13,389.5379,453.13,393.5379,449.13,397.5379,458.13,393.5379" style="stroke:#181818;stroke-width:1;"/></g><!--link source_scripts_install_portfolio_audit_systemd_sh to tool_cat--><g class="link" data-entity-1="ent0007" data-entity-2="ent0023" data-link-type="dependency" data-source-line="66" id="lnk61"><path d="M301.61,448.2179 C331.99,448.2179 355,448.2179 355,448.2179 C355,448.2179 355,334.0879 355,334.0879 C355,334.0879 430.79,334.0879 473.28,334.0879" fill="none" id="source_scripts_install_portfolio_audit_systemd_sh-to-tool_cat" style="stroke:#181818;stroke-width:1;"/><polygon fill="#181818" points="479.28,334.0879,470.28,330.0879,474.28,334.0879,470.28,338.0879,479.28,334.0879" style="stroke:#181818;stroke-width:1;"/></g><!--link source_scripts_install_portfolio_audit_systemd_sh to tool_systemctl--><g class="link" data-entity-1="ent0007" data-entity-2="ent0037" data-link-type="dependency" data-source-line="67" id="lnk62"><path d="M301.68,457.7279 C397.04,457.7279 504,457.7279 504,457.7279 C504,457.7279 504,451.2379 504,438.7479" fill="none" id="source_scripts_install_portfolio_audit_systemd_sh-to-tool_systemctl" style="stroke:#181818;stroke-width:1;"/><polygon fill="#181818" points="504,432.7479,500,441.7479,504,437.7479,508,441.7479,504,432.7479" style="stroke:#181818;stroke-width:1;"/></g><!--link source_scripts_portfolio_audit_sh to tool_editorconfig--><g class="link" data-entity-1="ent0008" data-entity-2="ent0010" data-link-type="dependency" data-source-line="68" id="lnk63"><path d="M119,1344.4579 C119,1210.0979 119,659.7779 119,659.7779 C119,659.7779 333.68,659.7779 441,659.7779" fill="none" id="source_scripts_portfolio_audit_sh-to-tool_editorconfig" style="stroke:#181818;stroke-width:1;"/><polygon fill="#181818" points="447,659.7779,438,655.7779,442,659.7779,438,663.7779,447,659.7779" style="stroke:#181818;stroke-width:1;"/></g><!--link source_scripts_portfolio_audit_sh to tool_gitignore--><g class="link" data-entity-1="ent0008" data-entity-2="ent0011" data-link-type="dependency" data-source-line="69" id="lnk64"><path d="M137,1344.2279 C137,1219.6779 137,743.7779 137,743.7779 C137,743.7779 351.81,743.7779 451,743.7779" fill="none" id="source_scripts_portfolio_audit_sh-to-tool_gitignore" style="stroke:#181818;stroke-width:1;"/><polygon fill="#181818" points="457,743.7779,448,739.7779,452,743.7779,448,747.7779,457,743.7779" style="stroke:#181818;stroke-width:1;"/></g><!--link source_scripts_portfolio_audit_sh to tool_agents_md--><g class="link" data-entity-1="ent0008" data-entity-2="ent0012" data-link-type="dependency" data-source-line="70" id="lnk65"><path d="M156,1344.4179 C156,1231.0079 156,827.7779 156,827.7779 C156,827.7779 345.9,827.7779 443.84,827.7779" fill="none" id="source_scripts_portfolio_audit_sh-to-tool_agents_md" style="stroke:#181818;stroke-width:1;"/><polygon fill="#181818" points="449.84,827.7779,440.84,823.7779,444.84,827.7779,440.84,831.7779,449.84,827.7779" style="stroke:#181818;stroke-width:1;"/></g><!--link source_scripts_portfolio_audit_sh to tool_changelog_md--><g class="link" data-entity-1="ent0008" data-entity-2="ent0013" data-link-type="dependency" data-source-line="71" id="lnk66"><path d="M174,1344.5279 C174,1242.9679 174,911.7779 174,911.7779 C174,911.7779 330.82,911.7779 427.82,911.7779" fill="none" id="source_scripts_portfolio_audit_sh-to-tool_changelog_md" style="stroke:#181818;stroke-width:1;"/><polygon fill="#181818" points="433.82,911.7779,424.82,907.7779,428.82,911.7779,424.82,915.7779,433.82,911.7779" style="stroke:#181818;stroke-width:1;"/></g><!--link source_scripts_portfolio_audit_sh to tool_code_of_conduct_md--><g class="link" data-entity-1="ent0008" data-entity-2="ent0014" data-link-type="dependency" data-source-line="72" id="lnk67"><path d="M192,1344.4279 C192,1255.6179 192,995.7779 192,995.7779 C192,995.7779 310.66,995.7779 402.45,995.7779" fill="none" id="source_scripts_portfolio_audit_sh-to-tool_code_of_conduct_md" style="stroke:#181818;stroke-width:1;"/><polygon fill="#181818" points="408.45,995.7779,399.45,991.7779,403.45,995.7779,399.45,999.7779,408.45,995.7779" style="stroke:#181818;stroke-width:1;"/></g><!--link source_scripts_portfolio_audit_sh to tool_contributing_md--><g class="link" data-entity-1="ent0008" data-entity-2="ent0015" data-link-type="dependency" data-source-line="73" id="lnk68"><path d="M211,1344.2379 C211,1269.6879 211,1079.7779 211,1079.7779 C211,1079.7779 331.3,1079.7779 418.13,1079.7779" fill="none" id="source_scripts_portfolio_audit_sh-to-tool_contributing_md" style="stroke:#181818;stroke-width:1;"/><polygon fill="#181818" points="424.13,1079.7779,415.13,1075.7779,419.13,1079.7779,415.13,1083.7779,424.13,1079.7779" style="stroke:#181818;stroke-width:1;"/></g><!--link source_scripts_portfolio_audit_sh to tool_lessonslearned_md--><g class="link" data-entity-1="ent0008" data-entity-2="ent0016" data-link-type="dependency" data-source-line="74" id="lnk69"><path d="M229,1344.5779 C229,1286.8679 229,1163.7779 229,1163.7779 C229,1163.7779 329.18,1163.7779 409.65,1163.7779" fill="none" id="source_scripts_portfolio_audit_sh-to-tool_lessonslearned_md" style="stroke:#181818;stroke-width:1;"/><polygon fill="#181818" points="415.65,1163.7779,406.65,1159.7779,410.65,1163.7779,406.65,1167.7779,415.65,1163.7779" style="stroke:#181818;stroke-width:1;"/></g><!--link source_scripts_portfolio_audit_sh to tool_pull_request_template_md--><g class="link" data-entity-1="ent0008" data-entity-2="ent0017" data-link-type="dependency" data-source-line="75" id="lnk70"><path d="M247.53,1348.5779 C321.76,1348.5779 414,1348.5779 414,1348.5779 C414,1348.5779 414,1308.5379 414,1278.6879" fill="none" id="source_scripts_portfolio_audit_sh-to-tool_pull_request_template_md" style="stroke:#181818;stroke-width:1;"/><polygon fill="#181818" points="414,1272.6879,410,1281.6879,414,1277.6879,418,1281.6879,414,1272.6879" style="stroke:#181818;stroke-width:1;"/></g><!--link source_scripts_portfolio_audit_sh to tool_readme_md--><g class="link" data-entity-1="ent0008" data-entity-2="ent0018" data-link-type="dependency" data-source-line="76" id="lnk71"><path d="M247.32,1352.4379 C311.05,1352.4379 387.99,1352.4379 442.15,1352.4379" fill="none" id="source_scripts_portfolio_audit_sh-to-tool_readme_md" style="stroke:#181818;stroke-width:1;"/><polygon fill="#181818" points="448.15,1352.4379,439.15,1348.4379,443.15,1352.4379,439.15,1356.4379,448.15,1352.4379" style="stroke:#181818;stroke-width:1;"/></g><!--link source_scripts_portfolio_audit_sh to tool_security_md--><g class="link" data-entity-1="ent0008" data-entity-2="ent0019" data-link-type="dependency" data-source-line="77" id="lnk72"><path d="M247.32,1393.1779 C309.54,1393.1779 384.06,1393.1779 438.24,1393.1779" fill="none" id="source_scripts_portfolio_audit_sh-to-tool_security_md" style="stroke:#181818;stroke-width:1;"/><polygon fill="#181818" points="444.24,1393.1779,435.24,1389.1779,439.24,1393.1779,435.24,1397.1779,444.24,1393.1779" style="stroke:#181818;stroke-width:1;"/></g><!--link source_scripts_portfolio_audit_sh to tool_bug_report_md--><g class="link" data-entity-1="ent0008" data-entity-2="ent0022" data-link-type="dependency" data-source-line="78" id="lnk73"><path d="M221,1403.3179 C221,1440.5579 221,1499.7779 221,1499.7779 C221,1499.7779 349.65,1499.7779 433.27,1499.7779" fill="none" id="source_scripts_portfolio_audit_sh-to-tool_bug_report_md" style="stroke:#181818;stroke-width:1;"/><polygon fill="#181818" points="439.27,1499.7779,430.27,1495.7779,434.27,1499.7779,430.27,1503.7779,439.27,1499.7779" style="stroke:#181818;stroke-width:1;"/></g><!--link source_scripts_portfolio_audit_sh to tool_contributor_architecture_blueprint_md--><g class="link" data-entity-1="ent0008" data-entity-2="ent0024" data-link-type="dependency" data-source-line="79" id="lnk74"><path d="M247.34,1395.1079 C308.21,1395.1079 377,1395.1079 377,1395.1079 C377,1395.1079 377,1501.9679 377,1553.1079" fill="none" id="source_scripts_portfolio_audit_sh-to-tool_contributor_architecture_blueprint_md" style="stroke:#181818;stroke-width:1;"/><polygon fill="#181818" points="377,1559.1079,381,1550.1079,377,1554.1079,373,1550.1079,377,1559.1079" style="stroke:#181818;stroke-width:1;"/></g><!--link source_scripts_portfolio_audit_sh to tool_feature_request_md--><g class="link" data-entity-1="ent0008" data-entity-2="ent0025" data-link-type="dependency" data-source-line="80" id="lnk75"><path d="M169,1403.3079 C169,1477.8679 169,1667.7779 169,1667.7779 C169,1667.7779 318.77,1667.7779 417.96,1667.7779" fill="none" id="source_scripts_portfolio_audit_sh-to-tool_feature_request_md" style="stroke:#181818;stroke-width:1;"/><polygon fill="#181818" points="423.96,1667.7779,414.96,1663.7779,418.96,1667.7779,414.96,1671.7779,423.96,1667.7779" style="stroke:#181818;stroke-width:1;"/></g><!--link source_scripts_portfolio_audit_sh to tool_ln--><g class="link" data-entity-1="ent0008" data-entity-2="ent0026" data-link-type="dependency" data-source-line="81" id="lnk76"><path d="M117,1403.2779 C117,1503.3379 117,1823.5079 117,1823.5079 C117,1823.5079 395.7,1823.5079 476.89,1823.5079" fill="none" id="source_scripts_portfolio_audit_sh-to-tool_ln" style="stroke:#181818;stroke-width:1;"/><polygon fill="#181818" points="482.89,1823.5079,473.89,1819.5079,477.89,1823.5079,473.89,1827.5079,482.89,1823.5079" style="stroke:#181818;stroke-width:1;"/></g><!--link source_scripts_portfolio_audit_sh to tool_log--><g class="link" data-entity-1="ent0008" data-entity-2="ent0027" data-link-type="dependency" data-source-line="82" id="lnk77"><path d="M91,1403.0679 C91,1515.3079 91,1911.5979 91,1911.5979 C91,1911.5979 382.62,1911.5979 472.72,1911.5979" fill="none" id="source_scripts_portfolio_audit_sh-to-tool_log" style="stroke:#181818;stroke-width:1;"/><polygon fill="#181818" points="478.72,1911.5979,469.72,1907.5979,473.72,1911.5979,469.72,1915.5979,478.72,1911.5979" style="stroke:#181818;stroke-width:1;"/></g><!--link source_scripts_portfolio_audit_sh to tool_mapfile--><g class="link" data-entity-1="ent0008" data-entity-2="ent0028" data-link-type="dependency" data-source-line="83" id="lnk78"><path d="M247.33,1397.0379 C295.64,1397.0379 345,1397.0379 345,1397.0379 C345,1397.0379 345,1986.2479 345,1986.2479 C345,1986.2479 410.89,1986.2479 458.07,1986.2479" fill="none" id="source_scripts_portfolio_audit_sh-to-tool_mapfile" style="stroke:#181818;stroke-width:1;"/><polygon fill="#181818" points="464.07,1986.2479,455.07,1982.2479,459.07,1986.2479,455.07,1990.2479,464.07,1986.2479" style="stroke:#181818;stroke-width:1;"/></g><!--link source_scripts_portfolio_audit_sh to tool_mkdir--><g class="link" data-entity-1="ent0008" data-entity-2="ent0029" data-link-type="dependency" data-source-line="84" id="lnk79"><path d="M247.35,1400.9079 C261.76,1400.9079 272,1400.9079 272,1400.9079 C272,1400.9079 272,2070.6479 272,2070.6479 C272,2070.6479 398.7,2070.6479 463.49,2070.6479" fill="none" id="source_scripts_portfolio_audit_sh-to-tool_mkdir" style="stroke:#181818;stroke-width:1;"/><polygon fill="#181818" points="469.49,2070.6479,460.49,2066.6479,464.49,2070.6479,460.49,2074.6479,469.49,2070.6479" style="stroke:#181818;stroke-width:1;"/></g><!--link source_scripts_portfolio_audit_sh to tool_repo_architecture_drawio--><g class="link" data-entity-1="ent0008" data-entity-2="ent0032" data-link-type="dependency" data-source-line="85" id="lnk80"><path d="M143,1403.1179 C143,1491.9379 143,1751.7779 143,1751.7779 C143,1751.7779 293.97,1751.7779 400.97,1751.7779" fill="none" id="source_scripts_portfolio_audit_sh-to-tool_repo_architecture_drawio" style="stroke:#181818;stroke-width:1;"/><polygon fill="#181818" points="406.97,1751.7779,397.97,1747.7779,401.97,1751.7779,397.97,1755.7779,406.97,1751.7779" style="stroke:#181818;stroke-width:1;"/></g><!--link source_scripts_portfolio_audit_sh to tool_repo_architecture_puml--><g class="link" data-entity-1="ent0008" data-entity-2="ent0033" data-link-type="dependency" data-source-line="86" id="lnk81"><path d="M83,1344.4279 C83,1192.9379 83,506.5779 83,506.5779 C83,506.5779 282.67,506.5779 406.59,506.5779" fill="none" id="source_scripts_portfolio_audit_sh-to-tool_repo_architecture_puml" style="stroke:#181818;stroke-width:1;"/><polygon fill="#181818" points="412.59,506.5779,403.59,502.5779,407.59,506.5779,403.59,510.5779,412.59,506.5779" style="stroke:#181818;stroke-width:1;"/></g><!--link source_scripts_portfolio_audit_sh to tool_sort--><g class="link" data-entity-1="ent0008" data-entity-2="ent0035" data-link-type="dependency" data-source-line="87" id="lnk82"><path d="M247.48,1398.9779 C291.58,1398.9779 335,1398.9779 335,1398.9779 C335,1398.9779 335,2163.5979 335,2163.5979 C335,2163.5979 421.75,2163.5979 469.93,2163.5979" fill="none" id="source_scripts_portfolio_audit_sh-to-tool_sort" style="stroke:#181818;stroke-width:1;"/><polygon fill="#181818" points="475.93,2163.5979,466.93,2159.5979,470.93,2163.5979,466.93,2167.5979,475.93,2163.5979" style="stroke:#181818;stroke-width:1;"/></g><!--link source_scripts_portfolio_audit_sh to tool_tee--><g class="link" data-entity-1="ent0008" data-entity-2="ent0039" data-link-type="dependency" data-source-line="88" id="lnk83"><path d="M247.44,1373.7779 C253.94,1373.7779 258,1373.7779 258,1373.7779 C258,1373.7779 258,2255.7779 258,2255.7779 C258,2255.7779 409.15,2255.7779 472.37,2255.7779" fill="none" id="source_scripts_portfolio_audit_sh-to-tool_tee" style="stroke:#181818;stroke-width:1;"/><polygon fill="#181818" points="478.37,2255.7779,469.37,2251.7779,473.37,2255.7779,469.37,2259.7779,478.37,2255.7779" style="stroke:#181818;stroke-width:1;"/></g><!--link source_scripts_portfolio_audit_sh to tool_warn--><g class="link" data-entity-1="ent0008" data-entity-2="ent0040" data-link-type="dependency" data-source-line="89" id="lnk84"><path d="M101,1344.4279 C101,1200.4579 101,575.7779 101,575.7779 C101,575.7779 370.9,575.7779 466.28,575.7779" fill="none" id="source_scripts_portfolio_audit_sh-to-tool_warn" style="stroke:#181818;stroke-width:1;"/><polygon fill="#181818" points="472.28,575.7779,463.28,571.7779,467.28,575.7779,463.28,579.7779,472.28,575.7779" style="stroke:#181818;stroke-width:1;"/></g><!--link source_scripts_run_tachometer_profile_sh to tool_run--><g class="link" data-entity-1="ent0009" data-entity-2="ent0034" data-link-type="dependency" data-source-line="90" id="lnk85"><path d="M268,126.5179 C268,101.4479 268,69.3579 268,69.3579 C268,69.3579 409.83,69.3579 471.62,69.3579" fill="none" id="source_scripts_run_tachometer_profile_sh-to-tool_run" style="stroke:#181818;stroke-width:1;"/><polygon fill="#181818" points="477.62,69.3579,468.62,65.3579,472.62,69.3579,468.62,73.3579,477.62,69.3579" style="stroke:#181818;stroke-width:1;"/></g><!--link source_scripts_run_tachometer_profile_sh to tool_summarize--><g class="link" data-entity-1="ent0009" data-entity-2="ent0036" data-link-type="dependency" data-source-line="91" id="lnk86"><path d="M277.16,155.7779 C337.07,155.7779 400.2,155.7779 446.29,155.7779" fill="none" id="source_scripts_run_tachometer_profile_sh-to-tool_summarize" style="stroke:#181818;stroke-width:1;"/><polygon fill="#181818" points="452.29,155.7779,443.29,151.7779,447.29,155.7779,443.29,159.7779,452.29,155.7779" style="stroke:#181818;stroke-width:1;"/></g><!--link source_scripts_run_tachometer_profile_sh to tool_tachometer--><g class="link" data-entity-1="ent0009" data-entity-2="ent0038" data-link-type="dependency" data-source-line="92" id="lnk87"><path d="M156,185.3379 C156,207.4779 156,233.9779 156,233.9779 C156,233.9779 346.92,233.9779 444.61,233.9779" fill="none" id="source_scripts_run_tachometer_profile_sh-to-tool_tachometer" style="stroke:#181818;stroke-width:1;"/><polygon fill="#181818" points="450.61,233.9779,441.61,229.9779,445.61,233.9779,441.61,237.9779,450.61,233.9779" style="stroke:#181818;stroke-width:1;"/></g><?plantuml-src fLXTZ-es47tFhuZkVOPjxrPjdofH2DkLMBZbuw7IbInlOX8BntPjHuZ--ax24fp4X9XzGl6SCpECPoO733MCX4RXs531Hx7WHWaMReLWbAVXApSaLRYqwO2HlGcD21LDCnCcL96A5EW3vH8hd8SwmuaubiGzPffObeJiSS7C7FmlSKx2Dy65bZYsCR78fU24cuqvGLAbUynJPaCWAM9EaeH2cKm4DIJyCawfoOhtfwDGXpqJH_qKq_4fPp_uBn3S090aaBnW-ak8TQX5eMA2pYHKar1C4P32hz5Fys_po0wWOqMbqKzOnHbbr9n62QRiDDRP3_vhJuWF7gfvgE8XdGsBSYJay52OC_5E7CgrmOnripjfG_Aa2ljjGDWxVhopk2J_wJIQZWRc8Q6zzZ010k4YeURXD6xukPD5pHfLh7FK8M4xuNh3g88ZW-DCvE1O8Qd4dZ9IHNiU4CnDjsF6J1G9J2Q1N8I2rRAdQUMfz8diq_3hF9e_Jt-hAJ2NDEL2aIk-Fcg39o_HShiPvyaLYrFO8XhbIHix_MkoV8aMgvS6FCwWD8I9rCLOpIAqcgFfQZdRJRTDdaW84dluv4aH6oTxkLs__hdRlYvR8Sj5IzyB0ylImLj4cyrgkLb4a_KocZMOZ6WDsvWHh3X97DplkyK2hQE_Tz5cYxRHs_V5P1irNCW2UbEHVmkY3OA6b0mRul2qZYQpjoPL4PpaBkmcckxMhzj_6cXDuaALKzZ5dryuiAKp4Xz4OQpBErlGnNABgOafv4YUu4N0k-pAYixMjeVt8eKlKavB8zlhiIFV65ifmaF7VhbGeKRLzYddfr1azCuA8XNbndt_GY4RZcgu8uSzmHNcu-eQ3bis1vjPLMATca3tMsRH6SaSotA-hvYFWmxk0CB0GfMFROoaqcf6AZjsA1k8WPnQ9OSpT3vheyihQvHyd2XyfC9kMYcQLJuZxdkIHSxw_9JsZfV2AZGyjEqQ6imQ4NZg88eynuh-PrMxFkfWgrTARAmqwwCszhgkh-3hMGTDhFZmqBOVOG5T0ULJZRYZhaQZFzoZxasqftmm6JfkEBPkk-2-dgjPZ7kXHUe3_nWyBqevXJw4iYjzyD0UmG0XEgX0BdXVXHpukoLoSVfhv63q5yb1S5HfW6wkwV3M-GozNWl10wBPBuaU_jqiUZJpa2I6q6_cu13GDSdMgpwyMhVwa6e1wqEoPQmNhoDZ_TWD9Uj3xKXP7_8j4UlZerQpFYHBrFhG6khoeGBtIKKVXrsfw7Lft0ijl8RbnkBkfRZsTl-bkzNWvtoKIj2hYnmlZpwyuztH1o_bM33u5_lrUnMFi6fn-W3tQWwuCEIY9s6Pl2Wiiqtb-XHiOinXHuI_NwmXB4XraWBQNu-3sUNlYkUVGvDHbOmaLkPq_lTY712UXANt_m40?></g></svg>
