<?plantuml 1.2026.2?><svg xmlns="http://www.w3.org/2000/svg" xmlns:xlink="http://www.w3.org/1999/xlink" contentStyleType="text/css" data-diagram-type="DESCRIPTION" height="858px" preserveAspectRatio="none" style="width:456px;height:858px;background:#FFFFFF;" version="1.1" viewBox="0 0 456 858" width="456px" zoomAndPan="magnify"><title>traction-control Tooling Integrations</title><defs/><g><g class="title" data-source-line="1"><text fill="#000000" font-family="Monospace" font-size="14" font-weight="bold" lengthAdjust="spacing" textLength="255.3556" x="93.5566" y="24.9659">traction-control&#160;Tooling&#160;Integrations</text></g><!--entity source_github_workflows_ci_yml--><g class="entity" data-qualified-name="source_github_workflows_ci_yml" data-source-line="7" id="ent0002"><rect fill="#E0F2FE" height="58.1358" rx="2.5" ry="2.5" style="stroke:#181818;stroke-width:0.5;" width="182.6234" x="18.44" y="671.469"/><text fill="#000000" font-family="Monospace" font-size="14" lengthAdjust="spacing" textLength="162.6234" x="28.44" y="696.4349">.github/workflows/ci.yml</text><text fill="#000000" font-family="Monospace" font-size="14" lengthAdjust="spacing" textLength="105.3356" x="28.44" y="715.5028">4&#160;detected&#160;tools</text></g><!--entity source_scripts_archility_weekly_sh--><g class="entity" data-qualified-name="source_scripts_archility_weekly_sh" data-source-line="8" id="ent0003"><rect fill="#E0F2FE" height="58.1358" rx="2.5" ry="2.5" style="stroke:#181818;stroke-width:0.5;" width="189.0773" x="15.22" y="251.469"/><text fill="#000000" font-family="Monospace" font-size="14" lengthAdjust="spacing" textLength="169.0773" x="25.22" y="276.4349">scripts/archility-weekly.sh</text><text fill="#000000" font-family="Monospace" font-size="14" lengthAdjust="spacing" textLength="105.3356" x="25.22" y="295.5028">6&#160;detected&#160;tools</text></g><!--entity tool_actions_checkout--><g class="entity" data-qualified-name="tool_actions_checkout" data-source-line="9" id="ent0004"><path d="M297.1221,558.3647 C300.9739,552.2057 305.7165,552.3462 309.446,558.4872 C312.7517,551.7243 317.7534,552.9732 321.792,557.6997 C326.4123,550.5523 330.6729,550.6772 335.3139,557.68 C339.5887,551.3966 343.4213,552.3846 347.5173,557.8656 C350.8488,553.1796 356.0624,553.3333 358.8426,558.4993 C361.5408,552.8416 367.8073,552.3497 371.3845,557.4772 C375.4641,551.4398 380.7619,551.4994 385.135,557.1313 C390.3096,551.6958 395.0712,552.1959 397.9216,559.4696 C400.8926,553.3456 406.3729,553.4297 409.4115,559.4054 C413.3803,553.5718 417.7644,554.3289 421.7744,559.3584 C431.4557,561.7681 432.7659,567.9278 427.7682,575.7161 C433.2131,584.1733 431.748,589.2765 421.8047,592.1496 C419.5571,597.8209 414.1973,598.2922 411.0214,593.0684 C407.4344,599.5786 401.2723,600.1679 396.6811,594.2247 C393.9476,600.1271 389.9771,601.7425 384.7471,597.0319 C381.4662,603.5358 376.9701,603.3599 372.8901,597.8184 C370.3617,605.2575 363.8443,605.7245 359.836,599.2022 C354.9327,605.6 349.4736,603.5242 346.9865,596.8306 C343.0506,603.6086 337.1289,603.4531 333.5581,596.4742 C329.0234,601.9925 324.3351,600.5139 321.6615,594.5465 C317.7843,599.6641 312.4253,599.2862 309.8814,593.1509 C305.4205,598.6139 299.1986,599.3497 295.9371,591.8597 C288.8391,587.8082 287.4377,579.8253 296.0187,575.8538 C287.7764,569.8256 288.7235,563.343 297.1221,558.3647" fill="#FEF3C7" style="stroke:#181818;stroke-width:0.5;"/><text fill="#000000" font-family="Monospace" font-size="14" lengthAdjust="spacing" textLength="111.9156" x="302.69" y="579.9649">actions/checkout</text></g><!--entity tool_actions_setup_python--><g class="entity" data-qualified-name="tool_actions_setup_python" data-source-line="10" id="ent0005"><path d="M282.7591,643.5497 C284.9716,637.4948 289.1852,637.4331 293.0039,642.0005 C297.8676,636.6709 302.2069,637.3197 305.5997,643.5967 C307.4957,639.0074 312.2936,637.1531 315.7496,641.9008 C319.1091,635.6083 322.7166,635.7149 326.7851,641.2387 C330.3653,635.7521 334.103,636.6504 337.5527,641.3763 C341.3914,637.0347 345.0298,637.3631 347.806,642.5229 C350.9814,636.7183 356.0379,635.0655 360.7798,640.7546 C363.8256,635.7838 366.764,635.8423 369.885,640.6849 C374.2181,634.9422 378.5461,635.5829 382.2753,641.3359 C386.318,636.3985 390.1871,637.0623 393.2486,642.3853 C396.0171,637.0124 400.7805,637.6887 403.8899,642.0111 C406.9403,636.3671 411.7418,637.0822 414.4725,642.322 C418.6974,636.6798 422.4972,637.3632 426.5337,642.532 C430.3254,637.2617 434.7772,637.5751 437.9776,643.1556 C447.1226,645.8569 448.9541,653.88 442.434,660.5863 C449.4689,668.6819 447.0216,675.2198 436.4314,676.7838 C432.9494,682.3746 429.171,682.3022 425.9867,676.5106 C423.9418,682.3864 419.0028,682.0099 415.5359,678.0163 C412.789,683.8789 408.1612,684.0303 404.2638,679.2329 C401.1427,685.3488 395.3931,685.0843 392.3238,679.1815 C389.9005,684.7472 386.6716,684.126 382.7733,680.7585 C379.6192,685.8915 375.0585,686.5275 371.5469,681.1399 C369.1721,686.5217 363.5119,686.9957 360.1629,682.2332 C356.5816,688.2567 352.0383,687.9301 348.351,682.3409 C344.7763,686.9198 339.5835,687.6085 336.8866,681.4074 C333.2368,685.891 328.9318,684.3798 327.1853,679.4467 C322.7332,683.4773 319.0024,683.1416 315.8481,677.8657 C311.7118,683.9746 307.7978,682.6707 303.9184,677.5917 C301.691,682.0175 297.0623,681.884 294.4088,678.0842 C290.6347,683.7597 285.0549,683.146 282.5562,676.8242 C272.8193,675.5384 269.2489,668.3705 273.8211,659.76 C268.8585,650.8439 271.3867,643.459 282.7591,643.5497" fill="#FEF3C7" style="stroke:#181818;stroke-width:0.5;"/><text fill="#000000" font-family="Monospace" font-size="14" lengthAdjust="spacing" textLength="140.2795" x="288.51" y="663.9649">actions/setup-python</text></g><!--entity tool_ln--><g class="entity" data-qualified-name="tool_ln" data-source-line="11" id="ent0006"><path d="M346.9632,55.5794 C348.7769,48.3992 354.4291,47.1587 359.2955,52.5956 C365.4842,46.0679 370.2975,47.8024 373.0582,55.8357 C380.9289,60.3673 380.188,66.084 373.6163,71.1422 C380.54,75.8919 380.249,83.1045 372.9813,87.2963 C372.2536,97.4946 367.5713,99.7273 358.8547,94.7166 C353.0319,98.5845 346.7139,96.763 346.6298,88.7913 C334.8552,88.041 330.8957,80.192 338.4102,70.6851 C334.5409,62.5136 337.6508,56.2874 346.9632,55.5794" fill="#FEF3C7" style="stroke:#181818;stroke-width:0.5;"/><text fill="#000000" font-family="Monospace" font-size="14" lengthAdjust="spacing" textLength="12.2639" x="352.52" y="75.9649">ln</text></g><!--entity tool_log--><g class="entity" data-qualified-name="tool_log" data-source-line="12" id="ent0007"><path d="M342.5912,138.0677 C346.9157,130.4693 354.3504,129.0104 359.7851,136.8296 C367.1704,128.7517 373.2545,130.6959 377.5205,140.0104 C386.8919,141.2625 390.9519,146.1551 386.117,155.3622 C392.2078,165.089 386.5344,171.5131 376.6461,172.3107 C373.7591,182.2527 368.0922,184.6181 359.7333,177.8485 C351.4366,184.9261 343.6534,181.0264 341.6846,171.1228 C333.872,166.8441 331.44,162.2219 338.9487,155.2949 C331.8808,148.0769 332.7657,141.7138 342.5912,138.0677" fill="#FEF3C7" style="stroke:#181818;stroke-width:0.5;"/><text fill="#000000" font-family="Monospace" font-size="14" lengthAdjust="spacing" textLength="20.6919" x="348.3" y="159.9649">log</text></g><!--entity tool_mapfile--><g class="entity" data-qualified-name="tool_mapfile" data-source-line="13" id="ent0008"><path d="M327.9243,223.1575 C332.5822,214.2458 340.1785,214.6089 344.7599,223.231 C348.7045,215.9911 354.0331,216.6593 358.6689,222.4959 C364.4668,214.5747 370.8912,215.587 376.3071,222.9372 C380.8648,214.9055 387.3739,215.5105 391.3884,223.4501 C402.2773,223.9689 404.1831,229.9399 400.1396,238.9109 C405.7203,248.6205 403.1,255.2897 391.2656,255.9061 C388.9413,264.3909 381.1327,264.6467 375.8381,259.1939 C372.6665,269.4411 366.7159,270.5816 359.0794,263.5159 C352.7513,269.6391 348.0287,268.9198 343.8605,261.1499 C336.1891,266.3182 330.7529,265.81 327.5142,256.2352 C317.8167,253.1396 315.3998,247.4001 323.0629,239.6462 C317.4715,232.8124 317.7864,225.3538 327.9243,223.1575" fill="#FEF3C7" style="stroke:#181818;stroke-width:0.5;"/><text fill="#000000" font-family="Monospace" font-size="14" lengthAdjust="spacing" textLength="49.4898" x="333.91" y="243.9649">mapfile</text></g><!--entity tool_mkdir--><g class="entity" data-qualified-name="tool_mkdir" data-source-line="14" id="ent0009"><path d="M333.6813,306.5563 C337.5059,300.7203 342.8333,300.7192 346.1587,307.0676 C349.6858,300.2041 355.2526,300.4817 359.9847,305.6872 C363.9226,299.6542 368.1704,300.1782 372.4656,305.2869 C376.8127,299.9449 382.0654,299.5024 385.1707,306.5594 C397.7744,306.7791 400.3108,313.9684 395.9145,324.4163 C400.5029,333.1695 395.0085,339.6001 386.0993,339.6654 C383.1607,345.9288 379.2879,348.1823 373.4434,342.8321 C370.5957,349.5184 364.4046,351.1626 359.0839,345.7725 C353.6532,350.2904 349.7674,348.1386 347.695,342.1367 C342.0131,349.3588 335.6004,347.3807 332.5483,339.4994 C323.1984,337.4365 318.8233,332.9409 324.6815,323.4319 C319.2252,312.9976 323.4896,308.6455 333.6813,306.5563" fill="#FEF3C7" style="stroke:#181818;stroke-width:0.5;"/><text fill="#000000" font-family="Monospace" font-size="14" lengthAdjust="spacing" textLength="38.5699" x="339.37" y="327.9649">mkdir</text></g><!--entity tool_pip--><g class="entity" data-qualified-name="tool_pip" data-source-line="15" id="ent0010"><path d="M342.5212,726.0677 C346.8655,718.4398 354.3307,716.9772 359.7851,724.8296 C367.1931,716.7158 373.3018,718.6632 377.5905,728.0104 C386.9619,729.2625 391.0219,734.1551 386.187,743.3622 C392.2778,753.089 386.6044,759.5131 376.7161,760.3107 C373.8061,770.2863 368.1152,772.6536 359.7333,765.8485 C351.4173,772.9607 343.6026,769.0576 341.6146,759.1228 C333.802,754.8441 331.37,750.2219 338.8787,743.2949 C331.8108,736.0769 332.6957,729.7138 342.5212,726.0677" fill="#FEF3C7" style="stroke:#181818;stroke-width:0.5;"/><text fill="#000000" font-family="Monospace" font-size="14" lengthAdjust="spacing" textLength="20.8319" x="348.23" y="747.9649">pip</text></g><!--entity tool_pre_commit--><g class="entity" data-qualified-name="tool_pre_commit" data-source-line="16" id="ent0011"><path d="M314.8172,810.4518 C317.6031,805.3554 322.179,805.7171 324.9229,810.4949 C329.0171,804.2476 334.3835,805.677 337.8536,811.1817 C341.187,805.6719 344.4573,805.244 348.2143,810.7846 C351.1195,803.857 355.6897,803.821 360.4378,808.9099 C364.2656,803.6477 368.6772,805.7529 370.9708,810.5209 C374.1178,805.3703 378.1637,805.1556 381.699,810.1085 C385.5536,804.2437 390.476,805.369 393.5561,810.9134 C396.6373,805.1855 401.2981,806.4897 404.2863,811.0108 C412.5148,814.822 413.1961,821.8358 406.0336,827.2982 C414.054,832.2617 413.535,837.9433 406.2024,843.0711 C403.006,848.4936 398.7013,849.2361 394.7597,843.8608 C392.0879,850.5491 387.0086,850.8056 382.481,845.8113 C378.4997,851.2176 375.168,850.4787 371.4346,845.5462 C369.015,851.2572 363.7288,851.3988 360.7136,846.1277 C357.2917,850.8832 352.1744,851.3023 349.0458,845.7943 C345.0078,849.5916 340.2795,849.8763 338.1336,843.72 C335.1216,850.762 328.9641,849.9964 324.9127,844.8473 C321.3568,849.3441 315.7087,848.9809 313.3447,843.4698 C304.5379,842.3207 301.5825,834.0754 306.4587,827.1522 C301.7421,817.7493 303.1616,811.6604 314.8172,810.4518" fill="#FEF3C7" style="stroke:#181818;stroke-width:0.5;"/><text fill="#000000" font-family="Monospace" font-size="14" lengthAdjust="spacing" textLength="76.8317" x="320.24" y="831.9649">pre-commit</text></g><!--entity tool_sort--><g class="entity" data-qualified-name="tool_sort" data-source-line="17" id="ent0012"><path d="M340.6872,390.377 C345.4501,380.3099 352.1273,381.6343 358.8371,388.2601 C366.7091,378.595 375.8598,381.9572 380.536,391.8125 C388.7656,395.3562 389.8839,401.1413 383.3293,407.3439 C389.6394,414.0375 388.4998,420.7829 380.278,424.9595 C377.9284,437.0797 368.688,438.896 359.6696,432.3042 C349.7003,439.2405 341.2844,434.2832 339.2783,423.2618 C330.3834,418.8553 330.8423,410.7916 339.5688,406.6941 C333.1931,401.4783 332.8405,394.6181 340.6872,390.377" fill="#FEF3C7" style="stroke:#181818;stroke-width:0.5;"/><text fill="#000000" font-family="Monospace" font-size="14" lengthAdjust="spacing" textLength="26.0119" x="345.65" y="411.9649">sort</text></g><!--entity tool_tee--><g class="entity" data-qualified-name="tool_tee" data-source-line="18" id="ent0013"><path d="M342.5212,474.0677 C346.8674,466.4368 354.3357,464.9738 359.7921,472.8296 C367.2024,464.7122 373.3135,466.66 377.6045,476.0104 C386.9759,477.2625 391.0359,482.1551 386.201,491.3622 C392.2918,501.089 386.6184,507.5131 376.7301,508.3107 C373.8178,518.2896 368.1245,520.6572 359.7403,513.8485 C351.4224,520.9642 343.6046,517.0607 341.6146,507.1228 C333.802,502.8441 331.37,498.2219 338.8787,491.2949 C331.8108,484.0769 332.6957,477.7138 342.5212,474.0677" fill="#FEF3C7" style="stroke:#181818;stroke-width:0.5;"/><text fill="#000000" font-family="Monospace" font-size="14" lengthAdjust="spacing" textLength="20.8459" x="348.23" y="495.9649">tee</text></g><g class="entity" data-qualified-name="toolingGraphSummary" data-source-line="30" id="ent0024"><path d="M6,170.829 L6,216.241 L213.5112,216.241 L213.5112,180.829 L203.5112,170.829 L6,170.829" fill="#FEFFDD" style="stroke:#181818;stroke-width:0.5;"/><path d="M203.5112,170.829 L203.5112,180.829 L213.5112,180.829 L203.5112,170.829" fill="#FEFFDD" style="stroke:#181818;stroke-width:1;"/><text fill="#000000" font-family="Monospace" font-size="13" lengthAdjust="spacing" textLength="186.5112" x="12" y="189.726">Scanned&#160;2&#160;tooling&#160;entrypoints.</text><text fill="#000000" font-family="Monospace" font-size="13" lengthAdjust="spacing" textLength="179.2182" x="12" y="207.432">Detected&#160;10&#160;third-party&#160;tools.</text></g><!--link source_github_workflows_ci_yml to tool_actions_checkout--><g class="link" data-entity-1="ent0002" data-entity-2="ent0004" data-link-type="dependency" data-source-line="19" id="lnk14"><path d="M155.79,670.989 C155.79,633.749 155.79,574.539 155.79,574.539 C155.79,574.539 222.96,574.539 281.42,574.539" fill="none" id="source_github_workflows_ci_yml-to-tool_actions_checkout" style="stroke:#181818;stroke-width:1;"/><polygon fill="#181818" points="287.42,574.539,278.42,570.539,282.42,574.539,278.42,578.539,287.42,574.539" style="stroke:#181818;stroke-width:1;"/></g><!--link source_github_workflows_ci_yml to tool_actions_setup_python--><g class="link" data-entity-1="ent0002" data-entity-2="ent0005" data-link-type="dependency" data-source-line="20" id="lnk15"><path d="M201.37,677.269 C224.94,677.269 244.19,677.269 267.42,677.269" fill="none" id="source_github_workflows_ci_yml-to-tool_actions_setup_python" style="stroke:#181818;stroke-width:1;"/><polygon fill="#181818" points="273.42,677.269,264.42,673.269,268.42,677.269,264.42,681.269,273.42,677.269" style="stroke:#181818;stroke-width:1;"/></g><!--link source_github_workflows_ci_yml to tool_pip--><g class="link" data-entity-1="ent0002" data-entity-2="ent0010" data-link-type="dependency" data-source-line="21" id="lnk16"><path d="M201.37,721.869 C248.22,721.869 295.76,721.869 326.74,721.869" fill="none" id="source_github_workflows_ci_yml-to-tool_pip" style="stroke:#181818;stroke-width:1;"/><polygon fill="#181818" points="332.74,721.869,323.74,717.869,327.74,721.869,323.74,725.869,332.74,721.869" style="stroke:#181818;stroke-width:1;"/></g><!--link source_github_workflows_ci_yml to tool_pre_commit--><g class="link" data-entity-1="ent0002" data-entity-2="ent0011" data-link-type="dependency" data-source-line="22" id="lnk17"><path d="M201.44,725.739 C257.61,725.739 318.79,725.739 318.79,725.739 C318.79,725.739 318.79,765.769 318.79,795.619" fill="none" id="source_github_workflows_ci_yml-to-tool_pre_commit" style="stroke:#181818;stroke-width:1;"/><polygon fill="#181818" points="318.79,801.619,322.79,792.619,318.79,796.619,314.79,792.619,318.79,801.619" style="stroke:#181818;stroke-width:1;"/></g><!--link source_scripts_archility_weekly_sh to tool_ln--><g class="link" data-entity-1="ent0003" data-entity-2="ent0006" data-link-type="dependency" data-source-line="23" id="lnk18"><path d="M204.71,254.369 C221.53,254.369 233.79,254.369 233.79,254.369 C233.79,254.369 233.79,70.539 233.79,70.539 C233.79,70.539 295.49,70.539 331.19,70.539" fill="none" id="source_scripts_archility_weekly_sh-to-tool_ln" style="stroke:#181818;stroke-width:1;"/><polygon fill="#181818" points="337.19,70.539,328.19,66.539,332.19,70.539,328.19,74.539,337.19,70.539" style="stroke:#181818;stroke-width:1;"/></g><!--link source_scripts_archility_weekly_sh to tool_log--><g class="link" data-entity-1="ent0003" data-entity-2="ent0007" data-link-type="dependency" data-source-line="24" id="lnk19"><path d="M204.62,257.269 C231.59,257.269 253.79,257.269 253.79,257.269 C253.79,257.269 253.79,174.949 253.79,174.949 C253.79,174.949 295.96,174.949 327,174.949" fill="none" id="source_scripts_archility_weekly_sh-to-tool_log" style="stroke:#181818;stroke-width:1;"/><polygon fill="#181818" points="333,174.949,324,170.949,328,174.949,324,178.949,333,174.949" style="stroke:#181818;stroke-width:1;"/></g><!--link source_scripts_archility_weekly_sh to tool_mapfile--><g class="link" data-entity-1="ent0003" data-entity-2="ent0008" data-link-type="dependency" data-source-line="25" id="lnk20"><path d="M204.56,260.169 C244.13,260.169 281.94,260.169 312.7,260.169" fill="none" id="source_scripts_archility_weekly_sh-to-tool_mapfile" style="stroke:#181818;stroke-width:1;"/><polygon fill="#181818" points="318.7,260.169,309.7,256.169,313.7,260.169,309.7,264.169,318.7,260.169" style="stroke:#181818;stroke-width:1;"/></g><!--link source_scripts_archility_weekly_sh to tool_mkdir--><g class="link" data-entity-1="ent0003" data-entity-2="ent0009" data-link-type="dependency" data-source-line="26" id="lnk21"><path d="M204.56,303.799 C246.46,303.799 287.12,303.799 318,303.799" fill="none" id="source_scripts_archility_weekly_sh-to-tool_mkdir" style="stroke:#181818;stroke-width:1;"/><polygon fill="#181818" points="324,303.799,315,299.799,319,303.799,315,307.799,324,303.799" style="stroke:#181818;stroke-width:1;"/></g><!--link source_scripts_archility_weekly_sh to tool_sort--><g class="link" data-entity-1="ent0003" data-entity-2="ent0012" data-link-type="dependency" data-source-line="27" id="lnk22"><path d="M109.79,310.079 C109.79,347.319 109.79,406.539 109.79,406.539 C109.79,406.539 259.5,406.539 324.59,406.539" fill="none" id="source_scripts_archility_weekly_sh-to-tool_sort" style="stroke:#181818;stroke-width:1;"/><polygon fill="#181818" points="330.59,406.539,321.59,402.539,325.59,406.539,321.59,410.539,330.59,406.539" style="stroke:#181818;stroke-width:1;"/></g><!--link source_scripts_archility_weekly_sh to tool_tee--><g class="link" data-entity-1="ent0003" data-entity-2="ent0013" data-link-type="dependency" data-source-line="28" id="lnk23"><path d="M63.79,309.739 C63.79,367.439 63.79,490.539 63.79,490.539 C63.79,490.539 254.79,490.539 326.74,490.539" fill="none" id="source_scripts_archility_weekly_sh-to-tool_tee" style="stroke:#181818;stroke-width:1;"/><polygon fill="#181818" points="332.74,490.539,323.74,486.539,327.74,490.539,323.74,494.539,332.74,490.539" style="stroke:#181818;stroke-width:1;"/></g><?plantuml-src bLInZjim3Dtz5K9kjdEz5ktMfOsB6wvBEXuWg39j2vP5GQ8H-EzBnuaZE4KRZzHxZoJ89v8X2uA2qcJGvHeT1RJY5w8rhX6lZg09Qi9YPg4cGIY2QLeIbGbm5cMnCywhe7eHMrNXQHBMoaP8a0fgDLWgEVzFrODuGuVHAvroDFOU7JWwqiXDJUcLQsnAuQQ0HWy20xMOBHInAnf3xV1xVyBGrHPFSQzDCVRstNtYuiH4gBXvj74dL1GHXw11pYAvYAGsaaNYwV1SlfI7j43KmNYAUnLqQwoXCJy1T7OiOllkFl-ZnaKe5w6SXJAsInrjSQZ4Rju2jzw2xd2WSvefeRmWyeg8f_9GVlpsPQsCG8FF_SZJSVVgCofdT9t19dnxZsAJmDYiyLxvsbYuSIuFTxoEVPEmfd3DySRV61pSuG7Og7rlaldmcvpVrkp8LhdnfcZD84Zwvc31_sEIFF_wz-Li5gPxULZCatcSkumdUy2LYyowRNHiDl4l7jcccHopIJ6jV9E0BP0v9BXwWk_PZw1yUnpwNeKnEshb7F_qboig-6Q5qQDn58li-_KIV7WMr9fGvNoxQ9mFGv61gyIK_Gy0?></g></svg>
