<?plantuml 1.2026.2?><svg xmlns="http://www.w3.org/2000/svg" xmlns:xlink="http://www.w3.org/1999/xlink" contentStyleType="text/css" data-diagram-type="DESCRIPTION" height="1279px" preserveAspectRatio="none" style="width:547px;height:1279px;background:#FFFFFF;" version="1.1" viewBox="0 0 547 1279" width="547px" zoomAndPan="magnify"><title>traction-control Tooling Integrations</title><defs/><g><g class="title" data-source-line="1"><text fill="#000000" font-family="Monospace" font-size="14" font-weight="bold" lengthAdjust="spacing" textLength="255.3556" x="139.0616" y="24.9659">traction-control&#160;Tooling&#160;Integrations</text></g><!--entity source_github_workflows_ci_yml--><g class="entity" data-qualified-name="source_github_workflows_ci_yml" data-source-line="7" id="ent0002"><rect fill="#E0F2FE" height="58.1358" rx="2.5" ry="2.5" style="stroke:#181818;stroke-width:0.5;" width="182.6234" x="64.45" y="1092.7079"/><text fill="#000000" font-family="Monospace" font-size="14" lengthAdjust="spacing" textLength="162.6234" x="74.45" y="1117.6739">.github/workflows/ci.yml</text><text fill="#000000" font-family="Monospace" font-size="14" lengthAdjust="spacing" textLength="105.3356" x="74.45" y="1136.7418">4&#160;detected&#160;tools</text></g><!--entity source_scripts_archility_weekly_sh--><g class="entity" data-qualified-name="source_scripts_archility_weekly_sh" data-source-line="8" id="ent0003"><rect fill="#E0F2FE" height="58.1358" rx="2.5" ry="2.5" style="stroke:#181818;stroke-width:0.5;" width="189.0773" x="61.22" y="672.7079"/><text fill="#000000" font-family="Monospace" font-size="14" lengthAdjust="spacing" textLength="169.0773" x="71.22" y="697.6739">scripts/archility-weekly.sh</text><text fill="#000000" font-family="Monospace" font-size="14" lengthAdjust="spacing" textLength="105.3356" x="71.22" y="716.7418">6&#160;detected&#160;tools</text></g><!--entity source_scripts_install_archility_weekly_systemd_sh--><g class="entity" data-qualified-name="source_scripts_install_archility_weekly_systemd_sh" data-source-line="9" id="ent0004"><rect fill="#E0F2FE" height="58.1358" rx="2.5" ry="2.5" style="stroke:#181818;stroke-width:0.5;" width="297.5209" x="7" y="336.7079"/><text fill="#000000" font-family="Monospace" font-size="14" lengthAdjust="spacing" textLength="277.5209" x="17" y="361.6739">scripts/install_archility_weekly_systemd.sh</text><text fill="#000000" font-family="Monospace" font-size="14" lengthAdjust="spacing" textLength="105.3356" x="17" y="380.7418">2&#160;detected&#160;tools</text></g><!--entity source_scripts_run_tachometer_profile_sh--><g class="entity" data-qualified-name="source_scripts_run_tachometer_profile_sh" data-source-line="10" id="ent0005"><rect fill="#E0F2FE" height="58.1358" rx="2.5" ry="2.5" style="stroke:#181818;stroke-width:0.5;" width="242.2912" x="34.61" y="126.7079"/><text fill="#000000" font-family="Monospace" font-size="14" lengthAdjust="spacing" textLength="222.2912" x="44.61" y="151.6739">scripts/run_tachometer_profile.sh</text><text fill="#000000" font-family="Monospace" font-size="14" lengthAdjust="spacing" textLength="105.3356" x="44.61" y="170.7418">3&#160;detected&#160;tools</text></g><!--entity tool_actions_checkout--><g class="entity" data-qualified-name="tool_actions_checkout" data-source-line="11" id="ent0006"><path d="M388.1321,979.6036 C391.9839,973.4446 396.7265,973.5851 400.456,979.7262 C403.7617,972.9632 408.7634,974.2122 412.802,978.9387 C417.4223,971.7913 421.6829,971.9161 426.3239,978.919 C430.5987,972.6356 434.4313,973.6236 438.5273,979.1045 C441.8588,974.4186 447.0724,974.5722 449.8526,979.7382 C452.5508,974.0805 458.8173,973.5886 462.3945,978.7161 C466.4741,972.6788 471.7719,972.7384 476.145,978.3702 C481.3196,972.9347 486.0812,973.4348 488.9316,980.7085 C491.9026,974.5845 497.3829,974.6686 500.4215,980.6443 C504.3903,974.8108 508.7744,975.5678 512.7844,980.5974 C522.4657,983.007 523.7759,989.1667 518.7782,996.955 C524.2231,1005.4122 522.758,1010.5155 512.8147,1013.3885 C510.5671,1019.0599 505.2073,1019.5312 502.0314,1014.3073 C498.4444,1020.8175 492.2823,1021.4068 487.6911,1015.4636 C484.9576,1021.3661 480.9871,1022.9815 475.7571,1018.2708 C472.4762,1024.7747 467.9801,1024.5988 463.9001,1019.0573 C461.3717,1026.4965 454.8543,1026.9634 450.846,1020.4411 C445.9427,1026.8389 440.4836,1024.7632 437.9965,1018.0695 C434.0606,1024.8475 428.1389,1024.6921 424.5681,1017.7131 C420.0334,1023.2315 415.3451,1021.7529 412.6715,1015.7855 C408.7943,1020.903 403.4353,1020.5251 400.8914,1014.3898 C396.4305,1019.8529 390.2086,1020.5887 386.9471,1013.0986 C379.8491,1009.0471 378.4477,1001.0642 387.0287,997.0927 C378.7864,991.0645 379.7335,984.5819 388.1321,979.6036" fill="#FEF3C7" style="stroke:#181818;stroke-width:0.5;"/><text fill="#000000" font-family="Monospace" font-size="14" lengthAdjust="spacing" textLength="111.9156" x="393.7" y="1001.2039">actions/checkout</text></g><!--entity tool_actions_setup_python--><g class="entity" data-qualified-name="tool_actions_setup_python" data-source-line="12" id="ent0007"><path d="M373.7691,1064.7886 C375.9816,1058.7338 380.1952,1058.672 384.0139,1063.2395 C388.8776,1057.9098 393.2169,1058.5586 396.6097,1064.8357 C398.5057,1060.2463 403.3036,1058.3921 406.7596,1063.1398 C410.1191,1056.8472 413.7266,1056.9538 417.7951,1062.4776 C421.3753,1056.9911 425.113,1057.8893 428.5627,1062.6152 C432.4014,1058.2736 436.0398,1058.602 438.816,1063.7618 C441.9914,1057.9573 447.0479,1056.3045 451.7898,1061.9936 C454.8356,1057.0228 457.774,1057.0813 460.895,1061.9238 C465.2281,1056.1812 469.5561,1056.8219 473.2853,1062.5748 C477.328,1057.6374 481.1971,1058.3012 484.2586,1063.6243 C487.0271,1058.2513 491.7905,1058.9276 494.8999,1063.2501 C497.9503,1057.606 502.7518,1058.3211 505.4825,1063.5609 C509.7074,1057.9187 513.5072,1058.6022 517.5437,1063.771 C521.3354,1058.5006 525.7872,1058.814 528.9876,1064.3945 C538.1326,1067.0958 539.9641,1075.119 533.444,1081.8252 C540.4789,1089.9209 538.0316,1096.4588 527.4414,1098.0228 C523.9594,1103.6135 520.181,1103.5411 516.9967,1097.7495 C514.9518,1103.6253 510.0128,1103.2488 506.5459,1099.2552 C503.799,1105.1179 499.1712,1105.2693 495.2738,1100.4719 C492.1527,1106.5877 486.4031,1106.3233 483.3338,1100.4204 C480.9105,1105.9861 477.6816,1105.365 473.7833,1101.9974 C470.6292,1107.1305 466.0685,1107.7664 462.5569,1102.3789 C460.1821,1107.7606 454.5219,1108.2346 451.1729,1103.4721 C447.5916,1109.4957 443.0483,1109.169 439.361,1103.5798 C435.7863,1108.1587 430.5935,1108.8475 427.8966,1102.6464 C424.2468,1107.1299 419.9418,1105.6187 418.1953,1100.6856 C413.7432,1104.7163 410.0124,1104.3805 406.8581,1099.1046 C402.7218,1105.2135 398.8078,1103.9096 394.9284,1098.8306 C392.701,1103.2565 388.0723,1103.123 385.4188,1099.3232 C381.6447,1104.9986 376.0649,1104.3849 373.5662,1098.0631 C363.8293,1096.7773 360.2589,1089.6095 364.8311,1080.9989 C359.8685,1072.0828 362.3967,1064.6979 373.7691,1064.7886" fill="#FEF3C7" style="stroke:#181818;stroke-width:0.5;"/><text fill="#000000" font-family="Monospace" font-size="14" lengthAdjust="spacing" textLength="140.2795" x="379.52" y="1085.2039">actions/setup-python</text></g><!--entity tool_cat--><g class="entity" data-qualified-name="tool_cat" data-source-line="13" id="ent0008"><path d="M433.7682,308.252 C437.6519,298.142 444.5192,298.5469 451.2821,305.2533 C458.7659,298.561 463.1246,301.4205 466.7338,309.3483 C475.3492,312.5011 475.8373,317.9933 470.5319,324.6103 C476.4794,330.7674 476.1012,338.6645 466.6511,341.2252 C464.3283,351.0409 457.0467,352.0402 449.6882,346.9596 C441.8732,353.0514 436.6219,350.3264 434.2127,341.3922 C423.4525,340.1426 422.0403,334.6966 426.6637,325.9343 C420.954,317.8636 422.5007,309.5015 433.7682,308.252" fill="#FEF3C7" style="stroke:#181818;stroke-width:0.5;"/><text fill="#000000" font-family="Monospace" font-size="14" lengthAdjust="spacing" textLength="19.6279" x="439.85" y="329.2039">cat</text></g><!--entity tool_ln--><g class="entity" data-qualified-name="tool_ln" data-source-line="14" id="ent0009"><path d="M437.9732,476.8183 C439.7869,469.6382 445.4391,468.3976 450.3055,473.8346 C456.4942,467.3069 461.3075,469.0413 464.0682,477.0746 C471.9389,481.6062 471.198,487.3229 464.6263,492.3811 C471.55,497.1308 471.259,504.3434 463.9913,508.5352 C463.2636,518.7335 458.5813,520.9662 449.8647,515.9556 C444.0419,519.8234 437.7239,518.002 437.6398,510.0302 C425.8652,509.28 421.9057,501.4309 429.4202,491.9241 C425.5509,483.7526 428.6608,477.5263 437.9732,476.8183" fill="#FEF3C7" style="stroke:#181818;stroke-width:0.5;"/><text fill="#000000" font-family="Monospace" font-size="14" lengthAdjust="spacing" textLength="12.2639" x="443.53" y="497.2039">ln</text></g><!--entity tool_log--><g class="entity" data-qualified-name="tool_log" data-source-line="15" id="ent0010"><path d="M433.6012,559.3066 C437.9257,551.7082 445.3604,550.2494 450.7951,558.0686 C458.1804,549.9907 464.2645,551.9349 468.5305,561.2494 C477.9019,562.5015 481.9619,567.3941 477.127,576.6012 C483.2178,586.3279 477.5444,592.752 467.6561,593.5496 C464.7691,603.4916 459.1022,605.857 450.7433,599.0874 C442.4466,606.1651 434.6634,602.2653 432.6946,592.3617 C424.882,588.083 422.45,583.4608 429.9587,576.5339 C422.8908,569.3159 423.7757,562.9528 433.6012,559.3066" fill="#FEF3C7" style="stroke:#181818;stroke-width:0.5;"/><text fill="#000000" font-family="Monospace" font-size="14" lengthAdjust="spacing" textLength="20.6919" x="439.31" y="581.2039">log</text></g><!--entity tool_mapfile--><g class="entity" data-qualified-name="tool_mapfile" data-source-line="16" id="ent0011"><path d="M418.9343,644.3965 C423.5922,635.4847 431.1885,635.8478 435.7699,644.4699 C439.7145,637.23 445.0431,637.8983 449.6789,643.7349 C455.4768,635.8136 461.9012,636.8259 467.3171,644.1761 C471.8748,636.1445 478.3839,636.7495 482.3984,644.689 C493.2873,645.2079 495.1931,651.1788 491.1496,660.1498 C496.7303,669.8594 494.11,676.5287 482.2756,677.1451 C479.9513,685.6298 472.1427,685.8856 466.8481,680.4329 C463.6765,690.68 457.7259,691.8206 450.0894,684.7549 C443.7613,690.878 439.0387,690.1588 434.8705,682.3888 C427.1991,687.5572 421.7629,687.049 418.5242,677.4742 C408.8267,674.3785 406.4098,668.6391 414.0729,660.8851 C408.4815,654.0514 408.7964,646.5927 418.9343,644.3965" fill="#FEF3C7" style="stroke:#181818;stroke-width:0.5;"/><text fill="#000000" font-family="Monospace" font-size="14" lengthAdjust="spacing" textLength="49.4898" x="424.92" y="665.2039">mapfile</text></g><!--entity tool_mkdir--><g class="entity" data-qualified-name="tool_mkdir" data-source-line="17" id="ent0012"><path d="M424.6913,727.7953 C428.5159,721.9592 433.8433,721.9581 437.1687,728.3065 C440.6958,721.4431 446.2626,721.7206 450.9947,726.9261 C454.9326,720.8931 459.1804,721.4172 463.4756,726.5259 C467.8227,721.1838 473.0754,720.7413 476.1807,727.7984 C488.7844,728.018 491.3208,735.2073 486.9245,745.6553 C491.5129,754.4085 486.0185,760.839 477.1093,760.9043 C474.1707,767.1677 470.2979,769.4213 464.4534,764.071 C461.6057,770.7574 455.4146,772.4015 450.0939,767.0114 C444.6632,771.5293 440.7774,769.3775 438.705,763.3757 C433.0231,770.5977 426.6104,768.6197 423.5583,760.7384 C414.2084,758.6754 409.8333,754.1798 415.6915,744.6708 C410.2352,734.2365 414.4996,729.8844 424.6913,727.7953" fill="#FEF3C7" style="stroke:#181818;stroke-width:0.5;"/><text fill="#000000" font-family="Monospace" font-size="14" lengthAdjust="spacing" textLength="38.5699" x="430.38" y="749.2039">mkdir</text></g><!--entity tool_pip--><g class="entity" data-qualified-name="tool_pip" data-source-line="18" id="ent0013"><path d="M433.5312,1147.3066 C437.8755,1139.6787 445.3407,1138.2161 450.7951,1146.0686 C458.2031,1137.9547 464.3118,1139.9022 468.6005,1149.2494 C477.9719,1150.5015 482.0319,1155.3941 477.197,1164.6012 C483.2878,1174.3279 477.6144,1180.752 467.7261,1181.5496 C464.8161,1191.5252 459.1252,1193.8925 450.7433,1187.0874 C442.4273,1194.1997 434.6126,1190.2965 432.6246,1180.3617 C424.812,1176.083 422.38,1171.4608 429.8887,1164.5339 C422.8208,1157.3159 423.7057,1150.9528 433.5312,1147.3066" fill="#FEF3C7" style="stroke:#181818;stroke-width:0.5;"/><text fill="#000000" font-family="Monospace" font-size="14" lengthAdjust="spacing" textLength="20.8319" x="439.24" y="1169.2039">pip</text></g><!--entity tool_pre_commit--><g class="entity" data-qualified-name="tool_pre_commit" data-source-line="19" id="ent0014"><path d="M405.8172,1231.6907 C408.6031,1226.5944 413.179,1226.9561 415.9229,1231.7338 C420.0171,1225.4865 425.3835,1226.916 428.8536,1232.4206 C432.187,1226.9108 435.4573,1226.4829 439.2143,1232.0235 C442.1195,1225.0959 446.6897,1225.06 451.4378,1230.1488 C455.2656,1224.8867 459.6772,1226.9919 461.9708,1231.7599 C465.1178,1226.6092 469.1637,1226.3945 472.699,1231.3474 C476.5536,1225.4826 481.476,1226.608 484.5561,1232.1523 C487.6373,1226.4244 492.2981,1227.7286 495.2863,1232.2497 C503.5148,1236.061 504.1961,1243.0747 497.0336,1248.5371 C505.054,1253.5006 504.535,1259.1823 497.2024,1264.3101 C494.006,1269.7326 489.7013,1270.475 485.7597,1265.0998 C483.0879,1271.7881 478.0086,1272.0445 473.481,1267.0502 C469.4997,1272.4565 466.168,1271.7176 462.4346,1266.7852 C460.015,1272.4961 454.7288,1272.6378 451.7136,1267.3666 C448.2917,1272.1221 443.1744,1272.5412 440.0458,1267.0332 C436.0078,1270.8305 431.2795,1271.1152 429.1336,1264.959 C426.1216,1272.001 419.9641,1271.2354 415.9127,1266.0863 C412.3568,1270.583 406.7087,1270.2198 404.3447,1264.7087 C395.5379,1263.5597 392.5825,1255.3143 397.4587,1248.3911 C392.7421,1238.9882 394.1616,1232.8994 405.8172,1231.6907" fill="#FEF3C7" style="stroke:#181818;stroke-width:0.5;"/><text fill="#000000" font-family="Monospace" font-size="14" lengthAdjust="spacing" textLength="76.8317" x="411.24" y="1253.2039">pre-commit</text></g><!--entity tool_run--><g class="entity" data-qualified-name="tool_run" data-source-line="20" id="ent0015"><path d="M431.3302,56.8706 C436.2018,47.7293 444.5048,46.1296 451.5651,54.3143 C457.4287,46.5504 465.7535,48.2883 469.1527,56.9525 C478.7423,57.6613 484.4316,62.4144 478.9444,72.5737 C484.1785,82.0202 480.6765,87.44 470.303,88.3228 C470.0646,101.0475 463.7331,106.0421 451.7397,99.8709 C440.833,104.9036 433.6706,103.4176 432.9702,89.6703 C423.3093,88.8356 419.5211,80.744 424.8739,72.7327 C419.8185,64.6057 422.2347,59.2377 431.3302,56.8706" fill="#FEF3C7" style="stroke:#181818;stroke-width:0.5;"/><text fill="#000000" font-family="Monospace" font-size="14" lengthAdjust="spacing" textLength="23.0859" x="438.12" y="77.2039">run</text></g><!--entity tool_sort--><g class="entity" data-qualified-name="tool_sort" data-source-line="21" id="ent0016"><path d="M431.6872,811.616 C436.4501,801.5488 443.1273,802.8733 449.8371,809.4991 C457.7091,799.834 466.8598,803.1962 471.536,813.0515 C479.7656,816.5952 480.8839,822.3803 474.3293,828.5828 C480.6394,835.2765 479.4998,842.0219 471.278,846.1984 C468.9284,858.3186 459.688,860.1349 450.6696,853.5431 C440.7003,860.4794 432.2844,855.5221 430.2783,844.5007 C421.3834,840.0942 421.8423,832.0306 430.5688,827.9331 C424.1931,822.7172 423.8405,815.857 431.6872,811.616" fill="#FEF3C7" style="stroke:#181818;stroke-width:0.5;"/><text fill="#000000" font-family="Monospace" font-size="14" lengthAdjust="spacing" textLength="26.0119" x="436.65" y="833.2039">sort</text></g><!--entity tool_summarize--><g class="entity" data-qualified-name="tool_summarize" data-source-line="22" id="ent0017"><path d="M407.1962,139.7082 C412.3905,132.088 417.6279,133.6617 422.0554,140.4963 C425.6719,133.3452 431.3794,133.5795 435.4602,140.0389 C440.2942,132.5754 445.0609,131.3054 451.2659,138.5673 C455.3267,131.1997 462.4265,131.4657 466.0506,139.0007 C470.6351,132.1413 477.5265,132.4184 480.7424,140.3593 C484.3789,134.5447 491.079,133.9823 494.2417,140.8631 C503.6094,140.9338 507.7194,148.7506 502.6293,156.5512 C508.5739,165.1643 504.9013,171.1668 495.3064,172.7589 C491.5244,180.6105 483.9345,180.5184 479.0162,174.0518 C475.7099,182.1689 470.4283,181.6599 465.1695,176.0165 C462.3774,183.3974 455.4939,182.8845 451.4346,177.3659 C446.6056,182.9427 441.6355,183.9218 437.2981,176.8179 C431.7402,182.4858 425.4188,181.7947 422.3219,174.0665 C418.132,181.7863 411.6419,181.8264 407.7676,173.7753 C397.2076,172.9199 395.2751,163.6176 400.7171,156.3045 C395.4033,149.1206 396.4692,140.6298 407.1962,139.7082" fill="#FEF3C7" style="stroke:#181818;stroke-width:0.5;"/><text fill="#000000" font-family="Monospace" font-size="14" lengthAdjust="spacing" textLength="73.2617" x="413.03" y="161.2039">summarize</text></g><!--entity tool_systemctl--><g class="entity" data-qualified-name="tool_systemctl" data-source-line="23" id="ent0018"><path d="M411.8243,391.5034 C415.2648,385.5846 421.7893,384.9028 424.89,391.8483 C428.6316,385.1376 433.6685,385.0609 438.2023,391.0155 C442.2341,384.7684 446.7724,385.261 451.2176,390.549 C454.7615,384.5149 458.4275,385.0977 462.3713,390.1466 C467.3321,383.4873 471.8037,384.4481 475.6166,391.2741 C479.204,385.9137 485.4425,385.006 488.4965,391.8375 C497.1928,394.5702 500.1891,402.7776 493.7098,409.8922 C499.0452,415.6969 497.262,422.4789 489.6804,424.7899 C487.111,433.3285 481.5783,433.9996 475.271,428.675 C472.6089,434.2751 468.4698,435.0227 463.8165,431.0601 C460.9541,437.6831 455.6362,439.6756 450.6894,433.1395 C445.248,438.7097 440.8152,437.3814 438.3195,430.2669 C433.9227,435.5605 428.2029,435.9354 425.2861,428.7244 C420.3675,432.7936 415.948,433.5231 413.3884,426.25 C402.6243,423.1317 402.4823,417.2642 408.3576,409.2282 C401.5774,401.97 401.8647,395.4875 411.8243,391.5034" fill="#FEF3C7" style="stroke:#181818;stroke-width:0.5;"/><text fill="#000000" font-family="Monospace" font-size="14" lengthAdjust="spacing" textLength="61.9778" x="418.67" y="413.2039">systemctl</text></g><!--entity tool_tachometer--><g class="entity" data-qualified-name="tool_tachometer" data-source-line="24" id="ent0019"><path d="M406.0072,223.6907 C408.7807,218.6174 413.336,218.9775 416.0674,223.7338 C420.1484,217.5092 425.4957,218.9347 428.9526,224.4206 C432.2705,218.9344 435.5263,218.5078 439.2678,224.0235 C442.1586,217.1195 446.7121,217.0811 451.4458,222.1488 C455.2608,216.9114 459.6524,219.0105 461.9333,223.7599 C465.0661,218.6305 469.0949,218.416 472.616,223.3474 C476.4574,217.506 481.3607,218.6284 484.4276,224.1523 C487.496,218.4488 492.1369,219.7477 495.1123,224.2497 C503.3408,228.061 504.0221,235.0747 496.8596,240.5371 C504.88,245.5006 504.361,251.1823 497.0284,256.3101 C493.8461,261.712 489.5587,262.4527 485.6312,257.0998 C482.9729,263.7654 477.9121,264.0238 473.398,259.0502 C469.4325,264.4338 466.1146,263.6977 462.3971,258.7852 C459.9891,264.4725 454.7253,264.6148 451.7216,259.3666 C448.3125,264.1032 443.215,264.5201 440.0993,259.0332 C436.0747,262.8121 431.3651,263.0921 429.2326,256.959 C426.233,263.9778 420.0963,263.2166 416.0572,258.0863 C412.5131,262.5639 406.887,262.1996 404.5347,256.7087 C395.7279,255.5597 392.7725,247.3143 397.6487,240.3911 C392.9321,230.9882 394.3516,224.8994 406.0072,223.6907" fill="#FEF3C7" style="stroke:#181818;stroke-width:0.5;"/><text fill="#000000" font-family="Monospace" font-size="14" lengthAdjust="spacing" textLength="76.4677" x="411.43" y="245.2039">tachometer</text></g><!--entity tool_tee--><g class="entity" data-qualified-name="tool_tee" data-source-line="25" id="ent0020"><path d="M433.5312,895.3066 C437.8774,887.6758 445.3457,886.2128 450.8021,894.0686 C458.2124,885.9511 464.3235,887.8989 468.6145,897.2494 C477.9859,898.5015 482.0459,903.3941 477.211,912.6012 C483.3018,922.3279 477.6284,928.752 467.7401,929.5496 C464.8278,939.5286 459.1345,941.8961 450.7503,935.0874 C442.4324,942.2031 434.6146,938.2997 432.6246,928.3617 C424.812,924.083 422.38,919.4608 429.8887,912.5339 C422.8208,905.3159 423.7057,898.9528 433.5312,895.3066" fill="#FEF3C7" style="stroke:#181818;stroke-width:0.5;"/><text fill="#000000" font-family="Monospace" font-size="14" lengthAdjust="spacing" textLength="20.8459" x="439.24" y="917.2039">tee</text></g><g class="entity" data-qualified-name="toolingGraphSummary" data-source-line="42" id="ent0036"><path d="M52,46.0679 L52,91.4799 L259.5112,91.4799 L259.5112,56.0679 L249.5112,46.0679 L52,46.0679" fill="#FEFFDD" style="stroke:#181818;stroke-width:0.5;"/><path d="M249.5112,46.0679 L249.5112,56.0679 L259.5112,56.0679 L249.5112,46.0679" fill="#FEFFDD" style="stroke:#181818;stroke-width:1;"/><text fill="#000000" font-family="Monospace" font-size="13" lengthAdjust="spacing" textLength="186.5112" x="58" y="64.9649">Scanned&#160;4&#160;tooling&#160;entrypoints.</text><text fill="#000000" font-family="Monospace" font-size="13" lengthAdjust="spacing" textLength="179.2182" x="58" y="82.6709">Detected&#160;15&#160;third-party&#160;tools.</text></g><!--link source_github_workflows_ci_yml to tool_actions_checkout--><g class="link" data-entity-1="ent0002" data-entity-2="ent0006" data-link-type="dependency" data-source-line="26" id="lnk21"><path d="M201.8,1092.2279 C201.8,1054.9879 201.8,995.7779 201.8,995.7779 C201.8,995.7779 299.08,995.7779 372.3,995.7779" fill="none" id="source_github_workflows_ci_yml-to-tool_actions_checkout" style="stroke:#181818;stroke-width:1;"/><polygon fill="#181818" points="378.3,995.7779,369.3,991.7779,373.3,995.7779,369.3,999.7779,378.3,995.7779" style="stroke:#181818;stroke-width:1;"/></g><!--link source_github_workflows_ci_yml to tool_actions_setup_python--><g class="link" data-entity-1="ent0002" data-entity-2="ent0007" data-link-type="dependency" data-source-line="27" id="lnk22"><path d="M247.54,1098.5079 C284.77,1098.5079 321.51,1098.5079 358.08,1098.5079" fill="none" id="source_github_workflows_ci_yml-to-tool_actions_setup_python" style="stroke:#181818;stroke-width:1;"/><polygon fill="#181818" points="364.08,1098.5079,355.08,1094.5079,359.08,1098.5079,355.08,1102.5079,364.08,1098.5079" style="stroke:#181818;stroke-width:1;"/></g><!--link source_github_workflows_ci_yml to tool_pip--><g class="link" data-entity-1="ent0002" data-entity-2="ent0013" data-link-type="dependency" data-source-line="28" id="lnk23"><path d="M247.54,1143.1079 C308.68,1143.1079 378.72,1143.1079 417.8,1143.1079" fill="none" id="source_github_workflows_ci_yml-to-tool_pip" style="stroke:#181818;stroke-width:1;"/><polygon fill="#181818" points="423.8,1143.1079,414.8,1139.1079,418.8,1143.1079,414.8,1147.1079,423.8,1143.1079" style="stroke:#181818;stroke-width:1;"/></g><!--link source_github_workflows_ci_yml to tool_pre_commit--><g class="link" data-entity-1="ent0002" data-entity-2="ent0014" data-link-type="dependency" data-source-line="29" id="lnk24"><path d="M247.47,1146.9779 C320.24,1146.9779 409.8,1146.9779 409.8,1146.9779 C409.8,1146.9779 409.8,1187.0079 409.8,1216.8579" fill="none" id="source_github_workflows_ci_yml-to-tool_pre_commit" style="stroke:#181818;stroke-width:1;"/><polygon fill="#181818" points="409.8,1222.8579,413.8,1213.8579,409.8,1217.8579,405.8,1213.8579,409.8,1222.8579" style="stroke:#181818;stroke-width:1;"/></g><!--link source_scripts_archility_weekly_sh to tool_ln--><g class="link" data-entity-1="ent0003" data-entity-2="ent0009" data-link-type="dependency" data-source-line="30" id="lnk25"><path d="M123.8,672.5779 C123.8,614.8679 123.8,491.7779 123.8,491.7779 C123.8,491.7779 349.78,491.7779 422.28,491.7779" fill="none" id="source_scripts_archility_weekly_sh-to-tool_ln" style="stroke:#181818;stroke-width:1;"/><polygon fill="#181818" points="428.28,491.7779,419.28,487.7779,423.28,491.7779,419.28,495.7779,428.28,491.7779" style="stroke:#181818;stroke-width:1;"/></g><!--link source_scripts_archility_weekly_sh to tool_log--><g class="link" data-entity-1="ent0003" data-entity-2="ent0010" data-link-type="dependency" data-source-line="31" id="lnk26"><path d="M186.8,672.2279 C186.8,634.9879 186.8,575.7779 186.8,575.7779 C186.8,575.7779 351.84,575.7779 417.98,575.7779" fill="none" id="source_scripts_archility_weekly_sh-to-tool_log" style="stroke:#181818;stroke-width:1;"/><polygon fill="#181818" points="423.98,575.7779,414.98,571.7779,418.98,575.7779,414.98,579.7779,423.98,575.7779" style="stroke:#181818;stroke-width:1;"/></g><!--link source_scripts_archility_weekly_sh to tool_mapfile--><g class="link" data-entity-1="ent0003" data-entity-2="ent0011" data-link-type="dependency" data-source-line="32" id="lnk27"><path d="M250.78,678.5079 C304.61,678.5079 363.12,678.5079 403.75,678.5079" fill="none" id="source_scripts_archility_weekly_sh-to-tool_mapfile" style="stroke:#181818;stroke-width:1;"/><polygon fill="#181818" points="409.75,678.5079,400.75,674.5079,404.75,678.5079,400.75,682.5079,409.75,678.5079" style="stroke:#181818;stroke-width:1;"/></g><!--link source_scripts_archility_weekly_sh to tool_mkdir--><g class="link" data-entity-1="ent0003" data-entity-2="ent0012" data-link-type="dependency" data-source-line="33" id="lnk28"><path d="M250.78,725.0379 C306.96,725.0379 368.76,725.0379 408.93,725.0379" fill="none" id="source_scripts_archility_weekly_sh-to-tool_mkdir" style="stroke:#181818;stroke-width:1;"/><polygon fill="#181818" points="414.93,725.0379,405.93,721.0379,409.93,725.0379,405.93,729.0379,414.93,725.0379" style="stroke:#181818;stroke-width:1;"/></g><!--link source_scripts_archility_weekly_sh to tool_sort--><g class="link" data-entity-1="ent0003" data-entity-2="ent0016" data-link-type="dependency" data-source-line="34" id="lnk29"><path d="M155.8,731.3179 C155.8,768.5579 155.8,827.7779 155.8,827.7779 C155.8,827.7779 341.47,827.7779 415.22,827.7779" fill="none" id="source_scripts_archility_weekly_sh-to-tool_sort" style="stroke:#181818;stroke-width:1;"/><polygon fill="#181818" points="421.22,827.7779,412.22,823.7779,416.22,827.7779,412.22,831.7779,421.22,827.7779" style="stroke:#181818;stroke-width:1;"/></g><!--link source_scripts_archility_weekly_sh to tool_tee--><g class="link" data-entity-1="ent0003" data-entity-2="ent0020" data-link-type="dependency" data-source-line="35" id="lnk30"><path d="M109.8,730.9779 C109.8,788.6779 109.8,911.7779 109.8,911.7779 C109.8,911.7779 338.53,911.7779 417.84,911.7779" fill="none" id="source_scripts_archility_weekly_sh-to-tool_tee" style="stroke:#181818;stroke-width:1;"/><polygon fill="#181818" points="423.84,911.7779,414.84,907.7779,418.84,911.7779,414.84,915.7779,423.84,911.7779" style="stroke:#181818;stroke-width:1;"/></g><!--link source_scripts_install_archility_weekly_systemd_sh to tool_cat--><g class="link" data-entity-1="ent0004" data-entity-2="ent0008" data-link-type="dependency" data-source-line="36" id="lnk31"><path d="M304.86,342.5079 C351.18,342.5079 391.22,342.5079 418.56,342.5079" fill="none" id="source_scripts_install_archility_weekly_systemd_sh-to-tool_cat" style="stroke:#181818;stroke-width:1;"/><polygon fill="#181818" points="424.56,342.5079,415.56,338.5079,419.56,342.5079,415.56,346.5079,424.56,342.5079" style="stroke:#181818;stroke-width:1;"/></g><!--link source_scripts_install_archility_weekly_systemd_sh to tool_systemctl--><g class="link" data-entity-1="ent0004" data-entity-2="ent0018" data-link-type="dependency" data-source-line="37" id="lnk32"><path d="M304.86,389.0379 C340.67,389.0379 370.31,389.0379 397.27,389.0379" fill="none" id="source_scripts_install_archility_weekly_systemd_sh-to-tool_systemctl" style="stroke:#181818;stroke-width:1;"/><polygon fill="#181818" points="403.27,389.0379,394.27,385.0379,398.27,389.0379,394.27,393.0379,403.27,389.0379" style="stroke:#181818;stroke-width:1;"/></g><!--link source_scripts_run_tachometer_profile_sh to tool_run--><g class="link" data-entity-1="ent0005" data-entity-2="ent0015" data-link-type="dependency" data-source-line="38" id="lnk33"><path d="M267.8,126.5179 C267.8,101.4479 267.8,69.3579 267.8,69.3579 C267.8,69.3579 366.24,69.3579 416.83,69.3579" fill="none" id="source_scripts_run_tachometer_profile_sh-to-tool_run" style="stroke:#181818;stroke-width:1;"/><polygon fill="#181818" points="422.83,69.3579,413.83,65.3579,417.83,69.3579,413.83,73.3579,422.83,69.3579" style="stroke:#181818;stroke-width:1;"/></g><!--link source_scripts_run_tachometer_profile_sh to tool_summarize--><g class="link" data-entity-1="ent0005" data-entity-2="ent0017" data-link-type="dependency" data-source-line="39" id="lnk34"><path d="M277,155.7779 C319.22,155.7779 358.36,155.7779 391.89,155.7779" fill="none" id="source_scripts_run_tachometer_profile_sh-to-tool_summarize" style="stroke:#181818;stroke-width:1;"/><polygon fill="#181818" points="397.89,155.7779,388.89,151.7779,392.89,155.7779,388.89,159.7779,397.89,155.7779" style="stroke:#181818;stroke-width:1;"/></g><!--link source_scripts_run_tachometer_profile_sh to tool_tachometer--><g class="link" data-entity-1="ent0005" data-entity-2="ent0019" data-link-type="dependency" data-source-line="40" id="lnk35"><path d="M155.8,185.1579 C155.8,209.3779 155.8,239.7779 155.8,239.7779 C155.8,239.7779 305.34,239.7779 390.1,239.7779" fill="none" id="source_scripts_run_tachometer_profile_sh-to-tool_tachometer" style="stroke:#181818;stroke-width:1;"/><polygon fill="#181818" points="396.1,239.7779,387.1,235.7779,391.1,239.7779,387.1,243.7779,396.1,239.7779" style="stroke:#181818;stroke-width:1;"/></g><?plantuml-src fPN1ZjiW48RlVWgKFJlPxcxRsrwwITL3UqcFAo6AYOs26GHZHUxJTsmdDhAZZPqUP_x_cm4n06eqYg4N4ZNOL8953uRz1Z3Qvko7HPLxqMWXCUg0385vdHV8CkrL2oNXgAqJNfGi52A3KmCUX0agKZ9r49N17TN_9Kh5VeA5u8ICFH9A1rPPt6DDYshA2vkRs4ABKbWxnS1Z0KblOQjrhh6e_cnEu8y70wUmaNfTb-RTlb1p9AFAQF5Wmeg9m09KNYhUGRo7kDIS8FQmVTmzxRPnWo2zTXWsmij26urrUbBgQEfrADxjbmzwd47UWxm3UIW-wgDjG67C5QmEgCgixViqe--jGZVMuIlBKSW2IkhakVDmq4QrtPzdTB-EnpsbWIfZgsu2wTWA9OzGOLkiASlF2hyex66ttJr_-pecWyBAfQwcoR1JkbLvfuuhI16res2icwYUcT06yaY6VAoNmZLx7ZpdnCHtf3iLkPfmx77Q3GuA9hfNT8dBKaSReXplScCt7SvWes2i1xfcWw699ewgB8NNVwFTzQc9jvqtYIRoNb9Zxp0oWtd8JTmgwaz1hz-uvcdwUdt45eFnTCs6wVpcU_j3J6QyAprcx38xv8lyvqbUnZHplOXe1cyHG2EGtF4AzZmz0V_5zsETp7uDUvOiTr3zfRk37UJ40ghBHQ9l_BiNhjYtfUjaBuMrzDI_N5H6NxMl7MYBOPsyNRw2JvyP5jfdANtPM7S_mpfHDcDDzNy0?></g></svg>
